<svg xmlns="http://www.w3.org/2000/svg" fill="none" viewBox="0 0 24 24"><path fill="currentColor" d="m4.025 14.193-.24-.71.24.71ZM2 21h-.75v.75H2V21Zm17.75-5v-.75h-1.5V16h1.5Zm-1.5 6v.75h1.5V22h-1.5ZM16 18.25h-.75v1.5H16v-1.5Zm6 1.5h.75v-1.5H22v1.5ZM11 13v-.75c-2.932 0-5.52.661-7.215 1.232l.24.711.24.71C5.863 14.366 8.284 13.75 11 13.75V13Zm-6.975 1.193-.24-.71a3.74 3.74 0 0 0-2.535 3.549h1.5c0-.966.61-1.822 1.515-2.129l-.24-.71ZM2 17.032h-.75V21h1.5v-3.968H2ZM2 21v.75h10v-1.5H2V21Zm9-8v-.75c-1.076 0-2.129-.636-2.945-1.677C7.241 9.534 6.75 8.194 6.75 7h-1.5c0 1.567.628 3.227 1.624 4.498.994 1.268 2.44 2.252 4.126 2.252V13ZM6 7h.75V6h-1.5v1H6Zm0-1h.75A4.25 4.25 0 0 1 11 1.75V.25A5.75 5.75 0 0 0 5.25 6H6Zm5-5v.75A4.25 4.25 0 0 1 15.25 6h1.5A5.75 5.75 0 0 0 11 .25V1Zm5 5h-.75v1h1.5V6H16Zm0 1h-.75c0 1.194-.491 2.534-1.305 3.573-.816 1.041-1.87 1.677-2.945 1.677v1.5c1.685 0 3.132-.984 4.126-2.252.996-1.271 1.624-2.931 1.624-4.498H16Zm3 9h-.75v6h1.5v-6H19Zm-3 3v.75h6v-1.5h-6V19Z"/></svg>