<svg xmlns="http://www.w3.org/2000/svg" fill="none" viewBox="0 0 24 24"><path fill="currentColor" d="m8.101 5.607-.45-.6-1.2.9.45.6.6-.45.6-.45Zm3.735 6.229-.6.45.225.3h.375v-.75Zm4.334.75h.75v-1.5h-.75v1.5ZM11.836 1h-.75v3.94h1.5V1h-.75ZM23 11.836v-.75h-3.94v1.5H23v-.75ZM11.836 23h.75v-3.94h-1.5V23h.75ZM1 11.836v.75h3.94v-1.5H1v.75ZM23 12h-.75c0 5.66-4.59 10.25-10.25 10.25v1.5c6.49 0 11.75-5.26 11.75-11.75H23ZM12 23v-.75C6.34 22.25 1.75 17.66 1.75 12H.25c0 6.49 5.26 11.75 11.75 11.75V23ZM1 12h.75C1.75 6.34 6.34 1.75 12 1.75V.25C5.51.25.25 5.51.25 12H1ZM12 1v.75c5.66 0 10.25 4.59 10.25 10.25h1.5C23.75 5.51 18.49.25 12 .25V1ZM7.501 6.057l-.6.45 4.335 5.779.6-.45.6-.45L8.1 5.606l-.6.45Zm4.335 5.779v.75h4.334v-1.5h-4.334v.75Z"/></svg>