<svg xmlns="http://www.w3.org/2000/svg" fill="none" viewBox="0 0 24 24"><path fill="currentColor" d="m12 2 .53-.53L12 .94l-.53.53L12 2Zm8 .25h-.75v1.5H20v-1.5ZM23 3h.75v-.75H23V3Zm0 14v.75h.75V17H23ZM1 17H.25v.75H1V17ZM1 3v-.75H.25V3H1Zm3 .75h.75v-1.5H4v1.5Zm3 17.5h-.75v1.5H7v-1.5Zm10 1.5h.75v-1.5H17v1.5ZM12.75 17v-.75h-1.5V17h1.5Zm-1.5 5v.75h1.5V22h-1.5ZM7.47 5.47 6.94 6 8 7.06l.53-.53L8 6l-.53-.53Zm8 1.06.53.53L17.06 6l-.53-.53L16 6l-.53.53ZM12 12h.75V2h-1.5v10H12Zm8-9v.75h3v-1.5h-3V3Zm3 0h-.75v14h1.5V3H23Zm0 14v-.75H1v1.5h22V17ZM1 17h.75V3H.25v14H1ZM1 3v.75h3v-1.5H1V3Zm6 19v.75h10v-1.5H7V22Zm5-5h-.75v5h1.5v-5H12ZM8 6l.53.53 4-4L12 2l-.53-.53-4 4L8 6Zm4-4-.53.53 4 4L16 6l.53-.53-4-4L12 2Z"/></svg>