<svg xmlns="http://www.w3.org/2000/svg" fill="none" viewBox="0 0 24 24"><path fill="currentColor" d="m22.25 16.25.53.53.53-.53-.53-.53-.53.53Zm-4.47-5.53-.53-.53-1.06 1.06.53.53.53-.53.53-.53Zm-1.06 10-.53.53 1.06 1.06.53-.53-.53-.53-.53-.53Zm5.53-4.47v-.75h-14V17h14v-.75Zm-14 0v-.75A6.25 6.25 0 0 1 2 9.25H.5A7.75 7.75 0 0 0 8.25 17v-.75Zm-7-7H2A6.25 6.25 0 0 1 8.25 3V1.5A7.75 7.75 0 0 0 .5 9.25h.75Zm7-7V3h7V1.5h-7v.75Zm9 9-.53.53 5 5 .53-.53.53-.53-5-5-.53.53Zm5 5-.53-.53-5 5 .53.53.53.53 5-5-.53-.53Z"/></svg>