<svg xmlns="http://www.w3.org/2000/svg" fill="none" viewBox="0 0 24 24"><path stroke="currentColor" stroke-linecap="square" stroke-miterlimit="10" vector-effect="non-scaling-stroke" stroke-width="1.5" d="M18.75 12a6 6 0 0 0-6-6v12a6 6 0 0 0 6-6Zm0 0c0-2.9-2.35-5.25-5.25-5.25v10.5c2.9 0 5.25-2.35 5.25-5.25ZM12 23c6.075 0 11-4.925 11-11S18.075 1 12 1 1 5.925 1 12s4.925 11 11 11Zm0-18.875a7.875 7.875 0 0 1 0 15.75V4.125Zm.75 1.125a6.75 6.75 0 0 1 0 13.5V5.25Zm1.5 2.25C16.321 7.5 18 9.515 18 12s-1.679 4.5-3.75 4.5v-9Zm.75.75c1.243 0 2.25 1.679 2.25 3.75 0 2.071-1.007 3.75-2.25 3.75v-7.5Zm.75.75c.414 0 .75 1.343.75 3s-.336 3-.75 3V9Z"/></svg>