<svg xmlns="http://www.w3.org/2000/svg" fill="none" viewBox="0 0 24 24"><path fill="currentColor" d="M20.75 9v-.75h-1.5V9h1.5ZM4 21h-.75H4Zm.75-12v-.75h-1.5V9h1.5ZM1 4.25H.25v1.5H1v-1.5Zm22 1.5h.75v-1.5H23v1.5ZM12.75 12v-.75h-1.5V12h1.5Zm-1.5 6v.75h1.5V18h-1.5Zm-2.5-6v-.75h-1.5V12h1.5Zm-1.5 6v.75h1.5V18h-1.5Zm9.5-6v-.75h-1.5V12h1.5Zm-1.5 6v.75h1.5V18h-1.5ZM8 1V.25h-.75V1H8Zm8 0h.75V.25H16V1Zm-.75 4v.75h1.5V5h-1.5ZM20 9h-.75v12h1.5V9H20Zm0 12h-.75c0 .331-.132.65-.366.884l.53.53.53.53A2.75 2.75 0 0 0 20.75 21H20Zm-.586 1.414-.53-.53a1.25 1.25 0 0 1-.884.366v1.5c.73 0 1.429-.29 1.945-.805l-.53-.53ZM18 23v-.75H6v1.5h12V23ZM6 23v-.75a1.25 1.25 0 0 1-.884-.366l-.53.53-.53.53A2.75 2.75 0 0 0 6 23.75V23Zm-1.414-.586.53-.53A1.25 1.25 0 0 1 4.75 21h-1.5c0 .73.29 1.429.805 1.945l.53-.53ZM4 21h.75V9h-1.5v12H4ZM1 5v.75h22v-1.5H1V5Zm11 7h-.75v6h1.5v-6H12Zm-4 0h-.75v6h1.5v-6H8Zm8 0h-.75v6h1.5v-6H16ZM8 5h.75V1h-1.5v4H8Zm0-4v.75h8V.25H8V1Zm8 0h-.75v4h1.5V1H16Z"/></svg>