<svg xmlns="http://www.w3.org/2000/svg" fill="none" viewBox="0 0 24 24"><path fill="currentColor" d="M9 5.75h.75v-1.5H9v1.5ZM19.75 15v-.75h-1.5V15h1.5ZM11 16l.182.728.201-.05.147-.148L11 16Zm-4 1-.728-.182-.303 1.213 1.213-.303L7 17Zm1-4-.53-.53-.147.146-.05.202L8 13ZM18.293 2.707l-.53-.53.53.53Zm1.414 0-.531.53.531-.53Zm1.586 1.586-.53.53.53-.53Zm0 1.414-.53-.531.53.53ZM9 5v-.75H4v1.5h5V5ZM4 5v-.75A2.75 2.75 0 0 0 1.25 7h1.5c0-.69.56-1.25 1.25-1.25V5ZM2 7h-.75v13h1.5V7H2Zm0 13h-.75A2.75 2.75 0 0 0 4 22.75v-1.5c-.69 0-1.25-.56-1.25-1.25H2Zm2 2v.75h13v-1.5H4V22Zm13 0v.75A2.75 2.75 0 0 0 19.75 20h-1.5c0 .69-.56 1.25-1.25 1.25V22Zm2-2h.75v-5h-1.5v5H19ZM16 5l-.53.53 3 3L19 8l.53-.53-3-3L16 5Zm-5 11-.182-.728-4 1L7 17l.182.728 4-1L11 16Zm-4 1 .728.182 1-4L8 13l-.728-.182-1 4L7 17Zm1-4 .53.53L18.823 3.237l-.53-.53-.53-.53L7.47 12.47 8 13ZM18.293 2.707l.53.53a.249.249 0 0 1 .353 0l.531-.53.531-.53a1.749 1.749 0 0 0-2.475 0l.53.53Zm1.414 0-.53.53 1.586 1.586.53-.53.53-.53-1.586-1.586-.53.53Zm1.586 1.586-.53.53a.249.249 0 0 1 0 .353l.53.53.53.532a1.749 1.749 0 0 0 0-2.475l-.53.53Zm0 1.414-.53-.53L10.47 15.47 11 16l.53.53L21.823 6.237l-.53-.53Z"/></svg>