<svg xmlns="http://www.w3.org/2000/svg" fill="none" viewBox="0 0 24 24"><path fill="currentColor" d="M2 22.25h-.75v1.5H2v-1.5Zm20 1.5h.75v-1.5H22v1.5ZM8 18l.147.735.223-.044.16-.16L8 18Zm-5 1-.735-.147-.221 1.103 1.103-.22L3 19Zm1-5-.53-.53-.16.16-.045.223L4 14ZM16 2l.53-.53L16 .94l-.53.53L16 2Zm4 4 .53.53.53-.53-.53-.53L20 6ZM2 23v.75h20v-1.5H2V23ZM13 5l-.53.53 4 4L17 9l.53-.53-4-4L13 5ZM8 18l-.147-.735-5 1L3 19l.147.735 5-1L8 18Zm-5 1 .735.147 1-5L4 14l-.735-.147-1 5L3 19Zm1-5 .53.53 12-12L16 2l-.53-.53-12 12L4 14ZM16 2l-.53.53 4 4L20 6l.53-.53-4-4L16 2Zm4 4-.53-.53-12 12L8 18l.53.53 12-12L20 6Z"/></svg>