<svg xmlns="http://www.w3.org/2000/svg" fill="none" viewBox="0 0 24 24"><path fill="currentColor" d="M23 15h.75v-.122l-.038-.115L23 15Zm-7 0v-.75h-.75V15H16Zm0 3v.75h.75V18H16Zm-8 0h-.75v.75H8V18Zm0-3h.75v-.75H8V15Zm-7 0-.712-.237-.038.115V15H1Zm11-4-.53.53.53.53.53-.53L12 11Zm6.557-5.75h-.75l.002 1.5h.75L18.558 6v-.75Zm1.901 2.118-.712.237.712-.237ZM1 21H.25 1ZM3.544 7.368l.712.237-.712-.237Zm1.898-.618h.75v-1.5h-.75v1.5ZM15.53 8.53l.53-.53L15 6.94l-.53.53L15 8l.53.53Zm-6-1.06L9 6.94 7.94 8l.53.53L9 8l.53-.53ZM23 15v-.75h-7v1.5h7V15Zm-7 0h-.75v3h1.5v-3H16Zm0 3v-.75H8v1.5h8V18Zm-8 0h.75v-3h-1.5v3H8Zm0-3v-.75H1v1.5h7V15Zm4-14h-.75v10h1.5V1H12Zm6.558 5v.75c.264 0 .52.082.733.236l.438-.61.438-.608a2.75 2.75 0 0 0-1.61-.518l.001.75Zm1.171.377-.438.609c.213.153.372.37.455.619l.712-.237.712-.237a2.75 2.75 0 0 0-1.003-1.363l-.438.609Zm.729.991-.712.237 2.542 7.632L23 15l.712-.237-2.542-7.632-.712.237ZM23 15h-.75v6h1.5v-6H23Zm0 6h-.75c0 .331-.132.65-.366.884l.53.53.53.53A2.75 2.75 0 0 0 23.75 21H23Zm-.586 1.414-.53-.53a1.25 1.25 0 0 1-.884.366v1.5c.73 0 1.429-.29 1.945-.805l-.53-.53ZM21 23v-.75H3v1.5h18V23ZM3 23v-.75a1.25 1.25 0 0 1-.884-.366l-.53.53-.53.53A2.75 2.75 0 0 0 3 23.75V23Zm-1.414-.586.53-.53A1.25 1.25 0 0 1 1.75 21H.25c0 .73.29 1.429.805 1.945l.53-.53ZM1 21h.75v-6H.25v6H1Zm0-6 .712.237 2.544-7.632-.712-.237-.712-.237-2.544 7.632L1 15Zm2.544-7.632.712.237a1.25 1.25 0 0 1 .455-.62l-.439-.607-.438-.609a2.75 2.75 0 0 0-1.002 1.362l.712.237Zm.728-.99.439.608a1.25 1.25 0 0 1 .73-.236L5.443 6v-.75a2.75 2.75 0 0 0-1.608.52l.438.608ZM15 8l-.53-.53-3 3L12 11l.53.53 3-3L15 8Zm-3 3 .53-.53-3-3L9 8l-.53.53 3 3L12 11Z"/></svg>