<svg xmlns="http://www.w3.org/2000/svg" fill="none" viewBox="0 0 24 24"><path fill="currentColor" d="M2.25 22.25H1.5V23h.75v-.75Zm20-20H23V1.5h-.75v.75Zm0 20V23H23v-.75h-.75Zm-20-20V1.5H1.5v.75h.75Zm14-.75h-.75V3h.75V1.5Zm5.25 6.75V9H23v-.75h-1.5ZM8.25 23H9v-1.5h-.75V23ZM3 16.25v-.75H1.5v.75H3Zm-1.5-8V9H3v-.75H1.5ZM8.25 3H9V1.5h-.75V3ZM23 16.25v-.75h-1.5v.75H23Zm-6.75 5.25h-.75V23h.75v-1.5Zm-7-6.25-.53-.53-7 7 .53.53.53.53 7-7-.53-.53Zm13-13-.53-.53-7 7 .53.53.53.53 7-7-.53-.53Zm-7 13-.53.53 7 7 .53-.53.53-.53-7-7-.53.53Zm-13-13-.53.53 7 7 .53-.53.53-.53-7-7-.53.53Zm14 0V3h6V1.5h-6v.75Zm6 0h-.75v6H23v-6h-.75Zm-14 20v-.75h-6V23h6v-.75Zm-6 0H3v-6H1.5v6h.75Zm0-14H3v-6H1.5v6h.75Zm0-6V3h6V1.5h-6v.75Zm20 14h-.75v6H23v-6h-.75Zm0 6v-.75h-6V23h6v-.75Z"/></svg>