<svg xmlns="http://www.w3.org/2000/svg" fill="none" viewBox="0 0 24 24"><path stroke="currentColor" stroke-miterlimit="10" vector-effect="non-scaling-stroke" stroke-width="1.5" d="M12 .75v22.5m0-22.5C8.45.75 5.572 5.787 5.572 12S8.45 23.25 12 23.25m0-22.5c3.55 0 6.428 5.037 6.428 11.25S15.55 23.25 12 23.25m0-22.5C5.787.75.75 5.787.75 12M12 .75C18.213.75 23.25 5.787 23.25 12M12 23.25c6.213 0 11.25-5.037 11.25-11.25M12 23.25C5.787 23.25.75 18.213.75 12m0 0h22.5M2.483 6h19.034M2.483 18h19.034"/></svg>