<svg xmlns="http://www.w3.org/2000/svg" fill="none" viewBox="0 0 24 24"><path fill="currentColor" d="m15.155 15.595-.53-.53-1.06 1.06.53.53.53-.53.53-.53Zm1.158 2.217.53-.53-.53.53Zm.543 1.313h-.75.75Zm-1.074.782-.53.531 1.061 1.06.53-.53-.53-.53-.531-.53ZM0 10.5v.75h1.5v-.75H0Zm.75-9V.75H0v.75h.75Zm7.575 0V.75v.75Zm.58.787.743.096L9.84.895 9.096.8 9 1.544l-.096.743ZM17.78 12.97l-.53-.53-1.06 1.06.53.53.53-.53.53-.53Zm1.739 2.799-.53.53.53-.53Zm0 2.625-.53-.53.53.53Zm-2.095-.53-.53-.53-1.06 1.06.53.53.53-.53.53-.53Zm3.201-1.758v-.75.75Zm1.313-.544.53.531-.53-.53Zm0-2.624.53-.53-.53.53ZM15 6l.53-.53-.46-.46-.52.39.45.6ZM9.825 9.88l.45.6-.45-.6Zm-1.752.158-.335.67v.001l.335-.671Zm-.434-2.679.53.53-.53-.53Zm4.324-4.322.53.531-.53-.53ZM15.675 1.5v.75-.75Zm7.575 0H24V.75h-.75v.75Zm-.75 9v.75H24v-.75h-1.5Zm-7.875 5.625-.53.53 1.687 1.688.53-.53.53-.53-1.687-1.688-.53.53Zm1.688 1.688-.531.53c.207.207.324.489.324.782h1.5a2.61 2.61 0 0 0-.763-1.843l-.53.53Zm.543 1.312h-.75c0 .293-.117.575-.324.782l.53.53.531.53a2.607 2.607 0 0 0 .763-1.842h-.75ZM.75 10.5h.75v-9H0v9h.75Zm0-9v.75h7.575V.75H.75v.75Zm7.575 0v.75c.193 0 .387.013.58.037L9 1.544 9.096.8a6.06 6.06 0 0 0-.77-.05l-.001.75ZM3.673 11.831v.75h.53v-1.5h-.53v.75Zm.53 0v.75c.611 0 1.106.495 1.106 1.107h1.5a2.606 2.606 0 0 0-2.606-2.607v.75Zm1.856 1.857h-.75c0 .61-.495 1.106-1.106 1.106v1.5a2.606 2.606 0 0 0 2.606-2.607h-.75Zm-1.856 1.856v-.75h-.53v1.5h.53v-.75Zm-.53 0v-.75a1.106 1.106 0 0 1-1.107-1.107h-1.5a2.606 2.606 0 0 0 2.607 2.607v-.75Zm-1.857-1.857h.75c0-.61.496-1.106 1.107-1.106v-1.5a2.606 2.606 0 0 0-2.607 2.607h.75Zm4.336.77v.75h.821v-1.5h-.821v.75Zm.821 0v.75c.611 0 1.107.494 1.107 1.105h1.5a2.606 2.606 0 0 0-2.607-2.606v.75Zm1.857 1.855h-.75c0 .611-.496 1.107-1.107 1.107v1.5a2.606 2.606 0 0 0 2.607-2.607h-.75ZM6.973 18.17v-.75h-.821v1.5h.821v-.75Zm-.821 0v-.75a1.106 1.106 0 0 1-1.107-1.107h-1.5a2.606 2.606 0 0 0 2.607 2.607v-.75Zm-1.857-1.857h.75c0-.61.496-1.106 1.107-1.106v-1.5a2.606 2.606 0 0 0-2.607 2.607h.75Zm4.526.871v.75h.53v-1.5h-.53v.75Zm.53 0v.75c.611 0 1.106.495 1.106 1.107h1.5a2.606 2.606 0 0 0-2.606-2.607v.75Zm1.856 1.857h-.75c0 .61-.495 1.106-1.106 1.106v1.5a2.606 2.606 0 0 0 2.606-2.607h-.75Zm-1.856 1.856v-.75h-.53v1.5h.53v-.75Zm-.53 0v-.75a1.106 1.106 0 0 1-1.106-1.107h-1.5a2.606 2.606 0 0 0 2.606 2.607v-.75ZM6.965 19.04h.75c0-.61.495-1.106 1.106-1.106v-1.5a2.606 2.606 0 0 0-2.606 2.607h.75Zm4.305.825v.75h.55v-1.5h-.55v.75Zm.55 0v.75a.84.84 0 0 1 .841.84h1.5a2.34 2.34 0 0 0-2.34-2.34v.75Zm1.591 1.59h-.75a.841.841 0 0 1-.84.842v1.5c1.293 0 2.34-1.05 2.34-2.341h-.75Zm-1.59 1.592v-.75h-.551v1.5h.55v-.75Zm-.551 0v-.75a.84.84 0 0 1-.841-.84h-1.5a2.34 2.34 0 0 0 2.34 2.34v-.75Zm-1.591-1.59h.75c0-.465.377-.842.84-.842v-1.5a2.341 2.341 0 0 0-2.34 2.341h.75ZM17.25 13.5l-.53.53 2.268 2.27.53-.531.531-.53-2.269-2.27-.53.531Zm2.269 2.269-.53.53c.102.103.184.225.24.359l.692-.287.693-.287a2.608 2.608 0 0 0-.565-.846l-.53.53Zm.402.602-.692.287c.055.134.084.278.084.423h1.5c0-.342-.068-.681-.199-.997l-.693.287Zm.142.71h-.75c0 .146-.029.29-.084.424l.692.287.693.287a2.61 2.61 0 0 0 .199-.998h-.75Zm-.142.71-.692-.287a1.107 1.107 0 0 1-.24.36l.53.53.53.53c.242-.242.434-.529.565-.845l-.693-.287Zm-.402.603-.53-.53a1.107 1.107 0 0 1-.36.24l.288.692.287.693a2.59 2.59 0 0 0 .845-.565l-.53-.53Zm-.602.402-.288-.692a1.106 1.106 0 0 1-.423.084v1.5c.343 0 .681-.068.998-.199l-.287-.693Zm-.71.142v-.75c-.146 0-.29-.029-.424-.084l-.287.692-.287.693c.316.131.655.199.997.199v-.75Zm-.711-.142.287-.692a1.107 1.107 0 0 1-.359-.24l-.53.53-.53.53c.241.242.528.434.845.565l.287-.693Zm1.817-3.233-.53.53a2.607 2.607 0 0 0 1.842.763v-1.5c-.293 0-.575-.117-.782-.324l-.53.53Zm1.312.543v.75a2.61 2.61 0 0 0 1.843-.763l-.53-.53-.53-.531a1.107 1.107 0 0 1-.783.324v.75Zm1.313-.544.53.53a2.607 2.607 0 0 0 .763-1.842h-1.5c0 .293-.117.575-.324.782l.53.53Zm.543-1.312h.75a2.61 2.61 0 0 0-.763-1.843l-.53.53-.531.53c.207.208.324.49.324.783h.75Zm-.544-1.313.53-.53L15.53 5.47 15 6l-.53.53 6.937 6.938.53-.53ZM15 6l-.45-.6-5.175 3.88.45.6.45.6L15.45 6.6 15 6ZM9.825 9.88l-.45-.6a.924.924 0 0 1-.471.18l.067.748.068.746c.448-.04.876-.204 1.236-.474l-.45-.6Zm-.854.328-.067-.747a.924.924 0 0 1-.496-.094l-.335.671-.335.671c.402.201.853.286 1.3.245l-.067-.746Zm-.898-.17.335-.67a.922.922 0 0 1-.33-.28l-.605.445-.604.444c.228.31.525.56.869.732l.335-.671Zm-.6-.505.605-.445a.922.922 0 0 1-.168-.398l-.74.12-.74.12c.061.379.212.738.44 1.047l.603-.444ZM7.17 8.81l.74-.12a.923.923 0 0 1 .033-.432l-.714-.23-.713-.23A2.422 2.422 0 0 0 6.43 8.93l.74-.12Zm.06-.782.713.23a.923.923 0 0 1 .226-.368l-.53-.531-.53-.53a2.422 2.422 0 0 0-.593.968l.713.23Zm.409-.669.53.53 4.324-4.321-.53-.53-.53-.531-4.324 4.322.53.53Zm4.324-4.322.53.53a4.5 4.5 0 0 1 1.46-.975l-.287-.692-.287-.693a6 6 0 0 0-1.947 1.3l.53.53ZM13.665 1.9l.287.692a4.5 4.5 0 0 1 1.722-.342V.75a6 6 0 0 0-2.296.457l.287.693Zm2.009-.4v.75h7.575V.75h-7.575v.75Zm7.575 0h-.75v9H24v-9h-.75Z"/></svg>