<svg xmlns="http://www.w3.org/2000/svg" fill="none" viewBox="0 0 24 24"><path fill="currentColor" d="M3.75.75H3v1.5h.75V.75Zm16.5 1.5H21V.75h-.75v1.5Zm-16.5 19.5H3v1.5h.75v-1.5Zm16.5 1.5H21v-1.5h-.75v1.5Zm-1.5-18.54H18h.75Zm-.684 2.384-.636-.397.636.397ZM15 12l-.636-.398-.248.398.248.398L15 12Zm3.066 4.906-.636.397.636-.397Zm.684 2.385H18h.75Zm-13.5 0H6h-.75Zm.684-2.385.636.397-.636-.397ZM9 12l.636.398.248-.398-.248-.398L9 12ZM5.934 7.094l.636-.397-.636.397ZM5.25 4.71H6h-.75Zm3 14.791H7.5v.75h.75v-.75Zm0-.21H9v-.001l-.75.002Zm.225-.793-.636-.398-.002.002.638.396Zm2.889-4.622.636.398.002-.003-.638-.395Zm1.275 0-.637.395v.002l.637-.397Zm2.886 4.62.638-.394-.002-.003-.636.398Zm.225.796-.75-.003v.003h.75Zm0 .209v.75h.75v-.75h-.75ZM9 18.75h-.75v.75H9v-.75Zm0-.157h.75v-.003l-.75.003Zm.18-.598-.625-.415-.001.002.626.413Zm2.311-3.478.625.415.002-.002-.627-.413Zm1.02 0-.626.413.001.002.625-.415Zm2.309 3.477.626-.412-.001-.003-.625.415Zm.18.599-.75-.003v.003H15Zm0 .157v.75h.75v-.75H15ZM9.75 18H9v.75h.75V18Zm0-.105h.75v-.002l-.75.002Zm.135-.398-.6-.45-.003.003.603.447Zm1.733-2.319.601.45.002-.003-.603-.447Zm.765 0-.602.447.002.002.6-.449Zm1.732 2.318.602-.446-.001-.003-.601.45Zm.135.399-.75-.003v.003h.75Zm0 .105v.75H15V18h-.75Zm-3.75 0h-.75v.75h.75V18Zm0-.079h.75v-.002l-.75.002Zm.09-.299-.625-.415-.001.003.626.412Zm1.156-1.739.624.416.002-.003-.626-.412Zm.51 0-.627.413.002.002.625-.414Zm1.154 1.74.626-.414-.001-.002-.625.415Zm.09.298-.75-.002v.002h.75Zm0 .079v.75h.75V18h-.75Zm-2.25-.75h-.75V18h.75v-.75Zm0-.026H12v-.003l-.75.003Zm.045-.1-.531-.53-.002.003.533.527Zm.578-.58.531.53.002-.002-.533-.527Zm.255 0-.534.528.002.002.532-.53Zm.577.58.533-.527-.002-.002-.531.529Zm.045.1L12 17.22v.004h.75Zm0 .026V18h.75v-.75h-.75Zm-9-15.75v.75h16.5V.75H3.75v.75Zm0 21v.75h16.5v-1.5H3.75v.75Zm15-21H18v3.21h1.5V1.5h-.75Zm0 3.21H18a3.75 3.75 0 0 1-.57 1.987l.636.397.636.398a5.25 5.25 0 0 0 .798-2.783h-.75Zm-.684 2.384-.636-.397-3.066 4.905L15 12l.636.398 3.066-4.906-.636-.398ZM15 12l-.636.398 3.066 4.905.636-.397.636-.398-3.066-4.905L15 12Zm3.066 4.906-.636.397a3.75 3.75 0 0 1 .57 1.988h1.5a5.25 5.25 0 0 0-.798-2.783l-.636.398Zm.684 2.385H18V22.5h1.5v-3.21h-.75ZM5.25 22.5H6v-3.21H4.5v3.21h.75Zm0-3.21H6c0-.702.198-1.39.57-1.987l-.636-.397-.636-.398a5.25 5.25 0 0 0-.798 2.783h.75Zm.684-2.384.636.397 3.066-4.905L9 12l-.636-.398-3.066 4.906.636.398ZM9 12l.636-.398L6.57 6.697l-.636.397-.636.398 3.066 4.906L9 12ZM5.934 7.094l.636-.397A3.75 3.75 0 0 1 6 4.709H4.5c0 .984.277 1.948.798 2.783l.636-.398ZM5.25 4.71H6V1.5H4.5v3.21h.75Zm3 14.791H9v-.21H7.5v.21h.75Zm0-.21L9 19.29a.75.75 0 0 1 .113-.397l-.638-.395-.637-.396a2.25 2.25 0 0 0-.338 1.192l.75-.002Zm.225-.793.636.397L12 14.273l-.636-.398-.636-.398L7.839 18.1l.636.398Zm2.889-4.622.637.395-.364-.655-.365-.655a1.504 1.504 0 0 0-.546.52l.638.395Zm.273-.26.364.655v-1.5c-.255 0-.506.065-.73.19l.366.655ZM12 13.52v.75l.365-.655.365-.655a1.499 1.499 0 0 0-.73-.19v.75Zm.365.095-.364.655.637-.395.638-.395a1.499 1.499 0 0 0-.546-.52l-.365.655Zm.273.26-.636.397 2.886 4.621.636-.397.636-.398-2.886-4.62-.636.397Zm2.886 4.62-.638.396a.75.75 0 0 1 .113.397l.75.003.75.002a2.25 2.25 0 0 0-.337-1.192l-.638.395Zm.225.796H15v.209h1.5v-.21h-.75Zm0 .209v-.75h-7.5v1.5h7.5v-.75ZM9 18.75h.75v-.157h-1.5v.157H9Zm0-.157.75-.003a.33.33 0 0 1 .056-.183l-.626-.412-.626-.413a1.83 1.83 0 0 0-.304 1.013l.75-.002Zm.18-.598.625.415 2.31-3.478-.624-.415-.624-.415-2.312 3.478.625.415Zm2.311-3.478.627.413a.165.165 0 0 1-.06.056l-.349-.665-.348-.664c-.198.104-.37.256-.496.447l.626.413Zm.218-.196.348.665a.12.12 0 0 1-.056.014v-1.5a1.38 1.38 0 0 0-.64.157l.348.664Zm.292-.071V15a.12.12 0 0 1-.056-.014l.348-.665.348-.664a1.38 1.38 0 0 0-.64-.157v.75Zm.292.071-.348.665a.165.165 0 0 1-.06-.056l.626-.413.627-.412a1.335 1.335 0 0 0-.497-.448l-.348.664Zm.218.196-.625.415 2.31 3.477.624-.415.625-.415-2.309-3.477-.625.415Zm2.309 3.477-.626.413a.33.33 0 0 1 .056.183l.75.003.75.002a1.83 1.83 0 0 0-.304-1.013l-.626.412Zm.18.599h-.75v.157h1.5v-.157H15Zm0 .157V18H9v1.5h6v-.75ZM9.75 18h.75v-.105H9V18h.75Zm0-.105.75-.002a.111.111 0 0 1-.006.035.056.056 0 0 1-.006.015l-.603-.446-.603-.447a1.413 1.413 0 0 0-.282.848l.75-.003Zm.135-.398.6.449 1.734-2.319-.6-.449-.601-.449-1.734 2.319.601.449Zm1.733-2.319.603.447a.325.325 0 0 1-.123.102l-.316-.68-.316-.68c-.17.08-.329.2-.45.364l.602.447Zm.164-.13.316.68a.23.23 0 0 1-.097.022v-1.5a1.27 1.27 0 0 0-.535.118l.316.68Zm.219-.048v.75a.23.23 0 0 1-.098-.023l.317-.68.316-.68a1.27 1.27 0 0 0-.535-.117V15Zm.219.047-.317.68a.325.325 0 0 1-.122-.102l.602-.447.603-.447a1.174 1.174 0 0 0-.45-.363l-.316.68Zm.163.131-.6.449 1.731 2.318.601-.449.6-.449-1.73-2.318-.602.45Zm1.732 2.318-.603.447-.006-.015a.11.11 0 0 1-.006-.036l.75.003.75.003a1.413 1.413 0 0 0-.283-.848l-.602.446Zm.135.399h-.75V18H15v-.105h-.75Zm0 .105v-.75h-4.5v1.5h4.5V18Zm-3.75 0h.75v-.079h-1.5V18h.75Zm0-.079.75-.002a.211.211 0 0 1-.034.116l-.626-.413-.626-.412a1.29 1.29 0 0 0-.214.713l.75-.002Zm.09-.299.625.416 1.155-1.74-.624-.414-.625-.416-1.156 1.74.625.414Zm1.156-1.739.626.413a.456.456 0 0 1-.17.154l-.347-.664-.348-.665c-.154.08-.289.2-.388.35l.627.412Zm.109-.097.348.664a.435.435 0 0 1-.202.05V15c-.17 0-.34.04-.494.121l.348.665ZM12 15.75v.75a.435.435 0 0 1-.202-.05l.348-.664.348-.665A1.065 1.065 0 0 0 12 15v.75Zm.146.036-.348.664a.456.456 0 0 1-.17-.154l.627-.412.626-.413a1.043 1.043 0 0 0-.387-.35l-.348.665Zm.109.098-.625.414 1.154 1.739.625-.415.625-.415-1.155-1.738-.624.415Zm1.154 1.738-.626.413a.21.21 0 0 1-.034-.116l.75.002.75.003a1.29 1.29 0 0 0-.214-.715l-.626.413Zm.09.3h-.75V18h1.5v-.079h-.75Zm0 .078v-.75h-3v1.5h3V18Zm-2.25-.75H12v-.026h-1.5v.026h.75Zm0-.026.75-.003a.61.61 0 0 1-.172.43l-.533-.527-.533-.527a.89.89 0 0 0-.262.63l.75-.003Zm.045-.1.531.53.578-.58-.531-.53-.531-.529-.578.58.531.53Zm.578-.58.533.528a.608.608 0 0 1-.232.148l-.247-.708-.247-.708a.89.89 0 0 0-.34.213l.533.527Zm.054-.032.248.708a.527.527 0 0 1-.175.03v-1.5a.973.973 0 0 0-.32.054l.247.708ZM12 16.5v.75a.527.527 0 0 1-.174-.03l.247-.708.247-.708a.973.973 0 0 0-.32-.054v.75Zm.073.012-.247.708a.61.61 0 0 1-.232-.148l.534-.527.533-.528a.89.89 0 0 0-.34-.213l-.248.708Zm.055.032-.532.53.578.58.531-.53.531-.53-.577-.579-.531.53Zm.577.58-.533.527A.61.61 0 0 1 12 17.22l.75.004.75.004a.89.89 0 0 0-.262-.631l-.533.527Zm.045.1H12v.026h1.5v-.026h-.75Zm0 .026v-.75h-1.5V18h1.5v-.75Z"/></svg>