<svg xmlns="http://www.w3.org/2000/svg" fill="none" viewBox="0 0 24 24"><path fill="currentColor" d="m22.72 2.406.53-.53-1.06-1.06-.53.53.53.53.53.53Zm-6.978 4.858-.53.53 1.06 1.061.53-.53-.53-.53-.53-.53Zm4.199 1.66h.75v-1.5h-.75v1.5Zm-4.048-.75h-.75v.75h.75v-.75Zm.75-4.049v-.75h-1.5v.75h1.5Zm-1.06 10.389.586.469-.585-.469Zm-1.742 2.175-.38.647a.75.75 0 0 0 .966-.178l-.586-.469ZM7.31 10.156l-.47-.585a.75.75 0 0 0-.177.966l.647-.38Zm2.175-1.742-.469-.585.469.585ZM9.91 6.66l-.685.304.685-.304ZM7.925 2.19l-.686.303.686-.304ZM6.2 1.358l.189.726-.189-.726Zm-3.776.983-.19-.726.19.726ZM1.327 3.984l-.743.103v.001l.743-.104Zm18.689 18.69-.104.743h.002l.102-.743Zm1.644-1.099.726.19v-.001l-.726-.189Zm.98-3.778-.726-.189.726.189Zm-.832-1.725.305-.686-.305.686Zm-4.469-1.985-.305.685.305-.685ZM22.19 1.876l-.53-.53-5.918 5.918.53.53.53.531 5.919-5.919-.53-.53Zm-2.249 6.298v-.75h-4.048v1.5h4.048v-.75Zm-4.048 0h.75V4.125h-1.5v4.049h.75Zm-.31 6.34-.585-.469-1.742 2.175.585.469.586.469 1.742-2.175-.585-.469Zm-1.742 2.175.38-.647a17.63 17.63 0 0 1-6.266-6.266l-.646.38-.647.38a19.13 19.13 0 0 0 6.8 6.8l.38-.647ZM7.31 10.156l.469.586L9.953 9l-.47-.586-.468-.585L6.84 9.57l.469.585Zm2.175-1.742L9.952 9c.385-.308.657-.735.774-1.213l-.73-.178-.728-.177a.729.729 0 0 1-.253.397l.469.585Zm.513-.805.729.178a2.229 2.229 0 0 0-.13-1.433l-.685.304-.685.305c.065.147.08.312.042.469l.729.177Zm-.086-.95.686-.305-1.986-4.47-.685.304-.685.305 1.985 4.47.685-.304Zm-1.985-4.47.686-.304A2.229 2.229 0 0 0 7.542.78l-.326.676-.325.675c.155.075.28.203.35.361l.685-.304Zm-.71-.733L7.542.78a2.229 2.229 0 0 0-1.53-.149l.189.726.19.726a.729.729 0 0 1 .5.048l.325-.675Zm-1.015-.1-.19-.724-3.776.983.189.726.189.726 3.776-.983-.189-.726Zm-3.776.984-.19-.726c-.53.139-.991.467-1.295.923l.623.416.624.417c.1-.15.252-.259.427-.304l-.19-.726Zm-.862.613L.94 2.537a2.238 2.238 0 0 0-.356 1.55l.743-.103.743-.103a.738.738 0 0 1 .117-.511l-.624-.417Zm-.236 1.031-.743.104a22.707 22.707 0 0 0 6.43 12.899l.53-.53.53-.531A21.206 21.206 0 0 1 2.07 3.88l-.742.104Zm6.217 12.472-.53.53a22.707 22.707 0 0 0 12.898 6.43l.104-.742.104-.743a21.206 21.206 0 0 1-12.046-6.005l-.53.53Zm12.472 6.218-.102.743a2.239 2.239 0 0 0 1.55-.357l-.417-.623-.417-.624a.74.74 0 0 1-.512.118l-.102.743Zm1.03-.237.417.623a2.24 2.24 0 0 0 .923-1.295l-.726-.19-.726-.19a.74.74 0 0 1-.304.428l.417.624Zm.614-.862.726.189.98-3.779-.726-.188-.726-.189-.98 3.779.726.188Zm.98-3.778.726.188a2.23 2.23 0 0 0-.15-1.53l-.675.327-.676.325a.73.73 0 0 1 .05.501l.725.189Zm-.1-1.015.676-.326a2.23 2.23 0 0 0-1.103-1.07l-.305.686-.304.685a.73.73 0 0 1 .361.35l.676-.325Zm-.732-.71.305-.686-4.47-1.984-.304.685-.304.686 4.47 1.984.303-.685Zm-4.469-1.985.306-.685c-.45-.2-.954-.246-1.433-.13l.177.729.177.729a.728.728 0 0 1 .468.042l.305-.685Zm-.95-.086-.177-.729a2.23 2.23 0 0 0-1.214.773l.586.469.585.469a.73.73 0 0 1 .397-.253L16.39 14Z"/></svg>