<svg xmlns="http://www.w3.org/2000/svg" fill="none" viewBox="0 0 24 24"><path fill="currentColor" d="m16 12 .53.53.53-.53-.53-.53L16 12Zm-4.47-5.53L11 5.94 9.94 7l.53.53L11 7l.53-.53Zm-1.06 10-.53.53L11 18.06l.53-.53L11 17l-.53-.53ZM10 .25h-.75v1.5H10V.25ZM22 1h.75V.25H22V1Zm0 22v.75h.75V23H22Zm-12-.75h-.75v1.5H10v-1.5ZM1 12v.75h15v-1.5H1V12Zm10-5-.53.53 5 5L16 12l.53-.53-5-5L11 7Zm5 5-.53-.53-5 5L11 17l.53.53 5-5L16 12ZM10 1v.75h12V.25H10V1Zm12 0h-.75v22h1.5V1H22Zm0 22v-.75H10v1.5h12V23Z"/></svg>