<svg xmlns="http://www.w3.org/2000/svg" fill="none" viewBox="0 0 24 24"><path stroke="currentColor" stroke-linecap="round" stroke-linejoin="round" vector-effect="non-scaling-stroke" stroke-width="1.5" d="M10.075 13.923c-.904-.94-1.7-1.976-2.375-3.091l2.11-2.141A.918.918 0 0 0 10 7.686L7.8 2.558a.918.918 0 0 0-1.078-.525L2.688 3.1A.919.919 0 0 0 2 4.016a19.4 19.4 0 0 0 5.49 12.493M10 18.577A19.387 19.387 0 0 0 19.986 22a.915.915 0 0 0 .917-.687l1.066-4.036a.917.917 0 0 0-.524-1.078L16.316 14a.917.917 0 0 0-1.008.189L13.167 16.3s-.183-.106-.477-.3M2 22 22 2"/></svg>