<svg xmlns="http://www.w3.org/2000/svg" fill="none" viewBox="0 0 24 24"><path stroke="currentColor" stroke-linecap="square" stroke-miterlimit="10" vector-effect="non-scaling-stroke" stroke-width="1.5" d="M15.308 14.188 13.167 16.3a17.371 17.371 0 0 1-3.092-2.375c-.904-.94-1.7-1.977-2.375-3.093l2.11-2.141A.918.918 0 0 0 10 7.686L7.8 2.558a.918.918 0 0 0-1.078-.525L2.688 3.1A.919.919 0 0 0 2 4.016 19.4 19.4 0 0 0 7.49 16.51 19.4 19.4 0 0 0 19.986 22a.915.915 0 0 0 .917-.687l1.066-4.036a.917.917 0 0 0-.524-1.078L16.316 14a.917.917 0 0 0-1.008.188Z"/></svg>