<svg xmlns="http://www.w3.org/2000/svg" fill="none" viewBox="0 0 24 24"><path fill="currentColor" d="m22.667 2.097.096-.744-1.487-.193-.097.743.744.097.744.097Zm-1.513 5.826-.097.744.744.096.097-.743-.744-.097ZM15.327 6.41l-.743-.096L14.39 7.8l.744.097.097-.744.096-.744ZM1.333 21.903l-.096.744 1.487.193.097-.743L2.077 22l-.744-.097Zm1.513-5.826.097-.744-.744-.096-.097.743.744.097Zm5.827 1.513.743.096.194-1.487-.744-.097-.097.744-.096.744ZM2 12h.75A9.23 9.23 0 0 1 12 2.75v-1.5A10.73 10.73 0 0 0 1.25 12H2ZM12 2v.75c3.701 0 6.973 2.208 8.392 5.4l.685-.304.685-.304C20.104 3.812 16.3 1.25 12 1.25V2Zm10 10h-.75A9.23 9.23 0 0 1 12 21.25v1.5A10.73 10.73 0 0 0 22.75 12H22ZM12 22v-.75c-3.701 0-6.973-2.208-8.392-5.4l-.685.304-.685.305C3.896 20.189 7.7 22.75 12 22.75V22Zm9.923-20-.744-.097-.769 5.923.744.097.744.097.769-5.923L21.923 2Zm-.77 5.923.097-.744-5.923-.769-.096.744-.097.744 5.923.769.097-.744ZM2.078 22l.744.097.769-5.924-.744-.096-.744-.097-.769 5.923.744.097Zm.77-5.923-.097.744 5.923.769.096-.744.097-.744-5.923-.769-.097.744Z"/></svg>