<svg xmlns="http://www.w3.org/2000/svg" fill="none" viewBox="0 0 24 24"><path fill="currentColor" d="M19.5 14.25v-.75H18v.75h1.5Zm-.75 8.25v.75h.75v-.75h-.75Zm-17.25 0H.75v.75h.75v-.75Zm0-17.25V4.5H.75v.75h.75Zm6 .75h.75V4.5H7.5V6Zm2.25 7.5H9h.75Zm7.5-7.5v-.75V6Zm5.25 0 .53.53.53-.53-.53-.53-.53.53Zm-5.03 3.97-.53.53L18 11.56l.53-.53-.53-.53-.53-.53Zm1.06-9L18 .44 16.94 1.5l.53.53.53-.53.53-.53Zm.22 13.28H18v8.25h1.5v-8.25h-.75Zm0 8.25v-.75H1.5v1.5h17.25v-.75Zm-17.25 0h.75V5.25H.75V22.5h.75Zm0-17.25V6h6V4.5h-6v.75ZM9.75 15h.75v-1.5H9V15h.75Zm0-1.5h.75a6.75 6.75 0 0 1 1.977-4.773l-.53-.53-.53-.53A8.25 8.25 0 0 0 9 13.5h.75Zm2.197-5.303.53.53A6.75 6.75 0 0 1 17.25 6.75v-1.5a8.25 8.25 0 0 0-5.834 2.416l.53.53ZM17.25 6v.75h5.25v-1.5h-5.25V6Zm.75 4.5.53.53 4.5-4.5L22.5 6l-.53-.53-4.5 4.5.53.53ZM22.5 6l.53-.53-4.5-4.5-.53.53-.53.53 4.5 4.5.53-.53Z"/></svg>