<svg xmlns="http://www.w3.org/2000/svg" fill="none" viewBox="0 0 24 24"><path fill="currentColor" d="m12 2 .53-.53L12 .94l-.53.53L12 2ZM7.97 4.97l-.53.53L8.5 6.56l.53-.53-.53-.53-.53-.53Zm7 1.06.53.53 1.06-1.06-.53-.53-.53.53-.53.53ZM17 8.25h-.75v1.5H17v-1.5ZM20 9h.75v-.75H20V9Zm0 13v.75h.75V22H20ZM4 22h-.75v.75H4V22ZM4 9v-.75h-.75V9H4Zm3 .75h.75v-1.5H7v1.5ZM12 2h-.75v14h1.5V2H12ZM8.5 5.5l.53.53 3.5-3.5L12 2l-.53-.53-3.5 3.5.53.53ZM12 2l-.53.53 3.5 3.5.53-.53.53-.53-3.5-3.5L12 2Zm5 7v.75h3v-1.5h-3V9Zm3 13v-.75H4v1.5h16V22ZM4 9v.75h3v-1.5H4V9Zm0 13h.75V9h-1.5v13H4ZM20 9h-.75v13h1.5V9H20Z"/></svg>