<svg xmlns="http://www.w3.org/2000/svg" fill="none" viewBox="0 0 24 24"><path stroke="currentColor" stroke-linecap="square" stroke-miterlimit="10" vector-effect="non-scaling-stroke" stroke-width="1.5" d="M4.49 14.04v7.52h15.02v-7.52m-9.56 7.52V16.1h4.1v5.46m4.1-19.12H5.85L1.77 8.59a3.065 3.065 0 0 0 3.05 2.73c.93-.02 1.8-.44 2.39-1.16.58.73 1.46 1.16 2.39 1.16a3.12 3.12 0 0 0 2.39-1.16 3.12 3.12 0 0 0 2.39 1.16c.93 0 1.81-.43 2.39-1.16.59.72 1.46 1.14 2.39 1.16 1.57 0 2.88-1.18 3.05-2.73 0 0-1.657-2.49-2.71-4.09-.529-.804-1.35-2.06-1.35-2.06Z"/></svg>