<svg xmlns="http://www.w3.org/2000/svg" fill="none" viewBox="0 0 24 24"><path fill="currentColor" d="M18.75 11v-.75h-1.5V11h1.5ZM18 22l-.45.6 1.2.9V22H18Zm-5.737-5.24-.6-.45-.9 1.2.6.45.45-.6.45-.6ZM2 16h-.75v.75H2V16Zm0-8v-.75h-.75V8H2Zm8 0v.75h.25l.2-.15L10 8Zm8-6h.75V.5l-1.2.9.45.6Zm0 9h-.75v11h1.5V11H18Zm0 11 .45-.6-6.187-4.64-.45.6-.45.6 6.187 4.64.45-.6ZM8 16v-.75H2v1.5h6V16Zm-6 0h.75V8h-1.5v8H2Zm0-8v.75h8v-1.5H2V8Zm8 0 .45.6 8-6L18 2l-.45-.6-8 6L10 8Zm8-6h-.75v4h1.5V2H18Zm5-1-.53-.53-22 22L1 23l.53.53 22-22L23 1Z"/></svg>