<svg xmlns="http://www.w3.org/2000/svg" fill="none" viewBox="0 0 16 16"><g fill="currentColor"><path d="M6.62 2.043c.143-.597.991-.597 1.133 0l.614 2.583a4.001 4.001 0 0 0 2.94 2.964l2.623.64c.596.147.59.999-.008 1.136l-2.558.586a4.001 4.001 0 0 0-3 2.99l-.61 2.608c-.14.6-.993.6-1.134 0l-.61-2.608a4.001 4.001 0 0 0-3-2.99L.451 9.366c-.598-.137-.604-.99-.008-1.135l2.622-.641a4.001 4.001 0 0 0 2.941-2.964l.614-2.583ZM13.049.282c.09-.376.624-.376.713 0l.152.637a1.573 1.573 0 0 0 1.156 1.165l.65.159c.376.092.372.629-.005.715l-.623.143a1.573 1.573 0 0 0-1.18 1.176l-.15.64c-.088.377-.625.377-.713 0l-.15-.64A1.573 1.573 0 0 0 11.72 3.1l-.623-.143c-.377-.086-.38-.623-.005-.715l.65-.159c.574-.14 1.02-.59 1.157-1.165l.151-.637Z"/></g></svg>