<svg xmlns="http://www.w3.org/2000/svg" fill="none" viewBox="0 0 32 32"><defs><linearGradient id="b" x1="32" x2="0" y1=".084" y2="32.084" gradientUnits="userSpaceOnUse"><stop stop-color="#0054F0"/><stop offset=".716" stop-color="#217331"/></linearGradient><linearGradient id="c" x1="32" x2="0" y1=".084" y2="32.084" gradientUnits="userSpaceOnUse"><stop stop-color="#0054F0"/><stop offset=".716" stop-color="#217331"/></linearGradient><clipPath id="a"><path fill="#fff" d="M0 0h32v32H0z"/></clipPath></defs><path fill="url(#b)" d="M13.242 4.086c.283-1.195 1.98-1.195 2.264 0l1.227 5.166a8.003 8.003 0 0 0 5.883 5.928l5.244 1.282c1.193.291 1.18 1.996-.017 2.27l-5.114 1.172a8.003 8.003 0 0 0-6.002 5.98l-1.22 5.216c-.28 1.2-1.986 1.2-2.266 0l-1.22-5.215a8.003 8.003 0 0 0-6.002-5.981L.905 18.732c-1.198-.274-1.21-1.979-.017-2.27l5.244-1.282a8.003 8.003 0 0 0 5.882-5.928l1.228-5.166Z"/><path fill="url(#c)" d="M26.098.565c.179-.753 1.248-.753 1.427 0l.302 1.272a3.147 3.147 0 0 0 2.313 2.331l1.3.318c.752.184.744 1.258-.01 1.43l-1.245.286a3.147 3.147 0 0 0-2.36 2.352l-.3 1.279c-.176.756-1.25.756-1.428 0l-.299-1.28a3.147 3.147 0 0 0-2.36-2.351l-1.245-.285c-.755-.173-.762-1.247-.01-1.431l1.3-.318a3.147 3.147 0 0 0 2.313-2.33l.302-1.273Z"/></svg>