<svg xmlns="http://www.w3.org/2000/svg" fill="none" viewBox="0 0 32 32"><path fill="currentColor" d="M17.75 1V.25h-1.5V1h1.5ZM17 12l-.45.6 1.2.9V12H17Zm-4-3 .45-.6-.45-.338-.45.338.45.6Zm-4 3h-.75v1.5l1.2-.9L9 12Zm.75-11V.25h-1.5V1h1.5ZM4 31h-.75v.75H4V31ZM4 1V.25h-.75V1H4Zm13 0h-.75v11h1.5V1H17Zm0 11 .45-.6-4-3L13 9l-.45.6 4 3L17 12Zm-4-3-.45-.6-4 3L9 12l.45.6 4-3L13 9Zm-4 3h.75V1h-1.5v11H9ZM23 1h-.75v30h1.5V1H23Zm3 30v-.75H4v1.5h22V31ZM4 31h.75V1h-1.5v30H4ZM4 1v.75h22V.25H4V1Zm22 0v.75c.331 0 .65.132.884.366l.53-.53.53-.53A2.75 2.75 0 0 0 26 .25V1Zm1.414.586-.53.53c.234.235.366.552.366.884h1.5c0-.73-.29-1.429-.805-1.945l-.53.53ZM28 3h-.75v26h1.5V3H28Zm0 26h-.75c0 .331-.132.65-.366.884l.53.53.53.53A2.75 2.75 0 0 0 28.75 29H28Zm-.586 1.414-.53-.53a1.25 1.25 0 0 1-.884.366v1.5c.73 0 1.429-.29 1.945-.805l-.53-.53Z"/></svg>