<svg xmlns="http://www.w3.org/2000/svg" fill="none" viewBox="0 0 32 32"><path fill="currentColor" d="M26 5.25h-.75v1.5H26v-1.5ZM30 6l.743.1.114-.85H30V6Zm-2 15v.75h.657l.086-.65L28 21ZM8 21l-.742.111.096.639H8V21ZM5 1l.742-.111L5.646.25H5V1ZM2 .25h-.75v1.5H2V.25ZM20 6h.75v-.75H20V6Zm-9 0-.53-.53-.53.53.53.53L11 6Zm3.47 4.53.53.53L16.06 10l-.53-.53L15 10l-.53.53Zm1.06-8 .53-.53L15 .94l-.53.53L15 2l.53.53ZM13 28h-.75A2.25 2.25 0 0 1 10 30.25v1.5A3.75 3.75 0 0 0 13.75 28H13Zm-3 3v-.75A2.25 2.25 0 0 1 7.75 28h-1.5A3.75 3.75 0 0 0 10 31.75V31Zm-3-3h.75A2.25 2.25 0 0 1 10 25.75v-1.5A3.75 3.75 0 0 0 6.25 28H7Zm3-3v.75A2.25 2.25 0 0 1 12.25 28h1.5A3.75 3.75 0 0 0 10 24.25V25Zm20 3h-.75A2.25 2.25 0 0 1 27 30.25v1.5A3.75 3.75 0 0 0 30.75 28H30Zm-3 3v-.75A2.25 2.25 0 0 1 24.75 28h-1.5A3.75 3.75 0 0 0 27 31.75V31Zm-3-3h.75A2.25 2.25 0 0 1 27 25.75v-1.5A3.75 3.75 0 0 0 23.25 28H24Zm3-3v.75A2.25 2.25 0 0 1 29.25 28h1.5A3.75 3.75 0 0 0 27 24.25V25ZM26 6v.75h4v-1.5h-4V6Zm4 0-.743-.1-2 15L28 21l.743.1 2-15L30 6Zm-2 15v-.75H8v1.5h20V21ZM8 21l.742-.111-3-20L5 1l-.742.111 3 20L8 21ZM5 1V.25H2v1.5h3V1Zm15 14h.75V6h-1.5v9H20Zm0-9v-.75h-9v1.5h9V6Zm-5 4 .53-.53-4-4L11 6l-.53.53 4 4L15 10Zm-4-4 .53.53 4-4L15 2l-.53-.53-4 4L11 6Z"/></svg>