<svg xmlns="http://www.w3.org/2000/svg" fill="none" viewBox="0 0 32 32"><path stroke="currentColor" stroke-linecap="square" stroke-miterlimit="10" vector-effect="non-scaling-stroke" stroke-width="1.5" d="M13.312 16.959c-.748.27-1.54.402-2.335.389a3.729 3.729 0 0 1-2.952-1.165 4.869 4.869 0 0 1-1.03-3.335 5.387 5.387 0 0 1 .5-2.389A3.562 3.562 0 0 1 8.94 8.89a4.377 4.377 0 0 1 2.222-.545 5.52 5.52 0 0 1 2.479.563m9.979 8.051a6.56 6.56 0 0 1-2.336.389 3.731 3.731 0 0 1-2.952-1.165 4.874 4.874 0 0 1-1.03-3.335 5.386 5.386 0 0 1 .5-2.389 3.57 3.57 0 0 1 1.447-1.569 4.376 4.376 0 0 1 2.223-.542 5.512 5.512 0 0 1 2.479.563M1 3h30v20H17l-9 7v-7H1V3Z"/></svg>