<svg xmlns="http://www.w3.org/2000/svg" fill="none" viewBox="0 0 32 32"><path fill="currentColor" d="M13 18v-.75h-.75V18H13Zm6 0h.75v-.75H19V18Zm0 13v.75h.75V31H19Zm-6 0h-.75v.75H13V31ZM1 24v-.75H.25V24H1Zm6 0h.75v-.75H7V24Zm0 7v.75h.75V31H7Zm-6 0H.25v.75H1V31Zm24-19v-.75h-.75V12H25Zm6 0h.75v-.75H31V12Zm0 19v.75h.75V31H31Zm-6 0h-.75v.75H25V31ZM11 6l.53-.53-.53-.53-.53.53L11 6Zm5 5-.53.53.53.53.53-.53L16 11ZM26 1h.75V.25H26V1Zm-6-.75h-.75v1.5H20V.25ZM25.25 7v.75h1.5V7h-1.5ZM13 18v.75h6v-1.5h-6V18Zm6 0h-.75v13h1.5V18H19Zm0 13v-.75h-6v1.5h6V31Zm-6 0h.75V18h-1.5v13H13ZM1 24v.75h6v-1.5H1V24Zm6 0h-.75v7h1.5v-7H7Zm0 7v-.75H1v1.5h6V31Zm-6 0h.75v-7H.25v7H1Zm24-19v.75h6v-1.5h-6V12Zm6 0h-.75v19h1.5V12H31Zm0 19v-.75h-6v1.5h6V31Zm-6 0h.75V12h-1.5v19H25ZM6 11l.53.53 5-5L11 6l-.53-.53-5 5L6 11Zm5-5-.53.53 5 5L16 11l.53-.53-5-5L11 6Zm5 5 .53.53 10-10L26 1l-.53-.53-10 10L16 11Zm4-10v.75h6V.25h-6V1Zm6 0h-.75v6h1.5V1H26Z"/></svg>