<svg xmlns="http://www.w3.org/2000/svg" fill="none" viewBox="0 0 32 32"><path stroke="currentColor" stroke-miterlimit="10" vector-effect="non-scaling-stroke" stroke-width="1.5" d="M1 5v4m0-4c0 1.657 2.686 3 6 3s6-1.343 6-3M1 5c0-1.657 2.686-3 6-3s6 1.343 6 3M1 9c0 1.657 2.686 3 6 3s6-1.343 6-3M1 9v4m12-4V5m0 4v4M1 13c0 1.657 2.686 3 6 3s6-1.343 6-3M1 13v4m12-4v3.401M1 17c0 1.657 2.686 3 6 3 1.093 0 2.117-.147 3-.402M1 17v4c0 1.657 2.686 3 6 3a10.91 10.91 0 0 0 3-.402M19 9v4m0-4c0 1.657 2.686 3 6 3s6-1.343 6-3M19 9c0-1.657 2.686-3 6-3s6 1.343 6 3m-12 4c0 1.657 2.686 3 6 3s6-1.343 6-3m-12 0v3.401M31 13V9m0 4v4m-9 2.594c.883.256 1.906.406 3 .406 3.314 0 6-1.343 6-3m0 0v4c0 1.657-2.686 3-6 3-1.093 0-2.117-.149-3-.404M10 19v4m0-4c0 1.657 2.686 3 6 3s6-1.343 6-3m-12 0c0-1.657 2.686-3 6-3s6 1.343 6 3m-12 4c0 1.657 2.686 3 6 3s6-1.343 6-3m-12 0v4c0 1.657 2.686 3 6 3s6-1.343 6-3v-4m0 0v-4"/></svg>