<svg xmlns="http://www.w3.org/2000/svg" fill="none" viewBox="0 0 32 32"><path fill="currentColor" d="m2 16-.53-.53-.53.53.53.53L2 16Zm28 0 .53.53.53-.53-.53-.53L30 16ZM16 3l.53-.53-.53-.53-.53.53L16 3ZM5.47 20.53l.53.53L7.06 20l-.53-.53L6 20l-.53.53Zm1.06-8 .53-.53L6 10.94l-.53.53L6 12l.53.53Zm18.94 6.94-.53.53L26 21.06l.53-.53L26 20l-.53-.53Zm1.06-8-.53-.53L24.94 12l.53.53L26 12l.53-.53Zm-16.06-4L9.94 8 11 9.06l.53-.53L11 8l-.53-.53Zm10 1.06.53.53L22.06 8l-.53-.53L21 8l-.53.53ZM2 16v.75h6v-1.5H2V16Zm6 0v.75A7.25 7.25 0 0 1 15.25 24h1.5A8.75 8.75 0 0 0 8 15.25V16Zm8 8h-.75v6h1.5v-6H16Zm14-8v-.75h-6v1.5h6V16Zm-6 0v-.75A8.75 8.75 0 0 0 15.25 24h1.5A7.25 7.25 0 0 1 24 16.75V16Zm-8 8h-.75v8h1.5v-8H16Zm0-2h.75V3h-1.5v19H16ZM6 20l.53-.53-4-4L2 16l-.53.53 4 4L6 20Zm-4-4 .53.53 4-4L6 12l-.53-.53-4 4L2 16Zm24 4 .53.53 4-4L30 16l-.53-.53-4 4L26 20Zm4-4 .53-.53-4-4L26 12l-.53.53 4 4L30 16ZM11 8l.53.53 5-5L16 3l-.53-.53-5 5L11 8Zm5-5-.53.53 5 5L21 8l.53-.53-5-5L16 3Z"/></svg>