<svg xmlns="http://www.w3.org/2000/svg" fill="none" viewBox="0 0 32 32"><path fill="currentColor" d="m7.3 9.767-.208.72.01.004.198-.724Zm8.592 0 .197.724.011-.003-.208-.721Zm0-7.441.208-.72-.01-.003-.198.723Zm-8.592 0-.198-.724-.01.003.208.721Zm13.838 21.277h-.75v1.5h.75v-1.5Zm3.931 1.5h.75v-1.5h-.75v1.5Zm3.931-.75h.75H29Zm-2.949-5.106.375-.65-.375.65ZM20.185 6.135h-.75v5.728h1.5V6.135h-.75Zm0 5.728h-.75c0 .75-.627 1.63-2.102 2.37-1.43.715-3.46 1.18-5.741 1.18v1.5c2.464 0 4.732-.499 6.412-1.34 1.635-.818 2.931-2.087 2.931-3.71h-.75Zm-8.593 4.3v-.75c-2.282 0-4.31-.465-5.74-1.18-1.475-.74-2.102-1.62-2.102-2.37h-1.5c0 1.623 1.296 2.892 2.93 3.71 1.68.841 3.948 1.34 6.412 1.34v-.75ZM3 11.863h.75V6.135h-1.5v5.728H3Zm11.3 10.113v-.75h-2.71v1.5h2.71v-.75Zm-2.71 0v-.75c-2.28 0-4.308-.464-5.738-1.179C4.377 19.31 3.75 18.43 3.75 17.68h-1.5c0 1.624 1.297 2.892 2.93 3.709 1.68.84 3.947 1.337 6.41 1.337v-.75ZM3 17.68h.75v-5.728h-1.5v5.728H3Zm17.185-6.25h-.75v5.209h1.5V11.43h-.75Zm-5.392 16.363v-.75h-3.2v1.5h3.2v-.75Zm-3.2 0v-.75c-2.282 0-4.31-.464-5.741-1.179-1.476-.737-2.102-1.617-2.102-2.364h-1.5c0 1.622 1.297 2.89 2.932 3.706 1.679.84 3.947 1.337 6.411 1.337v-.75ZM3 23.5h.75v-5.731h-1.5V23.5H3ZM3 6.046h-.75c0 1.053.564 1.982 1.41 2.716.848.733 2.03 1.322 3.432 1.726l.208-.721.208-.72c-1.26-.364-2.228-.868-2.865-1.42-.638-.551-.893-1.1-.893-1.581H3Zm4.3 3.721-.197.724a17.08 17.08 0 0 0 8.986 0l-.197-.724-.197-.724a15.58 15.58 0 0 1-8.198 0l-.197.724Zm8.592 0 .208.72c1.4-.404 2.582-.992 3.43-1.726.847-.732 1.412-1.661 1.412-2.715h-1.5c0 .481-.255 1.029-.893 1.58-.638.553-1.606 1.057-2.865 1.42l.208.721Zm4.3-3.721h.75c0-1.054-.564-1.982-1.411-2.715-.847-.733-2.03-1.322-3.431-1.726l-.208.721-.208.72c1.26.364 2.228.868 2.865 1.42.638.55.893 1.099.893 1.58h.75Zm-4.3-3.72.198-.723a17.058 17.058 0 0 0-8.988 0l.198.723.198.724a15.558 15.558 0 0 1 8.196 0l.198-.724Zm-8.592 0-.208-.72c-1.401.403-2.584.992-3.431 1.725-.847.733-1.411 1.661-1.411 2.715h1.5c0-.481.255-1.03.893-1.58.637-.552 1.604-1.056 2.865-1.42l-.208-.72Zm13.838 22.027v.75h3.931v-1.5h-3.931v.75Zm7.862 0h-.75a5.15 5.15 0 0 1-1.063 3.136l.595.457.596.456a6.65 6.65 0 0 0 1.372-4.05l-.75.001Zm-1.218 3.593-.595-.457a5.15 5.15 0 0 1-2.752 1.841l.194.725.194.724a6.65 6.65 0 0 0 3.555-2.377l-.596-.456Zm-3.153 2.108-.194-.724a5.15 5.15 0 0 1-3.305-.216l-.287.693-.286.693a6.65 6.65 0 0 0 4.266.279l-.194-.724Zm-3.786-.247.287-.693a5.15 5.15 0 0 1-2.49-2.182l-.65.375-.649.375a6.65 6.65 0 0 0 3.216 2.818l.287-.693Zm-2.852-2.5.65-.375a5.15 5.15 0 0 1-.647-3.248l-.744-.098-.743-.098a6.65 6.65 0 0 0 .834 4.194l.65-.375Zm-.74-3.72.743.097a5.15 5.15 0 0 1 1.465-2.97l-.53-.53-.531-.53a6.65 6.65 0 0 0-1.891 3.834l.743.098Zm1.677-3.403.53.53a5.15 5.15 0 0 1 2.97-1.464l-.098-.744-.097-.743a6.65 6.65 0 0 0-3.835 1.89l.53.531Zm3.402-1.678.098.744a5.15 5.15 0 0 1 3.248.646l.375-.649.375-.65a6.65 6.65 0 0 0-4.193-.834l.098.743Zm3.721.741-.375.65a5.149 5.149 0 0 1 1.884 1.883l.65-.375.649-.375a6.65 6.65 0 0 0-2.433-2.432l-.375.649Zm2.158 2.158-.65.375c.453.783.69 1.67.691 2.573h1.5a6.65 6.65 0 0 0-.891-3.323l-.65.375Z"/></svg>