<svg xmlns="http://www.w3.org/2000/svg" fill="none" viewBox="0 0 32 32"><path fill="currentColor" d="M1 3v-.75H.25V3H1Zm30 0h.75v-.75H31V3Zm0 26v.75h.75V29H31ZM1 29H.25v.75H1V29Zm11-17v-.75h-.75V12H12Zm8 0h.75v-.75H20V12Zm-7 12.25h-.75v1.5H13v-1.5Zm6 1.5h.75v-1.5H19v1.5ZM1 3v.75h30v-1.5H1V3Zm30 0h-.75v26h1.5V3H31Zm0 26v-.75H1v1.5h30V29ZM1 29h.75V3H.25v26H1ZM1 8v.75h30v-1.5H1V8Zm15 12v-.75A3.25 3.25 0 0 1 12.75 16h-1.5A4.75 4.75 0 0 0 16 20.75V20Zm-4-4h.75v-4h-1.5v4H12Zm0-4v.75h8v-1.5h-8V12Zm8 0h-.75v4h1.5v-4H20Zm0 4h-.75A3.25 3.25 0 0 1 16 19.25v1.5A4.75 4.75 0 0 0 20.75 16H20Zm-4 4h-.75v5h1.5v-5H16Zm-3 5v.75h6v-1.5h-6V25ZM25 3h-.75v5h1.5V3H25Z"/></svg>