<svg xmlns="http://www.w3.org/2000/svg" fill="none" viewBox="0 0 32 32"><path stroke="currentColor" stroke-linecap="square" stroke-miterlimit="10" vector-effect="non-scaling-stroke" stroke-width="1.5" d="M19 13s1.3-7.669-4-11a9.402 9.402 0 0 1-3.525 6.8C9.21 10.8 4.955 15.284 5 20.08c.037 3.875 2.145 8.615 7.01 10.3-.006-.1-.01-.2-.01-.3a7.392 7.392 0 0 1 1.947-4.793 5.94 5.94 0 0 0 1.734-3.717c2.863 1.594 4.319 5.8 4.319 8.3 0 .146 0 .293-.014.439a10.294 10.294 0 0 0 6.974-9.341C27.357 16.2 24.742 12.077 23 9.9"/></svg>