<svg xmlns="http://www.w3.org/2000/svg" fill="none" viewBox="0 0 32 32"><path stroke="currentColor" stroke-miterlimit="10" vector-effect="non-scaling-stroke" stroke-width="1.5" d="M4.152 8.176a14.615 14.615 0 0 0-2.193 11.06M23 3.283a14.597 14.597 0 0 0-9.57-1.316 14.592 14.592 0 0 0-7.156 3.7M30.7 13.44a14.6 14.6 0 0 0-5.033-8.405m5.33 11.598a14.755 14.755 0 0 0-.29-3.194m-28.74 5.796c.042.21.089.418.14.625m10.438 10.643c3.284-3.738 4.848-8.912 3.788-14.166m.465 14.654c2.967-4.336 4.313-10.546 3.128-15.378-.537-2.224-2.333-3.278-4.323-2.876-1.988.4-3.264 2.245-2.862 4.325.884 4.584-.68 8.982-3.824 11.923M9.31 19a9.183 9.183 0 0 1-3.349 7.703m17.952-9.036a24.076 24.076 0 0 0-.393-2.778 7.335 7.335 0 0 0-14.495.753M21.59 30.023A23.755 23.755 0 0 0 23.953 21M12.973 5.864C7.702 7.546 4.43 12.962 5.55 18.512l.006-.001a5.509 5.509 0 0 1-1.844 5.296m23.025 2.858a27.384 27.384 0 0 0 .376-12.5h-.002c-1.053-5.225-5.645-8.832-10.777-8.828"/></svg>