<svg xmlns="http://www.w3.org/2000/svg" fill="none" viewBox="0 0 32 32"><path fill="currentColor" d="M3.25 14.433v.75h1.5v-.75h-1.5Zm24 .006v.75h1.5v-.75h-1.5ZM10 13.212h.75v-.567l-.546-.155-.204.722Zm0 10.576.204.722.546-.155v-.567H10Zm12 0h-.75v.567l.546.155.204-.722Zm0-10.576-.204-.722-.546.155v.567H22Zm-17 9.53h-.75V24h1.5v-1.258H5ZM5 24h-.75A6.75 6.75 0 0 0 11 30.75v-1.5A5.25 5.25 0 0 1 5.75 24H5Zm6 6v.75h2v-1.5h-2V30ZM4 14.433h.75V10h-1.5v4.433H4ZM4 10h.75A8.25 8.25 0 0 1 13 1.75V.25A9.75 9.75 0 0 0 3.25 10H4Zm9-9v.75h6V.25h-6V1Zm6 0v.75A8.25 8.25 0 0 1 27.25 10h1.5A9.75 9.75 0 0 0 19 .25V1Zm9 9h-.75v4.439h1.5V10H28Zm-18 3.212.204-.722a6.248 6.248 0 0 0-1.704-.24v1.5c.447 0 .88.066 1.296.184l.204-.722ZM8.5 13v-.75a6.25 6.25 0 0 0-6.25 6.25h1.5a4.75 4.75 0 0 1 4.75-4.75V13ZM3 18.5h-.75a6.25 6.25 0 0 0 6.25 6.25v-1.5a4.75 4.75 0 0 1-4.75-4.75H3ZM8.5 24v.75c.595 0 1.166-.088 1.704-.24L10 23.788l-.204-.722c-.416.118-.85.184-1.296.184V24Zm1.5-.212h.75V13.212h-1.5v10.576H10Zm12 0-.204.722c.538.152 1.108.24 1.704.24v-1.5c-.447 0-.88-.066-1.296-.184l-.204.722Zm1.5.212v.75a6.25 6.25 0 0 0 6.25-6.25h-1.5a4.75 4.75 0 0 1-4.75 4.75V24Zm5.5-5.5h.75a6.25 6.25 0 0 0-6.25-6.25v1.5a4.75 4.75 0 0 1 4.75 4.75H29ZM23.5 13v-.75c-.596 0-1.166.088-1.704.24l.204.722.204.722c.416-.118.85-.184 1.296-.184V13Zm-1.5.212h-.75v10.576h1.5V13.212H22Zm-8.509 15.383v.75h5.018v-1.5h-5.018v.75Zm6.018 1h-.75V30h1.5v-.405h-.75Zm-1 1.405v-.75h-5.018v1.5h5.018V31Zm-6.018-1h.75v-.405h-1.5V30h.75Zm1 1v-.75a.25.25 0 0 1-.25-.25h-1.5c0 .966.784 1.75 1.75 1.75V31Zm6.018-1h-.75a.25.25 0 0 1-.25.25v1.5a1.75 1.75 0 0 0 1.75-1.75h-.75Zm-1-1.405v.75a.25.25 0 0 1 .25.25h1.5a1.75 1.75 0 0 0-1.75-1.75v.75Zm-5.018 0v-.75a1.75 1.75 0 0 0-1.75 1.75h1.5a.25.25 0 0 1 .25-.25v-.75Z"/></svg>