<svg xmlns="http://www.w3.org/2000/svg" fill="none" viewBox="0 0 32 32"><path stroke="currentColor" stroke-linecap="square" stroke-miterlimit="10" vector-effect="non-scaling-stroke" stroke-width="1.5" d="M16 20.012A40.755 40.755 0 0 0 15 20c-5.57 0-9.247 1.165-11.227 2.043A2.99 2.99 0 0 0 2 24.783V30h17M8 8.5a7 7 0 1 1 14 0c0 3.866-3.134 8-7 8s-7-4.134-7-8Zm21.582 11.492c-1.46-1.511-3.895-1.264-5.041.523-1.147-1.789-3.583-2.032-5.041-.523-1.278 1.323-1.278 3.467 0 4.79L24.54 30l5.042-5.218c1.279-1.323 1.279-3.467 0-4.79Z"/></svg>