<svg xmlns="http://www.w3.org/2000/svg" fill="none" viewBox="0 0 32 32"><path fill="currentColor" d="M11.75 6.75H11h.75Zm-2.5-4.33-.375.65.375-.65Zm21 22.83h-.75.75Zm-2.5-4.33-.375.65.375-.65Zm-26.53 8.8-.53.53 1.06 1.06.53-.53-.53-.53-.53-.53ZM30.35 2.723l.53-.53-1.06-1.06-.53.53.53.53.53.53ZM20.071 1h-.75v1.5h.75V1Zm10.179.75H31V1h-.75v.75Zm-.75 10.179v.75H31v-.75h-1.5ZM11.75 6.75H11a4.25 4.25 0 0 1-.878 2.587l.595.457.595.456a5.75 5.75 0 0 0 1.188-3.5h-.75Zm-1.033 3.044-.595-.457a4.25 4.25 0 0 1-2.272 1.518l.194.725.194.724a5.75 5.75 0 0 0 3.074-2.054l-.595-.456ZM8.044 11.58l-.194-.725a4.25 4.25 0 0 1-2.726-.178l-.287.693-.287.693a5.75 5.75 0 0 0 3.688.241l-.194-.724Zm-3.207-.21.287-.693a4.25 4.25 0 0 1-2.055-1.802l-.65.375-.649.375a5.75 5.75 0 0 0 2.78 2.438l.287-.693ZM2.42 9.25l.65-.375a4.25 4.25 0 0 1-.534-2.68l-.743-.097L1.049 6a5.75 5.75 0 0 0 .721 3.625l.65-.375Zm-.627-3.152.743.097a4.25 4.25 0 0 1 1.209-2.45l-.53-.53-.53-.53A5.75 5.75 0 0 0 1.048 6l.744.098Zm1.421-2.883.53.53a4.25 4.25 0 0 1 2.451-1.209l-.098-.743L6 1.049a5.75 5.75 0 0 0-3.315 1.635l.53.53Zm2.883-1.422.098.743a4.25 4.25 0 0 1 2.68.534l.375-.65.375-.65a5.75 5.75 0 0 0-3.626-.72l.098.743Zm3.153.627-.375.65a4.25 4.25 0 0 1 1.556 1.555l.65-.375.649-.375A5.75 5.75 0 0 0 9.625 1.77l-.375.65Zm1.83 1.83-.65.375A4.25 4.25 0 0 1 11 6.75h1.5c0-1.01-.266-2-.77-2.875l-.65.375Zm19.17 21h-.75a4.25 4.25 0 0 1-.878 2.587l.595.457.595.456A5.75 5.75 0 0 0 31 25.25h-.75Zm-1.033 3.044-.595-.457a4.25 4.25 0 0 1-2.272 1.518l.194.725.194.724a5.75 5.75 0 0 0 3.074-2.054l-.595-.456Zm-2.673 1.786-.194-.725a4.25 4.25 0 0 1-2.726-.178l-.287.693-.287.692a5.75 5.75 0 0 0 3.688.242l-.194-.724Zm-3.207-.21.287-.693a4.25 4.25 0 0 1-2.055-1.802l-.65.375-.649.375a5.75 5.75 0 0 0 2.78 2.438l.287-.693Zm-2.417-2.12.65-.375a4.25 4.25 0 0 1-.534-2.68l-.743-.098-.744-.097a5.75 5.75 0 0 0 .721 3.625l.65-.375Zm-.627-3.152.743.097a4.25 4.25 0 0 1 1.209-2.45l-.53-.53-.53-.53a5.75 5.75 0 0 0-1.636 3.315l.744.098Zm1.422-2.883.53.53a4.25 4.25 0 0 1 2.45-1.209l-.098-.743-.098-.744a5.75 5.75 0 0 0-3.315 1.635l.53.53Zm2.882-1.422.098.744a4.25 4.25 0 0 1 2.68.533l.375-.65.375-.65a5.75 5.75 0 0 0-3.625-.72l.097.743Zm3.153.627-.375.65a4.25 4.25 0 0 1 1.556 1.555l.65-.375.649-.375a5.749 5.749 0 0 0-2.105-2.105l-.375.65Zm1.83 1.83-.65.375a4.25 4.25 0 0 1 .57 2.125H31c0-1.01-.266-2-.77-2.875l-.65.375Zm-27.83 7.5.53.53L30.35 2.724l-.53-.53-.53-.53L1.22 29.719l.53.531Zm18.321-28.5v.75H30.25V1H20.071v.75Zm10.179 0h-.75v10.179H31V1.75h-.75Z"/></svg>