<svg xmlns="http://www.w3.org/2000/svg" fill="none" viewBox="0 0 32 32"><path stroke="currentColor" stroke-linecap="square" vector-effect="non-scaling-stroke" stroke-width="1.5" d="M7.298 30.494c2.755-5.451 9.643-6.814 9.643-12.266v-6.814c0 1.446-.58 2.832-1.614 3.855a5.54 5.54 0 0 1-3.896 1.597L4.604 19.59 1.85 16.865l9.582-11.27V1.506c1.743-.003 3.307 1.171 4.218 2.981 1.292.21 3.175.804 4.658 1.49 2.958 1.365 5.258 3.048 6.996 5.77a17.907 17.907 0 0 1 2.848 9.72c0 3.22-.704 6.121-2.107 9.027M11.821 10.905c0 .304-.252.55-.563.55a.556.556 0 0 1-.562-.55c0-.304.252-.55.562-.55.31 0 .563.246.563.55Z"/></svg>