<svg xmlns="http://www.w3.org/2000/svg" fill="none" viewBox="0 0 32 32"><path fill="currentColor" d="m4.1 11.7-.744.097.097.743.744-.096L4.1 11.7Zm-.256-7.797-.097-.743-1.487.193.096.744L3.1 4l.744-.097Zm8.053 7.54.743-.096-.193-1.487-.744.096.097.744.097.744ZM8.004 27.265l-.461.592A13.707 13.707 0 0 0 16 30.75v-1.5c-2.848 0-5.46-.961-7.535-2.578l-.461.592ZM16 30v.75c7.614 0 13.75-6.136 13.75-13.75h-1.5c0 6.786-5.464 12.25-12.25 12.25V30Zm13-13h.75c0-7.614-6.136-13.75-13.75-13.75v1.5c6.786 0 12.25 5.464 12.25 12.25H29ZM16 4v-.75c-5.502 0-10.467 3.38-12.585 8.145l.685.305.685.305C6.667 7.77 11.102 4.75 16 4.75V4ZM9 24h-.75A3.25 3.25 0 0 1 5 27.25v1.5A4.75 4.75 0 0 0 9.75 24H9Zm-4 4v-.75A3.25 3.25 0 0 1 1.75 24H.25A4.75 4.75 0 0 0 5 28.75V28Zm-4-4h.75A3.25 3.25 0 0 1 5 20.75v-1.5A4.75 4.75 0 0 0 .25 24H1Zm4-4v.75A3.25 3.25 0 0 1 8.25 24h1.5A4.75 4.75 0 0 0 5 19.25V20ZM3.1 4l-.744.097 1 7.7.744-.097.744-.097-1-7.7L3.1 4Zm1 7.7.097.744 7.7-1-.097-.744-.097-.744-7.7 1 .097.744Z"/></svg>