<svg xmlns="http://www.w3.org/2000/svg" fill="none" viewBox="0 0 32 32"><path stroke="currentColor" stroke-linecap="square" stroke-miterlimit="10" vector-effect="non-scaling-stroke" stroke-width="1.5" d="M21.041 2.992c-1.459-1.51-3.895-1.264-5.041.523-1.147-1.789-3.583-2.032-5.041-.523-1.278 1.323-1.278 3.467 0 4.79L15.999 13l5.042-5.218c1.279-1.323 1.279-3.467 0-4.79ZM25 21a3 3 0 1 0 0-6 3 3 0 0 0 0 6ZM7 21a3 3 0 1 0 0-6 3 3 0 0 0 0 6Zm6 9v-2.983a2 2 0 0 0-.983-1.725C11.044 24.717 9.358 24 7 24c-2.388 0-4.064.713-5.026 1.288A1.998 1.998 0 0 0 1 27.008V30h12Zm18 0v-2.983a2 2 0 0 0-.983-1.725C29.044 24.717 27.358 24 25 24c-2.388 0-4.064.713-5.026 1.288a1.998 1.998 0 0 0-.974 1.72V30h12Z"/></svg>