<svg xmlns="http://www.w3.org/2000/svg" fill="none" viewBox="0 0 32 32"><path fill="currentColor" d="M31 1h.75V.25H31V1Zm-9-.75h-.75v1.5H22V.25ZM30.25 10v.75h1.5V10h-1.5Zm-8.75.5.53.53 9.5-9.5L31 1l-.53-.53-9.5 9.5.53.53ZM25 19h-.75c0 6.213-5.037 11.25-11.25 11.25v1.5c7.042 0 12.75-5.708 12.75-12.75H25ZM13 31v-.75C6.787 30.25 1.75 25.213 1.75 19H.25c0 7.042 5.708 12.75 12.75 12.75V31ZM1 19h.75C1.75 12.787 6.787 7.75 13 7.75v-1.5C5.958 6.25.25 11.958.25 19H1ZM13 7v.75c6.213 0 11.25 5.037 11.25 11.25h1.5c0-7.042-5.708-12.75-12.75-12.75V7Zm9-6v.75h9V.25h-9V1Zm9 0h-.75v9h1.5V1H31Z"/></svg>