<svg xmlns="http://www.w3.org/2000/svg" fill="none" viewBox="0 0 32 32"><path stroke="currentColor" stroke-linecap="square" stroke-miterlimit="10" vector-effect="non-scaling-stroke" stroke-width="1.5" d="m26.588 23.518-5.177-1.035A3 3 0 0 1 19 19.54v-1.414c2.363-1.414 4-4.336 4-7.127V7.074c0-1.925-1.568-3.5-3.501-3.5h-.436l-.919-1.837a.96.96 0 0 0-1.201-.465l-5.505 2.202C10.09 4.013 9 5.624 9 7.076V11c0 2.79 1.637 5.713 4 7.127v1.414a3 3 0 0 1-2.412 2.942l-5.177 1.035A2.999 2.999 0 0 0 3 26.458V31h26v-4.541a2.998 2.998 0 0 0-2.412-2.941Z" clip-rule="evenodd"/></svg>