<svg xmlns="http://www.w3.org/2000/svg" fill="none" viewBox="0 0 32 32"><path fill="currentColor" d="m8.483 7.423-.53-.53-1.06 1.06.53.53.53-.53.53-.53Zm5.502 7.622.53.53 1.06-1.06-.53-.53-.53.53-.53.53Zm8.649-4.352-.322.678 1.355.643.321-.677-.677-.322-.677-.322ZM12.05 3.05l-.53-.532v.002l.53.53Zm-9 9-.53-.53h-.002l.532.53Zm8.287 11.938.677-.321-.643-1.355-.678.322.322.677.322.677Zm6.614 5.218.557.503 10.706-11.863-.557-.503-.557-.503-10.706 11.863.557.503ZM7.953 7.953l-.53.53 6.562 6.562.53-.53.53-.53-6.562-6.562-.53.53Zm15.358 3.062.677.322a7.75 7.75 0 0 0 .498-5.287l-.726.19-.725.19a6.25 6.25 0 0 1-.401 4.263l.677.322Zm.45-4.775.725-.19a7.75 7.75 0 0 0-3.022-4.366l-.433.612-.434.613a6.25 6.25 0 0 1 2.438 3.52l.725-.19Zm-2.73-3.944.433-.612A7.75 7.75 0 0 0 16.34.288l.063.748.063.747a6.25 6.25 0 0 1 4.131 1.126l.433-.613Zm-4.628-1.26L16.34.288a7.75 7.75 0 0 0-4.82 2.23l.53.532.53.532a6.25 6.25 0 0 1 3.885-1.799l-.062-.747ZM12.05 3.05l-.53-.53-9 9 .53.53.53.53 9-9-.53-.53Zm-9 9-.532-.53a7.75 7.75 0 0 0-2.23 4.82l.748.063.747.063a6.25 6.25 0 0 1 1.799-3.887l-.532-.529Zm-2.014 4.353-.748-.063a7.75 7.75 0 0 0 1.396 5.124l.612-.433.613-.434a6.25 6.25 0 0 1-1.126-4.132l-.747-.062Zm1.26 4.628-.612.433a7.75 7.75 0 0 0 4.366 3.022l.19-.726.19-.725a6.25 6.25 0 0 1-3.521-2.438l-.613.433Zm3.944 2.73-.19.725a7.75 7.75 0 0 0 5.287-.498l-.322-.677-.322-.677a6.25 6.25 0 0 1-4.263.4l-.19.726ZM31 23h-.75A7.25 7.25 0 0 1 23 30.25v1.5A8.75 8.75 0 0 0 31.75 23H31Zm-8 8v-.75A7.25 7.25 0 0 1 15.75 23h-1.5A8.75 8.75 0 0 0 23 31.75V31Zm-8-8h.75A7.25 7.25 0 0 1 23 15.75v-1.5A8.75 8.75 0 0 0 14.25 23H15Zm8-8v.75A7.25 7.25 0 0 1 30.25 23h1.5A8.75 8.75 0 0 0 23 14.25V15Z"/></svg>