<svg xmlns="http://www.w3.org/2000/svg" fill="none" viewBox="0 0 32 32"><path stroke="currentColor" stroke-miterlimit="10" vector-effect="non-scaling-stroke" stroke-width="1.5" d="M17.1 18.23c1.185-.26 2.525-.43 4-.43 3.301 0 5.926.854 7.657 1.651a4.008 4.008 0 0 1 2.343 3.642V30.8h-10m-6-24a6 6 0 1 1 12 0c0 3.314-2.686 7-6 7s-6-3.686-6-7Zm-11 9a5 5 0 1 1 10 0c0 2.761-2.239 6-5 6-2.76 0-5-3.239-5-6Zm13 12.926a3.003 3.003 0 0 0-1.96-2.816c-1.435-.534-3.557-1.11-6.04-1.11s-4.605.576-6.039 1.11a3.003 3.003 0 0 0-1.96 2.816V30.8h16v-2.074Z"/></svg>