<svg xmlns="http://www.w3.org/2000/svg" fill="none" viewBox="0 0 32 32"><path fill="currentColor" d="M15 6.218h-.75v1.5H15v-1.5Zm10 1.5h.75v-1.5H25v1.5Zm-10 4.5h-.75v1.5H15v-1.5Zm10 1.5h.75v-1.5H25v1.5Zm-10 4.5h-.75v1.5H15v-1.5Zm10 1.5h.75v-1.5H25v1.5ZM1 30.968H.25v.75H1v-.75Zm18 0v.75h.75v-.75H19ZM31 1h.75V.25H31V1ZM9 1V.25h-.75V1H9Zm6 5.968v.75h10v-1.5H15v.75Zm0 6v.75h10v-1.5H15v.75Zm0 6v.75h10v-1.5H15v.75Zm4 9h.75a2.25 2.25 0 0 1 2.25-2.25v-1.5a3.75 3.75 0 0 0-3.75 3.75H19Zm3-3v-.75H4v1.5h18v-.75Zm-18 0v-.75a3.75 3.75 0 0 0-3.75 3.75h1.5A2.25 2.25 0 0 1 4 25.718v-.75Zm-3 3H.25v3h1.5v-3H1Zm0 3v.75h18v-1.5H1v.75Zm18 0h.75v-3h-1.5v3H19Zm3-6v.75a2.25 2.25 0 0 1 2.25 2.25h1.5a3.75 3.75 0 0 0-3.75-3.75v.75Zm3 3h-.75a3.75 3.75 0 0 0 3.75 3.75v-1.5a2.25 2.25 0 0 1-2.25-2.25H25Zm3 3v.75a3.75 3.75 0 0 0 3.75-3.75h-1.5a2.25 2.25 0 0 1-2.25 2.25v.75Zm3-3h.75V1h-1.5v26.968H31ZM31 1V.25H9v1.5h22V1ZM9 1h-.75v23.968h1.5V1H9Z"/></svg>