<svg xmlns="http://www.w3.org/2000/svg" fill="none" viewBox="0 0 32 32"><path fill="currentColor" d="m9.327 12.738-.6-.45a.75.75 0 0 0-.15.45h.75Zm13.346 0h.75a.75.75 0 0 0-.15-.45l-.6.45ZM19.56 8.586l.6-.45-.225-.3h-.375v.75Zm-7.118 0v-.75h-.375l-.225.3.6.45ZM9.327 23.414h-.75v.75h.75v-.75Zm13.346 0v.75h.75v-.75h-.75Zm-8.452-10.676v-.75h-.75v.75h.75Zm3.56 0h.75v-.75h-.75v.75Zm0 4.449v.75h.75v-.75h-.75Zm-3.56 0h-.75v.75h.75v-.75Zm-14.12-.673v.75l1.5-.002v-.75l-.75.001H.1Zm29.2-6.033.312.683 1.365-.623-.312-.682-.682.311-.682.311Zm2.6 5.241-.002-.75-1.5.002.001.75.75-.001h.75ZM3.15 21.657l-.312-.683-1.364.623.31.682.683-.311.683-.311ZM31.894 6.23l.096-.744-1.487-.193-.097.744.744.096.744.097Zm-1.33 4.426-.098.744.744.096.097-.743-.744-.097Zm-4.427-1.332-.744-.096-.193 1.487.744.097.096-.744.097-.744ZM.107 25.251l-.097.744 1.487.194.097-.744-.744-.097-.744-.097Zm1.322-4.355.097-.744-.744-.096-.097.743.744.097Zm4.356 1.322.743.096.193-1.487-.743-.097-.097.744-.096.744Zm9.714-9.48v-.75h-.75v.75h.75Zm1 0h.75v-.75h-.75v.75Zm0 4.449v.75h.75v-.75h-.75Zm-1 0h-.75v.75h.75v-.75Zm-6.172-4.449v.75h13.346v-1.5H9.327v.75Zm13.346 0 .6-.45-3.114-4.152-.6.45-.6.45 3.114 4.152.6-.45ZM19.56 8.586v-.75h-7.118v1.5h7.118v-.75Zm-7.118 0-.6-.45-3.114 4.152.6.45.6.45 3.114-4.152-.6-.45Zm-3.114 4.152h-.75v10.676h1.5V12.738h-.75Zm0 10.676v.75h13.346v-1.5H9.327v.75Zm13.346 0h.75V12.738h-1.5v10.676h.75Zm-8.452-10.676v.75h3.56v-1.5h-3.56v.75Zm3.56 0h-.75v4.449h1.5v-4.449h-.75Zm0 4.449v-.75h-3.56v1.5h3.56v-.75Zm-3.56 0h.75v-4.449h-1.5v4.449h.75Zm-13.37-.674h.75a14.504 14.504 0 0 1 3.204-9.11l-.584-.47-.584-.47A16.004 16.004 0 0 0 .1 16.513h.75Zm3.37-9.58.584.47a14.504 14.504 0 0 1 8.214-5.078l-.16-.733-.16-.733a16.004 16.004 0 0 0-9.062 5.604l.584.47Zm8.638-5.34.16.732a14.504 14.504 0 0 1 9.58 1.204l.337-.67.336-.671A16.004 16.004 0 0 0 12.7.859l.159.733Zm10.077 1.265-.336.67a14.504 14.504 0 0 1 6.702 6.953l.682-.311.682-.311a16.004 16.004 0 0 0-7.394-7.671l-.336.67Zm8.214 12.865h-.75a14.268 14.268 0 0 1-3.153 8.961l.584.47.585.471a15.769 15.769 0 0 0 3.484-9.903l-.75.001Zm-3.319 9.432-.584-.47a14.269 14.269 0 0 1-8.08 4.995l.16.733.16.732a15.768 15.768 0 0 0 8.929-5.52l-.585-.47Zm-8.504 5.258-.16-.733c-3.184.693-6.51.275-9.425-1.184l-.335.67-.336.67a15.769 15.769 0 0 0 10.416 1.31l-.16-.733Zm-9.92-1.247.335-.67a14.268 14.268 0 0 1-6.592-6.84l-.683.312-.682.311a15.768 15.768 0 0 0 7.286 7.558l.336-.67ZM31.15 6.133l-.744-.096-.587 4.522.744.097.744.097.587-4.523-.744-.097Zm-.587 4.523.097-.744-4.523-.588-.097.744-.096.744 4.523.588.096-.744ZM.85 25.348l.744.097.579-4.452-.744-.097-.744-.097-.579 4.452.744.097Zm.58-4.452-.097.744 4.452.578.096-.744.097-.744-4.452-.578-.097.744Zm14.07-8.158v.75h1v-1.5h-1v.75Zm1 0h-.75v4.449h1.5v-4.45h-.75Zm0 4.449v-.75h-1v1.5h1v-.75Zm-1 0h.75v-4.45h-1.5v4.45h.75Z"/></svg>