<svg xmlns="http://www.w3.org/2000/svg" fill="none" viewBox="0 0 32 32"><path fill="currentColor" d="m12 19-.623.417.223.333h.4V19Zm8 4v.75h.75V23H20Zm10 0 .282.695.568-.23-.113-.603L30 23Zm-14.32 5.816.279.696.003-.001-.282-.695Zm-3.517-.146-.34.669.005.002.335-.671ZM1 14v-.75H.25V14H1Zm4 13v.75h.75V27H5Zm-4 0H.25v.75H1V27Zm4-13h.75v-.75H5V14Zm9.458-5.533.75-.003-.75.003ZM16.906 14l-.43.614.438.308.433-.315-.44-.607Zm0-11.436.48-.577-.483-.4-.48.403.483.574Zm8.17 4.412.747-.079-.064-.608-.61-.06-.072.747Zm-2.148 5.404.52.54-.52-.54Zm-5.041 1.173-.74-.127-.252 1.479.74.126.125-.739.127-.74Zm1.807-4.407-.533-.528.533.528Zm-.249.263-.557-.503 1.092 1.028-.535-.525ZM5 16v.75h1v-1.5H5V16Zm1 0v.75c2.052 0 4.36 1.15 5.377 2.667L12 19l.623-.417C11.292 16.595 8.483 15.25 6 15.25V16Zm6 3v.75h4v-1.5h-4V19Zm4 0v.75c.76 0 1.58.385 2.222 1.028.643.643 1.028 1.461 1.028 2.222h1.5c0-1.246-.612-2.428-1.467-3.283-.856-.855-2.037-1.467-3.283-1.467V19Zm4 4v-.75h-9v1.5h9V23Zm-.639-2v.75H26v-1.5h-6.639V21ZM26 21v.75c1.669 0 2.474.457 2.853.803.196.18.302.35.358.464a.935.935 0 0 1 .056.141l-.001-.005-.001-.006-.001-.004v-.004L30 23c.737-.138.737-.139.737-.14v-.004l-.002-.006-.003-.015a1.334 1.334 0 0 0-.04-.148c-.028-.086-.07-.2-.134-.33a3.07 3.07 0 0 0-.692-.91c-.715-.654-1.91-1.197-3.866-1.197V21Zm4 2-.282-.695-14.32 5.816.282.695.282.695 14.32-5.816L30 23Zm-14.32 5.816-.279-.696a3.546 3.546 0 0 1-1.464.25l-.031.75-.031.75a5.046 5.046 0 0 0 2.084-.358l-.279-.696Zm-1.774.304.031-.75c-.5-.02-.99-.147-1.439-.37l-.335.67-.335.67a5.046 5.046 0 0 0 2.047.53l.03-.75Zm-1.743-.45.34-.669-7.163-3.638-.34.669-.34.669 7.163 3.638.34-.669ZM5 27v-.75H1v1.5h4V27Zm-4 0h.75V14H.25v13H1Zm0-13v.75h4v-1.5H1V14Zm4 0h-.75v13h1.5V14H5Zm9.458-5.533-.75.003c.009 2.081.678 3.607 1.358 4.617.34.503.68.876.94 1.126a5.202 5.202 0 0 0 .421.366l.031.022.01.008c.002 0 .003.002.004.003h.002v.001l.432-.613a75.87 75.87 0 0 1 .433-.613l.002.002-.01-.008a3.758 3.758 0 0 1-.284-.248 5.522 5.522 0 0 1-.737-.884c-.539-.8-1.095-2.041-1.102-3.785l-.75.003Zm2.448-5.903a84.234 84.234 0 0 0-.483-.573h-.001l-.002.002-.003.002-.01.009a2.287 2.287 0 0 0-.124.114 5.92 5.92 0 0 0-.317.327 8.514 8.514 0 0 0-.93 1.243 8.972 8.972 0 0 0-1.328 4.782l.75-.003.75-.003a7.472 7.472 0 0 1 1.106-3.99 7.05 7.05 0 0 1 .763-1.022 4.864 4.864 0 0 1 .302-.305l.012-.01.001-.001h-.002v.001l-.484-.573Zm0 0a90.236 90.236 0 0 1-.48.576h-.001.001a7.06 7.06 0 0 1 1.112 1.355 7.127 7.127 0 0 1 1.1 3.958l.75.014.75.014a8.628 8.628 0 0 0-1.329-4.783 8.56 8.56 0 0 0-.954-1.253 6.51 6.51 0 0 0-.464-.453l-.003-.003-.001-.001h-.001l-.48.576Zm2.482 5.903-.75-.014c-.033 1.726-.596 2.97-1.14 3.781a5.788 5.788 0 0 1-.74.899 3.886 3.886 0 0 1-.295.262l.002-.001.441.606c.44.607.441.607.442.607v-.001l.002-.001a.123.123 0 0 0 .003-.003l.01-.007a2.675 2.675 0 0 0 .128-.102c.08-.067.19-.164.319-.29.257-.254.595-.63.933-1.133.679-1.01 1.356-2.531 1.395-4.589l-.75-.014Zm5.689-1.491-.746.078V7.05v.016a4.545 4.545 0 0 1 .006.399 6.35 6.35 0 0 1-.142 1.163 6.249 6.249 0 0 1-1.787 3.21l.52.541.52.54a7.749 7.749 0 0 0 2.213-3.973c.125-.58.167-1.081.177-1.44a5.98 5.98 0 0 0-.01-.553l-.003-.037-.002-.012v-.006c0-.001 0-.002-.746.077Zm-2.149 5.404-.52-.54c-1.11 1.068-2.26 1.49-3.125 1.649-.434.08-.797.094-1.046.088a3.589 3.589 0 0 1-.354-.025h.003l-.125.74a74.473 74.473 0 0 0-.125.74h.006l.012.003.035.005.116.014c.098.01.233.02.4.023.335.007.8-.012 1.35-.113 1.103-.203 2.537-.738 3.893-2.043l-.52-.54Zm2.149-5.404.072-.747h-.006a1.879 1.879 0 0 0-.162-.01 5.777 5.777 0 0 0-.401 0 8.043 8.043 0 0 0-5.197 2.183l.513.547.513.547a6.544 6.544 0 0 1 4.219-1.778 4.286 4.286 0 0 1 .378.004h.001-.002l.072-.746Zm-5.18 1.973-.514-.547c-.074.07-.148.142-.222.216l.533.528.533.528c.06-.061.121-.12.182-.178l-.513-.547Zm-.203.197-.533-.528a8.578 8.578 0 0 0-.273.288l.557.503.557.503c.071-.08.146-.159.225-.238l-.533-.528Zm.202-.197-.535-.525-.451.46.535.525.535.525.452-.46-.536-.525Z"/></svg>