<svg xmlns="http://www.w3.org/2000/svg" fill="none" viewBox="0 0 32 32"><path fill="currentColor" d="m12.78 18.72-.53-.53-1.06 1.06.53.53.53-.53.53-.53Zm2.47 3.53-.53.53.53.53.53-.53-.53-.53Zm6.53-5.47.53-.53-1.06-1.06-.53.53.53.53.53.53ZM19.25 4.25h-.75V5h.75v-.75Zm-6 0V5H14v-.75h-.75Zm-3 0V3.5H9.5v.75h.75Zm0 4H9.5V9h.75v-.75Zm12 0V9H23v-.75h-.75Zm0-4H23V3.5h-.75v.75Zm6 1H29V4.5h-.75v.75Zm0 26V32H29v-.75h-.75Zm-24 0H3.5V32h.75v-.75Zm0-26V4.5H3.5v.75h.75Zm8 14-.53.53 3 3 .53-.53.53-.53-3-3-.53.53Zm3 3 .53.53 6-6-.53-.53-.53-.53-6 6 .53.53Zm4-18H20A3.75 3.75 0 0 0 16.25.5V2a2.25 2.25 0 0 1 2.25 2.25h.75Zm-3-3V.5a3.75 3.75 0 0 0-3.75 3.75H14A2.25 2.25 0 0 1 16.25 2v-.75Zm-3 3V3.5h-3V5h3v-.75Zm-3 0H9.5v4H11v-4h-.75Zm0 4V9h12V7.5h-12v.75Zm12 0H23v-4h-1.5v4h.75Zm0-4V3.5h-3V5h3v-.75Zm3 1V6h3V4.5h-3v.75Zm3 0h-.75v26H29v-26h-.75Zm0 26v-.75h-24V32h24v-.75Zm-24 0H5v-26H3.5v26h.75Zm0-26V6h3V4.5h-3v.75Z"/></svg>