<svg xmlns="http://www.w3.org/2000/svg" fill="none" viewBox="0 0 32 32"><path fill="currentColor" d="M16.25 8v.75h1.5V8h-1.5ZM3 1V.25 1ZM1 3H.25 1Zm0 11H.25 1Zm3 2h.75v-.75H4V16Zm0 2.667h-.75v1.401l1.166-.777L4 18.667ZM8 16v-.75h-.227l-.19.126L8 16Zm3 .75h.75v-1.5H11v1.5ZM17 12v.75V12Zm11 15v-.75h-.75V27H28Zm0 2.667-.416.624 1.166.777v-1.401H28ZM24 27l.416-.624-.189-.126H24V27ZM9.019 10.05l-.476.58.476-.58Zm.041 0-.475-.58.475.58ZM22.147 16v-.75h-.556l-.162.533.718.217Zm1.695 0 .716-.225-.166-.525h-.55V16ZM17 8h.75V3h-1.5v5H17Zm0-5h.75c0-.73-.29-1.429-.805-1.945l-.53.53-.531.531c.234.235.366.552.366.884H17Zm-.586-1.414.53-.53A2.75 2.75 0 0 0 15 .25v1.5c.332 0 .65.132.884.366l.53-.53ZM15 1V.25H3v1.5h12V1ZM3 1V.25c-.73 0-1.429.29-1.945.805l.53.53.531.531A1.25 1.25 0 0 1 3 1.75V1Zm-1.414.586-.53-.53A2.75 2.75 0 0 0 .25 3h1.5c0-.332.132-.65.366-.884l-.53-.53ZM1 3H.25v11h1.5V3H1Zm0 11H.25c0 .73.29 1.429.805 1.944l.53-.53.531-.53A1.25 1.25 0 0 1 1.75 14H1Zm.586 1.414-.53.53A2.75 2.75 0 0 0 3 16.75v-1.5a1.25 1.25 0 0 1-.884-.366l-.53.53ZM3 16v.75h1v-1.5H3V16Zm1 0h-.75v2.667h1.5V16H4Zm0 2.667.416.624 4-2.667L8 16l-.416-.624-4 2.667.416.624ZM8 16v.75h3v-1.5H8V16Zm7 9h.75V14h-1.5v11H15Zm0-11h.75c0-.332.132-.65.366-.884l-.53-.53-.53-.53A2.75 2.75 0 0 0 14.25 14H15Zm.586-1.414.53.53A1.25 1.25 0 0 1 17 12.75v-1.5c-.73 0-1.429.29-1.944.806l.53.53ZM17 12v.75h12v-1.5H17V12Zm12 0v.75c.331 0 .65.132.884.366l.53-.53.53-.53A2.75 2.75 0 0 0 29 11.25V12Zm1.414.586-.53.53c.234.235.366.553.366.884h1.5c0-.73-.29-1.429-.805-1.944l-.53.53ZM31 14h-.75v11h1.5V14H31Zm0 11h-.75c0 .331-.132.65-.366.884l.53.53.53.53A2.75 2.75 0 0 0 31.75 25H31Zm-.586 1.414-.53-.53a1.25 1.25 0 0 1-.884.366v1.5c.73 0 1.429-.29 1.945-.805l-.53-.53ZM29 27v-.75h-1v1.5h1V27Zm-1 0h-.75v2.667h1.5V27H28Zm0 2.667.416-.624-4-2.667L24 27l-.416.624 4 2.667.416-.624ZM24 27v-.75h-7v1.5h7V27Zm-7 0v-.75a1.25 1.25 0 0 1-.884-.366l-.53.53-.53.53A2.75 2.75 0 0 0 17 27.75V27Zm-1.414-.586.53-.53A1.25 1.25 0 0 1 15.75 25h-1.5c0 .73.29 1.429.806 1.945l.53-.53ZM4.306 5.552v.75h4.626v-1.5H4.306v.75Zm4.626 0v.75h4.751v-1.5h-4.75v.75Zm0-2.06h-.75v2.06h1.5v-2.06h-.75Zm0 2.06h-.75v.75h1.5v-.75h-.75Zm-2.548.419-.68.315c.22.476.604 1.288 1.083 2.104.47.799 1.074 1.68 1.756 2.24l.476-.58.475-.58c-.466-.383-.961-1.07-1.413-1.84-.442-.751-.8-1.508-1.017-1.975l-.68.316Zm2.635 4.079-.476.58.025.02.471-.584.472-.583a2.648 2.648 0 0 1-.017-.014l-.475.58Zm.02.016-.47.584c.606.49 1.502.936 2.308 1.298.413.185.82.356 1.18.505.365.152.67.278.897.38l.307-.685.307-.684c-.251-.113-.582-.249-.935-.396-.358-.148-.75-.313-1.142-.489-.804-.36-1.54-.74-1.98-1.096l-.472.583Zm2.656-4.095-.68-.316a23.188 23.188 0 0 1-1.017 1.976c-.452.77-.947 1.456-1.413 1.839l.475.58.476.58c.682-.56 1.286-1.441 1.755-2.24.48-.816.864-1.628 1.085-2.104l-.68-.315ZM9.06 10.05l-.475-.58-.017.013.471.583.472.584.025-.02-.476-.58Zm-.02.016-.472-.583c-.44.355-1.176.735-1.98 1.096-.393.176-.784.34-1.142.49-.353.146-.684.282-.935.395l.307.684.307.685c.227-.102.532-.228.897-.38.36-.15.767-.32 1.18-.505.806-.362 1.702-.809 2.309-1.298l-.472-.584Zm10.753 13.705.718.217 2.354-7.77-.718-.218-.718-.217-2.354 7.77.718.218ZM22.147 16v.75h1.695v-1.5h-1.695V16Zm1.695 0-.715.225 1.647 5.23.715-.225.715-.225-1.646-5.23-.716.225Zm1.647 5.23-.715.226.8 2.54.715-.225.715-.226-.8-2.54-.715.225Zm-4.827 0v.75h4.827v-1.5h-4.827v.75Zm4.827 0v.75h.03v-1.5h-.03v.75Z"/></svg>