<svg xmlns="http://www.w3.org/2000/svg" fill="none" viewBox="0 0 32 32"><path fill="currentColor" d="M16.75 1V.25h-1.5V1h1.5Zm6 27v-.75h-1.5V28h1.5ZM30 16v.75h.865l-.123-.857L30 16ZM2 16l-.742-.107-.123.857H2V16ZM16 4h.75V1h-1.5v3H16Zm6 24h-.75A2.25 2.25 0 0 1 19 30.25v1.5A3.75 3.75 0 0 0 22.75 28H22Zm-3 3v-.75A2.25 2.25 0 0 1 16.75 28h-1.5A3.75 3.75 0 0 0 19 31.75V31ZM9 16h.75c0-4.798 2.767-9.026 6.637-11.358L16 4l-.387-.642C11.35 5.926 8.25 10.612 8.25 16H9Zm14 0h.75c0-5.388-3.1-10.074-7.363-12.642L16 4l-.387.642c3.87 2.332 6.637 6.56 6.637 11.358H23Zm7 0 .742-.107C29.716 8.74 23.42 3.25 16 3.25v1.5c6.682 0 12.338 4.947 13.258 11.357L30 16ZM16 4v-.75c-7.42 0-13.716 5.489-14.742 12.643L2 16l.742.107C3.662 9.697 9.318 4.75 16 4.75V4ZM2 16v.75h28v-1.5H2V16Zm14 12h.75V4h-1.5v24H16Z"/></svg>