<svg xmlns="http://www.w3.org/2000/svg" fill="none" viewBox="0 0 32 32"><path stroke="currentColor" stroke-linecap="square" stroke-miterlimit="10" vector-effect="non-scaling-stroke" stroke-width="1.5" d="m27.588 24.518-5.177-1.035A3 3 0 0 1 20 20.541v-.826c2.769-.481 5.639-1.519 7-2.715-2.813-2.873-2.957-5.741-3.001-9.083C23.944 4.086 20.832 1 17 1a7 7 0 0 0-7 7c0 2.957 0 6.062-3 9 1.364 1.198 4.221 2.239 7 2.718v.823a3 3 0 0 1-2.412 2.942l-5.177 1.035A2.999 2.999 0 0 0 4 27.459V31h26v-3.541a2.998 2.998 0 0 0-2.412-2.941Z"/></svg>