<svg xmlns="http://www.w3.org/2000/svg" fill="none" viewBox="0 0 32 32"><path stroke="currentColor" stroke-linecap="square" stroke-miterlimit="10" vector-effect="non-scaling-stroke" stroke-width="1.5" d="M15.88 26.27v3.78m7.53-18.84c0 6.05-4.17 9.41-7.53 9.41-3.36 0-7.53-3.36-7.53-9.41m-1.89 0h18.83m-17.89 0v-.94c0-4.68 3.8-8.47 8.48-8.47m0 0c4.68 0 8.47 3.79 8.47 8.47v.94M15.88 1.8v1.88m0-1.88v.94M11.86 19.4l-8 4.01a3.83 3.83 0 0 0-2.11 3.42v3.37h28.5v-3.37c0-1.45-.82-2.77-2.11-3.42l-8-4.01"/></svg>