<svg xmlns="http://www.w3.org/2000/svg" fill="none" viewBox="0 0 32 32"><path stroke="currentColor" stroke-miterlimit="11.474" vector-effect="non-scaling-stroke" stroke-width="1.5" d="M24.25 13v6m-2.95-3.05h6m-19.772.235s1.093-.929 2.582-.929c1.229 0 1.99.992 1.99 2.244 0 1.5-1.387 2.047-2.387 2.047-1.78 0-2.185-1.86-2.185-3.362Zm0 0c0-2.209.619-3.97 1.948-4.185 1.33-.214 2.256.646 2.256.646M1 1h30v30H1V1Zm18.2 14.7c0-.975-.209-1.86-.625-2.52-.457-.724-1.153-1.18-1.875-1.18s-1.394.453-1.85 1.177c-.416.661-.65 1.548-.65 2.523 0 .975.174 1.862.59 2.523.456.724 1.188 1.177 1.91 1.177s1.494-.453 1.95-1.177c.417-.661.55-1.548.55-2.523Z"/></svg>