<svg xmlns="http://www.w3.org/2000/svg" fill="none" viewBox="0 0 32 32"><path fill="currentColor" d="M30.4 13.019h.75-.75Zm-1.39-1.381v.75h.005l-.004-.75ZM.75 22.488H0v.75h.75v-.75Zm0-.288h.75v-.025l-.75.025Zm2.861-5.273-.375-.65-.006.004-.006.004.387.642Zm21.552-.893v.75-.75ZM31.25 22.2l-.75-.01v.01h.75Zm0 .278v.75H32v-.75h-.75Zm-3.038.975h-.75.75Zm-1.525-2.642-.375.65.375-.65ZM9.8 23.4h-.75.75Zm-1.525-2.642-.375.65.375-.65ZM30.4 19.045h.75v-6.026h-1.5v6.026h.75Zm0-6.026h.75c0-.281-.056-.56-.164-.818l-.692.288-.693.288a.63.63 0 0 1 .049.243l.75-.001Zm-.106-.53.692-.288a2.131 2.131 0 0 0-.465-.693l-.529.532-.529.532a.63.63 0 0 1 .138.205l.693-.288Zm-.302-.45.53-.53a2.133 2.133 0 0 0-.696-.462l-.284.694-.285.694a.632.632 0 0 1 .206.137l.53-.532Zm-.45-.298.284-.694a2.133 2.133 0 0 0-.819-.159l.004.75.004.75c.083 0 .165.016.242.047l.285-.694Zm-.531-.103v-.75h-19v1.5h19v-.75Zm-19 0v-.75c-2.465 0-4.774.581-6.487 1.846C1.782 14.02.717 15.971.717 18.538h1.5c0-2.1.847-3.6 2.198-4.597 1.379-1.018 3.342-1.553 5.596-1.553v-.75Zm-8.544 6.9h-.75v.689h1.5v-.689h-.75Zm2.404 3.95v-.75H.75v1.5h3.121v-.75Zm-3.121 0h.75V22.2H0v.288h.75Zm0-.288.75-.025a5.175 5.175 0 0 1 .623-2.643l-.66-.357-.658-.358A6.675 6.675 0 0 0 0 22.225l.75-.025Zm.714-3.025.659.357a5.175 5.175 0 0 1 1.875-1.963l-.387-.642-.387-.642a6.675 6.675 0 0 0-2.42 2.532l.66.358Zm2.147-2.248.375.65a5.339 5.339 0 0 1 2.669-.715v-1.5c-1.2 0-2.38.316-3.419.915l.375.65Zm3.044-.815v.75c.937 0 1.857.247 2.668.715l.375-.65.375-.649a6.838 6.838 0 0 0-3.418-.916v.75Zm3.043.816-.375.65a5.337 5.337 0 0 1 1.954 1.953l.65-.375.649-.375a6.837 6.837 0 0 0-2.503-2.503l-.375.65Zm2.229 2.228-.65.375c.468.812.715 1.732.715 2.669h1.5c0-1.2-.316-2.38-.916-3.419l-.65.375Zm10.76 3.326v-.75l-13.55.004v1.5l13.55-.004v-.75Zm-3.612-.282.75-.01a5.337 5.337 0 0 1 .386-2.063l-.695-.28-.696-.281a6.838 6.838 0 0 0-.495 2.644l.75-.01Zm.44-2.354.696.28a5.337 5.337 0 0 1 1.153-1.754l-.534-.527-.534-.527a6.837 6.837 0 0 0-1.476 2.248l.696.28Zm1.315-2.001.534.527a5.337 5.337 0 0 1 1.74-1.175l-.29-.692-.289-.692a6.827 6.827 0 0 0-2.229 1.505l.534.527Zm1.985-1.34.289.692a5.337 5.337 0 0 1 2.059-.413v-1.5a6.84 6.84 0 0 0-2.638.529l.29.692Zm2.348-.471v.75c.706 0 1.406.14 2.058.413l.29-.692.288-.692a6.84 6.84 0 0 0-2.636-.529v.75Zm2.347.47-.289.693a5.337 5.337 0 0 1 1.74 1.175l.534-.527.534-.527a6.836 6.836 0 0 0-2.23-1.505l-.289.692Zm1.985 1.34-.534.528c.497.503.888 1.1 1.152 1.755l.696-.28.696-.281a6.837 6.837 0 0 0-1.476-2.248l-.534.527Zm1.314 2.002-.696.28a5.33 5.33 0 0 1 .387 2.064l.75.01.75.01a6.838 6.838 0 0 0-.495-2.644l-.696.28Zm.441 2.354h-.75v.278H32V22.2h-.75Zm0 .278v-.75h-3.512v1.5h3.512v-.75Zm-3.038.975h-.75c0 .506-.167.998-.476 1.4l.595.456.595.457a3.8 3.8 0 0 0 .786-2.313h-.75Zm-.63 1.857-.596-.457a2.3 2.3 0 0 1-1.23.821l.195.725.194.724a3.8 3.8 0 0 0 2.031-1.357l-.595-.456Zm-1.631 1.089-.194-.725a2.3 2.3 0 0 1-1.476-.097l-.287.693-.287.693a3.8 3.8 0 0 0 2.438.16l-.194-.724Zm-1.957-.129.288-.693a2.3 2.3 0 0 1-1.112-.975l-.65.375-.65.375a3.8 3.8 0 0 0 1.837 1.61l.287-.692Zm-1.474-1.293.65-.375a2.3 2.3 0 0 1-.288-1.45l-.744-.098-.744-.098a3.8 3.8 0 0 0 .477 2.396l.65-.375Zm-.382-1.923.744.098a2.3 2.3 0 0 1 .654-1.326l-.53-.53-.53-.53a3.8 3.8 0 0 0-1.081 2.19l.743.098Zm.867-1.758.53.53a2.3 2.3 0 0 1 1.327-.654l-.098-.744-.098-.743a3.8 3.8 0 0 0-2.19 1.08l.53.53Zm1.759-.867.098.743a2.3 2.3 0 0 1 1.45.288l.375-.649.375-.65a3.8 3.8 0 0 0-2.396-.476l.098.744Zm1.923.382-.375.65c.35.201.64.492.842.841l.65-.375.65-.374a3.799 3.799 0 0 0-1.392-1.392l-.375.65Zm1.117 1.116-.65.375c.202.35.308.747.308 1.15l.75.001h.75c0-.667-.175-1.322-.509-1.9l-.65.374ZM14.219 5.5l-.577.48c1.353 1.627 2.092 3.05 2.491 4.05.2.501.315.897.38 1.16a4.794 4.794 0 0 1 .073.358l.001.011s0 .001 0 0v-.002l.745-.088.745-.088v-.002l-.001-.004-.001-.011a1.804 1.804 0 0 0-.023-.144 6.195 6.195 0 0 0-.083-.386 10.28 10.28 0 0 0-.443-1.36c-.454-1.138-1.272-2.7-2.73-4.453l-.577.479ZM9.8 23.4h-.75a2.3 2.3 0 0 1-.476 1.4l.595.456.595.457a3.8 3.8 0 0 0 .786-2.313H9.8Zm-.63 1.857-.596-.457a2.3 2.3 0 0 1-1.23.821l.195.725.194.724a3.8 3.8 0 0 0 2.031-1.357l-.595-.457Zm-1.631 1.089-.194-.725a2.3 2.3 0 0 1-1.475-.097l-.288.693-.287.693a3.8 3.8 0 0 0 2.438.16l-.194-.724Zm-1.957-.129.288-.693a2.3 2.3 0 0 1-1.112-.975l-.65.375-.65.375a3.8 3.8 0 0 0 1.837 1.61l.287-.692Zm-1.474-1.293.65-.375a2.3 2.3 0 0 1-.288-1.45l-.744-.098-.744-.098A3.8 3.8 0 0 0 3.46 25.3l.65-.375Zm-.382-1.923.744.098a2.3 2.3 0 0 1 .654-1.326l-.53-.53-.53-.53a3.8 3.8 0 0 0-1.082 2.19l.744.098Zm.867-1.758.53.53a2.3 2.3 0 0 1 1.327-.654l-.098-.744-.098-.743a3.8 3.8 0 0 0-2.19 1.08l.53.53Zm1.759-.867.098.743a2.3 2.3 0 0 1 1.45.288l.375-.649.375-.65a3.8 3.8 0 0 0-2.396-.476l.098.743Zm1.923.382-.375.65c.35.201.64.492.842.842l.65-.375.649-.375a3.8 3.8 0 0 0-1.391-1.392l-.375.65Zm1.116 1.117-.65.375a2.3 2.3 0 0 1 .309 1.15h1.5c0-.667-.175-1.322-.509-1.9l-.65.375Z"/></svg>