<svg xmlns="http://www.w3.org/2000/svg" fill="none" viewBox="0 0 32 32"><path fill="currentColor" d="m30.247 4.257.75.003.006-1.5-.75-.003-.003.75-.003.75ZM28.489 3.5l.003-.75-.753-.003V3.5h.75Zm0 21.581h-.75.75ZM25.6 27.364l-.266.701.045.017.047.012.174-.73Zm-.541-1.007-.701-.266-.532 1.402.701.266.266-.701.266-.701Zm-.878-11.129.74-.123-.124-.747-.747.131.131.739Zm1.467 8.819.123.74.74-.123-.123-.74-.74.123ZM10.771 9.528l.581-.474-.276-.338-.43.073.125.739ZM22.341 24.6l-.74.123.74-.123Zm-2.13-2.589-.263.702.263-.702ZM30.25 3.507l.003-.75-1.761-.007-.003.75-.003.75 1.761.007.003-.75ZM28.489 3.5h-.75v21.581h1.5V3.5h-.75Zm0 21.581h-.75c0 .241-.055.48-.16.696l.676.327.675.327c.203-.421.31-.883.309-1.35h-.75Zm-.234 1.023-.675-.327a1.595 1.595 0 0 1-.447.557l.465.588.465.589c.366-.29.663-.66.867-1.08l-.675-.327Zm-.657.818-.465-.588c-.19.15-.41.254-.645.306l.162.732.161.733a3.097 3.097 0 0 0 1.252-.594l-.465-.589Zm-.948.45-.162-.732c-.236.052-.48.05-.714-.006l-.174.73-.174.73c.455.108.929.112 1.385.01l-.162-.732Zm-1.05-.008.266-.701-.807-.306-.266.701-.266.701.807.306.266-.701Zm-9.874-1.667-.13-.738-13.977 2.474.131.738.13.739 13.977-2.474-.131-.739ZM1.795 19.184l.13.739 22.386-3.956-.13-.739-.13-.739-22.387 3.956.131.739Zm22.386-3.956-.74.123 1.467 8.82.74-.124.74-.123-1.467-8.82-.74.124Zm1.467 8.819-.123-.74-3.307.55.123.74.123.74 3.307-.55-.123-.74ZM1.75 11.057l.125.74 9.021-1.53-.125-.739-.125-.74-9.021 1.53.125.739Zm9.021-1.529-.581.474 5.693 6.983.581-.474.581-.474-5.693-6.983-.581.474ZM22.341 24.6l-.74.123a2.603 2.603 0 0 1-.27 1.652l.662.352.662.353a4.103 4.103 0 0 0 .426-2.603l-.74.123Zm-.348 2.127-.662-.352a2.61 2.61 0 0 1-1.22 1.145l.31.683.31.683a4.103 4.103 0 0 0 1.923-1.806l-.661-.353Zm-1.572 1.476-.31-.683a2.604 2.604 0 0 1-1.666.166l-.169.73-.17.731c.88.204 1.803.112 2.625-.261l-.31-.683Zm-2.145.214.17-.73a2.604 2.604 0 0 1-1.423-.883l-.579.477-.579.476a4.103 4.103 0 0 0 2.242 1.39l.17-.73Zm-1.832-1.136.58-.477a2.603 2.603 0 0 1-.592-1.565l-.75.025-.75.026c.031.902.36 1.77.933 2.467l.58-.476Zm-.762-2.017.75-.025c-.02-.573.15-1.136.484-1.602l-.61-.436-.61-.436a4.103 4.103 0 0 0-.763 2.525l.75-.026Zm.624-2.063.61.436a2.6 2.6 0 0 1 1.359-.977l-.219-.717-.218-.718a4.102 4.102 0 0 0-2.142 1.54l.61.436Zm1.75-1.258.219.717a2.603 2.603 0 0 1 1.673.053l.263-.702.263-.702a4.103 4.103 0 0 0-2.636-.084l.218.718Zm2.155.068-.263.702a2.6 2.6 0 0 1 1.096.784l.579-.477.579-.476a4.103 4.103 0 0 0-1.728-1.235l-.263.702Zm1.412 1.01-.58.476c.29.352.483.776.558 1.226l.74-.123.74-.123a4.103 4.103 0 0 0-.879-1.933l-.58.476ZM3.487 10.811l-.74.123 1.284 7.717.74-.123.74-.123-1.284-7.717-.74.123Z"/></svg>