<svg xmlns="http://www.w3.org/2000/svg" fill="none" viewBox="0 0 32 32"><path stroke="currentColor" stroke-miterlimit="10" vector-effect="non-scaling-stroke" stroke-width="1.5" d="m21 9.282-1.682-4.031H14.93M9.75 22.249a4.5 4.5 0 1 1-9 0 4.5 4.5 0 0 1 9 0Zm16.189-7.26a6.388 6.388 0 0 0-6.639 5.86l-6.629-.016c-.442-2.693-2.44-5.844-6.465-5.844H2.268l-.932-3.372 10.291.65c1.879 0 3.358-1.139 4.781-2.071A6.907 6.907 0 0 1 20.091 9c1.8 0 4.649 1.071 7.886 2.138a2.312 2.312 0 0 1 1.713 2.352v1.5l-3.751-.001Zm5.311 7.26a4.5 4.5 0 1 1-9 0 4.5 4.5 0 0 1 9 0Z"/></svg>