<svg xmlns="http://www.w3.org/2000/svg" fill="none" viewBox="0 0 32 32"><path fill="currentColor" d="m11.144 10.526.579-.477-.007-.008-.572.485Zm.329 4.529.592.46h.001l-.593-.46Zm-2.135 6.4-.621.42.621-.42Zm0 4.27-.62-.42-.002.002.622.418ZM4 18.256h-.75H4Zm12.813 2.176-.274-.698.274.698Zm6.428 2.442.122.74-.122-.74ZM21.416 7.576l-.335.67.335.169.335-.168-.335-.671ZM14.84 4.288l-.335-.67-1.342.67 1.342.67.335-.67ZM21.416 1l.335-.67-.335-.169-.335.168.335.671Zm6.576 3.288.335.67 1.342-.67-1.342-.67-.335.67Zm.758 2.523v-.75h-1.5v.75h1.5Zm-1.5 2v.75h1.5v-.75h-1.5ZM9.033 8.618l-.425.618c.73.502 1.39 1.1 1.964 1.775l.572-.485.572-.485A11.519 11.519 0 0 0 9.458 8l-.425.618Zm2.111 1.908-.578.477c.072.088.192.294.313.619.116.311.216.686.273 1.075.121.825.023 1.518-.272 1.899l.593.459.593.46c.676-.874.709-2.088.57-3.035a6.866 6.866 0 0 0-.352-1.383c-.148-.396-.338-.778-.562-1.048l-.578.477Zm.329 4.529-.592-.46c-.188.242-.496.48-.919.728-.422.247-.883.463-1.37.704-.459.227-.959.485-1.344.792-.382.304-.796.77-.796 1.436h1.5s-.002-.013.022-.052a.931.931 0 0 1 .208-.21c.243-.194.604-.389 1.076-.622.444-.22.98-.471 1.463-.754.481-.282.982-.636 1.344-1.102l-.592-.46Zm-4.271 3.2h-.75c0 .42.147.801.32 1.12.176.32.408.629.638.91.502.615.957 1.073 1.307 1.59l.621-.42.621-.42c-.394-.583-1.007-1.233-1.387-1.698a4.679 4.679 0 0 1-.483-.682c-.11-.202-.137-.328-.137-.4h-.75Zm2.136 3.2-.62.42c.342.507.525 1.104.525 1.715h1.5a4.56 4.56 0 0 0-.784-2.556l-.621.421Zm.655 2.135h-.75c0 .611-.183 1.208-.526 1.714l.621.421.62.42a4.556 4.556 0 0 0 .785-2.555h-.75Zm-.655 2.135-.622-.418a3.278 3.278 0 0 1-1.151 1.049l.359.658.36.658a4.777 4.777 0 0 0 1.676-1.529l-.622-.418Zm16.828-12.887-.666.346a10.995 10.995 0 0 1 1.236 4.777l.75-.02.75-.02a12.495 12.495 0 0 0-1.405-5.429l-.665.346Zm1.32 5.103-.75.02a10.991 10.991 0 0 1-.978 4.836l.683.31.683.31a12.495 12.495 0 0 0 1.111-5.496l-.75.02Zm-1.045 5.166-.683-.31a10.995 10.995 0 0 1-2.994 3.922l.478.577.48.577a12.494 12.494 0 0 0 3.402-4.456l-.683-.31Zm-3.199 4.19-.478-.578a10.995 10.995 0 0 1-4.408 2.217l.178.729.178.728a12.495 12.495 0 0 0 5.01-2.52l-.48-.577Zm-4.708 2.367-.178-.728a10.994 10.994 0 0 1-4.934.066l-.159.733-.158.733c1.85.4 3.768.375 5.607-.075l-.178-.729Zm-5.27.071.158-.733a10.995 10.995 0 0 1-4.466-2.098l-.463.59-.463.59a12.495 12.495 0 0 0 5.075 2.384l.159-.733Zm-4.771-2.241.463-.59a10.995 10.995 0 0 1-3.099-3.84l-.674.328-.675.328a12.495 12.495 0 0 0 3.522 4.364l.463-.59Zm-3.31-4.102.674-.328a10.995 10.995 0 0 1-1.107-4.808h-1.5c0 1.893.43 3.762 1.258 5.464l.675-.328ZM4 18.256h.75c0-6.153 4.115-11.016 10.11-11.016v-1.5c-6.977 0-11.61 5.697-11.61 12.516H4ZM15.594 30l.472-.583c-.439-.354-.82-.955-1.075-1.74a6.942 6.942 0 0 1-.3-2.577c.126-1.828.933-3.396 2.396-3.97l-.274-.698-.274-.698c-2.225.872-3.198 3.141-3.345 5.263a8.44 8.44 0 0 0 .37 3.145c.313.961.826 1.849 1.559 2.441l.471-.583Zm1.219-9.568.274.698c.216-.084.367-.063.605.086.313.197.594.498 1.093.948.457.413 1.031.88 1.787 1.188.767.313 1.678.445 2.79.262l-.121-.74-.122-.74c-.851.14-1.481.033-1.981-.17-.513-.21-.933-.538-1.347-.912-.373-.337-.84-.816-1.301-1.106-.538-.338-1.189-.511-1.95-.212l.273.698Zm6.428 2.442.122.74c.335-.055.627.023.838.201.208.175.422.518.453 1.157l.749-.036.75-.036c-.046-.96-.392-1.733-.986-2.233-.59-.496-1.34-.65-2.048-.533l.122.74ZM21.416 7.576l.335-.67-6.576-3.289-.335.671-.335.67 6.576 3.289.335-.671ZM14.84 4.288l.335.67 6.576-3.287L21.416 1l-.335-.67-6.576 3.287.335.671ZM21.416 1l-.335.67 6.576 3.289.335-.671.335-.67-6.576-3.29-.335.672Zm6.576 3.288-.335-.67-6.576 3.287.335.671.335.67 6.576-3.287-.335-.671Zm-11.273.94h-.75v5.167h1.5V5.228h-.75Zm0 5.167h-.75c0 1.087.859 1.868 1.79 2.333.975.487 2.27.766 3.66.766v-1.5c-1.21 0-2.265-.246-2.99-.608-.769-.384-.96-.777-.96-.991h-.75Zm4.7 2.349v.75c1.391 0 2.686-.28 3.66-.767.93-.466 1.79-1.247 1.79-2.332h-1.5c0 .212-.19.605-.96.99-.726.363-1.781.609-2.99.609v.75Zm4.7-2.349h.75V5.228h-1.5v5.167h.75ZM28 6.811h-.75v2h1.5v-2H28Z"/></svg>