<svg xmlns="http://www.w3.org/2000/svg" fill="none" viewBox="0 0 32 32"><path fill="currentColor" d="M12 7.75h.75v-1.5H12v1.5Zm-5-1.5h-.75v1.5H7v-1.5ZM23 6l.742-.106-.091-.644H23V6ZM9 11v-.75h-.602l-.13.587L9 11Zm22 9h-.75c0 2.9-2.35 5.25-5.25 5.25v1.5A6.75 6.75 0 0 0 31.75 20H31Zm-6 6v-.75A5.25 5.25 0 0 1 19.75 20h-1.5A6.75 6.75 0 0 0 25 26.75V26Zm-6-6h.75c0-2.9 2.35-5.25 5.25-5.25v-1.5A6.75 6.75 0 0 0 18.25 20H19Zm6-6v.75c2.9 0 5.25 2.35 5.25 5.25h1.5A6.75 6.75 0 0 0 25 13.25V14Zm-12 6h-.75c0 2.9-2.35 5.25-5.25 5.25v1.5A6.75 6.75 0 0 0 13.75 20H13Zm-6 6v-.75A5.25 5.25 0 0 1 1.75 20H.25A6.75 6.75 0 0 0 7 26.75V26Zm-6-6h.75c0-2.9 2.35-5.25 5.25-5.25v-1.5A6.75 6.75 0 0 0 .25 20H1Zm6-6v.75c2.9 0 5.25 2.35 5.25 5.25h1.5A6.75 6.75 0 0 0 7 13.25V14Zm5-7v-.75H7v1.5h5V7Zm13 13 .742-.106-2-14L23 6l-.742.106 2 14L25 20ZM23 6v-.75h-5v1.5h5V6Zm.7 5v-.75H9v1.5h14.7V11ZM9 11l-.732-.163-2 9L7 20l.732.163 2-9L9 11Z"/></svg>