<svg xmlns="http://www.w3.org/2000/svg" fill="none" viewBox="0 0 32 32"><path stroke="currentColor" stroke-miterlimit="10" vector-effect="non-scaling-stroke" stroke-width="1.5" d="M22.095 28.14H9.905m12.19 0c0 1.706 1.365 3.088 3.048 3.088s3.047-1.382 3.047-3.087m-6.095 0c0-1.705 1.365-3.088 3.048-3.088s3.047 1.383 3.047 3.088m-18.285 0c0 1.705-1.365 3.087-3.048 3.087S3.81 29.846 3.81 28.141m6.095 0c0-1.705-1.365-3.088-3.048-3.088S3.81 26.436 3.81 28.141m0 0H.762v-8.233m0 0 5.08-7.204h14.222l4.063 7.204m-23.365 0h23.365m0 0h7.111v8.233h-3.047m-15.24-15.437v7.204M20.62 6.864V3.537h3.624a4.4 4.4 0 0 0-1.597-1.994 4.313 4.313 0 0 0-4.85-.015 4.398 4.398 0 0 0-1.608 1.984L5.843 2.707v4.99l10.345-.806c.33.809.89 1.5 1.61 1.985a4.313 4.313 0 0 0 4.85-.016 4.4 4.4 0 0 0 1.596-1.996h-3.625Z"/></svg>