<svg xmlns="http://www.w3.org/2000/svg" fill="none" viewBox="0 0 32 32"><path stroke="currentColor" stroke-miterlimit="11.474" vector-effect="non-scaling-stroke" stroke-width="1.5" d="M2.268 23.583v-8.02h1.62m0 0h11.294m-11.293 0V4.353h6.85c.544 0 1.376.258 1.548 1.548.25 1.88.888 6.277 2.894 9.662m0 0h4.027l1.105 4.589 2.359 1.004v3.328m2.942-5.552v7.912h5.552M5 26a.75.75 0 1 1-1.5 0A.75.75 0 0 1 5 26Zm5.189 0a.75.75 0 1 1-1.5 0 .75.75 0 0 1 1.5 0Zm5.189 0a.75.75 0 1 1-1.5 0 .75.75 0 0 1 1.5 0Zm5.189 0a.75.75 0 1 1-1.5 0 .75.75 0 0 1 1.5 0ZM4 29h16a3 3 0 1 0 0-6H4a3 3 0 0 0 0 6Z"/></svg>