<svg xmlns="http://www.w3.org/2000/svg" fill="none" viewBox="0 0 32 32"><path fill="currentColor" d="M1.75 4.698v-.75H1v.75h.75Zm0 19.265H1v.75h.75v-.75Zm3.232-13.867h-.75v1.5h.75v-1.5Zm4.749 1.5h.75v-1.5h-.75v1.5Zm2.816 12.21v.75h1.5v-.75h-1.5Zm.75-9.828v-.75h-.75v.75h.75Zm5.406 0h.75v-.75h-.75v.75Zm-.75 9.828v.75h1.5v-.75h-1.5Zm10.11-13.541-.75-.005v.005h.75Zm0 .072v.75h.75v-.75h-.75Zm-5.922 0v-.75h-.75v.75h.75Zm0 6.483h-.75v.75h.75v-.75Zm4.943 0 .465-.589-.205-.161h-.26v.75Zm3.166 2.5H31v-.363l-.285-.226-.465.589Zm0 4.646v.75H31v-.75h-.75Zm-19.394.066h-.75a2.521 2.521 0 0 1-2.521 2.521v1.5c2.22 0 4.021-1.8 4.021-4.021h-.75Zm-3.271 3.271v-.75a2.521 2.521 0 0 1-2.521-2.521h-1.5c0 2.22 1.8 4.021 4.021 4.021v-.75Zm-3.271-3.271h.75a2.521 2.521 0 0 1 2.521-2.521v-1.5c-2.22 0-4.021 1.8-4.021 4.021h.75Zm3.271-3.271v.75a2.521 2.521 0 0 1 2.521 2.521h1.5c0-2.22-1.8-4.021-4.021-4.021v.75Zm20.185 3.271h-.75a2.521 2.521 0 0 1-2.521 2.521v1.5c2.22 0 4.021-1.8 4.021-4.021h-.75Zm-3.271 3.271v-.75a2.521 2.521 0 0 1-2.521-2.521h-1.5c0 2.22 1.8 4.021 4.021 4.021v-.75Zm-3.271-3.271h.75a2.521 2.521 0 0 1 2.521-2.521v-1.5c-2.22 0-4.021 1.8-4.021 4.021h.75Zm3.271-3.271v.75a2.521 2.521 0 0 1 2.521 2.521h1.5c0-2.22-1.8-4.021-4.021-4.021v.75Zm-14.027 3.202v.75h11.047v-1.5H10.472v.75ZM22.84 4.698v-.75H1.75v1.5h21.09v-.75Zm-21.09 0H1v19.265h1.5V4.698h-.75Zm0 19.265v.75h2.324v-1.5H1.75v.75Zm25.334-7.145.738-.136-1.124-6.085-.738.136-.738.136 1.124 6.085.738-.136ZM4.982 10.846v.75h4.749v-1.5H4.982v.75Zm8.315 12.96h.75v-9.828h-1.5v9.828h.75Zm0-9.828v.75h5.406v-1.5h-5.406v.75Zm5.406 0h-.75v9.828h1.5v-9.828h-.75ZM22.777 4.7l-.033.75a4.781 4.781 0 0 1 3.255 1.483l.543-.517.544-.516a6.281 6.281 0 0 0-4.276-1.95l-.033.75Zm3.765 1.716L26 6.933a4.781 4.781 0 0 1 1.314 3.327l.75.005.75.005a6.281 6.281 0 0 0-1.727-4.37l-.544.516Zm1.521 3.849h-.75v.072h1.5v-.072h-.75Zm0 .072v-.75h-5.922v1.5h5.922v-.75Zm-5.922 0h-.75v6.483h1.5v-6.483h-.75Zm0 6.483v.75h4.943v-1.5h-4.943v.75Zm4.943 0-.465.589 3.166 2.5.465-.589.465-.589-3.166-2.5-.465.589Zm3.166 2.5h-.75v4.646H31V19.32h-.75Zm0 4.646v-.75h-2.394v1.5h2.394v-.75Z"/></svg>