<svg xmlns="http://www.w3.org/2000/svg" fill="none" viewBox="0 0 32 32"><path fill="currentColor" d="M10.742 29.404a.75.75 0 0 0 0 1.5v-1.5Zm10.408.75v.75h.005l-.005-.75Zm1.442-1.335.747.063.001-.01v-.009l-.748-.044Zm-1.666-1.637v.75h.029l.029-.002-.058-.748Zm-5.681-.75a.75.75 0 0 0 0 1.5v-1.5Zm4.743-.428-.536.525 1.05 1.072.536-.525-.525-.536-.525-.536Zm3.285-3.186.128-.74-1.478-.255-.128.74.739.127.74.128Zm2.775-1.742.703-.262a.667.667 0 0 0-.01-.027l-.693.289Zm.357-7.37-.738.136a.783.783 0 0 0 .011.048l.727-.184Zm.34-4.2.706.253a.735.735 0 0 0 .02-.062l-.726-.191Zm.575-7.521.746-.079a.76.76 0 0 0-.008-.056l-.738.135Zm-.377-.151-.44-.607a.75.75 0 0 0-.13.119l.57.488ZM24.573 4.6l-.314.681a.75.75 0 0 0 .884-.193l-.57-.488Zm-.013-.006.314-.681a.78.78 0 0 0-.025-.011l-.289.692Zm-4.116.006-.593.459a.75.75 0 0 0 .884.232l-.291-.691Zm-2.166-2.8.593-.459a.752.752 0 0 0-.156-.15l-.437.609Zm-.377.151-.737-.14a.756.756 0 0 0-.01.072l.747.068Zm.34 7.117-.737.14.006.03.731-.17Zm.743 2.933.127.74a.75.75 0 0 0 .596-.939l-.723.199Zm-.493.085-.127-.74a.721.721 0 0 0-.051.011l.178.729Zm-9.926 13.7.705.257a.75.75 0 0 0 .045-.257h-.75Zm-.157.43-.303.686a.75.75 0 0 0 1.008-.429l-.705-.257Zm-3.483-9.544.747-.065-.747.065Zm-.91-.125-.702-.264-.003.008.705.256Zm.332 9.867-.654.368.654-.368Zm20.737 3.265a.75.75 0 0 0 1.375-.6l-.687.3-.688.3Zm-1.83-7.954a.75.75 0 0 0-1.376.6l.688-.3.688-.3Zm4.54 8.385.308.684.012-.006.012-.006-.332-.672Zm-17.052.044v.75H21.15v-1.5H10.742v.75Zm10.408 0 .005.75a2.207 2.207 0 0 0 1.485-.587l-.51-.55-.51-.551a.704.704 0 0 1-.475.188l.005.75Zm.98-.388.51.55a2.21 2.21 0 0 0 .7-1.434l-.748-.063-.747-.063a.707.707 0 0 1-.224.46l.509.55Zm.462-.947.749.044a2.3 2.3 0 0 0-.15-.962l-.7.27-.7.269a.78.78 0 0 1 .052.335l.749.044Zm-.1-.648.7-.27a2.3 2.3 0 0 0-.535-.814l-.526.535-.526.535a.8.8 0 0 1 .186.283l.7-.27Zm-.36-.55.525-.534a2.3 2.3 0 0 0-.824-.52l-.257.704-.257.705c.107.04.205.1.286.18l.526-.534Zm-.556-.35.257-.704a2.3 2.3 0 0 0-.964-.133l.057.748.058.748a.8.8 0 0 1 .335.046l.257-.705Zm-.65-.089v-.75h-5.681v1.5h5.681v-.75Zm-.413-.642.525.536a7.831 7.831 0 0 0 2.235-4.258l-.739-.128-.739-.128a6.332 6.332 0 0 1-1.807 3.442l.525.536Zm8.135 1.506.703-.262-2.6-6.97-.703.262-.703.262 2.6 6.97.703-.262Zm-2.6-6.97.692-.289c.025.059.004.052.01-.105.005-.136.026-.319.062-.558.037-.237.085-.507.14-.812.055-.302.116-.635.173-.987.226-1.388.422-3.166.007-4.803l-.727.184-.727.184c.334 1.317.188 2.832-.034 4.194a46.43 46.43 0 0 1-.167.96c-.055.302-.107.59-.147.85-.04.258-.071.51-.08.735-.007.203 0 .481.106.736l.692-.289Zm.357-7.37.738-.136a7.35 7.35 0 0 1 .308-3.811l-.706-.253-.706-.253a8.85 8.85 0 0 0-.372 4.589l.738-.136Zm.34-4.2.725.191c.67-2.539.872-5.18.596-7.79l-.746.078-.746.079c.257 2.43.07 4.887-.554 7.25l.725.192Zm.575-7.521.738-.135a.99.99 0 0 0-.208-.448l-.58.474-.58.475a.51.51 0 0 1-.108-.23l.738-.136Zm-.05-.109.58-.474a.99.99 0 0 0-.398-.293l-.279.696-.279.697a.51.51 0 0 1-.205-.15l.58-.476Zm-.097-.07.28-.697a.99.99 0 0 0-.49-.063l.091.744.093.744a.51.51 0 0 1-.253-.032l.28-.697Zm-.119-.016-.092-.744a.99.99 0 0 0-.46.18l.441.608.44.607a.51.51 0 0 1-.236.093l-.093-.744Zm-.111.044-.57-.488-2.37 2.766.57.488.57.488 2.37-2.766-.57-.488ZM24.573 4.6l.314-.681-.013-.006-.314.681-.314.681.013.006.314-.681Zm-.013-.006.29-.692a6.073 6.073 0 0 0-2.35-.469l.001.75.002.75c.607 0 1.208.12 1.768.353l.289-.692Zm-2.059-.411v-.75a6.072 6.072 0 0 0-2.348.476l.291.691.291.691a4.572 4.572 0 0 1 1.768-.358l-.002-.75Zm-2.057.417.593-.459-2.166-2.8-.593.459-.593.459 2.166 2.8.593-.459Zm-2.166-2.8.437-.61a.99.99 0 0 0-.459-.178l-.09.745-.09.744a.509.509 0 0 1-.234-.091l.436-.61Zm-.111-.043.09-.745a.991.991 0 0 0-.488.064l.28.696.278.697a.51.51 0 0 1-.25.032l.09-.744Zm-.119.015-.279-.696a.99.99 0 0 0-.396.29l.579.477.579.477a.51.51 0 0 1-.204.149l-.279-.697Zm-.096.07-.58-.476a.99.99 0 0 0-.208.445l.737.14.737.14a.51.51 0 0 1-.107.229l-.58-.477Zm-.051.109-.747-.068a26.508 26.508 0 0 0 .35 7.324l.737-.139.737-.14a25.008 25.008 0 0 1-.33-6.909l-.747-.068Zm.34 7.117-.73.17c.23.992.48 1.98.75 2.962l.723-.199.723-.199a75.123 75.123 0 0 1-.735-2.904l-.731.17Zm.743 2.933-.127-.74-.493.086.127.739.128.74.492-.086-.127-.739Zm-.493.085-.178-.729c-6.201 1.516-10.498 7.568-10.498 14.429h1.5c0-6.273 3.92-11.643 9.354-12.971l-.178-.729Zm-9.926 13.7-.704-.257-.157.43.704.257.705.257.157-.43-.705-.257Zm-.157.43.303-.686c-1.317-.582-2.046-1.944-2.457-3.719-.41-1.774-.45-3.691-.582-5.204l-.747.065-.747.065c.12 1.375.172 3.501.615 5.413.442 1.91 1.33 3.876 3.312 4.752l.303-.686Zm-3.483-9.544.747-.065a1.22 1.22 0 0 0-.332-.736l-.543.517-.543.517a.279.279 0 0 1-.076-.168l.747-.065Zm-.128-.284.543-.517c-.19-.2-.444-.33-.718-.368l-.102.743-.102.743a.28.28 0 0 1-.164-.084l.543-.517Zm-.277-.142.102-.743a1.221 1.221 0 0 0-.79.16l.383.645.384.645a.279.279 0 0 1-.181.036l.102-.743Zm-.305.062-.384-.644c-.238.142-.42.36-.518.619l.702.264.702.264a.279.279 0 0 1-.118.142l-.384-.645Zm-.2.239-.705-.256c-.603 1.663-.848 3.66-.781 5.527.065 1.856.442 3.68 1.164 4.964l.654-.368.654-.368c-.56-.994-.912-2.55-.973-4.281-.062-1.72.168-3.518.692-4.962l-.705-.256Zm.332 9.867-.653.368c.889 1.58 1.963 2.6 3.197 3.23 1.222.624 2.543.836 3.878.891l.031-.749.031-.75c-1.228-.05-2.307-.242-3.258-.727-.938-.48-1.809-1.275-2.572-2.631l-.654.368Zm21.425 2.965.688-.3-3.207-7.354-.687.3-.688.3 3.206 7.354.688-.3Zm2.828-1.451-.69.295c.095.221.101.47.018.697l.703.26.704.26c.216-.586.2-1.233-.045-1.807l-.69.295Zm.031 1.252-.703-.26a.942.942 0 0 1-.466.518l.332.672.332.672c.56-.276.993-.757 1.209-1.343l-.704-.26Zm-.837.93-.308-.684a.791.791 0 0 1-.311.07l.012.75.013.75c.311-.006.618-.074.902-.202l-.308-.684Zm-.607.136-.012-.75a.791.791 0 0 1-.314-.06l-.285.694-.285.694c.288.118.597.177.909.171l-.013-.75Zm-.61-.116.284-.694a.79.79 0 0 1-.265-.178l-.535.525-.536.525c.217.222.478.398.766.516l.285-.694Zm-.517-.347.536-.525a.79.79 0 0 1-.172-.268l-.7.27-.7.27c.113.29.283.555.5.778l.537-.525Zm-7.1-17.996-.299.688a9.651 9.651 0 0 0 3.863.8l-.002-.75-.001-.75a8.151 8.151 0 0 1-3.262-.676l-.299.688Zm3.562.737.002.75a9.651 9.651 0 0 0 3.86-.812l-.302-.687-.301-.687a8.151 8.151 0 0 1-3.26.687l.001.75Z"/></svg>