<svg xmlns="http://www.w3.org/2000/svg" fill="none" viewBox="0 0 32 32"><path stroke="currentColor" vector-effect="non-scaling-stroke" stroke-width="1.5" d="M22.647 23.84h-3.885V6.996h8.193l4.239 8.165v8.677h-3.898m-8.534-4.595H.745v4.605h3.503m14.514 0h-3.587m-4.702 0H9.03M23.58 6.987v8.656h7.539m-3.702 8.66a2.44 2.44 0 1 1-4.88 0 2.44 2.44 0 0 1 4.88 0Zm-12.136 0a2.44 2.44 0 1 1-4.88 0 2.44 2.44 0 0 1 4.88 0Zm-6.173 0a2.44 2.44 0 1 1-4.88 0 2.44 2.44 0 0 1 4.88 0Zm6.912-10.04a5.205 5.205 0 0 1-6.942 2.45c-2.287-1.539-6.422-5.633-6.422-5.633l2.867-5.569s6.796 1.351 8.048 1.81a5.205 5.205 0 0 1 2.449 6.942Z"/></svg>