<svg xmlns="http://www.w3.org/2000/svg" fill="none" viewBox="0 0 32 32"><path fill="currentColor" d="M15.919 27.3h-.75.75Zm-1.474-2.553.375-.65-.375.65ZM26.659 27.3h.75-.75Zm-1.474-2.553.375-.65-.375.65ZM4.13 7.439l.705-.255-.178-.495H4.13v.75Zm2.359 6.535.706-.253v-.002l-.706.255Zm2.747 7.679-.706.253.178.497h.528v-.75Zm18.237 0v.75h.54l.171-.511-.711-.239Zm2.576-7.679.711.239.007-.021.006-.021-.724-.197Zm.2-.736.724.197.026-.098v-.1l-.75.001ZM18.726 1.75 18.725 1l-.749.001v.749h.75ZM6.937 13.224h-.75v1.5h.75v-1.5Zm22.639 1.5h.75v-1.5h-.75v1.5ZM15.919 27.3h-.75a2.2 2.2 0 0 1-.454 1.339l.595.457.595.456a3.7 3.7 0 0 0 .764-2.252h-.75Zm-.61 1.796-.594-.457c-.295.384-.708.66-1.176.786l.195.724.194.724a3.7 3.7 0 0 0 1.977-1.321l-.595-.456Zm-1.575 1.053-.195-.724a2.199 2.199 0 0 1-1.41-.093l-.287.693-.287.693a3.7 3.7 0 0 0 2.373.155l-.194-.724Zm-1.892-.124.287-.693a2.199 2.199 0 0 1-1.063-.932l-.65.375-.65.375a3.699 3.699 0 0 0 1.789 1.568l.287-.693Zm-1.426-1.25.65-.375a2.2 2.2 0 0 1-.276-1.386l-.744-.098-.743-.098a3.7 3.7 0 0 0 .464 2.332l.65-.375Zm-.37-1.86.744.099c.063-.48.283-.926.625-1.268l-.53-.53-.53-.531a3.699 3.699 0 0 0-1.052 2.133l.743.098Zm.839-1.7.53.53a2.199 2.199 0 0 1 1.268-.625l-.098-.743-.097-.744a3.699 3.699 0 0 0-2.133 1.052l.53.53Zm1.7-.838.098.743c.48-.063.968.034 1.387.276l.375-.649.375-.65a3.699 3.699 0 0 0-2.332-.464l.098.744Zm1.86.37-.375.65a2.2 2.2 0 0 1 .804.804l.65-.375.65-.375a3.698 3.698 0 0 0-1.354-1.353l-.375.649Zm1.079 1.08-.65.374a2.2 2.2 0 0 1 .295 1.1l.75-.001h.75a3.7 3.7 0 0 0-.496-1.849l-.65.375ZM26.659 27.3h-.75c0 .484-.16.954-.454 1.338l.595.457.595.456a3.698 3.698 0 0 0 .764-2.251h-.75Zm-.61 1.795-.594-.457a2.2 2.2 0 0 1-1.175.785l.194.725.194.724a3.697 3.697 0 0 0 1.977-1.32l-.595-.457Zm-1.575 1.053-.194-.725a2.198 2.198 0 0 1-1.41-.092l-.287.693-.287.693a3.698 3.698 0 0 0 2.372.155l-.194-.724Zm-1.891-.124.287-.693a2.198 2.198 0 0 1-1.063-.932l-.649.375-.65.375a3.698 3.698 0 0 0 1.788 1.568l.287-.693Zm-1.425-1.25.65-.375a2.198 2.198 0 0 1-.276-1.386l-.744-.098-.743-.098a3.698 3.698 0 0 0 .463 2.332l.65-.375Zm-.37-1.859.744.098c.063-.48.283-.925.625-1.267l-.53-.53-.53-.53a3.698 3.698 0 0 0-1.052 2.131l.743.098Zm.838-1.7.53.53a2.198 2.198 0 0 1 1.268-.624l-.098-.744-.098-.743a3.698 3.698 0 0 0-2.132 1.051l.53.53Zm1.7-.838.098.744c.48-.063.967.034 1.386.276l.375-.65.375-.65a3.698 3.698 0 0 0-2.332-.463l.098.743Zm1.859.37-.375.65a2.2 2.2 0 0 1 .804.804l.65-.375.65-.375a3.698 3.698 0 0 0-1.354-1.353l-.375.649Zm1.079 1.08-.65.374a2.2 2.2 0 0 1 .295 1.1l.75-.001h.75a3.7 3.7 0 0 0-.496-1.849l-.65.375ZM1.75 7.438v.75h2.38v-1.5H1.75v.75Zm2.38 0-.705.255 2.359 6.535.705-.255.705-.255-2.359-6.535-.705.255Zm2.359 6.535-.706.253 2.747 7.679.706-.253.706-.253-2.747-7.679-.706.253Zm2.747 7.679v.75h18.237v-1.5H9.236v.75Zm18.237 0 .711.239 2.576-7.68-.711-.238-.711-.239-2.576 7.68.711.238Zm2.576-7.679.724.197.2-.736-.724-.197-.724-.197-.2.736.724.197Zm.2-.736.75-.001a12.256 12.256 0 0 0-3.603-8.66l-.53.53-.529.532a10.756 10.756 0 0 1 3.162 7.6l.75-.001Zm-3.382-8.13.53-.531A12.256 12.256 0 0 0 18.724 1l.001.75.001.75a10.756 10.756 0 0 1 7.61 3.139l.53-.531ZM18.726 1.75h-.75v11.488h1.5V1.75h-.75ZM6.937 13.974v.75h22.639v-1.5H6.937v.75Z"/></svg>