<svg xmlns="http://www.w3.org/2000/svg" fill="none" viewBox="0 0 32 32"><path stroke="currentColor" stroke-miterlimit="10" vector-effect="non-scaling-stroke" stroke-width="1.5" d="M4.248 24.379H.75V4.75h17.98v19.629h-3.595m7.43 0h-3.907M18.73 7.55h4.841v8.614h7.607v8.215h-3.775m3.847-8.641L27.029 7.55h-2.967M9.074 24.834a2.418 2.418 0 0 1-2.42 2.416 2.418 2.418 0 0 1-2.42-2.416 2.418 2.418 0 0 1 2.42-2.416 2.418 2.418 0 0 1 2.42 2.416Zm6.172 0a2.418 2.418 0 0 1-2.42 2.416 2.418 2.418 0 0 1-2.42-2.416 2.418 2.418 0 0 1 2.42-2.416 2.418 2.418 0 0 1 2.42 2.416Zm12.128-.004a2.42 2.42 0 1 1-4.84-.008 2.42 2.42 0 0 1 4.84.008Z"/></svg>