<svg xmlns="http://www.w3.org/2000/svg" fill="none" viewBox="0 0 32 32"><path fill="currentColor" d="m10.513 9.57.469-.586-.469-.374-.469.374.469.586ZM.75 27.695H0v1.5h.75v-1.5Zm30.5 1.5H32v-1.5h-.75v1.5Zm-9.812-6.05v-.75h-.75v.75h.75Zm9.175 0v.75h1.44l-.825-1.18-.615.43Zm-5.352-7.659v-.75h-1.44l.825 1.18.615-.43Zm3.823 0v.75h1.368l-.736-1.153-.632.403ZM21.438 3.495l.632-.403-.634-.995-.631.996.633.402Zm-4.775 6.128-.402.634 1.267.803.401-.633-.633-.402-.633-.402ZM7.908 17.96v-.75h-.75v.75h.75Zm5.209 0h.75v-.75h-.75v.75Zm0 5.209v.75h.75v-.75h-.75Zm-5.209 0h-.75v.75h.75v-.75Zm-4.681 5.336h.75V15.357h-1.5v13.148h.75Zm14.445-.06h.75V15.298h-1.5v13.147h.75ZM.75 17.38l.469.586 9.762-7.81-.468-.586-.469-.586-9.763 7.81.469.586Zm9.763-7.81-.469.586 9.764 7.81.468-.586.468-.586-9.762-7.81-.469.586ZM.75 28.445v.75h30.5v-1.5H.75v.75Zm20.688-5.3h-.75v5.106h1.5v-5.106h-.75Zm0 0v.75h9.175v-1.5h-9.175v.75Zm9.175 0 .615-.43-5.352-7.659-.615.43-.615.43 5.352 7.659.615-.43Zm-5.352-7.659v.75h3.823v-1.5h-3.823v.75Zm3.823 0 .632-.403L22.07 3.092l-.632.403-.632.403 7.646 11.991.632-.403ZM21.438 3.495l-.633-.402-4.142 6.53.633.402.633.402 4.142-6.53-.633-.402ZM7.908 17.96v.75h5.209v-1.5H7.908v.75Zm5.209 0h-.75v5.209h1.5V17.96h-.75Zm0 5.209v-.75H7.908v1.5h5.209v-.75Zm-5.209 0h.75V17.96h-1.5v5.209h.75Zm.191 5.293v.75h5.149v-1.5H8.099v.75Z"/></svg>