<svg xmlns="http://www.w3.org/2000/svg" fill="none" viewBox="0 0 32 32"><path fill="currentColor" d="M16.867 4.105h.75v-.75h-.75v.75Zm-9.417 0v-.75.75Zm-4.275 5.13h-.75v.75h.75v-.75Zm13.692-1.738v.75h.75v-.75h-.75ZM9.53 9.235v.75h.666l.079-.661-.745-.089Zm-3.885 0v-.75h-1.5v.75h1.5Zm-.75 18.907h-.75.75Zm2.565 2.566v.75-.75Zm7.696 0v.75-.75ZM9.55 9.235h.75l-1.5-.01.75.01Zm1.127 5.607-.44.608.44-.608Zm5.06 2.243.266-.7-.266.7ZM27.213 1.584l.174.73 1.226-.292-.174-.73-.173-.73-1.226.292.173.73Zm-6.84 1.625.173.73 5.437-1.292-.173-.73-.174-.73L20.2 2.48l.173.73Zm6.84 6.668-.173.73 1.226.291.173-.73.174-.729-1.226-.291-.174.73Zm-6.84-1.625-.173.73 5.436 1.291.174-.73.173-.729-5.437-1.292-.173.73Zm8.452-2.53v-.75h-4.556v1.5h4.556v-.75Zm-6.03.018v-.75h-2.157v1.5h2.157v-.75Zm-5.928-1.635v-.75H7.45v1.5h9.417v-.75Zm-9.417 0v-.75a5.03 5.03 0 0 0-3.553 1.471l.53.53.53.531A3.525 3.525 0 0 1 7.45 4.855v-.75ZM4.427 5.357l-.53-.53A5.025 5.025 0 0 0 2.425 8.38h1.5c0-.935.371-1.832 1.032-2.493l-.53-.53ZM3.175 8.38h-.75v.855h1.5V8.38h-.75Zm13.692-.883h.75V4.105h-1.5v3.392h.75ZM3.175 9.235v.75H9.53v-1.5H3.175v.75Zm8.314-1.738v.75h5.378v-1.5h-5.378v.75ZM9.53 9.235l.745.089a1.222 1.222 0 0 1 1.213-1.077v-1.5a2.722 2.722 0 0 0-2.703 2.4l.745.088Zm-4.635 0h-.75v18.907h1.5V9.235h-.75Zm0 18.907h-.75c0 .88.35 1.723.97 2.345l.531-.53.53-.531a1.815 1.815 0 0 1-.531-1.284h-.75Zm.751 1.814-.53.53a3.315 3.315 0 0 0 2.344.972v-1.5c-.481 0-.943-.192-1.283-.532l-.53.53Zm1.814.752v.75h7.696v-1.5H7.46v.75Zm7.696 0v.75c.879 0 1.722-.35 2.344-.971l-.53-.53-.53-.531a1.82 1.82 0 0 1-1.284.532v.75Zm1.813-.752.53.53a3.315 3.315 0 0 0 .972-2.344h-1.5c0 .482-.192.944-.532 1.284l.53.53Zm.752-1.814h.75v-8.207h-1.5v8.207h.75Zm-1.984-11.057.266-.7a76.417 76.417 0 0 1-2.88-1.154c-.957-.41-1.693-.77-2.006-.996l-.44.607-.44.608c.471.34 1.366.761 2.295 1.16.956.41 2.036.834 2.939 1.176l.266-.7Zm-5.06-2.243.44-.607c-.35-.253-.53-.5-.635-.724-.109-.234-.157-.488-.185-.796l-.747.068-.746.068c.034.378.103.83.319 1.293.22.473.572.913 1.115 1.306l.44-.608Zm-1.127-2.06.747-.067c-.016-.176-.017-1.01-.012-1.869a240.854 240.854 0 0 1 .015-1.567v-.034l-.75-.01-.75-.01v.035a210.444 210.444 0 0 0-.015 1.577c-.005.805-.006 1.744.019 2.014l.746-.068Zm0-3.547H8.8v3.548h1.5V9.235h-.75Zm8.17 10.7h.75a3.809 3.809 0 0 0-2.467-3.55l-.266.7-.266.701a2.309 2.309 0 0 1 1.5 2.149h.75Zm-3.54-15.83h-.75v3.392h1.5V4.105h-.75Zm-4.647 7.874v-.75h-4.62v1.5h4.62v-.75Z"/></svg>