<svg xmlns="http://www.w3.org/2000/svg" fill="none" viewBox="0 0 32 32"><path fill="currentColor" d="m20.093 7.9.678.32-.678-.32Zm-4.96 3.141v-.75.75Zm-7.233 0v-.75h-.004l.004.75Zm-.709-.155-.324.677.008.003.316-.68ZM4.179 3.972l.723.2.001-.004-.724-.196Zm-1.192-.829-.436-.61-.022.016-.022.018.48.576ZM.75 8.043h.75v-.015l-.75.015Zm3.384 5.112.744.093.07-.562-.521-.222-.293.691ZM2.46 26.592l-.744-.093-.006.045v.046l.75.002Zm2.283 2.328-.013.75h.03l-.016-.75Zm1.982-1.194-.651-.372-.005.008.656.364Zm1.542-7.988.065-.747-.684-.06-.12.677.739.13Zm10.531.919.747-.071-.06-.622-.622-.054-.065.747Zm.58 6.068h.75v-.036l-.003-.035-.747.071Zm4.566 0h.75v-.011l-.75.011Zm4.601-14.593-.058-.748-.065.005-.063.017.186.726Zm2.7-3.058-.75-.006v.041l.75-.035Zm-2.143-2.361-.193.725.062.016.065.006.066-.747Zm-1.278-1.024.665-.347-.013-.025-.015-.023-.637.395Zm-3.479-2 .021-.75h-.021v.75Zm-3.607 2.842.678.32.024-.05.015-.051-.717-.219Zm-2.86 3.906-.56-.499-.998 1.12.56.5.499-.561.499-.56Zm4.9 6.371.56.499.997-1.12-.56-.5-.499.561-.499.56Zm-2.72-8.43-.563-.496-.99 1.127.563.495.495-.563.495-.563Zm4.39 5.861.564.495.99-1.126-.563-.495-.495.563-.495.563ZM20.093 7.9l-.678-.32a4.737 4.737 0 0 1-1.748 1.976l.401.634.402.633a6.236 6.236 0 0 0 2.301-2.602l-.678-.321Zm-2.024 2.29-.402-.634a4.737 4.737 0 0 1-2.534.735v1.5a6.236 6.236 0 0 0 3.337-.968l-.401-.633Zm-2.936.851v-.75H7.9v1.5h7.233v-.75Zm-7.233 0-.004-.75a.912.912 0 0 1-.389-.085l-.316.68-.316.68c.322.15.673.227 1.029.225l-.004-.75Zm-.709-.155.324-.676c-1.686-.807-2.416-1.895-2.706-2.945-.3-1.086-.149-2.216.093-3.094l-.723-.199-.723-.2c-.278 1.011-.493 2.442-.093 3.892.41 1.488 1.446 2.913 3.504 3.899l.324-.677ZM4.179 3.972l.724.196a1.521 1.521 0 0 0-.04-.918l-.704.257-.705.256a.021.021 0 0 1 .001.013l.724.196Zm-.02-.465.705-.257a1.521 1.521 0 0 0-.56-.728l-.429.616-.428.615a.021.021 0 0 1 .007.01l.705-.256Zm-.284-.37.428-.615a1.521 1.521 0 0 0-.877-.272L3.43 3l.005.75c.004 0 .008 0 .012.003l.428-.615ZM3.43 3l-.004-.75c-.314.002-.62.1-.875.282l.436.611.436.61a.021.021 0 0 1 .012-.003L3.43 3Zm-.443.143-.48-.576a6.967 6.967 0 0 0-1.879 2.46l.682.311.683.312a5.467 5.467 0 0 1 1.474-1.93l-.48-.577ZM1.31 5.338l-.682-.311A6.967 6.967 0 0 0 0 8.057l.75-.014.75-.015a5.467 5.467 0 0 1 .493-2.378l-.683-.312ZM.75 8.043H0c0 1.237.364 2.448 1.047 3.48l.625-.415.626-.414a4.802 4.802 0 0 1-.798-2.65l-.75-.001Zm.922 3.065-.625.414a6.302 6.302 0 0 0 2.794 2.323l.293-.69.293-.69a4.802 4.802 0 0 1-2.13-1.77l-.625.413Zm2.462 2.047-.744-.093L1.716 26.5l.744.093.744.093 1.674-13.437-.744-.093ZM2.46 26.592l-.75-.002a3.072 3.072 0 0 0 .879 2.16l.535-.526.536-.525a1.572 1.572 0 0 1-.45-1.105l-.75-.002Zm.664 1.632-.535.525a3.072 3.072 0 0 0 2.141.92l.013-.749.013-.75a1.572 1.572 0 0 1-1.096-.47l-.536.525Zm1.619.696.016.75a3.072 3.072 0 0 0 1.521-.44l-.387-.643-.387-.642c-.235.142-.504.22-.779.225l.016.75Zm1.15-.333.387.643c.46-.277.84-.67 1.1-1.14l-.655-.364-.656-.364c-.133.24-.327.441-.563.583l.387.642Zm.832-.861.651.372a1.05 1.05 0 0 0 .081-.185 6.52 6.52 0 0 0 .12-.459c.058-.25.128-.585.205-.97.154-.77.342-1.762.523-2.74a514.158 514.158 0 0 0 .685-3.79l.012-.064c0-.007.002-.012.003-.016v-.005l-.738-.131-.739-.13v.005l-.003.016-.012.064a387.374 387.374 0 0 1-.198 1.114c-.13.722-.304 1.688-.485 2.663a180 180 0 0 1-.519 2.72c-.076.38-.143.698-.196.93a6.831 6.831 0 0 1-.08.315c-.006.02.006-.023.039-.081l.651.372Zm1.542-7.988-.065.747 10.53.92.066-.748.065-.747-10.53-.92-.066.748Zm10.531.919-.747.071.58 6.068.747-.071.747-.071-.58-6.068-.747.071Zm.58 6.068h-.75c0 .804.32 1.576.888 2.145l.53-.53.531-.531a1.533 1.533 0 0 1-.449-1.084h-.75Zm.669 1.614-.53.53c.568.57 1.34.889 2.144.889v-1.5c-.407 0-.797-.162-1.084-.449l-.53.53Zm1.614.669v.75c.804 0 1.576-.32 2.145-.888l-.53-.53-.531-.531a1.533 1.533 0 0 1-1.084.449v.75Zm1.614-.669.53.53c.57-.568.889-1.34.889-2.144h-1.5c0 .406-.162.796-.449 1.084l.53.53Zm.55-11.607h.75c0-1.3.899-2.253 2.003-2.932a8.813 8.813 0 0 1 2.117-.932l.03-.008c.004 0 .006-.001.007-.002l-.187-.726-.187-.726h-.002l-.005.001-.014.004-.048.013-.168.05a10.315 10.315 0 0 0-2.33 1.049c-1.255.773-2.716 2.12-2.716 4.209h.75Zm4.72-4.6.058.748a3.678 3.678 0 0 0 2.474-1.233l-.562-.497-.562-.496c-.375.425-.9.687-1.466.73l.058.748Zm1.97-.982.562.497a3.678 3.678 0 0 0 .917-2.609l-.749.036-.75.035a2.178 2.178 0 0 1-.542 1.545l.562.496Zm.73-2.076.75.006a3.102 3.102 0 0 0-.805-2.11l-.555.505-.555.504c.27.298.418.686.415 1.089l.75.006Zm-.61-1.6.555-.503a3.101 3.101 0 0 0-2.022-1.005l-.066.747-.066.747c.4.036.773.22 1.044.519l.555-.504Zm-1.533-.761.193-.725a1.282 1.282 0 0 1-.47-.238l-.47.585-.469.586c.302.241.65.417 1.023.517l.193-.725Zm-.747-.378.47-.585a1.282 1.282 0 0 1-.336-.408l-.665.347-.665.347c.178.342.426.643.727.885l.47-.586Zm-.531-.646.637-.395a4.984 4.984 0 0 0-1.75-1.694l-.374.65-.374.65c.5.288.92.695 1.224 1.184l.637-.395Zm-1.488-1.438.374-.65a4.984 4.984 0 0 0-2.344-.662l-.021.75-.021.75c.576.016 1.14.175 1.639.462l.373-.65Zm-1.991-.562v-.75c-1.67 0-2.768.878-3.42 1.707a5.776 5.776 0 0 0-.887 1.613 2.392 2.392 0 0 0-.016.05v.002h-.001l.717.22.717.22v.002-.001a4.279 4.279 0 0 1 .649-1.178c.466-.592 1.17-1.135 2.241-1.135v-.75Zm-3.607 2.842-.678-.32-.645 1.37.678.319.678.32.645-1.37-.678-.319Zm3.206 20.194.75-.011-.154-10.37-.75.012-.75.011.154 10.37.75-.012Zm-6.565-15.728-.499.56 5.897 5.251.499-.56.499-.56-5.897-5.251-.499.56Zm2.184-2.056-.495.563 5.38 4.735.496-.563.495-.563-5.38-4.735-.496.563Z"/></svg>