<svg xmlns="http://www.w3.org/2000/svg" fill="none" viewBox="0 0 32 32"><path fill="currentColor" d="M11.146 13.533h.75v-1.5h-.75v1.5Zm-3.362-1.5h-.75v1.5h.75v-1.5ZM23 10.283l.743-.102-.089-.647H23v.75ZM9 15.836v-.75h-.602l-.13.587.732.163ZM3.97 4.7l-.666-.347-.572 1.097H3.97V4.7Zm.569-2.923v-.75h-.46l-.209.41.669.34ZM2.808 5.176l-.668-.34-.556 1.09h1.224v-.75Zm2.489 0 .671.334.54-1.084H5.297v.75ZM4.539 6.7l-.672-.335-1.552 3.117L5.013 7.28l-.474-.581Zm2.447-2 .474.581 1.631-1.33H6.986v.75ZM5.494 1.778l.665.347.573-1.097H5.494v.75ZM31 24.835h-.75c0 2.9-2.35 5.25-5.25 5.25v1.5a6.75 6.75 0 0 0 6.75-6.75H31Zm-6 6v-.75a5.25 5.25 0 0 1-5.25-5.25h-1.5a6.75 6.75 0 0 0 6.75 6.75v-.75Zm-6-6h.75c0-2.9 2.35-5.25 5.25-5.25v-1.5a6.75 6.75 0 0 0-6.75 6.75H19Zm6-6v.75c2.9 0 5.25 2.35 5.25 5.25h1.5a6.75 6.75 0 0 0-6.75-6.75v.75Zm-12 6h-.75c0 2.9-2.35 5.25-5.25 5.25v1.5a6.75 6.75 0 0 0 6.75-6.75H13Zm-6 6v-.75a5.25 5.25 0 0 1-5.25-5.25H.25A6.75 6.75 0 0 0 7 31.585v-.75Zm-6-6h.75c0-2.9 2.35-5.25 5.25-5.25v-1.5a6.75 6.75 0 0 0-6.75 6.75H1Zm6-6v.75c2.9 0 5.25 2.35 5.25 5.25h1.5A6.75 6.75 0 0 0 7 18.085v.75Zm4.146-6.052v-.75H7.784v1.5h3.362v-.75ZM25 24.835l.743-.102-2-14.552-.743.103-.743.102 2 14.551.743-.102Zm-2-14.551v-.75h-5v1.5h5v-.75Zm.7 5.55v-.75H9v1.5h14.7v-.75Zm-14.7 0-.732-.162-2 9 .732.163.732.163 2-9L9 15.835ZM5.297 5.177l-.672-.334-.758 1.522.672.335.671.334.758-1.523-.671-.334Zm-2.489 0v.75h2.489v-1.5H2.808v.75Zm1.73-3.398-.668-.34-1.73 3.398.668.34.668.34 1.731-3.398-.668-.34ZM3.97 4.7l.665.347L6.16 2.125l-.665-.347-.665-.347-1.525 2.923.665.347Zm1.525-2.923v-.75H4.54v1.5h.955v-.75ZM6.986 4.7v-.75H3.97v1.5h3.017V4.7Zm-2.446 2 .474.58L7.46 5.283l-.474-.58-.474-.582-2.448 1.998.475.58Z"/></svg>