<svg xmlns="http://www.w3.org/2000/svg" fill="none" viewBox="0 0 32 32"><path fill="currentColor" d="m25.554 23.646.346.665 1.33-.692-.345-.665-.666.346-.665.346ZM15.202 9.053h-.75v1.5h.75v-1.5Zm3.994.75.665-.346-.21-.404h-.455v.75Zm1.915 15.84.67.337-.67-.336Zm3.835-10.168v.75h.75v-.75h-.75Zm-2.029 0v-.75h-.007l.007.75Zm-1.45-1.696.75.005v-.01l-.75.005Zm1.45-1.696-.007.75h.007v-.75Zm2.03 0h.75v-.75h-.75v.75ZM3.97 4.923l-.664-.346-.573 1.096H3.97v-.75ZM4.541 2v-.75h-.46l-.209.41.669.34ZM2.81 5.398l-.668-.34-.556 1.09H2.81v-.75Zm2.489 0 .671.335.54-1.085H5.3v.75ZM4.54 6.921l-.672-.334-1.551 3.116 2.697-2.201-.474-.581Zm2.447-1.998.474.582 1.631-1.332H6.988v.75ZM5.496 2l.665.347.573-1.097H5.497V2Zm7.108 17.231v-.75H3.546v1.5h9.058v-.75Zm-4.529 7.41h-.75a2.395 2.395 0 0 1-2.4 2.39v1.5c2.152 0 3.9-1.739 3.9-3.89h-.75Zm-3.15 3.14v-.75a2.395 2.395 0 0 1-2.4-2.39h-1.5a3.895 3.895 0 0 0 3.9 3.89v-.75Zm-3.15-3.14h.75a2.395 2.395 0 0 1 2.4-2.389v-1.5c-2.151 0-3.9 1.74-3.9 3.89h.75Zm3.15-3.139v.75c1.328 0 2.4 1.073 2.4 2.39h1.5c0-2.15-1.748-3.89-3.9-3.89v.75Zm25.3 3.14h-.75a2.395 2.395 0 0 1-2.4 2.39v1.5c2.152 0 3.9-1.74 3.9-3.89h-.75Zm-3.15 3.14v-.75a2.395 2.395 0 0 1-2.4-2.39h-1.5c0 2.15 1.748 3.89 3.9 3.89v-.75Zm-3.15-3.14h.75a2.395 2.395 0 0 1 2.4-2.39v-1.5c-2.152 0-3.9 1.74-3.9 3.89h.75Zm3.15-3.14v.75c1.328 0 2.4 1.073 2.4 2.39h1.5c0-2.15-1.748-3.89-3.9-3.89v.75Zm-.856-.202.666-.346L19.86 9.457l-.665.346-.666.346 7.024 13.497.665-.346ZM19.196 9.803v-.75h-3.994v1.5h3.994v-.75ZM8.54 25.3h.75v-4.07h-1.5v4.07h.75Zm2-6.069v.75h1.434v-1.5H10.54v.75Zm13.784 0-.67-.336-3.213 6.413.67.336.67.336 3.214-6.413-.67-.336ZM18.43 27.3v-.75h-7.89v1.5h7.889v-.75Zm2.682-1.656-.67-.336a2.25 2.25 0 0 1-2.012 1.242v1.5a3.75 3.75 0 0 0 3.353-2.07l-.67-.336ZM8.541 25.3h-.75a2.75 2.75 0 0 0 2.75 2.75v-1.5a1.25 1.25 0 0 1-1.25-1.25h-.75Zm0-4.069h.75c0-.69.559-1.25 1.25-1.25v-1.5a2.75 2.75 0 0 0-2.75 2.75h.75Zm16.405-5.756v-.75h-2.029v1.5h2.03v-.75Zm-2.029 0-.007-.75a.506.506 0 0 1-.225-.052l-.324.677-.325.676c.278.133.58.202.888.2l-.007-.75Zm-.556-.125.324-.677a.695.695 0 0 1-.226-.178l-.57.487-.57.488c.198.232.441.424.718.556l.324-.676Zm-.472-.368.57-.487a.977.977 0 0 1-.176-.312l-.708.247-.708.248c.101.29.253.56.452.792l.57-.488Zm-.314-.552.708-.247a1.187 1.187 0 0 1-.065-.399l-.75-.005-.75-.005c-.002.308.048.615.149.904l.708-.248Zm-.107-.65.75-.006a1.162 1.162 0 0 1 .065-.398l-.708-.248-.708-.248c-.101.29-.151.597-.15.904l.75-.005Zm.107-.652.708.248a.977.977 0 0 1 .176-.313l-.57-.487-.57-.487a2.48 2.48 0 0 0-.452.791l.708.248Zm.314-.552.57.487a.694.694 0 0 1 .226-.178l-.324-.676-.325-.677a2.19 2.19 0 0 0-.717.557l.57.487Zm.472-.367.324.676a.508.508 0 0 1 .225-.052l.007-.75.007-.75a2.008 2.008 0 0 0-.887.2l.324.676Zm.556-.126v.75h2.03v-1.5h-2.03v.75Zm2.03 0h-.75v3.392h1.5v-3.392h-.75ZM5.298 5.398l-.672-.334-.758 1.523.672.334.671.334.758-1.522-.671-.335Zm-2.489 0v.75h2.489v-1.5H2.81v.75ZM4.54 2l-.668-.34-1.73 3.398.668.34.668.34L5.21 2.34 4.541 2Zm-.569 2.923.665.347 1.525-2.923L5.496 2l-.665-.347-1.524 2.924.664.346ZM5.496 2v-.75h-.955v1.5h.955V2Zm1.492 2.923v-.75H3.971v1.5h3.017v-.75ZM4.541 6.921l.474.581 2.447-1.997-.474-.582-.474-.58L4.067 6.34l.474.58Z"/></svg>