<svg xmlns="http://www.w3.org/2000/svg" fill="none" viewBox="0 0 32 32"><path fill="currentColor" d="m1.5 24.198-.002-.75-1.5.004.002.75.75-.002.75-.002Zm4.8 5.552-.002.75h.02l-.018-.75Zm4.853-2.912.654-.368-.654-1.161-.654 1.161.654.368ZM16 29.75l-.018.75h.035L16 29.75Zm4.852-2.912.654-.368-.654-1.161-.654 1.161.654.368Zm4.853 2.912-.017.75h.02l-.003-.75ZM32 24.202l.002-.75-1.5-.004-.002.75.75.002.75.002ZM16 2.25l.476-.58L16 1.28l-.476.39.476.58Zm-3.17 21.48v.75h1.5v-.75h-1.5Zm.75-7.428v-.75h-.75v.75h.75Zm4.84 0h.75v-.75h-.75v.75Zm-.75 7.428v.75h1.5v-.75h-1.5Zm7.261 0v.75h1.5v-.75h-1.5Zm1.5-9.514v-.75h-1.5v.75h1.5Zm-19.362 0v-.75h-1.5v.75h1.5Zm-1.5 9.514v.75h1.5v-.75h-1.5ZM.75 24.2l-.75.002a6.312 6.312 0 0 0 1.849 4.45l.53-.531.53-.53c-.9-.9-1.406-2.12-1.409-3.393l-.75.002Zm1.63 3.92-.531.531a6.312 6.312 0 0 0 4.45 1.849l.001-.75.002-.75a4.812 4.812 0 0 1-3.393-1.41l-.53.53Zm3.92 1.63.017.75a6.469 6.469 0 0 0 3.18-.92l-.385-.644-.386-.643A4.97 4.97 0 0 1 6.283 29l.017.75Zm2.812-.814.386.643a6.47 6.47 0 0 0 2.309-2.373l-.654-.368-.654-.368a4.968 4.968 0 0 1-1.773 1.823l.386.643Zm2.041-2.098-.654.368a6.466 6.466 0 0 0 2.306 2.372l.386-.643.386-.643a4.965 4.965 0 0 1-1.77-1.822l-.654.368Zm2.038 2.097-.386.643a6.466 6.466 0 0 0 3.177.922l.018-.75.018-.75a4.966 4.966 0 0 1-2.44-.708l-.387.643ZM16 29.75l.017.75a6.466 6.466 0 0 0 3.18-.92l-.385-.643-.386-.643a4.966 4.966 0 0 1-2.443.706l.017.75Zm2.812-.814.386.644a6.466 6.466 0 0 0 2.308-2.374l-.654-.368-.654-.368a4.966 4.966 0 0 1-1.772 1.824l.386.642Zm2.04-2.098-.654.368a6.47 6.47 0 0 0 2.31 2.373l.385-.643.386-.643a4.968 4.968 0 0 1-1.773-1.823l-.654.368Zm2.041 2.098-.386.643a6.469 6.469 0 0 0 3.18.92l.018-.749.017-.75a4.97 4.97 0 0 1-2.443-.707l-.386.643Zm2.812.814.002.75a6.312 6.312 0 0 0 4.446-1.85l-.53-.53-.53-.53a4.812 4.812 0 0 1-3.39 1.41l.002.75Zm3.918-1.63.53.53A6.312 6.312 0 0 0 32 24.201l-.75-.002-.75-.002a4.812 4.812 0 0 1-1.408 3.391l.53.53ZM2.688 13.171l.476.58L16.476 2.83 16 2.25l-.476-.58L2.212 12.592l.476.58ZM16 2.25l-.476.58 13.312 10.922.476-.58.476-.58L16.476 1.67 16 2.25Zm-2.42 21.48h.75v-7.428h-1.5v7.428h.75Zm0-7.428v.75h4.84v-1.5h-4.84v.75Zm4.84 0h-.75v7.428h1.5v-7.428h-.75Zm7.261 7.428h.75v-9.514h-1.5v9.514h.75ZM6.319 14.216h-.75v9.514h1.5v-9.514h-.75Z"/></svg>