<svg xmlns="http://www.w3.org/2000/svg" fill="none" viewBox="0 0 32 32"><path fill="currentColor" d="M2.088 27.96h-.75v.75h.75v-.75Zm0-10.378v-.75h-.75v.75h.75Zm10.967 0h.75v-.75h-.75v.75Zm0 4.676h-.75v.75h.75v-.75Zm9.4 0h.75v-.75h-.75v.75Zm0 5.702v.75h.75v-.75h-.75ZM3.65 4.406v-.75H2.9v.75h.75Zm9.911 0v-.75.75Zm1.463 1.017.723-.199-.008-.032-.012-.03-.703.261ZM30.25 28.71H31v-1.5h-.75v1.5Zm-4.916-.75h-.75v.75h.75v-.75Zm.75-26.21V1h-1.5v.75h1.5ZM4.197 27.96v-.75H2.088v1.5h2.109v-.75Zm-2.109 0h.75V17.582h-1.5V27.96h.75Zm0-10.378v.75h10.967v-1.5H2.088v.75Zm10.967 0h-.75v4.676h1.5v-4.676h-.75Zm0 4.676v.75h9.4v-1.5h-9.4v.75Zm9.4 0h-.75v5.702h1.5v-5.702h-.75Zm0 5.702v-.75h-2.192v1.5h2.192v-.75ZM3.65 17.358h.75V4.406H2.9v12.952h.75Zm0-12.952v.75h9.911v-1.5H3.65v.75Zm9.911 0v.75c.165 0 .327.05.463.145l.428-.616.428-.616a2.311 2.311 0 0 0-1.319-.413v.75Zm.89.28-.427.615a.81.81 0 0 1 .297.383l.703-.261.703-.261a2.311 2.311 0 0 0-.847-1.093l-.428.616Zm.573.737-.723.199v.002l.003.008.008.029.03.112.12.425a173.398 173.398 0 0 0 1.97 6.465c.612 1.872 1.306 3.866 2.01 5.622.697 1.74 1.426 3.305 2.117 4.282l.612-.433.612-.433c-.58-.82-1.255-2.242-1.949-3.974-.687-1.714-1.37-3.673-1.977-5.53a172.194 172.194 0 0 1-2.1-6.936l-.007-.028-.002-.007v-.001l-.724.198ZM30.25 27.96v-.75h-4.916v1.5h4.916v-.75Zm-4.916 0h.75V1.75h-1.5v26.21h.75ZM8.912 27.9h-.75a1.6 1.6 0 0 1-1.6 1.6V31a3.1 3.1 0 0 0 3.1-3.1h-.75Zm-2.35 2.35v-.75a1.6 1.6 0 0 1-1.6-1.6h-1.5a3.1 3.1 0 0 0 3.1 3.1v-.75Zm-2.35-2.35h.75a1.6 1.6 0 0 1 1.6-1.6v-1.5a3.1 3.1 0 0 0-3.1 3.1h.75Zm2.35-2.35v.75a1.6 1.6 0 0 1 1.6 1.6h1.5a3.1 3.1 0 0 0-3.1-3.1v.75Zm13.673 2.35h-.75a1.6 1.6 0 0 1-1.6 1.6V31a3.1 3.1 0 0 0 3.1-3.1h-.75Zm-2.35 2.35v-.75a1.6 1.6 0 0 1-1.6-1.6h-1.5a3.1 3.1 0 0 0 3.1 3.1v-.75Zm-2.35-2.35h.75a1.6 1.6 0 0 1 1.6-1.6v-1.5a3.1 3.1 0 0 0-3.1 3.1h.75Zm2.35-2.35v.75a1.6 1.6 0 0 1 1.6 1.6h1.5a3.1 3.1 0 0 0-3.1-3.1v.75Zm-2.605 2.41v-.75H8.895v1.5h6.385v-.75Z"/></svg>