<svg xmlns="http://www.w3.org/2000/svg" fill="none" viewBox="0 0 32 32"><path fill="currentColor" d="m24.43.894-.616-.428-.857 1.231.616.429L24 1.51l.428-.616ZM30 13h-.75.75ZM4.522 19.625l-.375-.649-1.299.752.376.649.649-.376.65-.376ZM10 30.25h-.75v1.5H10v-1.5Zm12 1.5h.75v-1.5H22v1.5ZM16 27h-.75v4h1.5v-4H16Zm10-14h-.75A9.25 9.25 0 0 1 16 22.25v1.5c5.937 0 10.75-4.813 10.75-10.75H26ZM16 23v-.75A9.25 9.25 0 0 1 6.75 13h-1.5c0 5.937 4.813 10.75 10.75 10.75V23ZM6 13h.75A9.25 9.25 0 0 1 16 3.75v-1.5C10.063 2.25 5.25 7.063 5.25 13H6ZM16 3v.75A9.25 9.25 0 0 1 25.25 13h1.5c0-5.937-4.813-10.75-10.75-10.75V3Zm8.001-1.49-.428.616a13.235 13.235 0 0 1 4.174 4.74l.665-.348.665-.347A14.735 14.735 0 0 0 24.429.894l-.428.616Zm4.411 5.008-.665.347A13.233 13.233 0 0 1 29.25 13h1.5a14.735 14.735 0 0 0-1.673-6.83l-.665.348ZM30 13h-.75c0 7.318-5.932 13.25-13.25 13.25v1.5c8.146 0 14.75-6.604 14.75-14.75H30ZM16 27v-.75a13.245 13.245 0 0 1-11.478-6.625l-.649.376-.65.376C5.774 24.783 10.54 27.75 16 27.75V27Zm-6 4v.75h12v-1.5H10V31Z"/></svg>