<svg xmlns="http://www.w3.org/2000/svg" fill="none" viewBox="0 0 32 32"><path fill="currentColor" d="m16 2 .468-.586L16 1.04l-.469.374L16 2Zm-3 20v-.75h-.75V22H13Zm6 0h.75v-.75H19V22ZM5.75 16v-.75h-1.5V16h1.5ZM5 30h-.75v.75H5V30Zm22 0v.75h.75V30H27Zm.75-14v-.75h-1.5V16h1.5ZM14 13v-.75h-.75V13H14Zm4 0h.75v-.75H18V13Zm0 4v.75h.75V17H18Zm-4 0h-.75v.75H14V17ZM1 14l.469.586 15-12L16 2l-.469-.586-15 12L1 14ZM16 2l-.469.586 15 12L31 14l.468-.586-15-12L16 2Zm-3 28h.75v-8h-1.5v8H13Zm0-8v.75h6v-1.5h-6V22Zm6 0h-.75v8h1.5v-8H19ZM5 16h-.75v14h1.5V16H5Zm0 14v.75h22v-1.5H5V30Zm22 0h.75V16h-1.5v14H27ZM14 13v.75h4v-1.5h-4V13Zm4 0h-.75v4h1.5v-4H18Zm0 4v-.75h-4v1.5h4V17Zm-4 0h.75v-4h-1.5v4H14ZM7 9.2h.75V4h-1.5v5.2H7Z"/></svg>