<svg xmlns="http://www.w3.org/2000/svg" fill="none" viewBox="0 0 32 32"><path fill="currentColor" d="m2.993 23.76.612.434a.768.768 0 0 0 .041-.065l-.653-.369ZM.75 26.11l-.728-.182a.75.75 0 0 0 1.19.773l-.462-.59Zm.757-4.86.745.09v-.002l-.745-.088Zm.064-1.688-.75.027v.005l.75-.032Zm-.019-.772h-.75v.01l.75-.01Zm-.159-3.1.747.066a.75.75 0 0 0 .003-.09l-.75.024Zm.585-2.49-.623-.418a.753.753 0 0 0-.038.063l.661.355Zm23.935-1.22a.75.75 0 1 0-1.456-.36l.728.18.728.18ZM23.6 18.24l-.728-.18a.758.758 0 0 0-.021.144l.749.035Zm-.476 10.3.75.034-.75-.035Zm-.752.71.008-.75h-.008v.75Zm-.972 0v-.75.75Zm-.752-.71-.75.03.001.012.749-.043Zm-.348-8.66.75-.03a.75.75 0 0 0-.968-.688l.218.718Zm-9.339-.129.38-.646-.38.646Zm-1.082-.519-.273.699.006.002.267-.7Zm-2.451 1.554-.748-.051a.75.75 0 0 0-.002.051h.75Zm0 .106.75.007v-.007h-.75Zm-.068 7.64.75.034v-.028l-.75-.007Zm-.752.717V30v-.75Zm-.982 0v-.75.75Zm-.752-.71.749-.043-.001-.018-.748.061ZM3.762 17.494l.734-.155a.753.753 0 0 0-.028-.098l-.706.253Zm-.619-3.1-.75-.03.001.068.749-.038ZM7.6 9.974l.024.749h.007l-.031-.75Zm2.324.24.186-.728h-.003l-.183.727Zm4.774.81-.064.746a.74.74 0 0 0 .042.003l.022-.75Zm1.481-.4.397.636a.747.747 0 0 0 .181-.16l-.578-.477Zm2.463-2.985.578.477a.876.876 0 0 0 .012-.014l-.59-.463Zm1.415-1.472.486.572.005-.005-.491-.567Zm3.86-1.95.166.73-.166-.731Zm.935-.135v-.75l-.046.001.046.749Zm.059 0v.75a.75.75 0 0 0 .734-.595l-.734-.155Zm.556-.929-.483-.574.483.574Zm1.019-.4.75-.035a.75.75 0 0 0-.786-.714l.036.749Zm.065 1.377-.75.035.001.007.749-.042Zm.2.508.594-.458a.698.698 0 0 0-.018-.022l-.576.48Zm4.245 5.5.608-.44a.734.734 0 0 0-.014-.018l-.594.458Zm-.049 1.683.555.505.026-.03-.581-.475Zm-.467.513.534.527a.7.7 0 0 0 .02-.022l-.554-.505Zm-1.613.284-.35.663.028.014.322-.677Zm-1.767-.935.35-.663-.35.663Zm-3.273-.9-.493.565.004.004.489-.569Zm-.309-1.453a.75.75 0 0 0-1.224.866l.612-.433.612-.433ZM4.233 20.507l-.745.085v.047a1.132 1.132 0 0 1-.017.126c-.02.106-.054.238-.103.39a9.468 9.468 0 0 1-.4.995 18.638 18.638 0 0 1-.615 1.219l-.01.018-.003.004.653.37.653.367.002-.002.003-.006.013-.022a13.353 13.353 0 0 0 .2-.374c.129-.244.3-.581.468-.949.168-.364.339-.773.463-1.16.115-.354.228-.8.183-1.193l-.745.085Zm-1.24 3.253-.612-.434A10.43 10.43 0 0 1 .288 25.52l.462.591.462.591a11.931 11.931 0 0 0 2.393-2.507l-.612-.434ZM.75 26.11l.728.182c.288-1.155.618-3.656.774-4.953l-.745-.089-.745-.09c-.158 1.324-.478 3.723-.74 4.768l.728.182Zm.757-4.86.745.088c.07-.6.094-1.204.068-1.808l-.749.032-.75.032a9.82 9.82 0 0 1-.059 1.568l.745.088Zm.064-1.688.75-.027a34.89 34.89 0 0 1-.02-.755l-.749.01-.75.01c.004.263.01.526.02.789l.749-.027Zm-.019-.772h.75a1.354 1.354 0 0 0-.001-.04v-.01l-.001-.007a1.084 1.084 0 0 0-.003-.034 661.315 661.315 0 0 0-.03-.372c-.018-.243-.043-.57-.066-.916-.048-.726-.081-1.427-.06-1.655l-.748-.066-.747-.066c-.033.372.014 1.215.058 1.886a82.864 82.864 0 0 0 .091 1.228l.007.082.002.02c.002.035-.002-.011-.002-.05h.75Zm-.159-3.1.75-.024a4.175 4.175 0 0 1 .496-2.11l-.661-.356-.66-.355a5.675 5.675 0 0 0-.675 2.869l.75-.024Zm.585-2.49.623.418a3.44 3.44 0 0 1 2.176-1.457l-.148-.735-.148-.735a4.94 4.94 0 0 0-3.126 2.091l.623.418Zm23.207-1.4-.728-.18-1.585 6.44.728.18.728.178 1.585-6.439-.728-.179ZM23.6 18.24l-.75-.036-.475 10.3.749.035.75.035.475-10.3-.749-.035Zm-.476 10.3-.75-.036.002-.004.515.546.515.545c.282-.266.449-.63.467-1.017l-.749-.035Zm-.233.506-.515-.546h.004l-.008.75-.008.749c.387.004.76-.142 1.042-.408l-.515-.545Zm-.519.203v-.75H21.4V30h.972v-.75Zm-.972 0v-.75h-.002l-.515.545-.515.545c.279.263.648.41 1.032.41v-.75Zm-.517-.205.515-.546-.001-.002-.749.043-.749.043c.022.383.19.743.469 1.007l.515-.545Zm-.235-.505.75-.03-.349-8.658-.749.03-.75.03.349 8.658.749-.03Zm-.348-8.658-.218-.718c-2.797.849-4.743.965-6.093.812-1.337-.15-2.135-.568-2.648-.87l-.38.647-.38.646c.626.369 1.627.886 3.24 1.068 1.599.18 3.753.025 6.697-.867l-.218-.718Zm-9.339-.129.38-.647a7.943 7.943 0 0 0-1.195-.573l-.267.701-.267.7c.336.129.66.284.97.466l.379-.647Zm-1.082-.519.273-.698a2.55 2.55 0 0 0-1.173-.164l.072.747.072.746c.164-.015.33.008.483.068l.273-.699Zm-.828-.115-.072-.747a2.55 2.55 0 0 0-1.12.385l.401.633.402.634a1.05 1.05 0 0 1 .46-.159l-.071-.746Zm-.791.271-.402-.633a2.55 2.55 0 0 0-.825.85l.644.383.645.383c.084-.141.2-.26.34-.35l-.402-.633Zm-.583.6-.644-.384a2.55 2.55 0 0 0-.353 1.131l.748.051.748.051a1.05 1.05 0 0 1 .146-.466l-.645-.383Zm-.249.798h-.75v.106h1.5v-.106h-.75Zm0 .106-.75-.007-.068 7.64.75.006.75.007.068-7.64-.75-.006Zm-.068 7.64-.75-.036v.002l.518.543.518.542a1.5 1.5 0 0 0 .463-1.017l-.749-.035Zm-.232.509-.518-.543-.002.001V30c.387 0 .758-.149 1.038-.416l-.518-.542Zm-.52.208v-.75h-.982V30h.982v-.75Zm-.982 0v-.75h-.002l-.515.545-.515.545c.279.263.648.41 1.032.41v-.75Zm-.517-.205.515-.546-.001-.002-.749.043-.749.043c.022.383.19.743.469 1.007l.515-.545Zm-.235-.505.748-.06v-.006l-.002-.016-.005-.063a1713.7 1713.7 0 0 1-.302-3.743 336.006 336.006 0 0 1-.334-4.38l-.749.036-.75.035c.02.4.182 2.477.338 4.429a2475.201 2475.201 0 0 0 .307 3.808l.001.016v.004l.748-.06Zm-.644-8.232.75-.035c-.022-.445-.15-1.2-.26-1.796a52.84 52.84 0 0 0-.219-1.113l-.004-.018v-.005l-.001-.001-.734.154-.734.155v.001l.001.004.004.017a26.695 26.695 0 0 1 .062.303c.04.201.095.477.15.776.115.618.22 1.27.236 1.593l.749-.035Zm-.468-2.814.706-.253c-.332-.928-.526-1.9-.576-2.885l-.749.038-.749.038a11.57 11.57 0 0 0 .662 3.315l.706-.253Zm-.619-3.1.75.03a3.856 3.856 0 0 1 1.137-2.585l-.528-.532-.528-.533a5.356 5.356 0 0 0-1.58 3.59l.749.03Zm1.359-3.087.528.532a3.856 3.856 0 0 1 2.594-1.116l-.024-.75-.024-.75a5.356 5.356 0 0 0-3.602 1.551l.528.533ZM7.6 9.973l.03.75c.71-.03 1.422.044 2.11.217l.184-.727.183-.727a8.902 8.902 0 0 0-2.538-.262l.031.75Zm2.324.24-.186.727a30.24 30.24 0 0 0 4.896.83l.064-.747.064-.747a28.73 28.73 0 0 1-4.652-.79l-.186.727Zm4.774.81-.022.75c.67.02 1.33-.159 1.9-.513l-.397-.637-.396-.637a1.904 1.904 0 0 1-1.063.287l-.022.75Zm1.481-.4.578.478 2.463-2.985-.578-.477-.578-.477-2.463 2.984.578.477Zm2.463-2.984.59.463c.39-.497.83-.954 1.31-1.364l-.485-.571-.486-.571a10.915 10.915 0 0 0-1.52 1.58l.591.463Zm1.415-1.472.49.567a8.163 8.163 0 0 1 3.536-1.787l-.166-.731-.166-.731A9.663 9.663 0 0 0 19.566 5.6l.491.567Zm3.86-1.95.167.73c.267-.06.54-.1.814-.116l-.046-.749-.046-.749a6.54 6.54 0 0 0-1.056.152l.167.731Zm.935-.135v.75h.059v-1.5h-.059v.75Zm.059 0 .734.155a.91.91 0 0 1 .305-.51l-.483-.574-.483-.574a2.413 2.413 0 0 0-.807 1.348l.734.155Zm.556-.929.483.574a.96.96 0 0 1 .572-.225l-.036-.749-.036-.75a2.461 2.461 0 0 0-1.466.576l.483.574Zm1.019-.4-.75.035.066 1.377.749-.035.75-.035-.066-1.377-.749.035Zm.065 1.377-.749.042c.02.347.15.679.373.946l.576-.48.576-.48a.12.12 0 0 1-.027-.07l-.749.042Zm.2.508-.594.458 4.245 5.5.594-.458.594-.458-4.245-5.5-.594.458Zm4.245 5.5-.608.44a.629.629 0 0 1 .12.388l.75.022.75.022a2.13 2.13 0 0 0-.404-1.312l-.608.44Zm.262.85-.75-.022a.631.631 0 0 1-.142.38l.581.475.581.474c.297-.364.466-.816.48-1.285l-.75-.022Zm-.311.833-.555-.505-.467.513.555.505.555.505.467-.513-.555-.505Zm-.467.513-.534-.527a.663.663 0 0 1-.357.188l.13.739.13.738c.442-.078.85-.291 1.165-.611l-.534-.527Zm-.761.4-.13-.74a.662.662 0 0 1-.4-.053l-.322.677-.322.677c.406.193.861.255 1.304.177l-.13-.738Zm-.852-.116.35-.663-1.766-.935-.351.663-.35.663 1.766.935.351-.663Zm-1.767-.935.35-.663c-.114-.06-.226-.082-.25-.087-.05-.01-.1-.018-.145-.025-.09-.013-.206-.026-.324-.04a16.01 16.01 0 0 1-.87-.121 6.385 6.385 0 0 1-.932-.225c-.293-.099-.496-.207-.613-.308l-.489.57-.489.568c.326.28.734.464 1.111.591a7.9 7.9 0 0 0 1.157.282c.365.063.703.103.949.132.127.015.22.026.286.036a1.668 1.668 0 0 1 .025.001.636.636 0 0 1-.116-.047l.35-.664Zm-3.273-.9.493-.565a5.045 5.045 0 0 1-.802-.888l-.612.433-.612.433c.3.424.649.81 1.04 1.152l.493-.565Z"/></svg>