<svg xmlns="http://www.w3.org/2000/svg" fill="none" viewBox="0 0 32 31"><path stroke="currentColor" stroke-linecap="square" stroke-miterlimit="10" vector-effect="non-scaling-stroke" stroke-width="1.5" d="M17 25.188H5a4.066 4.066 0 0 1-2.828-1.136A3.815 3.815 0 0 1 1 21.313h16M4 17.438V3.876c0-.514.21-1.007.586-1.37A2.033 2.033 0 0 1 6 1.938h20c.53 0 1.04.204 1.414.567.375.363.586.856.586 1.37v9.688m-13-7.75h2m6 17.437v-2.906c0-.771.316-1.51.879-2.055A3.05 3.05 0 0 1 26 17.437a3.05 3.05 0 0 1 2.121.852A2.86 2.86 0 0 1 29 20.344v2.906m-8 0h10v6.781H21V23.25Z"/></svg>