<svg xmlns="http://www.w3.org/2000/svg" fill="none" viewBox="0 0 32 32"><path stroke="currentColor" stroke-miterlimit="10" vector-effect="non-scaling-stroke" stroke-width="1.5" d="m20.323 10.322-1.177-4.053H14.43M3.159 13.13h7.95m19.576 7.112-3.122 1.572c-2.79 1.406-5.489 2.138-8.613 2.138l-13.522.134a1 1 0 0 1-.785-.38L1.54 19.779m28.785.386H20.08l-18.05.133a.5.5 0 0 1-.465-.683l1.495-3.781 12.228-.134a5.045 5.045 0 0 0 5.025-5.479c4.139.954 5.196 1.396 7.357 3.448 2.16 2.053 2.653 4.956 2.653 6.496Z"/></svg>