<svg xmlns="http://www.w3.org/2000/svg" fill="none" viewBox="0 0 32 32"><path stroke="currentColor" stroke-linecap="square" stroke-miterlimit="10" vector-effect="non-scaling-stroke" stroke-width="1.5" d="M15 20.012c-.326-.008-.66-.012-1-.012a27.706 27.706 0 0 0-11.227 2.043A2.991 2.991 0 0 0 1 24.783V30h17M7 8a7 7 0 0 1 14 0c0 3.866-3.134 8-7 8s-7-4.134-7-8Zm23.041 11.992a3.206 3.206 0 0 0-5.041.523 3.204 3.204 0 0 0-5.041-.523 3.471 3.471 0 0 0 0 4.79L25 30l5.042-5.218a3.469 3.469 0 0 0-.001-4.79Z"/></svg>