<svg xmlns="http://www.w3.org/2000/svg" fill="none" viewBox="0 0 32 32"><path stroke="currentColor" stroke-linecap="square" stroke-miterlimit="10" vector-effect="non-scaling-stroke" stroke-width="1.5" d="M10.811 15.736v-5.713h8.668v5.713m-4.334-6.523V3.5h8.716v5.713m-8.716.81v2.033m4.358-8.149V5.94m.024 4.083h8.668v5.713m-8.668 0v-5.535m4.334-.178v2.033M3.805 16.41V7.091h3.654v9.319m-3.584 7.007L1.25 16.416h29.5l-2.739 7M.75 24.293a4.193 4.193 0 0 0 7.888 2 4.171 4.171 0 0 0 7.362 0 4.171 4.171 0 0 0 7.362 0 4.193 4.193 0 0 0 7.888-2"/></svg>