<svg xmlns="http://www.w3.org/2000/svg" fill="none" viewBox="0 0 32 32"><path fill="currentColor" d="M26.173 22.924a.75.75 0 1 0 1.224-.868l-.612.434-.612.434Zm-2.975-6.785a.75.75 0 1 0-1.224.868l.612-.434.612-.434ZM4.699 22.056a.75.75 0 1 0 1.224.868l-.612-.434-.612-.434Zm5.424-5.049a.75.75 0 0 0-1.224-.868l.612.434.612.434ZM22.81 6.077v-.75h-1.5v.75h1.5Zm-.75 3.672v.75h.75v-.75h-.75Zm-3.913 0v-.75h-.01l.01.75Zm-3.784.8-.294-.69-.02.009-.02.01.334.671Zm-.794.395-.334-.671-.05.024-.046.033.43.614Zm-8.784.232.11-.742-.05-.007h-.05l-.01.749Zm-3.507-.043.01-.75-1.281-.016.612 1.125.659-.359Zm2.17 3.984-.659.359.213.391h.446v-.75Zm9.167 6.22-.744.092.081.658h.663v-.75Zm6.873 0v.75h.605l.128-.592-.733-.158Zm10.696-6.454v.75h.87l-.128-.86-.742.11ZM19.469 4.263l-.738-.139-.277 1.475.738.138L19.33 5l.139-.737Zm7.316 18.227.612-.434-4.2-5.917-.611.434-.612.434 4.2 5.917.611-.434Zm-21.474 0 .612.434 4.2-5.917-.612-.434-.612-.434-4.2 5.917.612.434Zm16.75-16.413h-.75v3.672h1.5V6.077h-.75Zm0 3.672v-.75h-3.913v1.5h3.913v-.75Zm-3.913 0-.01-.75c-1.4.02-2.78.312-4.068.86l.294.69.294.69a9.277 9.277 0 0 1 3.5-.74l-.01-.75Zm-3.784.8-.334-.671-.794.395.334.671.334.671.794-.395-.334-.671Zm-.794.395-.43-.614c-1.328.93-2.751 1.069-4.176.913-.717-.08-1.421-.232-2.108-.392-.668-.156-1.354-.328-1.96-.417l-.11.742-.11.742c.528.078 1.126.228 1.84.394.695.162 1.472.333 2.285.422 1.636.18 3.47.036 5.2-1.176l-.431-.614Zm-8.784.232.01-.75-3.508-.043-.009.75-.01.75 3.508.043.009-.75Zm-3.507-.043-.659.359 2.17 3.984.659-.359.659-.359-2.17-3.984-.659.359Zm2.17 3.984v.75h2.767v-1.5H3.449v.75Zm2.767 0v.75c1.305 0 2.626.643 3.686 1.697 1.059 1.052 1.796 2.457 1.97 3.865l.744-.092.744-.092c-.22-1.78-1.133-3.485-2.4-4.745-1.267-1.26-2.949-2.133-4.744-2.133v.75Zm6.4 6.22v.75h6.873v-1.5h-6.873v.75Zm6.873 0 .733.158c.473-2.19 1.478-3.633 2.742-4.538 1.275-.912 2.879-1.324 4.614-1.324v-1.5c-1.963 0-3.896.465-5.488 1.605-1.602 1.147-2.793 2.932-3.334 5.44l.733.159Zm8.089-6.454v.75h2.607v-1.5h-2.607v.75Zm2.607 0 .742-.111v-.004l-.002-.008-.004-.024a7.187 7.187 0 0 0-.075-.372 10.905 10.905 0 0 0-.288-1.008 13.256 13.256 0 0 0-1.556-3.152c-1.606-2.392-4.486-4.993-9.534-5.941L19.33 5l-.138.737c4.61.867 7.158 3.208 8.565 5.303a11.755 11.755 0 0 1 1.379 2.792 9.377 9.377 0 0 1 .296 1.098 3.358 3.358 0 0 1 .011.064s0 .001 0 0l.742-.111ZM9.78 22.485h-.75a3.765 3.765 0 0 1-3.765 3.765v1.5a5.265 5.265 0 0 0 5.265-5.265h-.75ZM5.265 27v-.75A3.765 3.765 0 0 1 1.5 22.485H0a5.265 5.265 0 0 0 5.265 5.265V27ZM.75 22.485h.75a3.765 3.765 0 0 1 3.765-3.765v-1.5A5.265 5.265 0 0 0 0 22.485h.75Zm4.515-4.515v.75a3.765 3.765 0 0 1 3.765 3.765h1.5a5.265 5.265 0 0 0-5.265-5.265v.75Zm25.985 4.515h-.75a3.765 3.765 0 0 1-3.765 3.765v1.5A5.265 5.265 0 0 0 32 22.485h-.75ZM26.735 27v-.75a3.765 3.765 0 0 1-3.765-3.765h-1.5a5.265 5.265 0 0 0 5.265 5.265V27Zm-4.515-4.515h.75a3.765 3.765 0 0 1 3.765-3.765v-1.5a5.265 5.265 0 0 0-5.265 5.265h.75Zm4.515-4.515v.75a3.765 3.765 0 0 1 3.765 3.765H32a5.265 5.265 0 0 0-5.265-5.265v.75Z"/></svg>