<svg xmlns="http://www.w3.org/2000/svg" fill="none" viewBox="0 0 32 32"><path fill="currentColor" d="m1.764 22.363-.746-.077-.085.827h.831v-.75Zm1.082-10.48-.485-.572-.23.195-.031.3.746.077ZM8.832 6.8v-.75h-.275l-.21.178.485.572Zm10.254 0 .569-.489-.224-.261h-.345v.75ZM25 13.687l-.569.489.106.123.148.069.315-.681Zm3.627 1.679.73-.174-.085-.354-.33-.153-.315.681Zm1.672 6.997v.75h.95l-.22-.924-.73.174ZM10.5 21.75h-.75v1.5h.75v-1.5Zm11 1.5h.75v-1.5h-.75v1.5ZM3.6 22.2h-.75.75Zm18 0h.75-.75Zm3.2-3.2v-.75.75Zm3.2 3.2h.75H28Zm-3.2 3.2v-.75.75ZM3.257 11.32l-.747-.057-.115 1.495.748.058.057-.748.057-.748Zm21.19 3.133.748.057.115-1.495-.747-.058-.058.748-.057.748Zm-21.141 7.91v-.75H1.764v1.5h1.542v-.75Zm-1.542 0 .746.077 1.082-10.48-.746-.077-.746-.077-1.082 10.48.746.077Zm1.082-10.48.485.572 5.986-5.083-.485-.572-.485-.572-5.986 5.083.485.572ZM8.832 6.8v.75h10.254v-1.5H8.832v.75Zm10.254 0-.569.489 5.914 6.887.569-.489.569-.489-5.914-6.887-.569.489ZM25 13.687l-.315.68 3.627 1.68.315-.681.315-.68-3.627-1.68-.315.681Zm3.627 1.679-.73.174 1.673 6.997.729-.174.73-.174-1.672-6.997-.73.174Zm1.672 6.997v-.75H28v1.5h2.299v-.75ZM10.5 22.5v.75h11v-1.5h-11v.75Zm-6.9-.3h.75c0-.65.258-1.273.718-1.732l-.53-.53-.531-.531A3.95 3.95 0 0 0 2.85 22.2h.75Zm.937-2.263.53.53A2.45 2.45 0 0 1 6.8 19.75v-1.5a3.95 3.95 0 0 0-2.793 1.157l.53.53ZM6.8 19v.75c.65 0 1.273.258 1.732.718l.53-.53.531-.531A3.95 3.95 0 0 0 6.8 18.25V19Zm2.263.937-.53.53c.459.46.717 1.083.717 1.733h1.5a3.95 3.95 0 0 0-1.157-2.793l-.53.53ZM10 22.2h-.75a2.45 2.45 0 0 1-.718 1.732l.53.53.531.531A3.95 3.95 0 0 0 10.75 22.2H10Zm-.937 2.263-.53-.53a2.45 2.45 0 0 1-1.733.717v1.5a3.95 3.95 0 0 0 2.793-1.157l-.53-.53ZM6.8 25.4v-.75a2.45 2.45 0 0 1-1.732-.718l-.53.53-.531.531A3.95 3.95 0 0 0 6.8 26.15v-.75Zm-2.263-.937.53-.53A2.45 2.45 0 0 1 4.35 22.2h-1.5a3.95 3.95 0 0 0 1.157 2.793l.53-.53ZM21.6 22.2h.75c0-.322.063-.64.186-.938l-.692-.287-.693-.287c-.199.48-.301.993-.301 1.512h.75Zm.244-1.225.692.287c.124-.297.304-.567.532-.794l-.53-.53-.531-.531a3.95 3.95 0 0 0-.856 1.281l.693.287Zm.693-1.038.53.53a2.45 2.45 0 0 1 .796-.53l-.287-.693-.288-.693a3.95 3.95 0 0 0-1.281.856l.53.53Zm1.039-.693.287.692a2.45 2.45 0 0 1 .937-.186v-1.5a3.95 3.95 0 0 0-1.512.3l.288.694ZM24.8 19v.75c.322 0 .64.063.938.186l.287-.692.287-.693a3.95 3.95 0 0 0-1.512-.301V19Zm1.225.244-.287.692c.297.124.567.304.794.532l.53-.53.531-.531a3.95 3.95 0 0 0-1.281-.856l-.287.693Zm1.038.693-.53.53c.227.228.407.498.53.795l.694-.287.692-.287a3.95 3.95 0 0 0-.856-1.281l-.53.53Zm.694 1.038-.694.287c.124.298.187.616.187.938h1.5a3.95 3.95 0 0 0-.3-1.512l-.694.287ZM28 22.2h-.75a2.45 2.45 0 0 1-.718 1.732l.53.53.531.531A3.95 3.95 0 0 0 28.75 22.2H28Zm-.937 2.263-.53-.53a2.45 2.45 0 0 1-1.733.717v1.5a3.95 3.95 0 0 0 2.793-1.157l-.53-.53ZM24.8 25.4v-.75a2.45 2.45 0 0 1-1.732-.718l-.53.53-.531.531A3.95 3.95 0 0 0 24.8 26.15v-.75Zm-2.263-.937.53-.53a2.45 2.45 0 0 1-.717-1.733h-1.5a3.95 3.95 0 0 0 1.157 2.793l.53-.53ZM3.2 12.068l-.057.748 21.305 1.637.057-.748.058-.748L3.258 11.32l-.058.748Z"/></svg>