<svg xmlns="http://www.w3.org/2000/svg" fill="none" viewBox="0 0 32 32"><path stroke="currentColor" stroke-linecap="square" vector-effect="non-scaling-stroke" stroke-width="1.5" d="M4 25H3a2 2 0 0 1-2-2V10a2 2 0 0 1 2-2h9a2 2 0 0 1 2 2v10h7V3h-4M4 25a4 4 0 0 0 8 0m-8 0a4 4 0 0 1 8 0m16.5-4-3-10M12 25h11m0 0a4 4 0 1 0 8 0 4 4 0 0 0-8 0Zm5-15h-3.5A2.48 2.48 0 0 1 22 7.5 2.48 2.48 0 0 1 24.5 5H28v5ZM7.5 13l.37 1.123 1.13.025-.9.716L8.428 16l-.927-.679-.927.679.326-1.136-.9-.715 1.13-.025L7.5 13Z"/></svg>