<svg xmlns="http://www.w3.org/2000/svg" fill="none" viewBox="0 0 32 32"><path fill="currentColor" d="m27.707 8.783.738-.134-.738.134ZM25.57 7v-.75V7ZM14.724 7v-.75h-.001V7Zm15.578 15.195v-.75h-1.5v.75h1.5Zm-.75 3.618v.75h.75v-.75h-.75Zm-4.34 0h-.75v.75h.75v-.75Zm.75-3.618v-.75h-1.5v.75h1.5Zm-8.997-7.985h-.75v1.5h.75v-1.5Zm12.017.75.55-.51-.223-.24h-.327v.75Zm1.425 1.534.553-.506-.004-.004-.55.51Zm.59 1.536-.75-.006v.006h.75Zm0 4.165v.75h.75v-.75h-.75Zm-10.088-.75h-.75v1.5h.75v-1.5ZM27.499 19h.75-.75Zm-.25-.433.376-.65-.375.65ZM7.405 12.915l.647.378-.647-.378Zm4.925 0-.648.378.648-.378Zm5.016 8.597-.648.378.648-.378ZM14.88 25.8v-.75.75Zm-10.03 0v.75-.75Zm-2.463-4.288.648.378-.648-.378ZM9.856 16l.654-.368a.75.75 0 0 0-1.308 0l.654.368Zm3.656 6.5v.75a.75.75 0 0 0 .654-1.118l-.654.368Zm-7.312 0-.654-.368A.75.75 0 0 0 6.2 23.25v-.75Zm22.63-7.54.738-.134-1.123-6.177-.738.134-.738.134 1.123 6.177.738-.134Zm-1.123-6.177.738-.135a2.924 2.924 0 0 0-1.003-1.719l-.48.576-.481.576c.255.213.428.51.488.837l.738-.135Zm-.745-1.278.48-.576a2.924 2.924 0 0 0-1.87-.679L25.57 7l-.001.75c.333 0 .655.117.91.33l.482-.575ZM25.57 7v-.75H14.724v1.5H25.57V7ZM14.724 7l-.001-.75c-.684 0-1.345.241-1.87.68l.48.575.48.576c.256-.214.579-.33.912-.331L14.724 7Zm-1.39.505-.481-.576a2.924 2.924 0 0 0-1.003 1.72l.738.134.738.135a1.42 1.42 0 0 1 .488-.837l-.48-.576Zm16.218 14.69h-.75v3.618h1.5v-3.618h-.75Zm0 3.618v-.75h-4.34v1.5h4.34v-.75Zm-4.34 0h.75v-3.618h-1.5v3.618h.75ZM16.965 14.96v.75h12.017v-1.5H16.965v.75Zm12.017 0-.55.51 1.425 1.534.55-.51.55-.51-1.426-1.534-.55.51Zm1.425 1.534-.553.506c.255.28.396.645.393 1.024l.75.006.75.006a2.999 2.999 0 0 0-.787-2.048l-.553.506Zm.59 1.536h-.75v4.165h1.5V18.03h-.75Zm0 4.165v-.75H20.909v1.5h10.088v-.75ZM27.5 19h-.75a.25.25 0 0 1 .052-.152l.595.456.595.457A1.25 1.25 0 0 0 28.25 19h-.75Zm-.103.304-.595-.456a.25.25 0 0 1 .133-.09l.194.725.195.724c.265-.071.5-.228.668-.446l-.595-.457Zm-.268.179-.194-.724a.25.25 0 0 1 .16.01l-.286.693-.287.693c.254.105.536.124.802.052l-.195-.724Zm-.32-.021.287-.693a.25.25 0 0 1 .12.106l-.649.375-.65.375c.138.239.35.425.605.53l.287-.693Zm-.242-.212.65-.375a.25.25 0 0 1 .03.157l-.743-.097-.744-.098c-.035.273.02.55.158.788l.649-.375Zm-.063-.315.744.098a.25.25 0 0 1-.071.144l-.53-.53-.531-.53a1.25 1.25 0 0 0-.355.72l.743.098Zm.142-.288.53.53a.25.25 0 0 1-.143.07l-.099-.743-.098-.743a1.25 1.25 0 0 0-.72.355l.53.53Zm.288-.143.099.744a.25.25 0 0 1-.158-.031l.375-.65.374-.65a1.25 1.25 0 0 0-.788-.156l.098.743Zm.316.063-.375.65a.25.25 0 0 1-.092-.092l.65-.375.65-.375a1.25 1.25 0 0 0-.458-.458l-.375.65Zm.183.183-.65.375A.25.25 0 0 1 26.75 19h1.5c0-.22-.058-.435-.168-.625l-.65.375Zm-20.03-5.835.648.378c.186-.318.45-.58.769-.764l-.374-.65-.373-.65c-.546.313-1 .764-1.317 1.308l.648.378Zm1.043-1.036.374.65c.318-.183.68-.279 1.047-.279v-1.5c-.63 0-1.248.165-1.794.479l.373.65Zm1.42-.379v.75c.368 0 .729.096 1.047.28l.374-.651.373-.65a3.602 3.602 0 0 0-1.793-.479v.75Zm1.42.379-.373.65a2.1 2.1 0 0 1 .768.764l.648-.378.648-.378a3.601 3.601 0 0 0-1.317-1.309l-.373.65Zm1.043 1.036-.647.378 5.015 8.597.648-.378.647-.378-5.015-8.597-.648.378Zm5.016 8.597-.648.378a2.1 2.1 0 0 1 .286 1.052l.75-.003.75-.002a3.6 3.6 0 0 0-.49-1.803l-.648.378Zm.388 1.427-.75.003a2.1 2.1 0 0 1-.28 1.053l.651.374.65.374c.316-.55.481-1.173.48-1.806l-.75.002Zm-.379 1.43-.65-.373a2.1 2.1 0 0 1-.77.771l.376.65.376.649a3.602 3.602 0 0 0 1.319-1.323l-.65-.374Zm-1.044 1.048-.376-.65a2.1 2.1 0 0 1-1.053.283v1.5c.634 0 1.256-.167 1.805-.484l-.376-.65Zm-1.429.383v-.75H4.851v1.5h10.03v-.75Zm-10.03 0v-.75c-.37 0-.733-.098-1.053-.283l-.375.65-.376.648c.548.318 1.17.485 1.804.485v-.75Zm-1.428-.384.375-.649a2.102 2.102 0 0 1-.77-.772l-.65.374-.65.373c.316.55.77 1.006 1.319 1.323l.376-.649ZM2.379 24.37l.65-.374a2.101 2.101 0 0 1-.28-1.053L2 22.939l-.75-.003a3.601 3.601 0 0 0 .48 1.806l.65-.373Zm-.38-1.43.75.003c.002-.37.101-.733.287-1.052l-.648-.378-.647-.378a3.601 3.601 0 0 0-.491 1.802l.75.003Zm.39-1.427.647.378 5.015-8.597-.647-.378-.648-.378-5.015 8.597.647.378ZM9.855 16l-.654.368 3.657 6.5.653-.368.654-.368-3.656-6.5-.654.368Zm3.656 6.5v-.75H6.2v1.5h7.312v-.75Zm-7.312 0 .654.368 3.656-6.5L9.856 16l-.654-.368-3.656 6.5.654.368Z"/></svg>