<svg xmlns="http://www.w3.org/2000/svg" fill="none" viewBox="0 0 32 32"><g stroke="currentColor" stroke-linecap="square" stroke-miterlimit="10" vector-effect="non-scaling-stroke" stroke-width="1.5"><path d="M11.21 10.995c1.654-.087 2.901-1.946 2.786-4.152-.116-2.206-1.55-3.924-3.205-3.838-1.655.087-2.902 1.946-2.787 4.152.116 2.206 1.55 3.924 3.205 3.838ZM4.631 17.92c1.32-.407 1.929-2.234 1.36-4.081-.568-1.848-2.099-3.016-3.418-2.61-1.32.406-1.929 2.233-1.36 4.08.568 1.848 2.099 3.016 3.418 2.61Zm24.796-6.691c-1.32-.406-2.85.762-3.418 2.61-.569 1.847.04 3.674 1.36 4.08 1.32.406 2.85-.762 3.419-2.61.568-1.847-.041-3.674-1.36-4.08Zm-8.644-.235c1.655.09 3.093-1.626 3.213-3.831.12-2.206-1.125-4.067-2.78-4.157-1.654-.09-3.092 1.625-3.212 3.831-.12 2.206 1.125 4.067 2.78 4.157ZM10.29 17.327l-2.64 4.988c-2.201 4.158 1.567 9.058 5.637 7.328l.23-.097a6.309 6.309 0 0 1 4.967 0l.229.097c4.07 1.73 7.838-3.17 5.637-7.328l-2.64-4.988c-2.748-4.436-8.672-4.436-11.42 0Z"/></g></svg>