<svg xmlns="http://www.w3.org/2000/svg" fill="none" viewBox="0 0 32 32"><path stroke="currentColor" stroke-linecap="round" stroke-linejoin="round" vector-effect="non-scaling-stroke" stroke-width="1.5" d="M20.25 15.52c2.5 0 4.5.8 7-.7 2.12-1.413 2.742-3.225 2.924-4.388.101-.644-.238-1.266-.796-1.605-2.075-1.26-4.2-1.937-6.592-3.051-.351-.164-.634-.439-.873-.743-1.73-2.197-5.613-3.437-7.832-3.437-3.831-.5-7.331.925-9.331 4.925l-1.932 4.83c-.045.112-.08.231-.104.35-.495 2.476 1.391 4.82 3.915 4.82h.621a4 4 0 0 0 4-4v-5.5m-9.5 17s2-1.642 3.5-5c.67-1.5 1-2.5 1-2.5m21 13.575s-1.909-1.026-3.101-4.414a1.027 1.027 0 0 1-.039-.5c1.162-7.24-5.99-11.088-6.653-11.45-.943-.515-1.378.485-2.008 2.204-.106.29-.28.555-.558.693-.612.304-1.636.626-2.141.967-1.83 1.237-3.167 3.53-3.5 4-.332.47.112 1.895.5 2.5.986 1.54 2.825 2.105 5.538 2.266.26.016-2.21 2.866-3.209 4.287m2.171-10.12.902-.433M17.55 7.172l-1.236-.036c-.284-.007-.227-.206.036-.165l1.2.165c.127.02.127.04 0 .036Z"/></svg>