<svg xmlns="http://www.w3.org/2000/svg" fill="none" viewBox="0 0 32 32"><path fill="currentColor" d="m28.633 21.82.75.01v-.01h-.75Zm-11.073 0h-.75v.01l.75-.01Zm-6.613-8.647h-.75v1.5h.75v-1.5Zm6.086-5.336h.75v-.011l-.75.011ZM10.946 1.75l.011-.75h-.01l-.001.75ZM5.213 5.79l-.706-.252-.004.01-.003.01.713.232Zm-.164 3.083.738-.134-.002-.01-.002-.01-.734.154Zm1.074 5.905.738-.131v-.003l-.738.134Zm1.139 6.791.745-.09v-.003l-.745.093ZM3 24.05h-.75v1.5H3v-1.5Zm9.598-10.26-.132-.737-1.476.264.132.738.738-.132.738-.132Zm.895 9.252.74-.125-.002-.007-.738.132Zm-.306 4.421.674.33.024-.05.017-.055-.715-.225ZM8.719 29.5h-.75V31h.75v-1.5ZM29 13.916v.75h2.082l-1.604-1.328-.478.578Zm-3.616.129-.651.372c.756 1.325 1.555 2.818 2.162 4.182.624 1.402.988 2.545.988 3.221h1.5c0-1.031-.499-2.44-1.118-3.831-.636-1.43-1.462-2.971-2.23-4.316l-.651.372Zm3.249 7.775-.75-.01a4.787 4.787 0 0 1-1.424 3.343l.526.534.527.534a6.287 6.287 0 0 0 1.87-4.39l-.749-.011Zm-1.648 3.867-.526-.534a4.787 4.787 0 0 1-3.363 1.38v1.5c1.653 0 3.24-.651 4.416-1.812l-.527-.534Zm-3.889 1.596v-.75a4.787 4.787 0 0 1-3.362-1.38l-.526.534-.527.534a6.287 6.287 0 0 0 4.415 1.812v-.75Zm-3.888-1.596.526-.534a4.787 4.787 0 0 1-1.424-3.343l-.75.01-.75.01a6.287 6.287 0 0 0 1.87 4.39l.528-.533ZM17.56 21.82h.75c0-.672.362-1.812.985-3.212.605-1.362 1.401-2.852 2.156-4.176l-.651-.372-.652-.372c-.766 1.344-1.59 2.884-2.224 4.31-.617 1.388-1.114 2.794-1.114 3.822h.75ZM20.8 5.257l-.683.31 2.212 4.886.683-.309.683-.31-2.212-4.886-.683.309Zm5.036.533-.639-.394-2.65 4.296.638.394.638.394 2.65-4.296-.637-.394Zm-14.889 8.133v.75c1.813 0 3.552-.72 4.834-2.002l-.53-.53-.53-.53a5.343 5.343 0 0 1-3.774 1.562v.75Zm4.304-1.783.53.53a6.836 6.836 0 0 0 2.002-4.833h-1.5a5.336 5.336 0 0 1-1.563 3.773l.53.53Zm1.782-4.303.75-.011a6.93 6.93 0 0 0-2.03-4.797l-.53.53-.53.53a5.43 5.43 0 0 1 1.59 3.76l.75-.012Zm-1.81-4.278.53-.53A6.93 6.93 0 0 0 10.958 1l-.011.75-.011.75a5.43 5.43 0 0 1 3.758 1.59l.53-.53ZM10.947 1.75V1c-1.41 0-2.786.436-3.939 1.248l.432.613.432.613a5.337 5.337 0 0 1 3.075-.974v-.75ZM7.439 2.861l-.432-.613a6.837 6.837 0 0 0-2.5 3.29l.706.252.706.252a5.337 5.337 0 0 1 1.952-2.568l-.432-.613ZM5.213 5.79 4.5 5.559a6.74 6.74 0 0 0-.185 3.469l.734-.155.734-.155a5.24 5.24 0 0 1 .143-2.697l-.713-.231Zm-.164 3.083-.738.134 1.074 5.905.738-.134.738-.134-1.074-5.905-.738.134Zm1.074 5.905-.738.131v.004l.002.012.009.046a366.507 366.507 0 0 1 .144.815l.353 2.028c.266 1.544.546 3.22.625 3.848l.744-.093.744-.093c-.083-.671-.372-2.39-.635-3.917a600.617 600.617 0 0 0-.499-2.85l-.008-.046-.002-.012v-.004l-.739.131Zm1.139 6.791-.745.09c.109.898-.828 2.391-3.517 2.391v1.5c3.135 0 5.27-1.883 5.007-4.07l-.745.089Zm4.598-7.646-.738.132 1.633 9.12.738-.133.738-.132-1.633-9.12-.738.133Zm1.633 9.119-.74.125a8.725 8.725 0 0 1-.281 4.07l.715.226.715.225c.486-1.542.6-3.176.33-4.77l-.739.124Zm-.306 4.421-.674-.33a4.223 4.223 0 0 1-1.558 1.727l.397.636.397.637a5.724 5.724 0 0 0 2.112-2.34l-.674-.33Zm-1.835 2.033-.397-.636c-.67.419-1.445.64-2.236.64V31c1.071 0 2.121-.3 3.03-.867l-.397-.637Zm-1.31-15.58v.75H29v-1.5H10.042v.75Zm18.958 0 .478-.578a27.978 27.978 0 0 0-12.142-5.84l-.153.734-.153.734a26.478 26.478 0 0 1 11.492 5.528l.478-.578ZM9.575 7.812h.75c0-.104.041-.203.115-.276l-.53-.53-.531-.531a1.891 1.891 0 0 0-.554 1.337h.75Zm.334-.807.53.53a.391.391 0 0 1 .277-.114v-1.5c-.502 0-.983.2-1.337.554l.53.53Zm.807-.334v.75a.39.39 0 0 1 .277.115l.53-.53.53-.531a1.89 1.89 0 0 0-1.337-.554v.75Zm.807.334-.53.53a.391.391 0 0 1 .114.277h1.5c0-.502-.2-.983-.554-1.337l-.53.53Z"/></svg>