<svg xmlns="http://www.w3.org/2000/svg" fill="none" viewBox="0 0 32 32"><path fill="currentColor" d="M4.5 20.25h-.75v1.5h.75v-1.5ZM10.976 27l-.748.058.054.692h.694V27ZM20 27v.75h.375l.225-.3L20 27Zm6-8 .6.45.192-.256-.052-.317L26 19ZM23.182 2l.74-.123-.104-.627h-.636V2ZM19 1.25h-.75v1.5H19v-1.5ZM7 27.5h-.75a1.75 1.75 0 0 1-1.75 1.75v1.5a3.25 3.25 0 0 0 3.25-3.25H7ZM4.5 30v-.75a1.75 1.75 0 0 1-1.75-1.75h-1.5a3.25 3.25 0 0 0 3.25 3.25V30ZM2 27.5h.75c0-.966.784-1.75 1.75-1.75v-1.5a3.25 3.25 0 0 0-3.25 3.25H2ZM4.5 25v.75c.966 0 1.75.784 1.75 1.75h1.5a3.25 3.25 0 0 0-3.25-3.25V25ZM30 27.5h-.75a1.75 1.75 0 0 1-1.75 1.75v1.5a3.25 3.25 0 0 0 3.25-3.25H30ZM27.5 30v-.75a1.75 1.75 0 0 1-1.75-1.75h-1.5a3.25 3.25 0 0 0 3.25 3.25V30ZM25 27.5h.75c0-.966.784-1.75 1.75-1.75v-1.5a3.25 3.25 0 0 0-3.25 3.25H25Zm2.5-2.5v.75c.966 0 1.75.784 1.75 1.75h1.5a3.25 3.25 0 0 0-3.25-3.25V25ZM9.185 23v.75H23v-1.5H9.185V23ZM4.5 21v.75a5.75 5.75 0 0 1 3.902 1.532l.51-.55.51-.55a7.25 7.25 0 0 0-4.921-1.932L4.5 21Zm4.412 1.732-.51.55a5.75 5.75 0 0 1 1.825 3.776l.748-.058.748-.058a7.25 7.25 0 0 0-2.301-4.76l-.51.55ZM10.975 27v.75H20v-1.5h-9.025V27ZM20 27l.6.45 6-8L26 19l-.6-.45-6 8 .6.45Zm6-8 .74-.123-2.818-17-.74.123-.74.123 2.818 17L26 19ZM23.182 2v-.75H19v1.5h4.182V2Z"/></svg>