<svg xmlns="http://www.w3.org/2000/svg" fill="none" viewBox="0 0 32 32"><path fill="currentColor" d="M2.702 24.752h.75-.75Zm1.774 2.524h.75v-1.5h-.75v1.5Zm9.758-4.03-.502.558.214.192h.288v-.75Zm6.209-18.404h.75v-.75h-.75v.75Zm-3.548-.75h-.75v1.5h.75v-1.5ZM2.702 20.01v-.75h-.75v.75h.75Zm7.929 0 .501-.558-.214-.192h-.287v.75Zm9.812 3.236v.75h.75v-.75h-.75Zm-17.741-5.93h-.75v.75h.75v-.75Zm3.507-3.226h-.75v.75h.75v-.75Zm6.45 0v-.75.75ZM2.702 5.838h-.75.75Zm24.923 4.238h.75v-.75h-.75v.75Zm-6.014-.75h-.75v1.5h.75v-1.5Zm0 7.24h-.75v1.5h.75v-1.5ZM2.702 24.752h-.75c0 .67.266 1.311.74 1.785l.53-.53.53-.531a1.024 1.024 0 0 1-.3-.724h-.75Zm.52 1.254-.53.53a2.52 2.52 0 0 0 1.784.74v-1.5c-.271 0-.532-.108-.724-.3l-.53.53Zm17.22-21.164v-.75h-3.547v1.5h3.548v-.75ZM2.703 20.01h-.75v4.742h1.5V20.01h-.75Zm7.929 0-.501.558 3.602 3.236.502-.558.5-.558-3.602-3.236-.501.558Zm-7.929 0v.75h3.105v-1.5H2.702v.75Zm3.105 0v.75h4.824v-1.5H5.807v.75Zm0 0h.75v-2.103h-1.5v2.103h.75Zm8.427 3.236v.75h6.209v-1.5h-6.21v.75Zm-2.738 3.288h-.75A2.316 2.316 0 0 1 8.43 28.85v1.5a3.816 3.816 0 0 0 3.816-3.817h-.75ZM8.43 29.6v-.75a2.316 2.316 0 0 1-2.317-2.317h-1.5A3.816 3.816 0 0 0 8.43 30.35v-.75Zm-3.067-3.067h.75a2.316 2.316 0 0 1 2.317-2.316v-1.5a3.816 3.816 0 0 0-3.817 3.817h.75Zm3.067-3.066v.75a2.316 2.316 0 0 1 2.316 2.317h1.5a3.816 3.816 0 0 0-3.816-3.817v.75Zm21.278 3.067h-.75a2.316 2.316 0 0 1-2.316 2.316v1.5a3.816 3.816 0 0 0 3.816-3.817h-.75ZM26.642 29.6v-.75a2.316 2.316 0 0 1-2.317-2.317h-1.5a3.816 3.816 0 0 0 3.817 3.817v-.75Zm-3.067-3.067h.75a2.316 2.316 0 0 1 2.317-2.316v-1.5a3.816 3.816 0 0 0-3.817 3.817h.75Zm3.067-3.066v.75a2.316 2.316 0 0 1 2.316 2.317h1.5a3.816 3.816 0 0 0-3.816-3.817v.75ZM12 26.534v.75h11.392v-1.5H12.001v.75Zm1.66-11.444h-.75v1.227h1.5v-1.228h-.75Zm-1 2.227v-.75H2.701v1.5h9.957v-.75ZM6.21 5.842h-.75v8.247h1.5V5.842h-.75Zm0 8.247v.75h6.45v-1.5H6.21v.75Zm-1-9.247v-.75H3.701v1.5h1.507v-.75Zm-2.508.997h-.75v11.478h1.5V5.839h-.75Zm3.507.003h.75a1.75 1.75 0 0 0-1.75-1.75v1.5a.25.25 0 0 1 .25.25h.75Zm7.45 10.475h-.75a.25.25 0 0 1-.25.25v1.5a1.75 1.75 0 0 0 1.75-1.75h-.75ZM3.702 4.842v-.75c-.964 0-1.75.778-1.75 1.747h1.5c0-.136.11-.247.25-.247v-.75Zm9.957 10.247h.75a1.75 1.75 0 0 0-1.75-1.75v1.5a.25.25 0 0 1 .25.25h.75Zm9.972 2.295-.707.248 2.21 6.313.709-.247.707-.248-2.21-6.314-.709.248Zm3.994-7.307v-.75h-6.014v1.5h6.014v-.75Zm-6.014 7.24v.75h2.014v-1.5h-2.014v.75Zm6.014-4h.75v-3.24h-1.5v3.24h.75Zm-4 4v.75a4.75 4.75 0 0 0 4.75-4.75h-1.5a3.25 3.25 0 0 1-3.25 3.25v.75Zm-3.182 5.93h.75V4.841h-1.5v18.404h.75Z"/></svg>