<svg xmlns="http://www.w3.org/2000/svg" fill="none" viewBox="0 0 32 32"><path fill="currentColor" d="M7.25 10v.75h1.5V10h-1.5ZM8 3v-.75h-.75V3H8Zm5 0h.75v-.75H13V3Zm-.75 7v.75h1.5V10h-1.5ZM5 10v-.75h-.75V10H5Zm17 0 .624-.416-.223-.334H22V10ZM4.298 24.263l.263.703 1.405-.527-.264-.702L5 24l-.702.263ZM2 16v-.75H.918l.38 1.013L2 16Zm28 0 .636.398.717-1.148H30V16Zm-5.636 7.602-.398.636 1.272.796.398-.636L25 24l-.636-.398ZM1.75 25v-.75H.25V25h1.5Zm6.75 1.899.659-.358L8.5 25.33l-.659 1.21.659.359Zm7 0 .659-.358-.659-1.211-.659 1.21.659.359Zm7 0 .659-.358-.659-1.211-.659 1.21.659.359ZM30.75 25v-.75h-1.5V25h1.5ZM8 10h.75V3h-1.5v7H8Zm0-7v.75h5v-1.5H8V3Zm5 0h-.75v7h1.5V3H13ZM5 16h.75v-6h-1.5v6H5Zm0-6v.75h17v-1.5H5V10Zm17 0-.624.416 4 6L26 16l.624-.416-4-6L22 10ZM5 24l.702-.263-3-8L2 16l-.702.263 3 8L5 24Zm-3-8v.75h28v-1.5H2V16Zm28 0-.636-.398-5 8L25 24l.636.398 5-8L30 16ZM1 25H.25c0 1.26.5 2.468 1.391 3.359l.53-.53.53-.53A3.25 3.25 0 0 1 1.75 25H1Zm1.172 2.828-.53.53A4.75 4.75 0 0 0 5 29.75v-1.5a3.25 3.25 0 0 1-2.298-.952l-.53.53ZM5 29v.75c1.81 0 3.358-1.021 4.159-2.492l-.659-.359-.659-.358C7.286 27.56 6.226 28.25 5 28.25V29Zm3.5-2.101-.659.358c.8 1.472 2.349 2.493 4.159 2.493v-1.5c-1.226 0-2.286-.689-2.841-1.71l-.659.36ZM12 29v.75c1.81 0 3.358-1.021 4.159-2.492l-.659-.359-.659-.358c-.555 1.02-1.615 1.709-2.841 1.709V29Zm3.5-2.101-.659.358c.8 1.472 2.349 2.493 4.159 2.493v-1.5c-1.226 0-2.286-.689-2.841-1.71l-.659.359ZM19 29v.75c1.81 0 3.358-1.021 4.159-2.492l-.659-.359-.659-.358c-.555 1.02-1.615 1.709-2.841 1.709V29Zm3.5-2.101-.659.358c.8 1.472 2.349 2.493 4.159 2.493v-1.5c-1.226 0-2.286-.689-2.841-1.71l-.659.359ZM26 29v.75c1.26 0 2.468-.5 3.359-1.391l-.53-.53-.53-.53A3.25 3.25 0 0 1 26 28.25V29Zm2.828-1.172.53.53A4.75 4.75 0 0 0 30.75 25h-1.5a3.25 3.25 0 0 1-.952 2.298l.53.53Z"/></svg>