<svg xmlns="http://www.w3.org/2000/svg" fill="none" viewBox="0 0 32 32"><path fill="currentColor" d="M20.431 21.551v.75h.571l.152-.55-.723-.2Zm-16.331 0-.697.278.189.472H4.1v-.75Zm-3-7.523v-.75H-.007l.41 1.028.697-.278Zm13.068 0v.75h.26l.203-.16-.463-.59Zm6.671-5.242v-.75h-.26l-.203.16.463.59Zm9.535 8.772.73-.169-.73.169Zm-.359.452v.75h.001l-.001-.75ZM19.721 5.005l.712-.235-.17-.515h-.542v.75ZM1.713 22.934l-.395-.637a.741.741 0 0 0-.03.02l.425.617ZM.75 24.74l.75.011v-.002l-.75-.009ZM2.977 27v-.75.75Zm8.989 0v.75V27Zm1.574-.652.53.53a.56.56 0 0 0 .017-.017l-.547-.513Zm13.131.646v-.75.75ZM.971 10.778h-.75v1.5h.75v-1.5Zm12.035 1.5h.75v-1.5h-.75v1.5Zm14.002 5.732v-.75c-1.502 0-3.083.234-4.409.85-1.341.624-2.455 1.659-2.891 3.242l.723.199.723.2c.292-1.059 1.03-1.794 2.078-2.28 1.062-.495 2.406-.711 3.776-.711v-.75Zm-6.577 3.541v-.75H4.1v1.5h16.331v-.75Zm-16.331 0 .697-.278-3-7.523-.697.278-.697.278 3 7.523.697-.278Zm-3-7.523v.75h13.068v-1.5H1.1v.75Zm13.068 0 .463.59 6.671-5.242-.463-.59-.463-.59-6.671 5.242.463.59Zm6.671-5.242v.75c3.554 0 5.68 1.805 6.971 3.742 1.31 1.965 1.737 4.036 1.833 4.45l.731-.17.73-.17c-.095-.413-.57-2.728-2.046-4.942-1.495-2.242-4.041-4.41-8.219-4.41v.75Zm9.535 8.772-.73.169a.38.38 0 0 1-.001-.17l.731.165.732.166a1.12 1.12 0 0 0-.001-.499l-.731.169Zm0 .164-.731-.165a.381.381 0 0 1 .073-.153l.587.466.588.467a1.12 1.12 0 0 0 .215-.45l-.732-.165Zm-.07.148-.588-.466a.382.382 0 0 1 .133-.106l.326.675.327.675a1.13 1.13 0 0 0 .389-.311l-.588-.466Zm-.129.103-.326-.675a.381.381 0 0 1 .165-.038l.001.75.001.75c.168 0 .334-.038.486-.112l-.327-.675Zm-.16.037v-.75h-3.007v1.5h3.007v-.75Zm-9.191-9.665.712-.235-1.103-3.34-.712.235-.712.235 1.103 3.34.712-.235Zm-1.103-3.34v-.75H15.21v1.5h4.511v-.75ZM4.49 21.213l-.395-.637-2.777 1.72.395.638.395.637 2.777-1.72-.395-.638Zm-2.777 1.721-.425-.618c-.393.27-.714.63-.938 1.05l.662.354.661.353c.112-.209.271-.387.465-.521l-.425-.618Zm-.701.786-.662-.353c-.224.42-.344.888-.35 1.364l.75.009.75.01c.003-.237.062-.469.173-.677l-.661-.353ZM.75 24.74 0 24.729c-.006.395.067.786.214 1.153l.696-.28.696-.279a1.478 1.478 0 0 1-.106-.572l-.75-.011Zm.16.862-.696.28c.147.366.365.7.642.98l.534-.526.535-.526a1.478 1.478 0 0 1-.319-.487l-.696.28Zm.48.734-.534.527c.277.28.607.504.972.656l.29-.692.289-.692a1.477 1.477 0 0 1-.482-.325l-.535.526Zm.727.491-.29.692a2.97 2.97 0 0 0 1.15.231v-1.5c-.196 0-.39-.039-.57-.114l-.29.691Zm.86.173v.75h8.989v-1.5H2.977V27Zm8.989 0v.75c.79 0 1.546-.314 2.104-.872l-.53-.53-.53-.53a1.478 1.478 0 0 1-1.044.432V27Zm1.574-.652.547.513 4.6-4.906-.547-.513-.547-.513-4.6 4.906.547.513Zm17.71-3.932h-.75a3.83 3.83 0 0 1-1.122 2.707l.53.53.53.53A5.323 5.323 0 0 0 32 22.416h-.75Zm-1.341 3.237-.53-.53a3.829 3.829 0 0 1-2.708 1.121v1.5a5.33 5.33 0 0 0 3.768-1.56l-.53-.53Zm-3.238 1.341v-.75H19.04v1.5h7.631v-.75Zm.517-.364.696-.28-3.246-8.079-.696.28-.696.28 3.246 8.079.696-.28ZM.971 11.528v.75h12.035v-1.5H.971v.75Z"/></svg>