<svg xmlns="http://www.w3.org/2000/svg" fill="none" viewBox="0 0 32 32"><path fill="currentColor" d="m15.581 18-.344.667.344.177.344-.177L15.58 18ZM2 11l-.344-.667L.363 11l1.293.667L2 11Zm13.581-7 .344-.667-.344-.177-.344.177.344.667Zm13.581 7 .344.667L30.799 11l-1.293-.667-.344.667Zm1.583 4v-.75h-1.5V15h1.5Zm-1.5 4v.75h1.5V19h-1.5Zm-13.664-1 .344-.667-13.581-7L2 11l-.344.667 13.581 7 .344-.667ZM2 11l.344.667 13.58-7L15.582 4l-.344-.667-13.58 7L2 11Zm13.581-7-.344.667 13.581 7 .344-.667.344-.667-13.581-7L15.58 4Zm13.581 7-.344-.667-13.58 7 .343.667.344.667 13.58-7-.343-.667ZM5.998 13h-.75v10.313h1.5V13h-.75Zm0 10.313h-.75c0 1.742 1.43 3.105 3.246 3.988 1.868.908 4.396 1.449 7.147 1.449v-1.5c-2.575 0-4.868-.51-6.49-1.298-1.674-.814-2.403-1.794-2.403-2.639h-.75ZM15.641 28v.75c2.751 0 5.279-.54 7.147-1.449 1.816-.883 3.246-2.247 3.246-3.989h-1.5c0 .846-.729 1.826-2.402 2.64-1.623.789-3.916 1.298-6.491 1.298V28Zm9.643-4.688h.75V13h-1.5v10.312h.75ZM29.995 15h-.75v4h1.5v-4h-.75Z"/></svg>