<svg xmlns="http://www.w3.org/2000/svg" fill="none" viewBox="0 0 32 32"><path fill="currentColor" d="m11.703 25.288.35.664.006-.004-.356-.66Zm-2.959.94-.098-.744-.011.002.109.742ZM1.75 29.249l-.747-.064-.15 1.73 1.363-1.078-.466-.588Zm5.4-6.625.298.688.03-.013.028-.015-.356-.66Zm16.562-8.964-.346-.665-.01.005.356.66Zm2.05-3.7-.748.055v.004l.748-.059Zm-5.811-3.194-.355-.66h-.002l.357.66Zm-3.407 1.846-.717-.22-.535 1.752 1.61-.873-.358-.659Zm.923-3.021.717.22.22-.718-.718-.22-.219.718ZM14.4 4.653l-.357-.66-1.574.854 1.712.523.219-.717Zm3.373-1.828.357.66.007-.004.007-.004-.371-.652Zm8.066 14.8-.347-.665-.01.006.357.659ZM10.371 19.71l-.429-.615-.007.004-.006.005.442.606Zm-.2 1.275.624-.416-.009-.013-.009-.012-.606.441Zm1.945 2.915-.624.416.008.013.01.012.606-.441Zm4.259 1.981-.607.44.441.608.607-.441-.441-.607Zm6.584-4.784.44.607.494-.359-.25-.556-.684.308Zm-2.824-6.268-.684.308.684-.308Zm-3.159-1.073.352.662.003-.001-.355-.661Zm-4.271 2.274-.353-.662-.002.001.355.661Zm-.617 2.7.608-.44-.002-.001-.606.441Zm12.118 2.803-.465-.588-1.177.929.464.588.589-.464.589-.465Zm2.957 6.171.465.59 1.177-.93-.464-.588-.589.464-.589.465Zm-10.131-2.198-.457-.595-1.19.915.457.594.595-.457.595-.457Zm1.974 5.03.457.595 1.19-.915-.457-.594-.595.457-.595.457Zm-6.192-5.848-.356-.66-1.111.6.356.66.356.66 1.111-.6-.356-.66Zm-1.111.6-.35-.664a8.085 8.085 0 0 1-2.707.86l.098.744.098.744a9.587 9.587 0 0 0 3.21-1.02l-.349-.664Zm-2.959.94-.109-.742a15.462 15.462 0 0 0-7.35 3.175l.465.588.466.588a13.963 13.963 0 0 1 6.637-2.867l-.109-.742ZM1.75 29.249l.747.064c.168-1.946 1.352-3.436 2.58-4.473a11.354 11.354 0 0 1 2.189-1.442l.142-.067.034-.016.006-.003h.001l-.299-.688-.299-.688-.002.001-.005.002-.014.007-.05.022a11.32 11.32 0 0 0-.792.414 12.84 12.84 0 0 0-1.878 1.312c-1.375 1.161-2.891 2.984-3.107 5.49l.747.065Zm5.4-6.625.356.66 2.963-1.6-.357-.66-.356-.66-2.962 1.6.356.66Zm13.33-7.215.357.66 3.232-1.75-.357-.659-.357-.66-3.232 1.75.357.659Zm3.232-1.749.346.665a4.58 4.58 0 0 0 1.892-1.843l-.656-.363-.656-.364a3.08 3.08 0 0 1-1.272 1.24l.346.665Zm1.582-1.541.656.363c.436-.787.63-1.684.56-2.581l-.748.059-.748.06a3.08 3.08 0 0 1-.376 1.735l.656.364Zm.468-2.159.748-.055a4.702 4.702 0 0 0-.732-2.197l-.631.405-.632.405c.289.45.46.964.499 1.497l.748-.055Zm-.616-1.847.632-.405a4.702 4.702 0 0 0-1.693-1.58l-.36.657-.362.657c.468.257.864.627 1.152 1.076l.631-.405Zm-1.422-1.328.361-.658a4.702 4.702 0 0 0-2.241-.581l-.004.75-.004.75a3.202 3.202 0 0 1 1.527.396l.361-.657Zm-1.884-.49.004-.75a4.702 4.702 0 0 0-2.248.56l.355.661.355.66a3.2 3.2 0 0 1 1.53-.38l.004-.75Zm-1.889.471-.357-.66-3.407 1.847.357.659.357.66 3.407-1.847-.357-.659Zm-3.407 1.846.717.22.923-3.022-.717-.219-.717-.22-.923 3.022.717.219Zm.923-3.021.22-.717-3.068-.938-.219.717-.22.717 3.068.938.219-.717ZM14.4 4.653l.357.66 3.373-1.829-.357-.659-.357-.66-3.373 1.829.357.659Zm3.373-1.828.37.652a7.679 7.679 0 0 1 2.878-.948l-.09-.745-.089-.745a9.18 9.18 0 0 0-3.44 1.134l.371.652Zm3.159-1.041.09.745a7.68 7.68 0 0 1 3.02.238l.205-.721.206-.722a9.18 9.18 0 0 0-3.61-.285l.089.745Zm3.316.262-.206.721a7.68 7.68 0 0 1 2.693 1.389l.469-.586.468-.586a9.18 9.18 0 0 0-3.22-1.66l-.205.722Zm2.956 1.524-.469.586a7.68 7.68 0 0 1 1.947 2.322l.658-.36.66-.358a9.18 9.18 0 0 0-2.327-2.776l-.468.586Zm2.136 2.549-.658.359a7.68 7.68 0 0 1 .896 2.894l.746-.076.746-.076A9.178 9.178 0 0 0 30 5.76l-.659.359Zm.984 3.177-.746.076a7.68 7.68 0 0 1-.293 3.016l.718.218.718.219a9.18 9.18 0 0 0 .35-3.605l-.747.076Zm-.321 3.31-.718-.218a7.68 7.68 0 0 1-1.436 2.668l.577.479.577.479a9.18 9.18 0 0 0 1.718-3.19l-.718-.218Zm-1.577 2.929-.577-.48a7.678 7.678 0 0 1-2.357 1.905l.347.665.347.665a9.179 9.179 0 0 0 2.817-2.276l-.577-.48Zm-2.587 2.09-.357-.66-3.705 2.009.357.659.357.66 3.705-2.009-.357-.659ZM11.88 18.658l-.429-.615-1.509 1.052.429.615.429.615 1.509-1.052-.429-.615Zm-1.509 1.052-.442-.606c-.356.26-.595.65-.663 1.086l.741.116.741.116a.163.163 0 0 1 .065-.106l-.442-.606Zm-.364.596-.74-.116c-.07.435.038.88.298 1.236l.606-.441.606-.441a.164.164 0 0 1-.029-.122l-.74-.116Zm.164.679-.624.416 1.945 2.915.624-.416.624-.416-1.945-2.915-.624.416Zm1.945 2.915-.607.44c.75 1.035 1.908 1.336 2.748 1.517.462.1.8.158 1.098.252.295.092.385.174.413.213l.607-.441.607-.44c-.316-.435-.787-.641-1.178-.764-.386-.12-.856-.205-1.23-.286-.834-.18-1.463-.397-1.851-.932l-.607.441Zm4.259 1.981.44.607 6.585-4.784-.441-.607-.44-.607-6.585 4.784.441.607Zm6.584-4.784.684-.308-2.824-6.268-.684.308-.684.308 2.824 6.268.684-.308Zm-2.824-6.268.684-.308a3.026 3.026 0 0 0-.725-.999l-.505.555-.504.555c.155.141.28.313.366.505l.684-.308Zm-.546-.752.505-.555a3.032 3.032 0 0 0-1.064-.627l-.241.71-.241.71c.199.068.381.176.537.317l.504-.555Zm-.8-.472.241-.71a3.03 3.03 0 0 0-1.225-.15l.062.747.062.747c.21-.017.42.009.619.076l.24-.71Zm-.922-.113-.062-.747a3.031 3.031 0 0 0-1.184.35l.355.661.355.66c.185-.099.389-.16.598-.177l-.062-.747Zm-.891.264-.352-.662-4.271 2.274.352.662.352.662 4.271-2.274-.352-.662Zm-4.271 2.274-.354-.66c-.326.174-.61.416-.835.71l.597.455.596.455c.094-.124.214-.226.35-.299l-.354-.661Zm-.592.505-.597-.455a2.586 2.586 0 0 0-.465.993l.731.167.732.167c.034-.152.1-.294.195-.417l-.596-.455Zm-.33.705-.732-.167c-.082.36-.086.734-.012 1.096l.735-.151.734-.15c-.03-.153-.03-.31.006-.461l-.732-.167Zm-.01.778-.734.15c.074.363.225.705.443 1.003l.606-.441.606-.441a1.087 1.087 0 0 1-.186-.422l-.734.151Zm.315.712-.608.44 1.547 2.14.608-.44.608-.44-1.547-2.14-.608.44Zm11.529 3.268-.589.464 4.135 5.242.589-.464.589-.464-4.135-5.242-.589.464Zm-7.18 3.965-.595.457 3.164 4.116.595-.457.595-.457-3.164-4.116-.595.457Z"/></svg>