<svg xmlns="http://www.w3.org/2000/svg" fill="none" viewBox="0 0 32 34"><path stroke="currentColor" vector-effect="non-scaling-stroke" stroke-width="1.5" d="M1 32.918h30m-22-27v26.9m.48-26.96a8.312 8.312 0 0 0-2.718 1.778A15.346 15.346 0 0 0 4.5 10.838m5.159-5.98a16.674 16.674 0 0 0-4.453 1.778A17.867 17.867 0 0 0 1.5 9.838m7.837-4.631a12.6 12.6 0 0 0-3.251-1.43 13.17 13.17 0 0 0-3.584-.313M8.68 5.858a8.312 8.312 0 0 1 2.718 1.778 15.346 15.346 0 0 1 2.262 3.202M8.5 4.858a16.68 16.68 0 0 1 4.453 1.778 17.867 17.867 0 0 1 3.706 3.2M8.826 5.209a12.6 12.6 0 0 1 3.25-1.43 13.17 13.17 0 0 1 3.584-.313M20 19.948v13m.48-13.038a8.313 8.313 0 0 0-2.718 1.778A15.349 15.349 0 0 0 15.5 24.89m5.159-5.98a16.677 16.677 0 0 0-4.453 1.778A17.867 17.867 0 0 0 12.5 23.89m7.837-4.631a12.604 12.604 0 0 0-3.251-1.43 13.17 13.17 0 0 0-3.584-.313m6.178 2.394a8.313 8.313 0 0 1 2.718 1.778 15.349 15.349 0 0 1 2.262 3.202m-5.16-5.98a16.68 16.68 0 0 1 4.453 1.778 17.868 17.868 0 0 1 3.706 3.2m-7.833-4.627a12.6 12.6 0 0 1 3.25-1.43 13.173 13.173 0 0 1 3.584-.313m2.09-9.57a2.75 2.75 0 1 1-5.5 0 2.75 2.75 0 0 1 5.5 0Z"/></svg>