<svg xmlns="http://www.w3.org/2000/svg" fill="none" viewBox="0 0 32 32"><path fill="currentColor" d="m16 4 .712-.237-.171-.513H16V4ZM4 3.25h-.75v1.5H4v-1.5ZM22.25 16v.75h1.5V16h-1.5ZM26 10.75h.75v-1.5H26v1.5ZM16.5 25l-.711-.237-.33.987H16.5V25ZM7 12h.75V4h-1.5v8H7Zm0-8v.75h9v-1.5H7V4Zm9 0-.711.237 4 12L20 16l.712-.237-4-12L16 4ZM7 4v-.75H4v1.5h3V4Zm16 12h.75v-4h-1.5v4H23Zm0-4h.75c0-.686.564-1.25 1.25-1.25v-1.5A2.756 2.756 0 0 0 22.25 12H23Zm2-2v.75h1v-1.5h-1V10Zm-10 6v.75h10v-1.5H15V16Zm10 0v.75c.686 0 1.25.564 1.25 1.25h1.5A2.756 2.756 0 0 0 25 15.25V16Zm2 2h-.75v2h1.5v-2H27ZM3 12.8l.288.692A9.822 9.822 0 0 1 7 12.75v-1.5c-1.503 0-3 .321-4.288.858L3 12.8Zm4-.8v.75c5.086 0 9.25 4.164 9.25 9.25h1.5c0-5.914-4.836-10.75-10.75-10.75V12Zm10 10h-.75a9.18 9.18 0 0 1-.461 2.763L16.5 25l.712.237c.322-.968.538-2.148.538-3.237H17Zm-.5 3v.75h6.6v-1.5h-6.6V25ZM13 22h-.75c0 2.9-2.35 5.25-5.25 5.25v1.5A6.75 6.75 0 0 0 13.75 22H13Zm-6 6v-.75A5.25 5.25 0 0 1 1.75 22H.25A6.75 6.75 0 0 0 7 28.75V28Zm-6-6h.75c0-2.9 2.35-5.25 5.25-5.25v-1.5A6.75 6.75 0 0 0 .25 22H1Zm6-6v.75c2.9 0 5.25 2.35 5.25 5.25h1.5A6.75 6.75 0 0 0 7 15.25V16Zm24 8h-.75A3.25 3.25 0 0 1 27 27.25v1.5A4.75 4.75 0 0 0 31.75 24H31Zm-4 4v-.75A3.25 3.25 0 0 1 23.75 24h-1.5A4.75 4.75 0 0 0 27 28.75V28Zm-4-4h.75A3.25 3.25 0 0 1 27 20.75v-1.5A4.75 4.75 0 0 0 22.25 24H23Zm4-4v.75A3.25 3.25 0 0 1 30.25 24h1.5A4.75 4.75 0 0 0 27 19.25V20Z"/></svg>