<svg xmlns="http://www.w3.org/2000/svg" fill="none" viewBox="0 0 32 32"><path fill="currentColor" d="m19.411 10.649-.738.134.738-.134Zm-2.135-1.782v-.75.75Zm-10.848 0v-.75.75Zm-2.135 1.782.738.134-.738-.134Zm3.246 13.412v-.75h-1.5v.75h1.5Zm-.75 3.618v.75h.75v-.75h-.75Zm-4.341 0h-.75v.75h.75v-.75Zm.75-3.618v-.75h-1.5v.75h1.5Zm18.81 0v-.75h-1.5v.75h1.5Zm-.75 3.618v.75h.75v-.75h-.75Zm-4.342 0h-.75v.75h.75v-.75Zm.75-3.618v-.75h-1.5v.75h1.5Zm5.039-.003v.75h.75v-.75h-.75Zm-21.7 0h-.75v.75h.75v-.75Zm0-4.165h.75-.75Zm.636-1.534.53.53-.53-.53Zm1.534-1.536v-.75h-.31l-.22.22.53.53Zm17.364 0 .53-.53-.219-.22h-.311v.75Zm1.532 1.534-.53.53.53-.53Zm.636 1.536h.75-.75ZM5.5 21h.75v-.001L5.5 21Zm-.5-.5.002-.75H5v.75Zm.25.067.378-.648-.006-.003-.372.65ZM19.5 21h-.75.75Zm-.5-.5v.75-.75Zm8.609-13.717.738-.134-.738.134ZM25.473 5v-.75V5Zm-8.829 0v-.75V5Zm13.56 15.195v-.75h-1.5v.75h1.5Zm-.75 3.618v.75h.75v-.75h-.75Zm-4.34 0h-.75v.75h.75v-.75Zm.75-3.618v-.75h-1.5v.75h1.5Zm-2.675-7.985h-.75v1.5h.75v-1.5Zm6.17.75.612-.434-.225-.316h-.387v.75Zm1.089 1.534.623-.417-.005-.009-.006-.008-.612.434Zm.451 1.536-.75-.014v.014h.75Zm0 4.165v.75h.75v-.75h-.75Zm-5.727-.75h-.75v1.5h.75v-1.5ZM27.5 17h.75-.75Zm-.25-.433.375-.65-.375.65Zm-6.716.259.738-.134-1.123-6.177-.738.134-.738.134 1.123 6.177.738-.134Zm-1.123-6.177.738-.134a2.92 2.92 0 0 0-1.002-1.72l-.48.576-.481.576c.255.213.428.509.487.836l.738-.134Zm-.745-1.278.481-.576a2.92 2.92 0 0 0-1.871-.678v1.5c.333 0 .655.117.91.33l.48-.576Zm-1.39-.504v-.75H6.428v1.5h10.848v-.75Zm-10.848 0v-.75a2.92 2.92 0 0 0-1.871.678l.48.576.481.576a1.42 1.42 0 0 1 .91-.33v-.75Zm-1.39.504-.481-.576a2.92 2.92 0 0 0-1.002 1.72l.738.134.738.134a1.42 1.42 0 0 1 .487-.836l-.48-.576Zm-.745 1.278-.738-.134-1.123 6.177.738.134.738.134 1.123-6.177-.738-.134Zm2.496 13.412h-.75v3.618h1.5v-3.618h-.75Zm0 3.618v-.75H2.448v1.5h4.341v-.75Zm-4.341 0h.75v-3.618h-1.5v3.618h.75Zm18.81-3.618h-.75v3.618h1.5v-3.618h-.75Zm0 3.618v-.75h-4.342v1.5h4.342v-.75Zm-4.342 0h.75v-3.618h-1.5v3.618h.75Zm5.789-3.621v-.75h-21.7v1.5h21.7v-.75Zm-21.7 0h.75v-4.165h-1.5v4.165h.75Zm0-4.165h.75c0-.187.037-.371.108-.543l-.693-.287-.693-.288a2.916 2.916 0 0 0-.222 1.118h.75Zm.165-.83.693.287c.071-.172.176-.329.308-.46l-.53-.531-.53-.53a2.916 2.916 0 0 0-.634.946l.693.288Zm.471-.704.53.53 1.535-1.536-.531-.53-.53-.53-1.535 1.536.531.53Zm1.534-1.536v.75h17.364v-1.5H3.175v.75Zm17.364 0-.53.53 1.531 1.534.531-.53.53-.53-1.531-1.534-.531.53Zm1.532 1.534-.53.53c.132.132.236.29.308.462l.693-.287.693-.287a2.921 2.921 0 0 0-.634-.948l-.53.53Zm.47.705-.692.287c.071.172.108.357.108.544h1.5c0-.384-.075-.764-.222-1.118l-.693.287Zm.166.831h-.75l-.002 4.165h1.5l.002-4.165h-.75ZM5.5 21h-.75a.25.25 0 0 1 .042-.139l.624.417.623.417A1.25 1.25 0 0 0 6.25 21H5.5Zm-.084.278-.624-.417a.25.25 0 0 1 .112-.092l.287.693.287.693a1.25 1.25 0 0 0 .561-.46l-.623-.417Zm-.225.184-.287-.693a.25.25 0 0 1 .145-.014l-.147.735-.146.736c.243.048.494.024.722-.071l-.287-.693Zm-.289.028.147-.735a.25.25 0 0 1 .128.068l-.53.53-.53.53c.174.176.397.295.64.343l.145-.736Zm-.256-.136.53-.53a.25.25 0 0 1 .07.127l-.736.146-.736.147c.048.242.167.465.342.64l.53-.53Zm-.136-.256.735-.147a.25.25 0 0 1-.014.145l-.693-.287-.693-.287a1.25 1.25 0 0 0-.071.722l.736-.146Zm.028-.29.693.288a.25.25 0 0 1-.092.112l-.417-.624-.416-.623a1.25 1.25 0 0 0-.46.56l.692.288Zm.184-.224.417.624A.25.25 0 0 1 5 21.25v-1.5a1.25 1.25 0 0 0-.694.21l.416.624ZM5 20.5l-.002.75a.242.242 0 0 1-.12-.032l.372-.651.372-.651a1.259 1.259 0 0 0-.62-.166L5 20.5Zm.25.067-.377.648a.248.248 0 0 1-.09-.09l.65-.375.65-.374a1.252 1.252 0 0 0-.455-.457l-.378.648Zm.183.183-.65.375A.248.248 0 0 1 4.75 21h.75l.75-.001c0-.219-.058-.434-.167-.623l-.65.374ZM19.5 21h-.75a.25.25 0 0 1 .042-.14l.623.418.624.417a1.25 1.25 0 0 0 .211-.694h-.75Zm-.084.278-.624-.417a.25.25 0 0 1 .112-.092l.287.693.287.693a1.25 1.25 0 0 0 .56-.46l-.622-.417Zm-.225.184-.287-.693a.25.25 0 0 1 .145-.014l-.147.735-.147.736c.243.048.494.024.723-.07l-.287-.694Zm-.289.028.147-.735a.25.25 0 0 1 .128.068l-.53.53-.531.53c.174.175.397.294.64.343l.146-.736Zm-.256-.137.53-.53a.25.25 0 0 1 .07.128l-.736.146-.736.146c.048.243.167.466.342.64l.53-.53Zm-.136-.256.735-.146a.25.25 0 0 1-.014.145l-.693-.288-.693-.287a1.25 1.25 0 0 0-.071.722l.736-.146Zm.028-.289.693.288a.25.25 0 0 1-.092.112l-.417-.624-.416-.623a1.249 1.249 0 0 0-.46.56l.692.287Zm.184-.224.417.624a.25.25 0 0 1-.139.042v-1.5a1.25 1.25 0 0 0-.694.21l.416.624ZM19 20.5v.75a.25.25 0 0 1-.096-.02l.288-.692.287-.693A1.25 1.25 0 0 0 19 19.75v.75Zm.192.038-.288.693a.249.249 0 0 1-.08-.054l.53-.53.53-.53a1.25 1.25 0 0 0-.405-.272l-.287.693Zm.162.109-.53.53a.248.248 0 0 1-.055-.081l.693-.287.693-.287a1.25 1.25 0 0 0-.27-.405l-.531.53Zm.108.162-.693.287A.25.25 0 0 1 18.75 21h.75l.75.001a1.25 1.25 0 0 0-.095-.479l-.693.287Zm9.27-7.849.738-.134-1.123-6.177-.738.134-.738.134 1.123 6.177.738-.134Zm-1.123-6.177.738-.135a2.924 2.924 0 0 0-1.003-1.719l-.48.576-.481.576c.256.213.428.51.488.837l.738-.135Zm-.745-1.278.48-.576a2.924 2.924 0 0 0-1.87-.679l-.001.75v.75c.332 0 .654.117.91.33l.48-.575ZM25.473 5v-.75h-8.829v1.5h8.829V5Zm-8.829 0v-.75c-.685 0-1.346.241-1.871.68l.48.575.481.576c.256-.214.578-.33.91-.331V5Zm-1.39.505-.481-.576a2.924 2.924 0 0 0-1.003 1.72l.738.134.738.135a1.42 1.42 0 0 1 .488-.837l-.48-.576Zm14.2 14.69h-.75v3.618h1.5v-3.618h-.75Zm0 3.618v-.75h-4.34v1.5h4.34v-.75Zm-4.34 0h.75v-3.618h-1.5v3.618h.75ZM23.189 12.96v.75h6.17v-1.5h-6.17v.75Zm6.17 0-.612.434 1.09 1.534.611-.434.612-.434-1.09-1.534-.611.434Zm1.089 1.534-.623.417c.218.327.331.712.324 1.105l.75.014.75.014a3.425 3.425 0 0 0-.578-1.967l-.623.417Zm.451 1.536h-.75v4.165h1.5V16.03h-.75Zm0 4.165v-.75h-5.727v1.5h5.727v-.75ZM27.5 17h-.75a.25.25 0 0 1 .052-.152l.595.456.595.457A1.25 1.25 0 0 0 28.25 17h-.75Zm-.103.304-.595-.456a.25.25 0 0 1 .133-.09l.195.725.194.724c.266-.071.5-.228.668-.446l-.595-.457Zm-.267.179-.195-.724a.25.25 0 0 1 .16.01l-.286.693-.287.693c.254.105.536.124.802.052l-.195-.724Zm-.321-.021.287-.693a.25.25 0 0 1 .12.106l-.649.375-.65.375c.138.239.35.425.605.53l.287-.693Zm-.242-.212.65-.375a.25.25 0 0 1 .03.157l-.743-.097-.743-.098c-.036.273.019.55.157.788l.65-.375Zm-.063-.315.744.098a.25.25 0 0 1-.071.144l-.53-.53-.531-.53a1.25 1.25 0 0 0-.355.72l.743.098Zm.142-.288.53.53a.25.25 0 0 1-.143.07l-.099-.743-.098-.743a1.25 1.25 0 0 0-.72.355l.53.53Zm.288-.143.099.744a.25.25 0 0 1-.158-.031l.375-.65.374-.65a1.25 1.25 0 0 0-.788-.156l.099.743Zm.316.063-.375.65a.25.25 0 0 1-.091-.092l.649-.375.65-.375a1.25 1.25 0 0 0-.458-.458l-.375.65Zm.183.183-.65.375A.25.25 0 0 1 26.75 17h1.5c0-.22-.058-.435-.168-.625l-.65.375Z"/></svg>