<svg xmlns="http://www.w3.org/2000/svg" fill="none" viewBox="0 0 32 32"><path fill="currentColor" d="M31.273 23.304h.75v-1.5h-.75v1.5Zm-13.94-1.5h-.75v1.5h.75v-1.5Zm-15.078.75-.747.063.058.687h.689v-.75ZM.773 5v-.75h-.816l.069.813L.773 5Zm24.716 0h.75v-.75h-.75V5Zm-8.316 18.5h-.75a2.75 2.75 0 0 1-2.75 2.75v1.5a4.25 4.25 0 0 0 4.25-4.25h-.75Zm-3.5 3.5v-.75a2.75 2.75 0 0 1-2.75-2.75h-1.5a4.25 4.25 0 0 0 4.25 4.25V27Zm-3.5-3.5h.75a2.75 2.75 0 0 1 2.75-2.75v-1.5a4.25 4.25 0 0 0-4.25 4.25h.75Zm3.5-3.5v.75a2.75 2.75 0 0 1 2.75 2.75h1.5a4.25 4.25 0 0 0-4.25-4.25V20Zm17.6 2.554v-.75h-13.94v1.5h13.94v-.75Zm-20.973 0v-.75H2.255v1.5H10.3v-.75Zm-8.045 0 .747-.063L1.52 4.937.773 5l-.747.063 1.482 17.554.747-.063ZM.773 5v.75h24.716v-1.5H.773V5Zm24.716 0h-.75v17.554h1.5V5h-.75Zm3.637 17.061h.75v-2.186h-1.5v2.186h.75Z"/></svg>