<svg xmlns="http://www.w3.org/2000/svg" fill="none" viewBox="0 0 32 32"><path fill="currentColor" d="m27.091 8.676.69-.292-.193-.458h-.497v.75Zm2.773 6.549-.69.292.193.458h.497v-.75Zm1.386 0H32v-.75h-.75v.75Zm0 7.932v.75H32v-.75h-.75Zm-3.062 1.326h.75-.75Zm-1.5-2.6.375-.65-.375.65ZM6.612 23.907h.75v-1.5h-.75v1.5Zm-5.862-.75H0v.75h.75v-.75Zm0-18.64v-.75H0v.75h.75Zm18.023 0h.75v-.75h-.75v.75Zm-.75 18.64v.75h1.5v-.75h-1.5Zm5.602-7.932h-.75v.75h.75v-.75Zm-.788 7.932v-.75H12.751v1.5h10.086v-.75ZM18.773 8.676v.75h8.318v-1.5h-8.318v.75Zm8.318 0-.69.292 2.772 6.55.691-.293.69-.292-2.772-6.55-.691.293Zm2.773 6.549v.75h1.386v-1.5h-1.386v.75Zm1.386 0h-.75v7.932H32v-7.932h-.75Zm0 7.932v-.75h-3.706v1.5h3.706v-.75Zm-3.062 1.326h-.75c0 .495-.164.976-.466 1.369l.595.457.595.457a3.75 3.75 0 0 0 .776-2.282l-.75-.001Zm-.621 1.826-.595-.457a2.25 2.25 0 0 1-1.203.803l.194.724.194.725a3.75 3.75 0 0 0 2.005-1.338l-.595-.457Zm-1.604 1.07-.194-.724a2.25 2.25 0 0 1-1.443-.096l-.287.693-.288.693a3.75 3.75 0 0 0 2.406.159l-.194-.725Zm-1.924-.127.287-.692a2.25 2.25 0 0 1-1.087-.955l-.65.375-.65.375a3.75 3.75 0 0 0 1.813 1.59l.287-.693Zm-1.45-1.272.65-.375a2.25 2.25 0 0 1-.282-1.418l-.743-.098-.744-.098a3.75 3.75 0 0 0 .47 2.364l.65-.375Zm-.375-1.891.743.098a2.25 2.25 0 0 1 .64-1.297l-.53-.53-.53-.531a3.75 3.75 0 0 0-1.067 2.162l.744.098Zm.853-1.73.53.53a2.25 2.25 0 0 1 1.297-.639l-.097-.743-.098-.744a3.75 3.75 0 0 0-2.162 1.066l.53.53Zm1.73-.852.098.743a2.25 2.25 0 0 1 1.418.282l.375-.649.375-.65a3.75 3.75 0 0 0-2.364-.47l.098.744Zm1.891.376-.375.65c.342.197.626.481.824.824l.65-.375.65-.375a3.75 3.75 0 0 0-1.374-1.373l-.375.649Zm1.099 1.099-.65.375c.197.342.301.73.301 1.126h1.5a3.75 3.75 0 0 0-.502-1.876l-.65.375Zm-21.175.175v-.75H.75v1.5h5.862v-.75Zm-5.862 0h.75V4.517H0v18.64h.75Zm0-18.64v.75h18.023v-1.5H.75v.75Zm18.023 0h-.75v18.64h1.5V4.517h-.75Zm4.852 4.162h-.75v6.546h1.5V8.679h-.75Zm0 6.546v.75h6.309v-1.5h-6.309v.75Zm-10.864 9.258h-.75a2.25 2.25 0 0 1-2.25 2.25v1.5a3.75 3.75 0 0 0 3.75-3.75h-.75Zm-3 3v-.75a2.25 2.25 0 0 1-2.25-2.25h-1.5a3.75 3.75 0 0 0 3.75 3.75v-.75Zm-3-3h.75a2.25 2.25 0 0 1 2.25-2.25v-1.5a3.75 3.75 0 0 0-3.75 3.75h.75Zm3-3v.75a2.25 2.25 0 0 1 2.25 2.25h1.5a3.75 3.75 0 0 0-3.75-3.75v.75Z"/></svg>