<svg xmlns="http://www.w3.org/2000/svg" fill="none" viewBox="0 0 32 32"><path fill="currentColor" d="M24.078 20.26h-.75v1.5h.75v-1.5Zm2.689.75v.75h.75v-.75h-.75Zm0-6.072h.75v-.75h-.75v.75Zm-5.315 0-.651.372.216.378h.435v-.75Zm-3.036-5.315.651-.372-.216-.378h-.435v.75Zm-9.109 0v-.75h-.494l-.195.454.689.296Zm-2.279 5.315v.75h.494l.195-.454-.689-.296Zm-3.037 0v-.75h-.75v.75h.75Zm0 6.073h-.75v.75h.75v-.75Zm1.864.75h.75v-1.5h-.75v1.5Zm21.616 3.454-.598-.452-.003.003.601.449ZM24.92 4.164l.473-.582-.004-.003-.469.585ZM15.939.998l.001-.75h-.01l.009.75ZM1.744 5.881l-.097-.744-1.488.194.097.744L1 5.978l.744-.097ZM1.6 10.59l-.744.097.097.744.744-.097-.097-.744Zm4.708.144.744-.097-.194-1.488-.744.097.097.744.097.744Zm.812 4.217v.75h14.59v-1.5H7.12v.75Zm16.958 6.06v.75h2.689v-1.5h-2.689v.75Zm2.689 0h.75v-6.072h-1.5v6.072h.75Zm0-6.072v-.75h-5.315v1.5h5.315v-.75Zm-5.315 0 .651-.372-3.036-5.315-.651.372-.651.372L20.8 15.31l.651-.372Zm-3.036-5.315v-.75H9.307v1.5h9.109v-.75Zm-9.109 0-.69-.296-2.278 5.315.689.296.69.296L9.996 9.92l-.689-.296Zm-2.279 5.315v-.75H3.991v1.5h3.037v-.75Zm-3.037 0h-.75v6.073h1.5v-6.073h-.75Zm0 6.073v.75h1.864v-1.5H3.991v.75Zm6.255.192v.75h9.38v-1.5h-9.38v.75Zm0 0h-.75c0 .737-.597 1.334-1.334 1.334v1.5a2.834 2.834 0 0 0 2.834-2.834h-.75Zm-2.084 2.084v-.75a1.334 1.334 0 0 1-1.334-1.334h-1.5a2.834 2.834 0 0 0 2.834 2.834v-.75Zm-2.084-2.084h.75c0-.737.597-1.334 1.334-1.334v-1.5a2.834 2.834 0 0 0-2.834 2.834h.75Zm2.084-2.084v.75c.737 0 1.334.597 1.334 1.334h1.5a2.834 2.834 0 0 0-2.834-2.834v.75Zm15.632 2.084h-.75c0 .737-.597 1.334-1.334 1.334v1.5a2.834 2.834 0 0 0 2.834-2.834h-.75Zm-2.084 2.084v-.75a1.334 1.334 0 0 1-1.334-1.334h-1.5a2.834 2.834 0 0 0 2.834 2.834v-.75Zm-2.084-2.084h.75c0-.737.597-1.334 1.334-1.334v-1.5a2.834 2.834 0 0 0-2.834 2.834h.75Zm2.084-2.084v.75c.737 0 1.334.597 1.334 1.334h1.5a2.834 2.834 0 0 0-2.834-2.834v.75Zm-7.295-9.38h-.75v5.211h1.5V9.739h-.75ZM6.949 27.832l-.47.585a15.128 15.128 0 0 0 5.365 2.761l.203-.722.204-.721a13.63 13.63 0 0 1-4.833-2.488l-.469.585Zm5.098 2.624-.203.722a15.13 15.13 0 0 0 6.016.446l-.095-.744-.094-.744a13.628 13.628 0 0 1-5.42-.401l-.204.721Zm5.718.424.095.744a15.129 15.129 0 0 0 5.713-1.941l-.378-.648-.378-.648a13.628 13.628 0 0 1-5.146 1.749l.095.744Zm5.43-1.845.378.648a15.128 15.128 0 0 0 4.5-4.02l-.602-.448-.601-.448a13.628 13.628 0 0 1-4.053 3.62l.378.648Zm4.276-3.82.598.452a16.01 16.01 0 0 0 3.125-11.583l-.745.09-.744.09a14.51 14.51 0 0 1-2.832 10.499l.598.452Zm2.978-11.041.745-.09a16.01 16.01 0 0 0-5.801-10.502l-.473.582-.473.582a14.51 14.51 0 0 1 5.258 9.518l.744-.09ZM24.92 4.164l.47-.585A15.134 15.134 0 0 0 15.94.248l-.001.75-.001.75a13.634 13.634 0 0 1 8.513 3l.469-.584ZM15.939.998l-.01-.75a15.55 15.55 0 0 0-8.405 2.593l.415.625.415.625a14.05 14.05 0 0 1 7.594-2.343l-.009-.75Zm-8 2.468-.415-.625a15.55 15.55 0 0 0-5.653 6.738l.687.3.687.3A14.05 14.05 0 0 1 8.354 4.09l-.415-.625ZM1 5.978l-.744.097.6 4.61.744-.096.744-.097-.6-4.61L1 5.977Zm.6 4.611.097.744 4.61-.6-.096-.744-.097-.744-4.61.6.096.744Z"/></svg>