<svg xmlns="http://www.w3.org/2000/svg" fill="none" viewBox="0 0 32 32"><path stroke="currentColor" stroke-linecap="square" vector-effect="non-scaling-stroke" stroke-width="1.5" d="M13.179 7.031h12.275v6.673h-2.345m-3.494 4.643-1.089-5.989a2.105 2.105 0 0 0-2.071-1.728H5.938a2.106 2.106 0 0 0-2.071 1.728l-1.088 5.989m16.836 0H2.779m16.836 0 1.485 1.488a2.098 2.098 0 0 1 .616 1.489l.003 4.038H.674v-4.038a2.1 2.1 0 0 1 .617-1.488l1.488-1.489m3.507 7.015v3.508H2.077v-3.508m18.239 0v3.508h-4.209v-3.508m13.392.235v3.273h-3.927v-3.508h5.515l.087-6.357-1.906-2.859V3.37H9.366v3.66M26.5 20.7a.5.5 0 1 1-1 0 .5.5 0 0 1 1 0ZM4.532 22.3a.5.5 0 1 1-1 0 .5.5 0 0 1 1 0Zm14.18 0a.5.5 0 1 1-1 0 .5.5 0 0 1 1 0Z"/></svg>