<svg xmlns="http://www.w3.org/2000/svg" fill="none" viewBox="0 0 32 31"><path fill="currentColor" d="m23 .969.743-.103-.09-.647H23v.75Zm-14 0v-.75h-.653l-.09.647L9 .969ZM23 30.03v.75h.653l.09-.647L23 30.03Zm-14 0-.743.103.09.647H9v-.75Zm7.75-19.375v-.75h-1.5v.75h1.5ZM16 15.5h-.75v.75H16v-.75Zm5 .75h.75v-1.5H21v1.5Zm3-8.064.743-.103-1-7.217L23 .969l-.743.103 1 7.217.743-.103ZM23 .969v-.75H9v1.5h14v-.75Zm-14 0L8.257.866l-1 7.217.743.103.743.103 1-7.217L9 .969Zm15 21.845-.743-.103-1 7.217.743.103.743.103 1-7.217-.743-.103Zm-1 7.217v-.75H9v1.5h14v-.75Zm-14 0 .743-.103-1-7.217-.743.103-.743.103 1 7.217.743-.103ZM27 15.5h-.75c0 5.449-4.567 9.906-10.25 9.906v1.5c6.467 0 11.75-5.084 11.75-11.406H27ZM16 26.156v-.75c-5.684 0-10.25-4.457-10.25-9.906h-1.5c0 6.322 5.283 11.406 11.75 11.406v-.75ZM5 15.5h.75c0-5.449 4.566-9.906 10.25-9.906v-1.5C9.533 4.094 4.25 9.178 4.25 15.5H5ZM16 4.844v.75c5.683 0 10.25 4.457 10.25 9.906h1.5c0-6.322-5.283-11.406-11.75-11.406v.75Zm0 5.812h-.75V15.5h1.5v-4.844H16Zm0 4.844v.75h5v-1.5h-5v.75Z"/></svg>