<svg xmlns="http://www.w3.org/2000/svg" fill="none" viewBox="0 0 32 32"><path fill="currentColor" d="m16 2.091.475-.58L16 1.122l-.475.389.475.58ZM5.477 15.667v-.75h-1.5v.75h1.5Zm-.75 14.606h-.75v.75h.75v-.75Zm22.546 0v.75h.75v-.75h-.75Zm.75-14.606v-.75h-1.5v.75h1.5ZM8.89 24.807h-.75v1.5h.75v-1.5Zm3.555-.982.59-.462-.59-.755-.59.755.59.462Zm7.11 0 .59-.462-.59-.755-.59.755.59.462Zm3.555 2.482h.75v-1.5h-.75v1.5ZM8.89 17.358h-.75v1.5h.75v-1.5Zm3.555-.982.59-.462-.59-.755-.59.755.59.462Zm7.11 0 .59-.462-.59-.755-.59.755.59.462Zm3.555 2.482h.75v-1.5h-.75v1.5ZM.5 14.773l.475.58 15.5-12.682-.475-.58-.475-.58-15.5 12.681.475.581ZM16 2.091l-.475.58 15.5 12.683.475-.581.475-.58-15.5-12.682-.475.58ZM4.727 15.667h-.75v14.606h1.5V15.667h-.75Zm0 14.606v.75h22.546v-1.5H4.727v.75Zm22.546 0h.75V15.667h-1.5v14.606h.75ZM8.89 25.557v.75c.799 0 1.587-.182 2.306-.532l-.329-.674-.328-.674c-.514.25-1.078.38-1.65.38l.001.75Zm1.977-.456.329.674a5.266 5.266 0 0 0 1.84-1.488l-.591-.462-.59-.462c-.353.45-.803.813-1.316 1.064l.328.674Zm1.578-1.276-.59.462a5.264 5.264 0 0 0 1.84 1.488l.328-.674.328-.674a3.762 3.762 0 0 1-1.315-1.064l-.591.462Zm1.578 1.276-.329.674c.718.35 1.507.532 2.306.532v-1.5a3.77 3.77 0 0 1-1.649-.38l-.328.674Zm1.977.456v.75c.799 0 1.587-.182 2.306-.532l-.329-.674-.328-.674a3.77 3.77 0 0 1-1.649.38v.75Zm1.977-.456.329.674a5.264 5.264 0 0 0 1.84-1.488l-.591-.462-.59-.462c-.353.45-.803.814-1.316 1.064l.328.674Zm1.578-1.276-.59.462a5.266 5.266 0 0 0 1.84 1.488l.328-.674.328-.674a3.767 3.767 0 0 1-1.316-1.064l-.59.462Zm1.578 1.276-.329.674c.719.35 1.507.532 2.306.532v-1.5a3.77 3.77 0 0 1-1.649-.38l-.328.674ZM8.89 18.108v.75c.799 0 1.587-.182 2.306-.532l-.329-.674-.328-.674c-.514.25-1.078.38-1.65.38l.001.75Zm1.977-.456.329.674a5.266 5.266 0 0 0 1.84-1.488l-.591-.462-.59-.462c-.353.45-.803.813-1.316 1.064l.328.674Zm1.578-1.276-.59.462a5.266 5.266 0 0 0 1.84 1.488l.328-.674.328-.675a3.764 3.764 0 0 1-1.316-1.063l-.59.462Zm1.578 1.276-.329.674c.719.35 1.507.532 2.306.532v-1.5a3.77 3.77 0 0 1-1.649-.38l-.328.674Zm1.977.456v.75c.799 0 1.587-.182 2.306-.532l-.329-.674-.328-.675a3.77 3.77 0 0 1-1.649.38v.75Zm1.977-.456.329.674a5.266 5.266 0 0 0 1.84-1.488l-.591-.462-.59-.462c-.353.45-.803.813-1.316 1.063l.328.675Zm1.578-1.276-.59.462a5.265 5.265 0 0 0 1.84 1.488l.328-.674.328-.674a3.767 3.767 0 0 1-1.316-1.064l-.59.462Zm1.578 1.276-.329.674c.719.35 1.507.532 2.306.532v-1.5a3.77 3.77 0 0 1-1.649-.38l-.328.674Z"/></svg>