<svg xmlns="http://www.w3.org/2000/svg" fill="none" viewBox="0 0 24 24"><path stroke="currentColor" stroke-miterlimit="11.474" vector-effect="non-scaling-stroke" stroke-width="1.5" d="M18.188 9.75v4.5m-2.213-2.287h4.5M9.075 9H6.45l-.282 2.503s.815-.1 1.414-.061c.92.06 1.493.744 1.493 1.683 0 1.125-1.04 1.535-1.79 1.535-1.016 0-1.859-.886-1.859-.886M.75.75h22.5v22.5H.75V.75ZM14.4 11.775c0-.731-.157-1.394-.469-1.89-.342-.543-.865-.885-1.406-.885-.541 0-1.045.34-1.388.883-.312.496-.487 1.16-.487 1.892 0 .731.13 1.396.442 1.892.343.543.892.883 1.433.883s1.12-.34 1.463-.883c.312-.495.412-1.16.412-1.892Z"/></svg>