<svg xmlns="http://www.w3.org/2000/svg" fill="none" viewBox="0 0 24 24"><path fill="currentColor" d="M22.8 9.764h.75-.75ZM21.758 8.73v.75h.004l-.004-.75ZM.562 16.866h-.75v.75h.75v-.75Zm0-.216h.75v-.025l-.75.025Zm2.146-3.955-.375-.65-.006.004-.006.004.387.642Zm16.164-.67v.75-.75Zm4.566 4.625-.75-.01v.01h.75Zm0 .209v.75h.75v-.75h-.75Zm-2.279.73h-.75.75Zm-1.144-1.98-.375.649.375-.65ZM7.35 17.55H6.6h.75Zm-1.144-1.982-.375.65.375-.65ZM22.8 14.284h.75v-4.52h-1.5v4.52h.75Zm0-4.52h.75c0-.236-.047-.468-.137-.686l-.693.289-.692.288a.288.288 0 0 1 .022.11h.75Zm-.08-.397.693-.289a1.786 1.786 0 0 0-.39-.58l-.529.532-.529.532a.287.287 0 0 1 .063.093l.692-.288Zm-.226-.337.53-.532a1.787 1.787 0 0 0-.583-.386l-.285.694-.284.694a.286.286 0 0 1 .093.062l.53-.532Zm-.338-.224.285-.694a1.787 1.787 0 0 0-.687-.133l.004.75.004.75c.038 0 .075.007.11.02l.284-.693Zm-.398-.077v-.75H7.508v1.5h14.25v-.75Zm-14.25 0v-.75c-1.875 0-3.65.441-4.976 1.42C1.177 10.4.35 11.92.35 13.905h1.5c0-1.518.608-2.586 1.572-3.297.993-.733 2.422-1.128 4.086-1.128v-.75ZM1.1 13.904H.35v.516h1.5v-.517H1.1Zm1.803 2.962v-.75H.563v1.5h2.34v-.75Zm-2.34 0h.75v-.216h-1.5v.216h.75Zm0-.216.749-.025a3.693 3.693 0 0 1 .445-1.886l-.66-.358-.658-.358a5.194 5.194 0 0 0-.626 2.652l.75-.025Zm.535-2.269.659.358a3.694 3.694 0 0 1 1.339-1.402l-.388-.642-.387-.642a5.194 5.194 0 0 0-1.882 1.97l.659.358Zm1.61-1.686.375.65a3.817 3.817 0 0 1 1.908-.511v-1.5c-.933 0-1.85.245-2.658.712l.375.65Zm2.283-.611v.75c.67 0 1.328.176 1.908.511l.375-.65.375-.649a5.316 5.316 0 0 0-2.658-.712v.75Zm2.283.612-.375.65c.58.334 1.061.816 1.396 1.396l.65-.375.65-.375a5.316 5.316 0 0 0-1.946-1.946l-.375.65Zm1.67 1.671-.649.375c.335.58.511 1.238.511 1.908h1.5c0-.933-.245-1.85-.712-2.658l-.65.375Zm8.071 2.494v-.75l-10.163.003v1.5l10.163-.003v-.75Zm-2.709-.211.75-.01a3.816 3.816 0 0 1 .276-1.475l-.695-.28-.696-.28a5.316 5.316 0 0 0-.385 2.055l.75-.01Zm.33-1.765.696.28c.19-.468.47-.895.824-1.254l-.533-.527-.534-.527a5.317 5.317 0 0 0-1.148 1.747l.696.28Zm.987-1.501.533.527c.355-.36.778-.646 1.244-.84l-.289-.692-.29-.692a5.302 5.302 0 0 0-1.732 1.17l.534.527Zm1.488-1.005.29.692a3.815 3.815 0 0 1 1.47-.296v-1.5c-.703 0-1.4.14-2.05.412l.29.692Zm1.76-.354v.75c.506 0 1.006.1 1.472.296l.29-.692.289-.692a5.316 5.316 0 0 0-2.05-.412v.75Zm1.762.354-.29.692c.467.194.89.48 1.244.84l.534-.527.534-.527a5.315 5.315 0 0 0-1.733-1.17l-.29.692Zm1.488 1.005-.534.527c.355.359.635.786.824 1.254l.696-.28.695-.28a5.315 5.315 0 0 0-1.147-1.748l-.534.527Zm.986 1.5-.696.281c.19.469.283.97.276 1.475l.75.01.75.01a5.316 5.316 0 0 0-.385-2.056l-.695.28Zm.33 1.766h-.75v.209h1.5v-.209h-.75Zm0 .209v-.75h-2.634v1.5h2.634v-.75Zm-2.278.73h-.75c0 .339-.112.668-.318.937l.595.456.595.457c.407-.53.628-1.18.628-1.85h-.75Zm-.473 1.393-.595-.456a1.538 1.538 0 0 1-.822.549l.194.724.194.724a3.037 3.037 0 0 0 1.624-1.084l-.595-.457Zm-1.223.817-.194-.724a1.538 1.538 0 0 1-.986-.065l-.287.692-.287.693a3.037 3.037 0 0 0 1.948.128l-.194-.724Zm-1.467-.096.287-.693a1.538 1.538 0 0 1-.743-.652l-.65.375-.65.375a3.036 3.036 0 0 0 1.469 1.287l.287-.692Zm-1.106-.97.65-.375a1.537 1.537 0 0 1-.193-.97l-.743-.098-.744-.097a3.037 3.037 0 0 0 .38 1.915l.65-.375Zm-.286-1.442.743.098c.044-.336.198-.648.437-.887l-.53-.53-.53-.53a3.038 3.038 0 0 0-.864 1.75l.744.099Zm.65-1.32.53.531c.24-.24.551-.393.887-.437l-.098-.744-.098-.743a3.038 3.038 0 0 0-1.751.863l.53.53Zm1.319-.65.098.744c.335-.044.676.023.97.193l.374-.65.375-.65a3.037 3.037 0 0 0-1.915-.38l.098.743Zm1.442.287-.375.65c.234.135.428.329.563.563l.65-.375.65-.375a3.036 3.036 0 0 0-1.113-1.112l-.375.65Zm.838.838-.65.375c.135.233.206.498.206.768h.75l.75.001c0-.533-.14-1.057-.407-1.52l-.65.376ZM10.664 4.125l-.577.48c1.002 1.204 1.546 2.255 1.839 2.988.146.366.23.655.276.844a3.336 3.336 0 0 1 .052.251v.006-.004L13 8.601l.745-.088v-.006l-.002-.01a1.38 1.38 0 0 0-.019-.116 4.835 4.835 0 0 0-.064-.301 7.911 7.911 0 0 0-.34-1.044c-.348-.872-.971-2.06-2.078-3.391l-.577.479ZM7.35 17.55H6.6c0 .338-.112.667-.318.936l.595.456.595.457c.407-.53.628-1.18.628-1.849h-.75Zm-.473 1.392-.595-.456a1.537 1.537 0 0 1-.822.549l.194.724.194.725a3.038 3.038 0 0 0 1.624-1.085l-.595-.457Zm-1.223.817-.194-.724a1.537 1.537 0 0 1-.986-.065l-.287.693-.287.693c.617.256 1.302.3 1.948.128l-.194-.725Zm-1.467-.096.287-.693a1.537 1.537 0 0 1-.743-.652l-.65.375-.65.375c.335.58.851 1.032 1.469 1.288l.287-.693Zm-1.106-.97.65-.375a1.537 1.537 0 0 1-.193-.97l-.743-.097-.744-.098a3.038 3.038 0 0 0 .38 1.915l.65-.375Zm-.286-1.442.743.098a1.54 1.54 0 0 1 .437-.887l-.53-.53-.53-.53a3.037 3.037 0 0 0-.864 1.75l.744.099Zm.65-1.32.53.531a1.54 1.54 0 0 1 .887-.437l-.098-.743-.098-.744a3.038 3.038 0 0 0-1.751.864l.53.53Zm1.319-.65.098.744c.335-.044.676.024.97.193l.374-.65.375-.649a3.038 3.038 0 0 0-1.915-.381l.098.744Zm1.442.287-.375.65c.234.135.428.33.563.563l.65-.375.65-.375A3.037 3.037 0 0 0 6.58 14.92l-.375.65Zm.838.838-.65.375c.135.234.206.499.206.769h1.5c0-.533-.14-1.057-.407-1.519l-.65.375Z"/></svg>