<svg xmlns="http://www.w3.org/2000/svg" fill="none" viewBox="0 0 24 24"><path fill="currentColor" d="m22.684 3.38.75.003.006-1.5-.75-.003-.003.75-.003.75Zm-1.317-.755.003-.75-.753-.003v.753h.75Zm0 16.186h-.75.75ZM19.2 20.523l-.266.701.045.017.047.012.174-.73Zm-.34-.93-.7-.267-.532 1.403.7.266.267-.701.266-.702Zm-.724-8.172.74-.123-.125-.747-.746.131.13.739Zm1.1 6.614.123.74.74-.123-.123-.74-.74.123ZM8.078 7.146l.582-.474-.276-.338-.431.073.125.739Zm8.678 11.304-.74.123.74-.123Zm-1.598-1.942-.263.703.263-.703Zm7.53-13.878.003-.75-1.321-.005-.003.75-.003.75 1.32.005.003-.75Zm-1.321-.005h-.75v16.186h1.5V2.625h-.75Zm0 16.186h-.75c0 .152-.035.303-.101.44l.675.327.675.327a2.51 2.51 0 0 0 .25-1.095h-.75Zm-.176.767-.675-.327a1.01 1.01 0 0 1-.283.352l.465.589.465.588c.297-.235.538-.534.703-.875l-.675-.327Zm-.493.614-.465-.589c-.12.095-.259.161-.408.194l.162.732.162.733a2.51 2.51 0 0 0 1.014-.482l-.465-.588Zm-.71.337-.163-.732a1.01 1.01 0 0 1-.451-.004l-.174.73-.174.73c.37.087.753.09 1.123.009l-.162-.733Zm-.788-.006.266-.701-.605-.23-.266.702-.266.7.605.23.266-.701Zm-7.405-1.25-.131-.739L1.182 20.39l.13.738.131.739 10.482-1.856-.13-.738Zm-10.45-4.885.13.739 16.79-2.967-.13-.739-.13-.739-16.79 2.967.13.739Zm16.79-2.967-.74.123 1.1 6.614.74-.123.74-.123-1.1-6.614-.74.123Zm1.1 6.614-.123-.74-2.48.413.123.74.123.74 2.48-.413-.123-.74ZM1.312 8.293l.126.74 6.766-1.148-.126-.739-.125-.74-6.766 1.147.125.74Zm6.766-1.147-.581.474 4.27 5.237.581-.474.581-.474-4.27-5.237-.58.474Zm8.678 11.304-.74.123c.064.383 0 .777-.183 1.12l.661.352.662.353a3.265 3.265 0 0 0 .34-2.071l-.74.123Zm-.262 1.596-.662-.353a1.765 1.765 0 0 1-.827.776l.31.683.311.683a3.265 3.265 0 0 0 1.53-1.437l-.662-.352Zm-1.178 1.106-.31-.683c-.354.161-.751.2-1.13.113l-.169.73-.17.731c.7.163 1.435.09 2.09-.208l-.311-.683Zm-1.609.16.17-.73a1.765 1.765 0 0 1-.965-.598l-.579.476-.58.477a3.265 3.265 0 0 0 1.785 1.106l.17-.73Zm-1.374-.852.58-.476a1.765 1.765 0 0 1-.402-1.061l-.75.025-.749.026c.025.718.285 1.408.742 1.963l.58-.477Zm-.571-1.512.75-.025c-.014-.389.101-.77.327-1.086l-.61-.436-.61-.437a3.266 3.266 0 0 0-.607 2.01l.75-.026Zm.467-1.547.61.436c.226-.317.55-.55.922-.662l-.219-.718-.218-.717a3.27 3.27 0 0 0-1.705 1.224l.61.437Zm1.313-.944.219.718c.372-.114.77-.101 1.134.035l.263-.702.264-.702a3.264 3.264 0 0 0-2.098-.066l.218.717Zm1.616.051-.263.703c.29.108.546.291.743.53l.58-.476.578-.476a3.265 3.265 0 0 0-1.374-.983l-.264.702Zm1.06.757-.58.477c.197.239.327.526.378.831l.74-.123.74-.123a3.265 3.265 0 0 0-.7-1.538l-.579.476ZM2.614 8.11l-.74.123.963 5.788.74-.123.74-.123-.963-5.788-.74.123Z"/></svg>