<svg xmlns="http://www.w3.org/2000/svg" fill="none" viewBox="0 0 24 24"><path stroke="currentColor" stroke-miterlimit="10" vector-effect="non-scaling-stroke" stroke-width="1.5" d="m15.75 6.961-1.261-3.023h-3.292M7.313 16.687a3.375 3.375 0 1 1-6.75 0 3.375 3.375 0 0 1 6.75 0Zm12.141-5.445a4.79 4.79 0 0 0-4.979 4.395l-4.972-.012c-.331-2.02-1.83-4.383-4.849-4.383H1.701l-.699-2.53L8.72 9.2c1.41 0 2.519-.854 3.586-1.553a5.18 5.18 0 0 1 2.762-.897c1.35 0 3.487.803 5.915 1.603a1.734 1.734 0 0 1 1.284 1.764v1.125h-2.813Zm3.983 5.445a3.375 3.375 0 1 1-6.75 0 3.375 3.375 0 0 1 6.75 0Z"/></svg>