<svg xmlns="http://www.w3.org/2000/svg" fill="none" viewBox="0 0 24 24"><path fill="currentColor" d="m8.358 7.894.578-.477-.006-.008-.572.486Zm.247 3.397.592.46-.592-.46Zm-1.602 4.8-.62.42v.001l.62-.42Zm0 3.203-.62-.421-.002.002.622.419Zm13.611-5.838-.75.02.75-.02ZM3 13.692h-.75H3Zm9.61 1.632-.274-.698.274.698Zm4.82 1.832.123.74-.122-.74ZM16.063 5.681l-.335.67.335.169.335-.168-.335-.671ZM11.13 3.216l-.335-.67-1.342.67 1.342.67.335-.67ZM16.062.75l.335-.67-.335-.169-.335.168.335.671Zm4.932 2.466.335.67 1.342-.67-1.342-.67-.335.67ZM10.052 5.693l.743-.105-.21-1.485-.742.105.105.742.104.743ZM20.8 10.448l-.254-.705-1.41.509.254.705.705-.254.706-.255ZM6.775 6.463l-.425.618A7.325 7.325 0 0 1 7.786 8.38l.572-.486.572-.485A8.826 8.826 0 0 0 7.2 5.846l-.425.617Zm1.583 1.431-.578.478c.035.042.116.175.203.41.083.221.155.49.196.768.088.604.006 1.058-.167 1.282l.593.46.593.458c.555-.716.571-1.691.465-2.417a5.337 5.337 0 0 0-.274-1.076c-.115-.306-.266-.614-.453-.84l-.578.478Zm.247 3.397-.593-.46c-.119.154-.326.318-.635.5-.309.18-.646.338-1.016.521-.343.17-.735.371-1.042.615-.303.242-.667.64-.667 1.224h1.5c0 .097-.068.084.101-.05.165-.13.418-.269.773-.445.328-.162.74-.355 1.11-.571.368-.216.768-.496 1.061-.874l-.592-.46Zm-3.204 2.4h-.75c0 .358.126.676.264.93.14.256.322.497.498.712.391.48.712.799.97 1.178l.62-.42.622-.42c-.301-.445-.781-.957-1.051-1.287a3.333 3.333 0 0 1-.342-.482.527.527 0 0 1-.08-.21h-.75Zm1.603 2.4-.621.421c.236.348.362.76.362 1.18h1.5c0-.72-.216-1.425-.62-2.021l-.622.42Zm.49 1.601h-.75c0 .421-.125.833-.361 1.181l.62.42.621.422c.405-.597.62-1.302.62-2.023h-.75Zm-.49 1.602-.623-.419a2.271 2.271 0 0 1-.797.727l.359.659.36.658c.53-.29.985-.704 1.323-1.207l-.623-.418Zm13.61-5.838-.75.02a8.059 8.059 0 0 1-.716 3.544l.683.31.683.31a9.56 9.56 0 0 0 .85-4.205l-.75.02Zm-.783 3.874-.683-.31a8.06 8.06 0 0 1-2.195 2.875l.479.577.479.577a9.56 9.56 0 0 0 2.603-3.409l-.683-.31Zm-2.4 3.142-.478-.577a8.06 8.06 0 0 1-3.23 1.625l.177.728.178.729a9.559 9.559 0 0 0 3.832-1.928l-.478-.577Zm-3.53 1.776-.179-.728a8.059 8.059 0 0 1-3.616.048l-.158.733-.159.734a9.559 9.559 0 0 0 4.29-.058l-.179-.729Zm-3.953.053.158-.733a8.06 8.06 0 0 1-3.273-1.537l-.463.59-.463.59a9.558 9.558 0 0 0 3.882 1.824l.159-.734Zm-3.578-1.68.463-.59a8.06 8.06 0 0 1-2.271-2.815l-.675.328-.674.328a9.559 9.559 0 0 0 2.694 3.338l.463-.59Zm-2.483-3.077.675-.328a8.06 8.06 0 0 1-.812-3.524h-1.5c0 1.448.33 2.878.963 4.18l.674-.328Zm7.808 4.956.472-.583c-.292-.236-.562-.65-.745-1.216a5.02 5.02 0 0 1-.217-1.863c.092-1.334.677-2.423 1.678-2.816l-.273-.698-.274-.698c-1.764.691-2.515 2.48-2.628 4.109a6.517 6.517 0 0 0 .287 2.43c.242.742.643 1.444 1.229 1.918l.471-.583Zm.915-7.176.273.698c.095-.037.145-.04.286.049.217.136.404.34.794.691.348.315.798.682 1.395.926.61.248 1.328.35 2.195.207l-.122-.74-.122-.74c-.606.1-1.043.023-1.385-.116-.354-.145-.65-.373-.955-.65-.264-.238-.638-.62-1.002-.848-.44-.277-.991-.426-1.63-.175l.273.698Zm4.82 1.832.123.74c.204-.034.366.015.477.109.107.09.252.294.273.733l.75-.036.748-.036c-.036-.76-.311-1.393-.805-1.809a2.07 2.07 0 0 0-1.687-.441l.122.74ZM16.063 5.681l.335-.67-4.932-2.467-.335.671-.335.67 4.932 2.467.335-.671ZM11.13 3.216l.335.67 4.932-2.465-.335-.671-.335-.67-4.932 2.465.335.671ZM16.062.75l-.335.67 4.932 2.467.335-.671.335-.67L16.397.078l-.335.671Zm4.932 2.466-.335-.67-4.932 2.465.335.671.335.67 4.932-2.465-.335-.671Zm-8.455.705h-.75v3.875h1.5V3.921h-.75Zm0 3.875h-.75c0 .924.728 1.559 1.446 1.918.763.38 1.764.594 2.83.594v-1.5c-.885 0-1.647-.18-2.16-.436-.556-.278-.616-.525-.616-.576h-.75Zm3.525 1.762v.75c1.066 0 2.067-.214 2.83-.595.717-.36 1.445-.994 1.445-1.917h-1.5c0 .05-.06.296-.616.575-.513.257-1.275.437-2.159.437v.75Zm3.525-1.762h.75V3.921h-1.5v3.875h.75ZM3 13.692h.75c0-4.152 2.542-7.468 6.302-7.999l-.104-.743-.105-.742c-4.635.654-7.593 4.729-7.593 9.484H3Zm17.095-2.99-.705.255a8.06 8.06 0 0 1 .475 2.519l.75-.02.75-.02a9.557 9.557 0 0 0-.564-2.988l-.706.255Z"/></svg>