<svg xmlns="http://www.w3.org/2000/svg" fill="none" viewBox="0 0 24 24"><path fill="currentColor" d="M9 6h.75V4.5H9V6ZM5.25 4.5H4.5V6h.75V4.5Zm12 0 .742-.106-.091-.644h-.651v.75ZM6.75 8.25V7.5h-.602l-.13.587.732.163ZM23.25 15h-.75a3.75 3.75 0 0 1-3.75 3.75v1.5c2.9 0 5.25-2.35 5.25-5.25h-.75Zm-4.5 4.5v-.75A3.75 3.75 0 0 1 15 15h-1.5c0 2.9 2.35 5.25 5.25 5.25v-.75Zm-4.5-4.5H15a3.75 3.75 0 0 1 3.75-3.75v-1.5A5.25 5.25 0 0 0 13.5 15h.75Zm4.5-4.5v.75A3.75 3.75 0 0 1 22.5 15H24c0-2.9-2.35-5.25-5.25-5.25v.75Zm-9 4.5H9a3.75 3.75 0 0 1-3.75 3.75v1.5c2.9 0 5.25-2.35 5.25-5.25h-.75Zm-4.5 4.5v-.75A3.75 3.75 0 0 1 1.5 15H0c0 2.9 2.35 5.25 5.25 5.25v-.75ZM.75 15h.75a3.75 3.75 0 0 1 3.75-3.75v-1.5A5.25 5.25 0 0 0 0 15h.75Zm4.5-4.5v.75A3.75 3.75 0 0 1 9 15h1.5c0-2.9-2.35-5.25-5.25-5.25v.75ZM9 5.25V4.5H5.25V6H9v-.75ZM18.75 15l.742-.106-1.5-10.5-.742.106-.742.106 1.5 10.5.742-.106Zm-1.5-10.5v-.75H13.5v1.5h3.75V4.5Zm.525 3.75V7.5H6.75V9h11.025v-.75Zm-11.025 0-.732-.163-1.5 6.75.732.163.732.163 1.5-6.75-.732-.163Z"/></svg>