<svg xmlns="http://www.w3.org/2000/svg" fill="none" viewBox="0 0 24 24"><path stroke="currentColor" stroke-miterlimit="10" vector-effect="non-scaling-stroke" stroke-width="1.5" d="M16.571 21.106H7.43m9.142 0c0 1.278 1.024 2.315 2.286 2.315s2.286-1.037 2.286-2.315m-4.572 0c0-1.28 1.024-2.316 2.286-2.316s2.286 1.037 2.286 2.316m-13.714 0c0 1.278-1.024 2.315-2.286 2.315-1.263 0-2.286-1.037-2.286-2.315m4.572 0c0-1.28-1.024-2.316-2.286-2.316-1.263 0-2.286 1.037-2.286 2.316m0 0H.571V14.93m0 0 3.81-5.403h10.667l3.047 5.403m-17.524 0h17.524m0 0h5.334v6.175h-2.286M9.714 9.528v5.403m5.75-9.783V2.653h2.718a3.3 3.3 0 0 0-1.197-1.496 3.235 3.235 0 0 0-3.638-.01 3.3 3.3 0 0 0-1.206 1.487L4.382 2.03v3.743l7.759-.605a3.298 3.298 0 0 0 1.207 1.489 3.234 3.234 0 0 0 3.638-.012 3.3 3.3 0 0 0 1.197-1.497h-2.719Z"/></svg>