<svg xmlns="http://www.w3.org/2000/svg" fill="none" viewBox="0 0 24 24"><path stroke="currentColor" stroke-miterlimit="11.474" vector-effect="non-scaling-stroke" stroke-width="1.5" d="M1.701 17.419v-5.747h1.215m0 0h8.47m-8.47 0V3.265h5.138c.409 0 1.032.194 1.161 1.161.188 1.41.666 4.708 2.171 7.246m0 0h3.02l2.598 4.195v2.44m2.91-4.108v5.934h3.46m-18.68-.767a.563.563 0 1 1-1.125 0 .563.563 0 0 1 1.125 0Zm4.888 0a.563.563 0 1 1-1.125 0 .563.563 0 0 1 1.125 0Zm5.067 0a.563.563 0 1 1-1.125 0 .563.563 0 0 1 1.126 0ZM3 21.75h12c1.243 0 2.25-1.142 2.25-2.384 0-1.243-1.007-2.415-2.25-2.415H3c-1.243 0-2.25 1.172-2.25 2.415 0 1.242 1.007 2.384 2.25 2.384Z"/></svg>