<svg xmlns="http://www.w3.org/2000/svg" fill="none" viewBox="0 0 24 24"><path fill="currentColor" d="M1.313 3.523v-.75h-.75v.75h.75Zm0 14.45h-.75v.75h.75v-.75ZM3.736 7.384h-.75v1.5h.75v-1.5Zm3.562 1.5h.75v-1.5h-.75v1.5Zm1.925 8.97v.75h1.5v-.75h-1.5Zm.75-7.372v-.75h-.75v.75h.75Zm4.054 0h.75v-.75h-.75v.75Zm-.75 7.372v.75h1.5v-.75h-1.5Zm7.77-10.156-.75-.006V7.7h.75Zm0 .054v.75h.75v-.75h-.75Zm-4.441 0v-.75h-.75v.75h.75Zm0 4.862h-.75v.75h.75v-.75Zm3.707 0 .465-.589-.205-.161h-.26v.75Zm2.375 1.875h.75v-.363l-.286-.226-.465.589Zm0 3.484v.75h.75v-.75h-.75Zm-14.546.05h-.75c0 .94-.763 1.703-1.703 1.703v1.5a3.203 3.203 0 0 0 3.203-3.203h-.75Zm-2.453 2.453v-.75c-.94 0-1.704-.762-1.704-1.703h-1.5a3.203 3.203 0 0 0 3.204 3.203v-.75Zm-2.454-2.453h.75c0-.94.763-1.703 1.704-1.703v-1.5a3.203 3.203 0 0 0-3.204 3.203h.75Zm2.454-2.453v.75c.94 0 1.703.762 1.703 1.703h1.5a3.203 3.203 0 0 0-3.203-3.203v.75Zm15.139 2.453h-.75c0 .94-.763 1.703-1.704 1.703v1.5a3.203 3.203 0 0 0 3.204-3.203h-.75Zm-2.454 2.453v-.75c-.94 0-1.703-.762-1.703-1.703h-1.5a3.203 3.203 0 0 0 3.203 3.203v-.75Zm-2.453-2.453h.75c0-.94.763-1.703 1.703-1.703v-1.5a3.203 3.203 0 0 0-3.203 3.203h.75Zm2.453-2.453v.75c.94 0 1.704.762 1.704 1.703h1.5a3.203 3.203 0 0 0-3.204-3.203v.75Zm-10.52 2.401v.75h8.285v-1.5H7.854v.75ZM17.13 3.523v-.75H1.313v1.5H17.13v-.75Zm-15.817 0h-.75v14.45h1.5V3.522h-.75Zm0 14.45v.75h1.742v-1.5H1.312v.75Zm19-5.36.738-.136-.843-4.563-.738.136-.737.136.843 4.564.737-.136ZM3.737 8.134v.75h3.561v-1.5H3.736v.75Zm6.236 9.72h.75v-7.37h-1.5v7.37h.75Zm0-7.37v.75h4.054v-1.5H9.973v.75Zm4.054 0h-.75v7.37h1.5v-7.37h-.75Zm3.056-6.959-.034.75a3.398 3.398 0 0 1 2.314 1.054l.544-.517.544-.516a4.898 4.898 0 0 0-3.335-1.52l-.033.749Zm2.824 1.287-.544.517c.606.637.94 1.485.934 2.364l.75.006.75.005a4.898 4.898 0 0 0-1.346-3.408l-.544.516Zm1.14 2.887h-.75v.054h1.5v-.054h-.75Zm0 .054v-.75h-4.441v1.5h4.441v-.75Zm-4.441 0h-.75v4.862h1.5V7.753h-.75Zm0 4.862v.75h3.707v-1.5h-3.707v.75Zm3.707 0-.465.589 2.375 1.875.465-.589.464-.589-2.374-1.875-.465.589Zm2.375 1.875h-.75v3.484h1.5V14.49h-.75Zm0 3.484v-.75h-1.796v1.5h1.796v-.75Z"/></svg>