<svg xmlns="http://www.w3.org/2000/svg" fill="none" viewBox="0 0 24 24"><path fill="currentColor" d="M8.056 21.866a.75.75 0 0 0 0 1.5v-1.5Zm7.807.75v.75h.005l-.005-.75Zm1.081-1.002.747.063.001-.01v-.008l-.748-.045Zm-1.25-1.227v.75h.03l.028-.003-.058-.747Zm-4.26-.75a.75.75 0 1 0 0 1.5v-1.5Zm3.426-.268-.536.525 1.05 1.072.536-.525-.525-.536-.525-.536Zm2.78-2.224.127-.739-1.478-.255-.128.739.74.127.739.128Zm1.896-1.338.703-.262a.667.667 0 0 0-.01-.027l-.693.289Zm.268-5.527-.738.136a.719.719 0 0 0 .01.048l.728-.184Zm.255-3.15.706.252a.734.734 0 0 0 .019-.061l-.725-.191Zm.431-5.641.746-.08a.76.76 0 0 0-.008-.055l-.738.135Zm-.283-.113-.44-.608a.75.75 0 0 0-.13.12l.57.488ZM18.43 3.45l-.314.681a.75.75 0 0 0 .883-.193l-.57-.488Zm-.01-.004.314-.681a.808.808 0 0 0-.025-.012l-.289.693Zm-3.087.004-.593.459a.75.75 0 0 0 .884.232l-.291-.691Zm-1.624-2.1.593-.459a.747.747 0 0 0-.157-.15l-.436.609Zm-.283.113-.737-.14a.755.755 0 0 0-.01.072l.747.068Zm.255 5.338-.737.14.006.03.73-.17Zm.557 2.2.127.739a.75.75 0 0 0 .596-.938l-.723.199Zm-.37.064-.127-.74a.744.744 0 0 0-.05.011l.177.729ZM6.424 19.34l.704.257a.75.75 0 0 0 .046-.258h-.75Zm-.118.322-.303.686a.75.75 0 0 0 1.008-.429l-.705-.257Zm-2.612-7.158.747-.065-.747.065Zm-.683-.094-.702-.264-.003.008.705.256Zm.25 7.4-.654.368.653-.367Zm15.38 2.524a.75.75 0 0 0 1.376-.6l-.688.3-.688.3Zm-1.029-6.115a.75.75 0 1 0-1.375.6l.688-.3.687-.3Zm3.234 6.363.307.684.013-.005.012-.006-.332-.672Zm-12.79.034v.75h7.807v-1.5H8.056v.75Zm7.807 0 .005.75c.46-.004.902-.178 1.239-.491l-.51-.55-.51-.55a.343.343 0 0 1-.23.09l.006.75Zm.735-.291.509.55c.337-.312.546-.74.584-1.198l-.747-.063-.747-.063a.342.342 0 0 1-.11.223l.51.55Zm.346-.71.749.044a1.913 1.913 0 0 0-.125-.8l-.7.269-.7.27c.022.054.03.113.027.172l.749.044Zm-.076-.487.7-.27a1.911 1.911 0 0 0-.444-.677l-.526.535-.525.535a.413.413 0 0 1 .096.146l.7-.27Zm-.27-.412.526-.535a1.91 1.91 0 0 0-.685-.432l-.257.705-.257.704c.055.02.106.052.148.093l.525-.535Zm-.416-.262.257-.705a1.911 1.911 0 0 0-.802-.11l.057.748.058.747a.413.413 0 0 1 .173.024l.257-.704Zm-.487-.067v-.75h-4.261v1.5h4.26v-.75Zm-.31-.482.525.536a6.062 6.062 0 0 0 1.73-3.296l-.74-.128-.738-.127a4.562 4.562 0 0 1-1.302 2.48l.525.535Zm6.101 1.13.703-.263-1.95-5.227-.703.262-.703.262 1.95 5.228.703-.262Zm-1.95-5.228.692-.289c.035.083.018.112.022 0 .003-.09.017-.22.045-.397.027-.175.063-.374.104-.604.041-.226.087-.477.13-.743.17-1.044.323-2.41.002-3.679l-.727.184-.727.185c.24.947.137 2.05-.029 3.07-.04.25-.084.488-.125.716-.04.225-.08.445-.11.643a5.05 5.05 0 0 0-.062.572 1.51 1.51 0 0 0 .093.63l.692-.288Zm.268-5.527.737-.136a5.325 5.325 0 0 1 .224-2.762l-.706-.252-.706-.253a6.824 6.824 0 0 0-.287 3.538l.738-.135Zm.255-3.15.725.19c.508-1.926.662-3.929.452-5.91l-.746.079-.746.079a14.9 14.9 0 0 1-.41 5.37l.725.192Zm.431-5.641.738-.135a.93.93 0 0 0-.195-.422l-.58.475-.581.475a.57.57 0 0 1-.12-.258l.738-.135Zm-.038-.082.58-.475a.93.93 0 0 0-.373-.274l-.28.696-.278.696a.57.57 0 0 1-.23-.168l.581-.475Zm-.072-.053.279-.696a.93.93 0 0 0-.46-.06l.092.745.092.744a.57.57 0 0 1-.282-.037l.279-.696Zm-.09-.011L20.2.598a.93.93 0 0 0-.432.17l.44.608.44.607a.57.57 0 0 1-.264.104l-.092-.744Zm-.083.033-.57-.488-1.777 2.074.57.488.57.488 1.777-2.074-.57-.488ZM18.43 3.45l.314-.68-.01-.005-.314.68-.314.682.01.004.314-.681Zm-.01-.004.289-.693a4.741 4.741 0 0 0-1.834-.366l.001.75.001.75c.43 0 .857.085 1.254.25l.289-.691Zm-1.544-.309-.001-.75a4.728 4.728 0 0 0-1.833.372l.291.691.291.691a3.241 3.241 0 0 1 1.253-.254l-.001-.75Zm-1.543.313.593-.459-1.624-2.1-.593.459-.594.459 1.625 2.1.593-.459Zm-1.624-2.1.436-.61a.93.93 0 0 0-.43-.167l-.09.745-.09.744a.57.57 0 0 1-.263-.102l.437-.61Zm-.084-.032.09-.745a.93.93 0 0 0-.458.06l.28.696.278.696a.57.57 0 0 1-.28.037l.09-.744Zm-.089.011-.279-.696a.93.93 0 0 0-.372.272l.579.477.579.477a.57.57 0 0 1-.228.166l-.279-.696Zm-.072.053-.58-.477a.931.931 0 0 0-.195.418l.737.14.737.14a.57.57 0 0 1-.12.256l-.58-.477Zm-.038.081-.747-.068a20.02 20.02 0 0 0 .265 5.545l.737-.139.737-.139a18.566 18.566 0 0 1-.245-5.13l-.747-.069Zm.255 5.338-.73.17c.173.746.36 1.49.564 2.228l.723-.198.723-.199a56.459 56.459 0 0 1-.55-2.17l-.73.169Zm.557 2.2-.127-.74-.37.064.127.74.128.739.37-.064-.128-.74Zm-.37.064-.178-.729C8.943 9.496 5.674 14.12 5.674 19.34h1.5c0-4.632 2.892-8.574 6.872-9.547l-.178-.728ZM6.424 19.34l-.705-.258-.118.323.705.257.705.257.117-.322-.704-.258Zm-.118.322.303-.686c-.905-.4-1.431-1.346-1.736-2.66-.304-1.313-.332-2.725-.432-3.877l-.747.065-.747.065c.088 1.014.129 2.635.465 4.085.336 1.45 1.02 3 2.59 3.694l.304-.686Zm-2.612-7.158.747-.065a1.103 1.103 0 0 0-.3-.665l-.543.517-.544.517a.397.397 0 0 1-.107-.239l.747-.065Zm-.096-.213.543-.517a1.103 1.103 0 0 0-.649-.332l-.102.743-.102.743a.397.397 0 0 1-.234-.12l.544-.517Zm-.208-.106.102-.743c-.248-.034-.5.017-.715.145l.384.644.384.645a.396.396 0 0 1-.257.052l.102-.743Zm-.229.046-.384-.644c-.214.128-.38.325-.468.559l.702.264.702.265a.397.397 0 0 1-.168.2l-.384-.644Zm-.15.18-.705-.256c-.462 1.274-.647 2.796-.597 4.215.05 1.408.336 2.809.898 3.808l.653-.367.654-.368c-.399-.71-.66-1.843-.706-3.126-.045-1.271.125-2.595.508-3.651l-.705-.256Zm.25 7.4-.654.368c.683 1.212 1.514 2.006 2.476 2.497.95.485 1.971.647 2.986.689l.031-.75.031-.749c-.907-.038-1.686-.178-2.366-.526-.667-.34-1.294-.909-1.851-1.898l-.654.369Zm16.068 2.223.688-.3-2.405-5.515-.688.3-.687.3 2.405 5.515.687-.3Zm2.121-1.088-.69.295c.053.122.056.26.01.384l.704.26.703.26a2.019 2.019 0 0 0-.037-1.494l-.69.295Zm.024.939-.704-.26a.52.52 0 0 1-.257.285l.332.672.333.673a2.02 2.02 0 0 0 1-1.11l-.704-.26Zm-.628.697-.308-.683a.405.405 0 0 1-.16.035l.012.75.013.75c.259-.004.514-.061.75-.168l-.307-.683Zm-.456.102-.012-.75a.407.407 0 0 1-.161-.03l-.285.694-.285.694c.24.098.497.146.756.142l-.013-.75Zm-.458-.086.285-.694a.407.407 0 0 1-.136-.091l-.536.524-.536.525c.182.185.399.331.638.43l.285-.694Zm-.387-.26.536-.526a.405.405 0 0 1-.088-.137l-.7.27-.7.27c.094.242.235.462.416.647l.536-.525ZM14.22 8.84l-.299.688c.938.408 1.95.617 2.972.615l-.001-.75-.002-.75a5.925 5.925 0 0 1-2.371-.49l-.299.687Zm2.672.553.001.75a7.424 7.424 0 0 0 2.97-.625l-.302-.687-.3-.687a5.925 5.925 0 0 1-2.37.5v.75Z"/></svg>