<svg xmlns="http://www.w3.org/2000/svg" fill="none" viewBox="0 0 24 24"><path stroke="currentColor" vector-effect="non-scaling-stroke" stroke-width="1.5" d="M16.985 17.88h-2.914V5.247h6.145l3.18 6.123v6.508h-2.924m-6.4-3.446H.558v3.454h2.628m10.886 0h-2.69m-3.527 0H6.771M17.686 5.24v6.492h5.654m-2.777 6.495a1.83 1.83 0 1 1-3.66 0 1.83 1.83 0 0 1 3.66 0Zm-9.102 0a1.83 1.83 0 1 1-3.66 0 1.83 1.83 0 0 1 3.66 0Zm-4.63 0a1.83 1.83 0 1 1-3.66 0 1.83 1.83 0 0 1 3.66 0Zm5.185-7.53a3.904 3.904 0 0 1-5.207 1.837C5.094 11.381 1.993 8.31 1.993 8.31l2.15-4.177S9.24 5.146 10.18 5.491a3.904 3.904 0 0 1 1.837 5.206Z"/></svg>