<svg xmlns="http://www.w3.org/2000/svg" fill="none" viewBox="0 0 24 24"><g stroke="currentColor" stroke-linecap="square" stroke-miterlimit="10" vector-effect="non-scaling-stroke" stroke-width="1.5"><path d="M3.75 15.375a.375.375 0 1 0 0-.75.375.375 0 0 0 0 .75Z"/><path d="M7.937 13.5a3.75 3.75 0 1 0 0 3h2.567l1.125.75 1.125-.75h2.25l.75-3H7.937ZM20.25 8.625a.375.375 0 1 0 0-.75.375.375 0 0 0 0 .75Z"/><path d="M16.067 6.75a3.75 3.75 0 1 1 0 3h-2.568l-1.125.75-1.125-.75H9l-.75-3h7.818Z"/></g></svg>