<svg xmlns="http://www.w3.org/2000/svg" fill="none" viewBox="0 0 24 24"><path fill="currentColor" d="M21 9v-.75h-.005L21 9Zm-.501.06-.71.245.223.644.662-.159-.175-.73ZM12 3v.75V3ZM3.501 9.06l-.175.73.662.159.222-.644-.709-.244ZM3 9l.005-.75H3V9ZM.75 11.25H0h.75Zm2.383 2.236.74-.123-.112-.67-.678.045.05.748ZM12 20.998v.75-.75Zm8.867-7.512v-.75h-.635l-.105.627.74.123ZM21 13.5v.75-.75Zm-10.925 2.562-.676-.325-.65 1.352.676.325.325-.676.325-.676Zm4.5 1.352.676-.325-.65-1.352-.676.325.325.676.325.676ZM21 9l-.005-.75a2.962 2.962 0 0 0-.67.081l.174.73.175.73c.108-.027.22-.04.33-.041L21 9Zm-.501.06.71-.244a9.74 9.74 0 0 0-3.554-4.756l-.436.61-.435.611a8.24 8.24 0 0 1 3.006 4.024l.709-.244Zm-3.28-4.39.436-.61A9.74 9.74 0 0 0 12 2.25v1.5a8.24 8.24 0 0 1 4.784 1.531l.435-.61ZM12 3v-.75a9.74 9.74 0 0 0-5.655 1.81l.436.61.435.611A8.24 8.24 0 0 1 12 3.751V3ZM6.78 4.67l-.435-.61a9.74 9.74 0 0 0-3.553 4.756l.709.245.71.244a8.24 8.24 0 0 1 3.005-4.024l-.435-.61ZM3.502 9.06l.175-.729a2.963 2.963 0 0 0-.671-.08L3 9l-.005.75c.112 0 .223.014.331.04l.175-.73ZM3 9v-.75a3 3 0 0 0-2.121.879l.53.53.53.53A1.5 1.5 0 0 1 3 9.75V9Zm-1.591.659-.53-.53A3 3 0 0 0 0 11.25h1.5c0-.398.158-.78.44-1.06l-.531-.531ZM.75 11.25H0a3 3 0 0 0 .879 2.121l.53-.53.53-.53A1.5 1.5 0 0 1 1.5 11.25H.75Zm.659 1.591-.53.53A3 3 0 0 0 3 14.25v-1.5a1.5 1.5 0 0 1-1.06-.44l-.531.531ZM3 13.5v.75c.077 0 .142-.009.169-.013l.026-.003h-.012l-.05-.748-.05-.748a1.24 1.24 0 0 0-.104.011l-.014.002c-.008.001-.006.001 0 0A.37.37 0 0 1 3 12.75v.75Zm.133-.014-.74.124a9.74 9.74 0 0 0 3.311 5.83l.485-.572.485-.572a8.24 8.24 0 0 1-2.801-4.933l-.74.123Zm3.056 5.382-.485.572A9.74 9.74 0 0 0 12 21.748v-1.5a8.24 8.24 0 0 1-5.326-1.952l-.485.572ZM12 20.998v.75a9.74 9.74 0 0 0 6.296-2.308l-.485-.572-.485-.572A8.24 8.24 0 0 1 12 20.249v.75Zm5.81-2.13.486.572a9.74 9.74 0 0 0 3.311-5.83l-.74-.123-.74-.124a8.239 8.239 0 0 1-2.801 4.933l.485.572Zm3.057-5.381v.75a.463.463 0 0 1-.052-.003c-.006-.001-.01-.002.004 0l.062.01c.03.002.071.006.119.006v-1.5a.45.45 0 0 1 .051.003h-.003l-.062-.01a1.019 1.019 0 0 0-.119-.007v.75ZM21 13.5v.75a3 3 0 0 0 2.121-.879l-.53-.53-.53-.53A1.5 1.5 0 0 1 21 12.75v.75Zm1.591-.659.53.53A3 3 0 0 0 24 11.25h-1.5a1.5 1.5 0 0 1-.44 1.06l.531.531Zm.659-1.591H24a3 3 0 0 0-.879-2.121l-.53.53-.53.53a1.5 1.5 0 0 1 .439 1.061h.75Zm-.659-1.591.53-.53A3 3 0 0 0 21 8.25v1.5a1.5 1.5 0 0 1 1.06.44l.531-.531ZM9 10.5h-.75V12a1.5 1.5 0 0 0 1.5-1.5H9Zm-.75.75v-.75h-1.5a1.5 1.5 0 0 0 1.5 1.5v-.75Zm-.75-.75h.75V9a1.5 1.5 0 0 0-1.5 1.5h.75Zm.75-.75v.75h1.5A1.5 1.5 0 0 0 8.25 9v.75Zm8.25.75h-.75V12a1.5 1.5 0 0 0 1.5-1.5h-.75Zm-.75.75v-.75h-1.5a1.5 1.5 0 0 0 1.5 1.5v-.75ZM15 10.5h.75V9a1.5 1.5 0 0 0-1.5 1.5H15Zm.75-.75v.75h1.5a1.5 1.5 0 0 0-1.5-1.5v.75Zm-6 6.988-.325.676A5.948 5.948 0 0 0 12 18v-1.5c-.666 0-1.325-.15-1.925-.438l-.325.676Zm2.25.512V18c.891 0 1.771-.2 2.575-.586l-.325-.676-.325-.676c-.6.288-1.259.438-1.925.438v.75ZM12 3v-.75a3 3 0 0 0-1.414.354l.353.662.354.661A1.5 1.5 0 0 1 12 3.75V3Zm-1.06.266-.354-.662a3 3 0 0 0-1.08.979l.623.417.623.417a1.5 1.5 0 0 1 .54-.49l-.353-.661ZM10.128 4l-.624-.417a3 3 0 0 0-.491 1.373l.746.073.747.074a1.5 1.5 0 0 1 .245-.686L10.13 4ZM9.76 5.03l-.746-.074a3 3 0 0 0 .214 1.442l.693-.287.693-.287a1.5 1.5 0 0 1-.107-.721l-.747-.074Zm.16 1.081-.692.287a3 3 0 0 0 .868 1.171l.476-.58.476-.58a1.5 1.5 0 0 1-.434-.585l-.693.287Zm.652.878-.476.58a3 3 0 0 0 1.318.623l.147-.735.146-.736a1.5 1.5 0 0 1-.66-.311l-.475.58Zm.989.468-.147.735a3 3 0 0 0 1.457-.071l-.218-.718-.218-.718a1.5 1.5 0 0 1-.728.036l-.146.736Zm1.092-.054.218.718a3 3 0 0 0 1.25-.75l-.53-.53-.53-.53a1.5 1.5 0 0 1-.626.374l.218.718Z"/></svg>