<svg xmlns="http://www.w3.org/2000/svg" fill="none" viewBox="0 0 24 24"><path fill="currentColor" d="M11.94 20.475h-.75.75Zm-1.106-1.915.375-.65-.375.65Zm9.16 1.915h.75-.75ZM18.89 18.56l.375-.65-.375.65ZM3.098 5.58l.705-.255-.179-.496h-.526v.75Zm1.769 4.9.706-.252v-.002l-.706.254Zm2.06 5.76-.706.252.178.498h.528v-.75Zm13.678 0v.75h.54l.17-.512-.71-.238Zm1.932-5.76.71.239.008-.02.006-.022-.724-.197Zm.15-.551.723.196.027-.097v-.1h-.75Zm-8.643-8.616v-.75h-.75v.75h.75ZM5.204 9.73h-.75v1.5h.75v-1.5Zm16.979 1.5h.75v-1.5h-.75v1.5ZM11.94 20.474h-.75c0 .322-.106.635-.302.89l.595.457.596.456a2.961 2.961 0 0 0 .611-1.803h-.75Zm-.457 1.347-.595-.457a1.45 1.45 0 0 1-.781.522l.194.725.194.724a2.961 2.961 0 0 0 1.584-1.058l-.596-.456Zm-1.182.79-.194-.725a1.46 1.46 0 0 1-.938-.061l-.287.693-.287.693c.603.25 1.27.293 1.9.124l-.194-.724Zm-1.419-.093.287-.693a1.461 1.461 0 0 1-.706-.62l-.65.375-.65.375a2.97 2.97 0 0 0 1.432 1.256l.287-.693Zm-1.069-.938.65-.375a1.462 1.462 0 0 1-.184-.921l-.743-.098-.744-.098a2.962 2.962 0 0 0 .372 1.867l.65-.375Zm-.277-1.394.743.098c.042-.32.188-.616.416-.843l-.53-.53-.53-.531a2.962 2.962 0 0 0-.843 1.708l.744.098Zm.629-1.276.53.53c.228-.227.524-.373.843-.415l-.098-.743-.098-.744a2.962 2.962 0 0 0-1.708.842l.53.53Zm1.275-.628.098.743c.319-.042.643.023.922.184l.375-.65.375-.65a2.962 2.962 0 0 0-1.868-.371l.098.744Zm1.395.277-.375.65c.222.128.406.313.534.535l.65-.375.65-.375a2.96 2.96 0 0 0-1.084-1.084l-.375.65Zm.809.81-.65.375c.129.222.196.474.196.73h1.5c0-.52-.137-1.03-.397-1.48l-.65.375Zm8.351 1.105h-.75c0 .322-.106.634-.302.89l.595.456.595.457a2.96 2.96 0 0 0 .612-1.803h-.75Zm-.457 1.346-.595-.457c-.195.256-.47.439-.78.522l.194.725.194.724a2.96 2.96 0 0 0 1.582-1.057l-.595-.457Zm-1.181.79-.195-.725c-.31.084-.64.062-.937-.061l-.287.693-.287.693a2.96 2.96 0 0 0 1.9.124l-.195-.724Zm-1.419-.093.287-.693a1.46 1.46 0 0 1-.706-.62l-.65.376-.649.375a2.961 2.961 0 0 0 1.431 1.255l.287-.693Zm-1.069-.937.65-.375a1.462 1.462 0 0 1-.183-.922l-.744-.098-.743-.097a2.96 2.96 0 0 0 .371 1.867l.65-.375Zm-.277-1.395.744.098a1.46 1.46 0 0 1 .415-.842l-.53-.53-.53-.53a2.961 2.961 0 0 0-.842 1.707l.743.098Zm.629-1.274.53.53a1.46 1.46 0 0 1 .843-.416l-.098-.743-.098-.744a2.961 2.961 0 0 0-1.707.842l.53.53Zm1.275-.629.098.743c.318-.041.642.023.92.184l.376-.65.375-.65a2.961 2.961 0 0 0-1.867-.37l.098.743Zm1.394.277-.375.65c.222.128.406.313.534.535l.65-.375.65-.375a2.96 2.96 0 0 0-1.084-1.084l-.375.65Zm.809.81-.65.375c.129.222.196.474.196.73h1.5c0-.52-.137-1.03-.397-1.48l-.65.375ZM1.312 5.58v.75h1.786v-1.5H1.313v.75Zm1.786 0-.706.254 1.77 4.901.705-.255.705-.254-1.769-4.901-.705.254Zm1.769 4.9-.706.253 2.06 5.76.706-.253.706-.253-2.06-5.76-.706.253Zm2.06 5.76v.75h13.678v-1.5H6.927v.75Zm13.678 0 .71.238 1.933-5.759-.711-.239-.711-.238-1.932 5.76.71.238Zm1.932-5.76.724.197.15-.552-.724-.196-.724-.197-.15.552.724.196Zm.15-.551.75-.002A9.38 9.38 0 0 0 20.679 3.3l-.529.53-.53.532a7.88 7.88 0 0 1 2.317 5.568l.75-.001ZM20.15 3.83l.53-.531A9.38 9.38 0 0 0 14.043.563l.002.75v.75a7.88 7.88 0 0 1 5.575 2.299l.53-.531Zm-6.105-2.518h-.75v8.616h1.5V1.313h-.75ZM5.202 10.48v.75h16.979v-1.5H5.202v.75Z"/></svg>