<svg xmlns="http://www.w3.org/2000/svg" fill="none" viewBox="0 0 24 24"><path stroke="currentColor" stroke-miterlimit="10" vector-effect="non-scaling-stroke" stroke-width="1.5" d="M3.186 18.284H.563V3.563h13.484v14.721h-2.696m5.573 0h-2.93m.053-12.621h3.631v6.46h5.706v6.161h-2.832m2.886-6.48-3.166-6.142h-2.225M6.805 18.625a1.814 1.814 0 0 1-3.63 0c0-1 .813-1.811 1.816-1.811 1.002 0 1.815.81 1.815 1.811Zm4.63 0a1.815 1.815 0 0 1-1.816 1.813 1.814 1.814 0 0 1-1.814-1.813c0-1 .812-1.811 1.815-1.811 1.002 0 1.815.81 1.815 1.811Zm9.095-.003a1.815 1.815 0 1 1-3.63-.006 1.815 1.815 0 0 1 3.63.006Z"/></svg>