<svg xmlns="http://www.w3.org/2000/svg" fill="none" viewBox="0 0 24 24"><path fill="currentColor" d="m7.885 7.177.468-.585-.468-.375-.469.375.469.585ZM.563 20.584h-.75v1.5h.75v-1.5Zm22.875 1.5h.75v-1.5h-.75v1.5Zm-7.36-4.725v-.75h-.75v.75h.75Zm6.882 0v.75h1.439l-.825-1.18-.614.43Zm-4.014-5.745v-.75h-1.44l.825 1.18.615-.43Zm2.867 0v.75h1.368l-.736-1.153-.632.403Zm-5.735-8.993.633-.403-.634-.994-.632.995.633.402Zm-3.74 4.496-.401.633 1.267.804.401-.634-.633-.401-.633-.402ZM5.932 13.47v-.75h-.75v.75h.75Zm3.907 0h.75v-.75h-.75v.75Zm0 3.907v.75h.75v-.75h-.75Zm-3.907 0h-.75v.75h.75v-.75Zm-3.51 4.002h.75v-9.861h-1.5v9.86h.75Zm10.833-.045h.75v-9.86h-1.5v9.86h.75ZM.563 13.035l.468.586 7.322-5.858-.468-.586-.469-.585-7.322 5.857.469.586Zm7.322-5.858-.469.586 7.322 5.858.469-.586.468-.586-7.322-5.857-.468.585ZM.563 21.334v.75h22.875v-1.5H.563v.75Zm15.515-3.975h-.75v3.83h1.5v-3.83h-.75Zm0 0v.75h6.882v-1.5h-6.882v.75Zm6.882 0 .614-.43-4.014-5.744-.614.43-.615.43 4.014 5.743.615-.43Zm-4.014-5.745v.75h2.867v-1.5h-2.867v.75Zm2.867 0 .632-.403-5.734-8.993-.633.403-.632.403 5.735 8.994.632-.404Zm-5.735-8.993-.633-.402-3.106 4.898.633.402.633.401 3.107-4.897-.634-.402ZM5.931 13.47v.75h3.907v-1.5H5.93v.75Zm3.907 0h-.75v3.907h1.5V13.47h-.75Zm0 3.907v-.75H5.93v1.5h3.907v-.75Zm-3.907 0h.75V13.47h-1.5v3.907h.75Zm.143 3.97v.75h3.862v-1.5H6.074v.75Z"/></svg>