<svg xmlns="http://www.w3.org/2000/svg" fill="none" viewBox="0 0 24 24"><path fill="currentColor" d="M12.618 2.74h.75v-.75h-.75v.75Zm-7.032 0v-.75.75ZM2.394 7.057h-.75v.75h.75v-.75Zm10.224-1.298v.75h.75v-.75h-.75ZM7.14 7.057v.75h.666l.079-.661-.745-.09Zm-2.712 0v-.75h-1.5v.75h1.5Zm-.75 14.12h-.75.75Zm1.916 1.915v.75-.75Zm5.747 0v.75-.75ZM7.155 7.057h.75l-1.5-.01.75.01Zm.841 4.187-.44.608.44-.608Zm-.841-1.538-.747.068.747-.068Zm4.613 3.21.267-.7-.267.7Zm.85-10.176v-.75H5.586v1.5h7.032v-.75Zm-7.032 0v-.75a3.943 3.943 0 0 0-2.788 1.155l.53.53.531.53a2.443 2.443 0 0 1 1.727-.715v-.75Zm-2.257.935-.53-.53c-.777.776-1.155 2.061-1.155 3.047h1.5c0-.708.294-1.566.715-1.987l-.53-.53Zm-.935 2.517h-.75v.865h1.5v-.865h-.75Zm10.224-.433h.75V2.74h-1.5v3.02h.75ZM2.394 7.057v.75H7.14v-1.5H2.394v.75Zm6.208-1.298v.75h4.016v-1.5H8.602v.75ZM7.14 7.057l.745.089a.722.722 0 0 1 .717-.637v-1.5a2.222 2.222 0 0 0-2.206 1.96l.744.088Zm-3.462 0h-.75v14.12h1.5V7.056h-.75Zm0 14.12h-.75c0 .706.281 1.384.781 1.884l.53-.53.53-.53a1.165 1.165 0 0 1-.34-.825h-.75Zm.561 1.354-.53.53c.5.5 1.178.78 1.885.78v-1.5c-.31 0-.606-.122-.824-.34l-.53.53Zm1.355.56v.75h5.747v-1.5H5.594v.75Zm5.747 0v.75a2.66 2.66 0 0 0 1.884-.78l-.53-.53-.53-.53a1.165 1.165 0 0 1-.824.34v.75Zm1.354-.56.53.53c.5-.5.781-1.178.781-1.885h-1.5c0 .31-.123.606-.341.824l.53.53Zm.561-1.355h.75v-6.122h-1.5v6.122h.75Zm-1.488-8.26.267-.7a56.597 56.597 0 0 1-2.14-.857c-.717-.308-1.246-.568-1.459-.723l-.44.608-.44.608c.372.268 1.059.59 1.747.885.716.308 1.524.624 2.199.88l.266-.7Zm-3.772-1.672.44-.607c-.237-.172-.35-.33-.413-.467a1.564 1.564 0 0 1-.121-.532l-.747.068-.747.068c.026.292.08.655.255 1.03.18.383.464.737.894 1.048l.44-.608Zm-.841-1.538.747-.068-.001-.013a1.89 1.89 0 0 1-.005-.144 81.689 81.689 0 0 1-.003-1.22 187.807 187.807 0 0 1 .01-1.095l.001-.074v-.025l-.75-.01-.749-.01v.027a78.81 78.81 0 0 0-.004.342c-.003.223-.006.524-.007.836-.004.594-.005 1.309.014 1.522l.747-.068Zm0-2.65h-.75v2.65h1.5v-2.65h-.75Zm6.101 7.998h.75c0-1.27-.798-2.392-1.971-2.838l-.267.7-.266.702c.605.23 1.004.803 1.004 1.436h.75ZM7.143 9.259v-.75H3.678v1.5h3.465v-.75Zm13.711-8.12.165.73 1.019-.23-.165-.73-.165-.732-1.019.23.165.731ZM15.17 2.42l.165.732 4.519-1.02-.165-.732-.165-.731-4.519 1.02.165.731Zm5.685 5.263-.165.732 1.019.23.165-.732.165-.731-1.019-.23-.165.731ZM15.17 6.401l-.165.732 4.519 1.02.165-.732.165-.732-4.519-1.02-.165.732Zm7.024-1.997v-.75h-3.785v1.5h3.785v-.75Zm-5.01.014v-.75H15.39v1.5h1.794v-.75Zm-6.76-1.678h-.75v3.02h1.5V2.74h-.75Z"/></svg>