<svg xmlns="http://www.w3.org/2000/svg" fill="none" viewBox="0 0 24 24"><path fill="currentColor" d="m15.07 5.925.678.32-.678-.32Zm-3.72 2.356v-.75.75Zm-5.425 0v-.75H5.92l.004.75Zm-.532-.116-.324.676.008.004.316-.68ZM3.134 2.979l.723.2.001-.004-.724-.196Zm-.894-.622-.435-.61-.023.016-.022.018.48.576ZM.562 6.032h.75v-.015l-.75.015ZM3.1 9.866l.745.093.07-.562-.522-.221-.293.69ZM1.845 19.944l-.744-.093-.006.046v.045l.75.002Zm1.712 1.746-.012.75h.028l-.016-.75Zm1.487-.896-.651-.372-.005.008.656.364Zm1.156-5.99.065-.748-.684-.06-.12.677.74.13Zm7.898.689.747-.072-.06-.621-.621-.054-.066.747Zm.435 4.55h.75v-.035l-.003-.036-.747.072Zm3.425 0h.75v-.01l-.75.01ZM21.408 9.1l-.057-.748-.065.005-.064.017.187.726Zm2.026-2.293-.75-.007v.042l.75-.035Zm-1.608-1.771-.193.724.063.017.064.006.066-.747Zm-.958-.768.665-.347-.013-.025-.015-.024-.637.396Zm-2.61-1.5.022-.75h-.021v.75Zm-2.705 2.131.679.32.023-.05.016-.05-.718-.22Zm-2.02 2.79-.56-.5-.998 1.121.56.499.5-.56.498-.56Zm3.425 5.058.56.499.998-1.12-.56-.5-.5.561-.498.56Zm-1.79-6.603-.563-.496-.991 1.126.563.496.495-.563.496-.563Zm3.044 4.677.564.495.99-1.126-.563-.495-.495.563-.495.563ZM15.07 5.925l-.678-.32a3.365 3.365 0 0 1-1.242 1.404l.401.633.402.634a4.864 4.864 0 0 0 1.795-2.03l-.678-.321Zm-1.52 1.717-.4-.633a3.365 3.365 0 0 1-1.801.522v1.5c.921 0 1.824-.262 2.603-.755l-.402-.634Zm-2.201.639v-.75H5.925v1.5h5.425v-.75Zm-5.425 0-.004-.75a.496.496 0 0 1-.212-.047l-.316.68-.316.68c.267.125.557.188.852.187l-.004-.75Zm-.532-.116.324-.677C4.5 6.905 3.99 6.132 3.787 5.399c-.212-.769-.106-1.58.07-2.22l-.723-.2-.723-.2c-.213.775-.382 1.886-.07 3.02.323 1.17 1.138 2.28 2.728 3.042l.324-.676ZM3.134 2.979l.724.196c.072-.264.06-.544-.034-.802l-.705.257-.704.257a.172.172 0 0 1-.005-.104l.724.196ZM3.12 2.63l.705-.257a1.328 1.328 0 0 0-.49-.635l-.428.615-.428.616a.172.172 0 0 1-.063-.082l.704-.257Zm-.213-.277.428-.615a1.328 1.328 0 0 0-.766-.238l.005.75.004.75a.172.172 0 0 1-.1-.031l.43-.616Zm-.333-.103-.005-.75c-.274.001-.54.088-.763.247l.435.61.436.61a.172.172 0 0 1-.1.033l-.004-.75Zm-.333.107-.48-.576A5.413 5.413 0 0 0 .3 3.692l.683.312.682.311A3.913 3.913 0 0 1 2.72 2.934l-.48-.577ZM.983 4.004.3 3.692a5.413 5.413 0 0 0-.487 2.355l.75-.015.75-.015a3.913 3.913 0 0 1 .352-1.702l-.682-.311Zm-.42 2.028h-.75c0 .965.283 1.909.816 2.713l.625-.414.626-.414a3.414 3.414 0 0 1-.568-1.885h-.75Zm.691 2.3-.625.413a4.914 4.914 0 0 0 2.179 1.812l.292-.69.293-.691A3.414 3.414 0 0 1 1.88 7.917l-.626.414ZM3.1 9.865l-.744-.092L1.101 19.85l.744.093.744.093L3.845 9.959 3.1 9.866ZM1.845 19.944l-.75-.002a2.491 2.491 0 0 0 .713 1.751l.535-.525.536-.525a.992.992 0 0 1-.284-.697l-.75-.002Zm.498 1.224-.535.525a2.491 2.491 0 0 0 1.737.747l.012-.75.013-.75a.992.992 0 0 1-.691-.297l-.536.525Zm1.214.522.016.75a2.49 2.49 0 0 0 1.234-.357l-.387-.642-.387-.643a.992.992 0 0 1-.491.142l.015.75Zm.863-.25.387.643c.373-.225.68-.543.892-.924l-.655-.364-.656-.365a.993.993 0 0 1-.355.368l.387.643Zm.624-.646.65.373c.044-.076.069-.15.077-.173l.033-.11a7.3 7.3 0 0 0 .062-.252c.043-.19.096-.443.154-.732.116-.579.257-1.324.393-2.058a388.22 388.22 0 0 0 .523-2.891l.002-.013v-.004l-.738-.13-.738-.13-.001.003-.002.012-.009.048-.032.182a439.073 439.073 0 0 1-.48 2.65c-.135.732-.275 1.468-.388 2.036a28.19 28.19 0 0 1-.147.693 4.98 4.98 0 0 1-.046.19l-.008.028.007-.019a.626.626 0 0 1 .037-.075l.65.372Zm1.156-5.99-.065.747 7.898.689.065-.747.066-.747-7.899-.69-.065.748Zm7.898.689-.746.071.435 4.551.746-.071.747-.072-.435-4.55-.747.07Zm.435 4.55h-.75c0 .654.26 1.28.722 1.742l.53-.53.53-.53a.962.962 0 0 1-.282-.681h-.75Zm.502 1.212-.53.53a2.462 2.462 0 0 0 1.74.721v-1.5a.962.962 0 0 1-.68-.282l-.53.53Zm1.21.501v.75c.654 0 1.28-.26 1.742-.721l-.53-.53-.53-.53a.963.963 0 0 1-.681.281v.75Zm1.211-.502.53.53a2.462 2.462 0 0 0 .722-1.74h-1.5c0 .255-.101.5-.282.68l.53.53Zm.413-8.705h.75c0-.876.604-1.541 1.413-2.04a6.425 6.425 0 0 1 1.54-.677l.02-.006h.004l-.187-.727-.187-.726h-.002a.23.23 0 0 1-.004.001l-.012.003a3.493 3.493 0 0 0-.168.05 7.923 7.923 0 0 0-1.79.806c-.961.59-2.127 1.65-2.127 3.316h.75Zm3.54-3.45.057.748a2.946 2.946 0 0 0 1.982-.988l-.562-.496-.562-.496a1.446 1.446 0 0 1-.973.484l.058.748Zm1.477-.736.563.496c.507-.574.77-1.324.734-2.089l-.75.036-.748.035c.017.376-.112.744-.36 1.026l.561.496Zm.548-1.557.75.006a2.514 2.514 0 0 0-.652-1.71l-.556.504-.555.504c.17.189.265.435.263.69l.75.006Zm-.458-1.2.556-.504a2.513 2.513 0 0 0-1.64-.814l-.066.747-.066.747c.254.022.49.14.66.328l.556-.504Zm-1.15-.571.194-.725a.773.773 0 0 1-.285-.144l-.469.586-.469.585c.247.197.531.341.836.422l.193-.724Zm-.56-.283.47-.586a.774.774 0 0 1-.203-.246l-.665.347-.665.346c.146.28.348.527.594.724l.47-.585Zm-.398-.485.637-.396a3.925 3.925 0 0 0-1.379-1.333l-.374.65-.373.65c.347.2.64.483.852.824l.637-.395Zm-1.116-1.079.374-.65a3.925 3.925 0 0 0-1.846-.521l-.021.75-.021.75c.4.01.793.121 1.14.321l.374-.65Zm-1.493-.421v-.75c-1.327 0-2.2.7-2.713 1.352a4.519 4.519 0 0 0-.705 1.294l-.003.01-.001.004v.001l.716.22.718.22v.001l-.001.002.002-.007.016-.045a3.019 3.019 0 0 1 .437-.773c.326-.414.805-.78 1.534-.78v-.75Zm-2.706 2.131-.678-.32-.484 1.027.679.32.678.32.484-1.027-.679-.32Zm2.405 15.146.75-.011-.116-7.777-.75.011-.75.011.116 7.777.75-.011ZM13.034 8.248l-.499.56 4.423 3.938.499-.56.499-.56-4.423-3.938-.499.56Zm1.638-1.542-.495.563 4.035 3.551.496-.563.495-.563-4.035-3.551-.496.563Z"/></svg>