<svg xmlns="http://www.w3.org/2000/svg" fill="none" viewBox="0 0 24 24"><path fill="currentColor" d="M8.541 10.629h.75v-1.5h-.75v1.5Zm-2.395-1.5h-.75v1.5h.75v-1.5Zm10.841-1.468.744-.098-.086-.652h-.657v.75Zm-9.974 4.392v-.75H6.41l-.13.588.732.162ZM3.01 3.588l-.665-.347-.572 1.097H3.01v-.75ZM3.417 1.5V.75h-.46l-.208.41.668.34ZM2.18 3.927l-.669-.34-.555 1.09H2.18v-.75Zm1.777 0 .672.335.54-1.085H3.958v.75Zm-.541 1.088-.672-.334-1.551 3.116L3.89 5.596l-.474-.581Zm1.748-1.427.474.581L7.27 2.84H5.165v.75ZM4.099 1.5l.665.347L5.337.75H4.1v.75Zm18.588 16.966h-.75a3.525 3.525 0 0 1-3.524 3.525v1.5a5.025 5.025 0 0 0 5.024-5.025h-.75Zm-4.274 4.275v-.75a3.525 3.525 0 0 1-3.526-3.525h-1.5a5.025 5.025 0 0 0 5.026 5.025v-.75Zm-4.276-4.275h.75a3.525 3.525 0 0 1 3.526-3.525v-1.5a5.025 5.025 0 0 0-5.026 5.025h.75Zm4.276-4.275v.75a3.525 3.525 0 0 1 3.524 3.525h1.5a5.025 5.025 0 0 0-5.024-5.025v.75Zm-8.55 4.275h-.75a3.525 3.525 0 0 1-3.525 3.525v1.5a5.025 5.025 0 0 0 5.025-5.025h-.75ZM5.588 22.74v-.75a3.525 3.525 0 0 1-3.526-3.525h-1.5a5.025 5.025 0 0 0 5.026 5.025v-.75Zm-4.276-4.275h.75a3.525 3.525 0 0 1 3.526-3.525v-1.5a5.025 5.025 0 0 0-5.026 5.025h.75Zm4.276-4.275v.75a3.525 3.525 0 0 1 3.525 3.525h1.5a5.025 5.025 0 0 0-5.025-5.025v.75ZM8.54 9.879v-.75H6.146v1.5h2.395v-.75Zm9.872 8.587.743-.098L17.73 7.563l-.744.098-.743.098 1.425 10.805.744-.098ZM16.988 7.66v-.75h-3.563v1.5h3.563v-.75Zm.498 4.392v-.75H7.012v1.5h10.474v-.75Zm-10.474 0-.732-.162-1.425 6.412.732.163.733.162 1.425-6.412-.732-.163ZM3.958 3.927l-.671-.334-.542 1.088.672.334.671.334.542-1.087-.672-.335Zm-1.777 0v.75h1.777v-1.5H2.181v.75ZM3.417 1.5l-.668-.34-1.237 2.427.669.34.668.34L4.085 1.84l-.668-.34ZM3.01 3.588l.665.347 1.09-2.088-.666-.347-.664-.347-1.09 2.088.665.347ZM4.1 1.5V.75h-.683v1.5h.682V1.5Zm1.065 2.088v-.75H3.01v1.5h2.155v-.75ZM3.417 5.015l.474.581 1.748-1.427-.474-.58-.474-.582-1.748 1.427.474.58Z"/></svg>