<svg xmlns="http://www.w3.org/2000/svg" fill="none" viewBox="0 0 24 24"><path fill="currentColor" d="m19.07 17.69.346.667 1.331-.691-.345-.666-.666.346-.666.345ZM11.5 6.474h-.75v1.5h.75v-1.5Zm2.986.75.665-.345-.21-.405h-.455v.75Zm.504 11.874-.671-.334.671.334Zm-2.014 1.248v.75-.75Zm-4.955 0v.75-.75Zm11.3-8.868v.75h.75v-.75h-.75Zm-1.517 0v-.75h-.007l.007.75Zm-1.083-1.272.75.005v-.01l-.75.005Zm1.083-1.272-.007.75h.007v-.75Zm1.517 0h.75v-.75h-.75v.75ZM3.01 3.588l-.666-.347-.572 1.097H3.01v-.75ZM3.416 1.5V.75h-.46l-.208.41.668.34ZM2.18 3.927l-.669-.34-.555 1.09H2.18v-.75Zm1.777 0 .672.335.54-1.085H3.958v.75Zm-.541 1.088-.672-.334-1.551 3.116L3.89 5.596l-.474-.581Zm1.748-1.427.474.581L7.27 2.84H5.165v.75ZM4.1 1.5l.664.347L5.337.75H4.1v.75Zm5.459 12.794v-.75H2.787v1.5H9.56v-.75Zm-3.386 5.558h-.75c0 .886-.718 1.605-1.605 1.605v1.5a3.105 3.105 0 0 0 3.105-3.105h-.75Zm-2.355 2.355v-.75a1.605 1.605 0 0 1-1.604-1.605h-1.5a3.105 3.105 0 0 0 3.104 3.105v-.75Zm-2.354-2.355h.75c0-.886.718-1.605 1.604-1.605v-1.5a3.105 3.105 0 0 0-3.104 3.105h.75Zm2.354-2.355v.75c.887 0 1.605.719 1.605 1.605h1.5a3.105 3.105 0 0 0-3.105-3.105v.75Zm18.912 2.355h-.75c0 .886-.718 1.605-1.605 1.605v1.5a3.105 3.105 0 0 0 3.105-3.105h-.75Zm-2.355 2.355v-.75a1.605 1.605 0 0 1-1.604-1.605h-1.5a3.105 3.105 0 0 0 3.104 3.105v-.75Zm-2.354-2.355h.75c0-.886.718-1.605 1.604-1.605v-1.5a3.105 3.105 0 0 0-3.104 3.105h.75Zm2.354-2.355v.75c.887 0 1.605.719 1.605 1.605h1.5a3.105 3.105 0 0 0-3.105-3.105v.75Zm-.639-.151.666-.346-5.25-10.122-.666.345-.666.345 5.25 10.123.666-.345Zm-5.25-10.123v-.75H11.5v1.5h2.985v-.75ZM6.52 18.845h.75v-3.051h-1.5v3.051h.75Zm1.5-4.551v.75h1.067v-1.5H8.02v.75Zm9.541-.37-.672-.333-2.571 5.172.671.334.672.334 2.572-5.172-.672-.334Zm-4.587 6.421v-.75H8.021v1.5h4.954v-.75Zm2.015-1.248-.671-.334a1.5 1.5 0 0 1-1.344.832v1.5a3 3 0 0 0 2.687-1.664l-.672-.334Zm-8.47-.252h-.75a2.25 2.25 0 0 0 2.25 2.25v-1.5a.75.75 0 0 1-.75-.75h-.75Zm0-3.051h.75a.75.75 0 0 1 .75-.75v-1.5a2.25 2.25 0 0 0-2.25 2.25h.75Zm12.8-4.317v-.75h-1.516v1.5h1.517v-.75Zm-1.516 0-.007-.75a.187.187 0 0 1-.084-.02l-.325.676-.325.676c.233.112.488.17.748.168l-.007-.75Zm-.416-.094.325-.676a.331.331 0 0 1-.107-.086l-.57.486-.572.487c.165.193.367.353.6.465l.324-.676Zm-.353-.276.572-.486a.548.548 0 0 1-.098-.175l-.708.247-.708.247c.083.238.207.46.372.654l.57-.487Zm-.234-.414.708-.247a.707.707 0 0 1-.038-.236l-.75-.005-.75-.005c-.002.251.039.503.122.74l.708-.247Zm-.08-.488.75-.005a.72.72 0 0 1 .038-.236l-.708-.247-.708-.247a2.193 2.193 0 0 0-.122.74l.75-.005Zm.08-.488.708.247a.548.548 0 0 1 .098-.175l-.572-.487-.57-.486a2.047 2.047 0 0 0-.372.654l.708.247Zm.235-.415.57.487a.331.331 0 0 1 .107-.086l-.325-.676-.325-.676a1.83 1.83 0 0 0-.598.465l.57.486Zm.352-.275.325.676a.187.187 0 0 1 .084-.02l.007-.75.007-.75a1.687 1.687 0 0 0-.748.168l.325.676Zm.416-.094v.75h1.517v-1.5h-1.517v.75Zm1.517 0h-.75v2.544h1.5V8.933h-.75ZM3.958 3.927l-.671-.334-.542 1.088.672.334.671.334.542-1.087-.672-.335Zm-1.777 0v.75h1.777v-1.5H2.181v.75ZM3.417 1.5l-.668-.34-1.237 2.427.669.34.668.34L4.085 1.84l-.668-.34ZM3.01 3.588l.665.347 1.09-2.088L4.1 1.5l-.665-.347-1.09 2.088.665.347ZM4.1 1.5V.75h-.683v1.5h.682V1.5Zm1.065 2.088v-.75H3.01v1.5h2.155v-.75ZM3.417 5.015l.474.581L5.64 4.169l-.474-.58-.474-.582-1.748 1.427.474.58Z"/></svg>