<svg xmlns="http://www.w3.org/2000/svg" fill="none" viewBox="0 0 24 24"><path fill="currentColor" d="m1.313 18.148-.002-.75-1.5.004.002.75.75-.002.75-.002Zm3.412 4.165-.002.75h.02l-.018-.75Zm3.64-2.184.653-.368-.653-1.162-.654 1.162.654.367ZM12 22.311l-.018.75h.035l-.017-.75Zm3.639-2.184.654-.367-.654-1.162-.654 1.162.654.367Zm3.64 2.184-.017.75h.019l-.002-.75Zm4.909-4.16.001-.75-1.5-.004-.002.75.75.002.75.002ZM12 1.687l.476-.58L12 .718l-.476.39.476.58Zm-2.565 16.11v.75h1.5v-.75h-1.5Zm.75-5.57v-.75h-.75v.75h.75Zm3.63 0h.75v-.75h-.75v.75Zm-.75 5.57v.75h1.5v-.75h-1.5Zm5.446 0v.75h1.5v-.75h-1.5Zm1.5-7.135v-.75h-1.5v.75h1.5Zm-14.522 0v-.75h-1.5v.75h1.5Zm-1.5 7.135v.75h1.5v-.75h-1.5Zm-3.426.353-.75.002a4.921 4.921 0 0 0 1.441 3.469l.53-.53.53-.53c-.64-.64-1-1.508-1.002-2.413l-.75.002Zm1.221 2.94-.53.531a4.921 4.921 0 0 0 3.47 1.442l.001-.75.002-.75a3.421 3.421 0 0 1-2.412-1.003l-.53.53Zm2.941 1.223.017.75a5.04 5.04 0 0 0 2.478-.718l-.386-.643-.386-.643a3.539 3.539 0 0 1-1.74.504l.017.75Zm2.109-.61.386.642a5.04 5.04 0 0 0 1.798-1.849l-.653-.367-.654-.368a3.54 3.54 0 0 1-1.263 1.298l.386.643Zm1.53-1.575-.653.368a5.037 5.037 0 0 0 1.796 1.848l.386-.643.387-.642a3.537 3.537 0 0 1-1.262-1.298l-.653.367Zm1.53 1.573-.387.643a5.03 5.03 0 0 0 2.475.718l.018-.75.018-.75a3.538 3.538 0 0 1-1.738-.503l-.387.642Zm2.106.611.017.75a5.038 5.038 0 0 0 2.478-.716l-.386-.644-.386-.643a3.537 3.537 0 0 1-1.74.504l.017.75Zm2.109-.61.386.643a5.038 5.038 0 0 0 1.798-1.849l-.654-.367-.654-.368a3.536 3.536 0 0 1-1.262 1.298l.386.643Zm1.53-1.574-.654.368a5.04 5.04 0 0 0 1.799 1.85l.386-.644.386-.643a3.539 3.539 0 0 1-1.263-1.298l-.654.367Zm1.53 1.574-.385.643a5.04 5.04 0 0 0 2.478.717l.017-.75.017-.75a3.538 3.538 0 0 1-1.74-.503l-.386.643Zm2.11.61.002.75a4.922 4.922 0 0 0 3.467-1.443l-.531-.53-.53-.53c-.64.64-1.506 1-2.41 1.003l.002.75Zm2.938-1.223.53.53a4.922 4.922 0 0 0 1.44-3.467l-.75-.002-.75-.002a3.421 3.421 0 0 1-1 2.411l.53.53ZM2.016 9.88l.476.58 9.984-8.192-.476-.58-.476-.58L1.54 9.3l.476.58ZM12 1.688l-.476.58 9.984 8.19.476-.579.476-.58-9.984-8.191-.476.58Zm-1.815 16.11h.75v-5.571h-1.5v5.57h.75Zm0-5.571v.75h3.63v-1.5h-3.63v.75Zm3.63 0h-.75v5.57h1.5v-5.57h-.75Zm5.446 5.57h.75v-7.135h-1.5v7.135h.75ZM4.739 10.662h-.75v7.135h1.5v-7.135h-.75Z"/></svg>