<svg xmlns="http://www.w3.org/2000/svg" fill="none" viewBox="0 0 24 24"><path fill="currentColor" d="M1.566 20.97h-.75v.75h.75v-.75Zm0-7.783v-.75h-.75v.75h.75Zm8.225 0h.75v-.75h-.75v.75Zm0 3.507h-.75v.75h.75v-.75Zm7.05 0h.75v-.75h-.75v.75Zm0 4.276v.75h.75v-.75h-.75ZM2.737 3.305v-.75h-.75v.75h.75Zm7.434 0v-.75.75Zm1.097.762.723-.199-.009-.031-.011-.031-.703.261Zm11.42 17.653h.75v-1.5h-.75v1.5ZM19 20.97h-.75v.75H19v-.75Zm.75-19.657v-.75h-1.5v.75h1.5ZM3.148 20.97v-.75H1.566v1.5h1.582v-.75Zm-1.582 0h.75v-7.783h-1.5v7.783h.75Zm0-7.783v.75h8.225v-1.5H1.566v.75Zm8.225 0h-.75v3.507h1.5v-3.507h-.75Zm0 3.507v.75h7.05v-1.5h-7.05v.75Zm7.05 0h-.75v4.276h1.5v-4.276h-.75Zm0 4.276v-.75h-1.644v1.5h1.644v-.75ZM2.737 13.019h.75V3.304h-1.5v9.713h.75Zm0-9.714v.75h7.434v-1.5H2.737v.75Zm7.434 0v.75a.42.42 0 0 1 .24.075l.428-.616.428-.616a1.92 1.92 0 0 0-1.096-.344v.75Zm.668.209-.428.616a.42.42 0 0 1 .154.199l.703-.262.703-.261a1.921 1.921 0 0 0-.704-.908l-.428.616Zm.429.553a239.53 239.53 0 0 0-.723.2v.001l.002.006.006.022.023.084.09.32c.079.276.192.673.335 1.158a129 129 0 0 0 1.144 3.698 71.28 71.28 0 0 0 1.512 4.228c.523 1.305 1.077 2.497 1.609 3.25l.612-.433.613-.433c-.422-.596-.921-1.645-1.441-2.942a69.819 69.819 0 0 1-1.48-4.136 128.915 128.915 0 0 1-1.55-5.113L12 3.896l-.006-.021-.001-.005v-.001l-.724.198Zm11.42 16.903v-.75H19v1.5h3.688v-.75Zm-3.688 0h.75V1.313h-1.5V20.97H19Zm-12.316-.045h-.75c0 .56-.453 1.012-1.013 1.012v1.5a2.513 2.513 0 0 0 2.513-2.512h-.75Zm-1.763 1.762v-.75a1.012 1.012 0 0 1-1.012-1.012h-1.5a2.513 2.513 0 0 0 2.512 2.512v-.75ZM3.16 20.925h.75c0-.56.453-1.012 1.012-1.012v-1.5a2.513 2.513 0 0 0-2.512 2.512h.75Zm1.762-1.762v.75c.56 0 1.013.453 1.013 1.012h1.5a2.513 2.513 0 0 0-2.513-2.512v.75Zm10.255 1.762h-.75c0 .56-.453 1.012-1.012 1.012v1.5a2.513 2.513 0 0 0 2.512-2.512h-.75Zm-1.762 1.762v-.75c-.56 0-1.013-.453-1.013-1.012h-1.5a2.513 2.513 0 0 0 2.513 2.512v-.75Zm-1.763-1.762h.75c0-.56.454-1.012 1.013-1.012v-1.5a2.513 2.513 0 0 0-2.513 2.512h.75Zm1.763-1.762v.75c.559 0 1.012.453 1.012 1.012h1.5a2.513 2.513 0 0 0-2.512-2.512v.75ZM11.46 20.97v-.75H6.671v1.5h4.789v-.75Z"/></svg>