<svg xmlns="http://www.w3.org/2000/svg" fill="none" viewBox="0 0 24 24"><path fill="currentColor" d="m18.43.517-.617-.429-.856 1.232.616.428.428-.616.428-.615ZM22.5 9.75h-.75.75ZM3.554 14.625l-.376-.65-1.298.752.376.65.649-.376.649-.376ZM7.5 22.5h-.75V24h.75v-1.5Zm9 1.5h.75v-1.5h-.75V24ZM12 20.25h-.75v3h1.5v-3H12Zm7.5-10.5h-.75A6.75 6.75 0 0 1 12 16.5V18a8.25 8.25 0 0 0 8.25-8.25h-.75Zm-7.5 7.5v-.75a6.75 6.75 0 0 1-6.75-6.75h-1.5A8.25 8.25 0 0 0 12 18v-.75Zm-7.5-7.5h.75A6.75 6.75 0 0 1 12 3V1.5a8.25 8.25 0 0 0-8.25 8.25h.75Zm7.5-7.5V3a6.75 6.75 0 0 1 6.75 6.75h1.5A8.25 8.25 0 0 0 12 1.5v.75Zm6-1.118-.427.616a9.74 9.74 0 0 1 3.071 3.488l.665-.348.665-.347A11.24 11.24 0 0 0 18.429.517l-.428.615Zm3.31 3.756-.666.348a9.738 9.738 0 0 1 1.106 4.513h.75l.75.001a11.238 11.238 0 0 0-1.276-5.209l-.665.347ZM22.5 9.75h-.75A9.75 9.75 0 0 1 12 19.5V21c6.213 0 11.25-5.037 11.25-11.25h-.75ZM12 20.25v-.75a9.746 9.746 0 0 1-8.446-4.875l-.65.376-.648.375A11.246 11.246 0 0 0 12 21v-.75Zm-4.5 3V24h9v-1.5h-9v.75Z"/></svg>