<svg xmlns="http://www.w3.org/2000/svg" fill="none" viewBox="0 0 24 24"><path fill="currentColor" d="m12 1.5.469-.586L12 .54l-.469.374L12 1.5Zm-2.25 15v-.75H9v.75h.75Zm4.5 0H15v-.75h-.75v.75ZM4.5 12v-.75H3V12h1.5Zm-.75 10.5H3v.75h.75v-.75Zm16.5 0v.75H21v-.75h-.75ZM21 12v-.75h-1.5V12H21ZM10.5 9.75V9h-.75v.75h.75Zm3 0h.75V9h-.75v.75Zm0 3v.75h.75v-.75h-.75Zm-3 0h-.75v.75h.75v-.75ZM.75 10.5l.469.586 11.25-9L12 1.5l-.469-.586-11.25 9 .469.586ZM12 1.5l-.469.586 11.25 9 .469-.586.468-.586-11.25-9L12 1.5Zm-2.25 21h.75v-6H9v6h.75Zm0-6v.75h4.5v-1.5h-4.5v.75Zm4.5 0h-.75v6H15v-6h-.75ZM3.75 12H3v10.5h1.5V12h-.75Zm0 10.5v.75h16.5v-1.5H3.75v.75Zm16.5 0H21V12h-1.5v10.5h.75ZM10.5 9.75v.75h3V9h-3v.75Zm3 0h-.75v3h1.5v-3h-.75Zm0 3V12h-3v1.5h3v-.75Zm-3 0h.75v-3h-1.5v3h.75ZM5.25 6.9H6V3H4.5v3.9h.75Z"/></svg>