<svg xmlns="http://www.w3.org/2000/svg" fill="none" viewBox="0 0 24 24"><path fill="currentColor" d="m2.245 17.82.612.433a.768.768 0 0 0 .04-.064l-.652-.37ZM.562 19.582l-.727-.181a.75.75 0 0 0 1.189.773l-.462-.592Zm.568-3.645.745.09v-.001l-.745-.089Zm.048-1.266-.75.027v.005l.75-.032Zm-.014-.579h-.75v.01l.75-.01Zm-.12-2.325.748.066a.75.75 0 0 0 .002-.09l-.75.024Zm.44-1.867L.86 9.482a.749.749 0 0 0-.038.063l.66.355Zm18.133-.87a.75.75 0 0 0-1.457-.36l.729.18.728.18ZM17.7 13.68l-.728-.18a.76.76 0 0 0-.021.145l.749.034Zm-.357 7.724.75.035-.75-.035Zm-.564.533.008-.75h-.008v.75Zm-.729 0v-.75.75Zm-.564-.533-.75.03.001.013.749-.043Zm-.261-6.493.75-.03a.75.75 0 0 0-.968-.688l.218.718Zm-7.004-.097.38-.646-.38.646Zm-.812-.39-.273.7.006.002.267-.701ZM5.571 15.59l-.748-.05a.752.752 0 0 0-.002.05h.75Zm0 .08.75.006v-.006h-.75Zm-.051 5.729.75.035v-.028l-.75-.007Zm-.564.538v.75-.75Zm-.737 0v-.75.75Zm-.564-.532.75-.043-.002-.018-.747.06Zm-.833-8.285.733-.154a.748.748 0 0 0-.027-.098l-.707.252Zm-.465-2.325-.75-.03.001.068.75-.038ZM5.7 7.48l.024.75h.007L5.7 7.48Zm1.743.18.186-.727h-.003l-.183.727Zm3.58.607-.064.747a.75.75 0 0 0 .042.003l.023-.75Zm1.111-.3.397.637a.752.752 0 0 0 .182-.16l-.579-.477Zm1.848-2.238.578.478a.836.836 0 0 0 .012-.015l-.59-.463Zm1.06-1.104.486.572.005-.005-.49-.567Zm2.896-1.463.166.731-.166-.731Zm.701-.1v-.75h-.046l.046.75Zm.044 0v.75a.75.75 0 0 0 .734-.596l-.734-.155Zm.417-.697-.483-.574.483.574Zm.764-.3.75-.036a.75.75 0 0 0-.786-.713l.037.749Zm.05 1.032-.75.036v.006l.75-.042Zm.15.381.593-.458A.888.888 0 0 0 20.64 3l-.577.48Zm3.183 4.125.608-.44a.734.734 0 0 0-.014-.018l-.594.458Zm-.037 1.263.555.505a.79.79 0 0 0 .026-.031l-.58-.474Zm-.35.384.534.527a.736.736 0 0 0 .02-.022l-.554-.505Zm-1.21.213-.35.663.028.015.322-.678Zm-1.325-.7.35-.664-.35.663Zm-2.455-.676-.493.565.005.004.488-.569Zm-.078-1.198a.75.75 0 1 0-1.225.866l.613-.433.612-.433ZM3.175 15.38l-.745.085c-.001-.008-.002.093-.083.344-.07.22-.176.475-.29.726a13.824 13.824 0 0 1-.456.9l-.008.013-.001.003.653.369.653.368.001-.002.003-.005.01-.017a7.615 7.615 0 0 0 .153-.284c.097-.185.227-.44.355-.72a8.38 8.38 0 0 0 .355-.89c.086-.269.183-.637.145-.975l-.745.085Zm-.93 2.44-.612-.434A7.634 7.634 0 0 1 .1 18.991l.462.591.461.592a9.137 9.137 0 0 0 1.833-1.92l-.612-.434ZM.562 19.582l.728.182c.22-.88.469-2.768.585-3.737l-.745-.09-.744-.089c-.12.996-.359 2.783-.551 3.553l.728.181Zm.568-3.645.745.089c.054-.46.072-.924.053-1.386l-.75.031-.75.032c.017.383.002.766-.043 1.146l.745.088Zm.048-1.266.75-.026a25.966 25.966 0 0 1-.014-.563l-.75.01-.75.01c.003.2.008.398.015.596l.75-.027Zm-.014-.579h.75a1.356 1.356 0 0 0-.001-.04v-.009a.902.902 0 0 0-.003-.034 171.263 171.263 0 0 0-.022-.279 60.746 60.746 0 0 1-.05-.684c-.037-.552-.06-1.06-.046-1.213l-.747-.066-.747-.066c-.027.298.01.948.043 1.444a62.11 62.11 0 0 0 .069.924l.005.061v.015c.003.034-.001-.014-.001-.053h.75Zm-.12-2.325.75-.024a2.944 2.944 0 0 1 .35-1.488l-.66-.355-.661-.355a4.444 4.444 0 0 0-.528 2.246l.75-.024Zm.44-1.867.622.418A2.392 2.392 0 0 1 3.62 9.305l-.148-.736-.149-.735A3.892 3.892 0 0 0 .861 9.482l.623.418Zm17.405-1.05-.729-.18-1.188 4.83.728.18.728.178 1.189-4.829-.728-.18ZM17.7 13.68l-.75-.035-.356 7.725.749.034.75.035.356-7.725-.749-.035Zm-.357 7.724-.75-.035a.191.191 0 0 1 .06-.13l.516.545.514.546c.247-.233.393-.552.41-.89l-.75-.036Zm-.174.38-.515-.545a.191.191 0 0 1 .133-.052l-.008.75-.008.75c.339.003.666-.125.912-.357l-.514-.546Zm-.39.153v-.75h-.729v1.5h.729v-.75Zm-.729 0v-.75c.047 0 .093.018.127.05l-.515.546-.515.545c.244.23.567.359.903.359v-.75Zm-.388-.154.515-.546a.185.185 0 0 1 .058.124l-.749.043-.749.043c.02.335.166.65.41.88l.515-.544Zm-.176-.379.75-.03-.262-6.493-.749.03-.75.03.262 6.493.749-.03Zm-.261-6.493-.218-.718c-2.08.63-3.512.713-4.495.602-.968-.109-1.54-.41-1.911-.627l-.38.646-.38.646c.483.285 1.26.686 2.504.826 1.23.138 2.872.017 5.098-.658l-.218-.717Zm-7.004-.097.38-.647a6.153 6.153 0 0 0-.925-.443l-.267.7-.267.702c.242.092.476.204.7.335l.379-.647Zm-.812-.39.273-.698a2.1 2.1 0 0 0-.966-.134l.072.746.072.747a.6.6 0 0 1 .276.038l.273-.698Zm-.62-.086-.073-.746a2.1 2.1 0 0 0-.923.316l.402.634.402.633c.08-.05.17-.081.263-.09l-.072-.747Zm-.594.204-.402-.633a2.101 2.101 0 0 0-.68.699l.645.384.644.383a.6.6 0 0 1 .195-.2l-.402-.633Zm-.437.45-.645-.384a2.1 2.1 0 0 0-.29.931l.748.051.748.051a.6.6 0 0 1 .083-.266l-.644-.383Zm-.187.598h-.75v.08h1.5v-.08h-.75Zm0 .08-.75-.007-.051 5.73.75.006.75.007.051-5.73-.75-.006Zm-.051 5.729-.75-.035a.185.185 0 0 1 .058-.125l.518.542.518.543c.244-.234.39-.553.405-.89l-.749-.035Zm-.174.382-.518-.542a.186.186 0 0 1 .128-.052v1.5c.338 0 .663-.13.908-.363l-.518-.543Zm-.39.156v-.75h-.737v1.5h.737v-.75Zm-.737 0v-.75a.18.18 0 0 1 .127.051l-.514.545-.515.546c.244.23.567.358.903.358v-.75Zm-.387-.154.514-.545a.185.185 0 0 1 .058.124l-.748.043-.75.043c.02.335.167.65.41.88l.516-.545Zm-.176-.378.747-.061v-.004l-.001-.012a131.17 131.17 0 0 0-.019-.225 2226.573 2226.573 0 0 1-.211-2.629 253.432 253.432 0 0 1-.25-3.278l-.75.035-.749.035c.015.304.137 1.867.253 3.328a1859.122 1859.122 0 0 0 .212 2.63l.015.179.004.047v.015h.001l.748-.06Zm-.484-6.174.75-.035c-.017-.349-.115-.928-.198-1.373a39.794 39.794 0 0 0-.169-.857l-.734.154-.733.155v.004a7.85 7.85 0 0 1 .05.238c.03.15.07.356.111.58.087.466.164.942.174 1.17l.75-.036Zm-.35-2.11.706-.253a7.364 7.364 0 0 1-.422-2.11l-.749.037-.749.038c.044.867.215 1.723.507 2.54l.706-.253Zm-.465-2.326.75.03a2.705 2.705 0 0 1 .797-1.813l-.528-.532-.528-.533a4.205 4.205 0 0 0-1.24 2.819l.75.03Zm1.02-2.315.527.532a2.704 2.704 0 0 1 1.82-.783L5.7 7.48l-.024-.749a4.205 4.205 0 0 0-2.828 1.217l.528.533Zm2.323-1 .03.75a5.364 5.364 0 0 1 1.53.157l.183-.727.183-.728A6.864 6.864 0 0 0 5.67 6.73l.031.75Zm1.743.18-.186.726c1.215.31 2.453.52 3.702.628l.065-.747.064-.747a21.362 21.362 0 0 1-3.46-.587l-.185.727Zm3.58.607-.022.75a2.74 2.74 0 0 0 1.53-.413l-.397-.637-.396-.636a1.24 1.24 0 0 1-.692.187l-.022.75Zm1.111-.3.579.478 1.847-2.238-.579-.478-.578-.477-1.847 2.238.578.477Zm1.848-2.238.59.463c.284-.363.605-.697.957-.995l-.486-.572-.486-.571c-.428.364-.819.77-1.166 1.212l.59.463Zm1.06-1.104.491.567a5.934 5.934 0 0 1 2.57-1.299l-.165-.731-.166-.731a7.435 7.435 0 0 0-3.22 1.627l.49.567Zm2.896-1.463.166.731c.191-.043.385-.071.58-.083l-.045-.749-.046-.748a5.092 5.092 0 0 0-.822.118l.167.731Zm.701-.1v.75h.044v-1.5h-.044v.75Zm.044 0 .734.154a.497.497 0 0 1 .166-.278l-.483-.573-.483-.574c-.34.287-.576.68-.668 1.116l.734.154Zm.417-.697.483.573a.534.534 0 0 1 .318-.124l-.037-.75-.036-.748c-.445.021-.87.188-1.21.475l.482.574Zm.764-.3-.749.035.05 1.033.748-.036.75-.035-.05-1.033-.748.036Zm.05 1.032-.75.042c.017.3.13.588.323.82l.576-.48.577-.48a.098.098 0 0 1 .022.057l-.749.041Zm.15.381-.595.459 3.184 4.125.594-.459.594-.458-3.184-4.125-.594.458Zm3.183 4.125-.608.44a.286.286 0 0 1 .055.176l.75.022.749.022a1.786 1.786 0 0 0-.338-1.1l-.608.44Zm.196.638-.75-.022a.286.286 0 0 1-.064.172l.581.475.581.474c.25-.305.39-.684.402-1.077l-.75-.022Zm-.233.625-.554-.505-.35.385.554.504.555.505.35-.384-.555-.505Zm-.35.384-.534-.526a.31.31 0 0 1-.167.087l.13.74.13.738c.37-.065.711-.244.975-.512l-.534-.527Zm-.57.3-.13-.739a.31.31 0 0 1-.188-.025l-.322.677-.322.678c.34.161.721.213 1.091.148l-.13-.739Zm-.64-.087.351-.662-1.325-.702-.351.663-.35.663 1.324.701.351-.663Zm-1.325-.7.35-.664a.871.871 0 0 0-.237-.083 1.941 1.941 0 0 0-.12-.02l-.248-.032a11.865 11.865 0 0 1-.642-.089 4.599 4.599 0 0 1-.671-.161c-.21-.07-.336-.142-.398-.196l-.489.57-.489.568c.271.233.602.38.896.48.302.101.617.17.895.217.28.049.538.08.722.101.097.011.163.02.21.026l.026.004-.034-.009a.66.66 0 0 1-.12-.05l.349-.663Zm-2.455-.676.493-.565a3.603 3.603 0 0 1-.571-.633l-.613.433-.612.433a5.1 5.1 0 0 0 .81.897l.493-.565Z"/></svg>