<svg xmlns="http://www.w3.org/2000/svg" fill="none" viewBox="0 0 24 24"><path stroke="currentColor" stroke-linecap="square" stroke-miterlimit="10" vector-effect="non-scaling-stroke" stroke-width="1.5" d="M12.75 18.89h-9a3.05 3.05 0 0 1-2.121-.85 2.86 2.86 0 0 1-.879-2.056h12M3 13.078V2.906c0-.385.158-.755.44-1.027a1.525 1.525 0 0 1 1.06-.426h15c.398 0 .78.153 1.06.426.282.272.44.642.44 1.027v7.266m-9.75-5.813h1.5m4.5 13.079v-2.18c0-.578.237-1.133.659-1.541a2.288 2.288 0 0 1 1.591-.639c.597 0 1.169.23 1.591.639.422.408.659.963.659 1.54v2.18m-6 0h7.5v5.086h-7.5v-5.085Z"/></svg>