<svg xmlns="http://www.w3.org/2000/svg" fill="none" viewBox="0 0 24 24"><path stroke="currentColor" stroke-linecap="square" stroke-miterlimit="10" vector-effect="non-scaling-stroke" stroke-width="1.5" d="M11.25 15.009A30.581 30.581 0 0 0 10.5 15a20.78 20.78 0 0 0-8.42 1.532 2.244 2.244 0 0 0-1.33 2.055V22.5H13.5M5.25 6a5.25 5.25 0 1 1 10.5 0c0 2.9-2.35 6-5.25 6S5.25 8.9 5.25 6Zm17.28 8.994a2.405 2.405 0 0 0-3.78.392 2.404 2.404 0 0 0-3.78-.392 2.603 2.603 0 0 0 0 3.593l3.78 3.913 3.782-3.913a2.602 2.602 0 0 0-.001-3.593Z"/></svg>