<svg xmlns="http://www.w3.org/2000/svg" fill="none" viewBox="0 0 24 24"><path stroke="currentColor" stroke-linecap="square" stroke-miterlimit="10" vector-effect="non-scaling-stroke" stroke-width="1.5" d="M8.108 11.802V7.517h6.501v4.285M11.36 6.91V2.625h6.537V6.91m-6.537.607v1.525m3.268-6.112v1.525m.018 3.062h6.501v4.285m-6.5 0V7.651m3.25-.134v1.525M2.854 12.307V5.318h2.74v6.99m-2.688 5.255L.938 12.312h22.124l-2.054 5.25M.563 18.22a3.145 3.145 0 0 0 5.916 1.5 3.128 3.128 0 0 0 5.521 0 3.129 3.129 0 0 0 5.521 0 3.145 3.145 0 0 0 5.916-1.5"/></svg>