<svg xmlns="http://www.w3.org/2000/svg" fill="none" viewBox="0 0 24 24"><path fill="currentColor" d="M19.477 17.302a.75.75 0 1 0 1.223-.869l-.611.434-.612.434Zm-1.926-5.306a.75.75 0 1 0-1.223.868l.611-.434.612-.434Zm-14.18 4.437a.75.75 0 1 0 1.224.869l-.612-.434-.611-.435Zm4.374-3.57a.75.75 0 0 0-1.223-.867l.611.434.612.434Zm9.55-8.305v-.75h-1.5v.75h1.5Zm-.75 2.754v.75h.75v-.75h-.75Zm-2.934 0v-.75h-.01l.01.75Zm-2.838.6-.294-.69-.02.008-.02.01.334.672Zm-.595.296-.335-.671-.05.024-.046.033.43.614Zm-6.589.174.11-.742-.05-.007h-.05l-.01.749ZM.96 8.35l.01-.75-1.28-.016L.3 8.71l.658-.36Zm1.628 2.988-.659.359.213.39h.446v-.75Zm6.875 4.665-.744.092.081.658h.663v-.75Zm5.155 0v.75h.605l.128-.592-.733-.158Zm8.022-4.84v.75h.87l-.128-.86-.742.11Zm-8.003-8.15-.737-.139-.277 1.475.737.138.139-.737.138-.737Zm5.453 13.854.611-.434-3.149-4.437-.611.434-.612.434 3.15 4.438.61-.434Zm-16.106 0 .612.435 3.15-4.438-.612-.434-.611-.434-3.15 4.437.611.434Zm12.563-12.31h-.75v2.755h1.5V4.558h-.75Zm0 2.755v-.75H13.61v1.5h2.935v-.75Zm-2.935 0-.01-.75a8.27 8.27 0 0 0-3.122.66l.294.69.294.69a6.77 6.77 0 0 1 2.555-.54l-.011-.75Zm-2.838.6-.334-.672-.596.296.335.672.334.671.595-.296-.334-.671Zm-.595.296-.43-.614c-.946.662-1.962.766-3.004.652a13.239 13.239 0 0 1-1.56-.29C4.69 7.84 4.165 7.708 3.7 7.64l-.11.742-.109.742c.386.057.823.167 1.364.293a14.68 14.68 0 0 0 1.736.32c1.253.137 2.68.03 4.028-.915l-.43-.614Zm-6.589.174.01-.75L.969 7.6l-.01.75-.009.75 2.63.032.01-.75ZM.96 8.35l-.658.359 1.627 2.988.659-.36.658-.358-1.627-2.988-.659.359Zm1.628 2.988v.75h2.075v-1.5H2.587v.75Zm2.075 0v.75c.917 0 1.863.453 2.632 1.218.768.763 1.299 1.78 1.424 2.789l.744-.092.744-.092c-.17-1.381-.877-2.698-1.854-3.669-.976-.97-2.282-1.654-3.69-1.654v.75Zm4.8 4.665v.75h5.155v-1.5H9.462v.75Zm5.155 0 .733.158c.346-1.604 1.077-2.643 1.982-3.29.916-.657 2.078-.959 3.351-.959v-1.5c-1.5 0-2.991.356-4.224 1.239-1.245.89-2.16 2.272-2.575 4.194l.733.158Zm6.066-4.84v.75h1.956v-1.5h-1.956v.75Zm1.956 0a62.36 62.36 0 0 0 .741-.113v-.002l-.001-.007-.003-.02a5.446 5.446 0 0 0-.059-.29 8.313 8.313 0 0 0-.22-.774c-.215-.638-.58-1.5-1.19-2.408-1.23-1.832-3.43-3.814-7.271-4.536l-.138.737-.139.737c3.403.64 5.273 2.363 6.303 3.898.52.775.832 1.51 1.012 2.049a6.847 6.847 0 0 1 .216.798 2.185 2.185 0 0 1 .007.043v-.001c0-.001 0-.002.742-.112Zm-15.304 5.7h-.75A2.636 2.636 0 0 1 3.949 19.5V21a4.136 4.136 0 0 0 4.136-4.136h-.75ZM3.949 20.25v-.75a2.636 2.636 0 0 1-2.636-2.636h-1.5A4.136 4.136 0 0 0 3.949 21v-.75ZM.563 16.864h.75a2.636 2.636 0 0 1 2.636-2.637v-1.5a4.136 4.136 0 0 0-4.136 4.137h.75Zm3.386-3.387v.75a2.636 2.636 0 0 1 2.636 2.637h1.5a4.136 4.136 0 0 0-4.136-4.137v.75Zm19.488 3.387h-.75a2.636 2.636 0 0 1-2.636 2.636V21a4.136 4.136 0 0 0 4.137-4.136h-.75Zm-3.386 3.386v-.75a2.636 2.636 0 0 1-2.636-2.636h-1.5A4.136 4.136 0 0 0 20.051 21v-.75Zm-3.386-3.386h.75a2.636 2.636 0 0 1 2.636-2.637v-1.5a4.136 4.136 0 0 0-4.136 4.137h.75Zm3.386-3.387v.75a2.636 2.636 0 0 1 2.637 2.637h1.5a4.136 4.136 0 0 0-4.137-4.137v.75Z"/></svg>