<svg xmlns="http://www.w3.org/2000/svg" fill="none" viewBox="0 0 24 24"><path fill="currentColor" d="m1.323 16.772-.746-.077-.085.827h.831v-.75Zm.812-7.86-.486-.571-.23.195-.03.3.746.076ZM6.623 5.1v-.75h-.275l-.21.178.485.572Zm7.69 0 .57-.489-.225-.261h-.345v.75Zm4.436 5.165-.569.489.106.123.148.069.315-.68Zm2.72 1.26.73-.175-.085-.353-.33-.153-.315.68Zm1.254 5.247v.75h.95l-.22-.924-.73.174Zm-14.849-.647h-.75v1.5h.75v-1.5Zm8.25 1.5h.75v-1.5h-.75v1.5ZM2.7 16.65h-.75.75Zm13.5 0h.75-.75Zm2.4-2.4v-.75.75Zm2.4 2.4h.75H21Zm-2.4 2.4v-.75.75ZM2.457 8.303l-.747-.057-.115 1.495.748.058.057-.748.057-.748Zm15.864 2.724.748.057.115-1.496-.748-.057-.057.748-.058.748ZM2.48 16.772v-.75H1.323v1.5h1.156v-.75Zm-1.156 0 .746.077.812-7.86-.746-.077-.747-.077-.811 7.86.746.077Zm.812-7.86.485.572 4.49-3.812-.486-.572-.485-.572-4.49 3.813.486.571ZM6.623 5.1v.75h7.69v-1.5h-7.69v.75Zm7.69 0-.569.489 4.436 5.165.569-.489.569-.488-4.435-5.166-.57.489Zm4.436 5.165-.315.68 2.72 1.26.315-.68.315-.681-2.72-1.26-.315.681Zm2.72 1.26-.73.174 1.255 5.248.73-.175.729-.174L22.2 11.35l-.73.175Zm1.254 5.247v-.75H21v1.5h1.724v-.75Zm-14.849.103v.75h8.25v-1.5h-8.25v.75ZM2.7 16.65h.75c0-.438.174-.857.483-1.167l-.53-.53-.53-.53a3.15 3.15 0 0 0-.923 2.227h.75Zm.703-1.697.53.53c.31-.31.73-.483 1.167-.483v-1.5a3.15 3.15 0 0 0-2.227.923l.53.53ZM5.1 14.25V15c.438 0 .857.174 1.167.483l.53-.53.53-.53A3.15 3.15 0 0 0 5.1 13.5v.75Zm1.697.703-.53.53c.31.31.483.73.483 1.167h1.5a3.15 3.15 0 0 0-.923-2.227l-.53.53ZM7.5 16.65h-.75c0 .438-.174.857-.483 1.167l.53.53.53.53a3.15 3.15 0 0 0 .923-2.227H7.5Zm-.703 1.697-.53-.53c-.31.31-.73.483-1.167.483v1.5a3.15 3.15 0 0 0 2.227-.923l-.53-.53ZM5.1 19.05v-.75a1.65 1.65 0 0 1-1.167-.483l-.53.53-.53.53A3.15 3.15 0 0 0 5.1 19.8v-.75Zm-1.697-.703.53-.53a1.65 1.65 0 0 1-.483-1.167h-1.5c0 .835.332 1.637.923 2.227l.53-.53ZM16.2 16.65h.75c0-.217.043-.431.126-.631l-.693-.287-.693-.287a3.15 3.15 0 0 0-.24 1.205h.75Zm.183-.918.693.287c.082-.2.204-.382.357-.536l-.53-.53-.53-.53a3.15 3.15 0 0 0-.683 1.022l.693.287Zm.52-.78.53.531a1.65 1.65 0 0 1 .536-.357l-.287-.693-.287-.693a3.15 3.15 0 0 0-1.022.683l.53.53Zm.779-.52.287.694c.2-.083.414-.126.631-.126v-1.5a3.15 3.15 0 0 0-1.206.24l.288.693Zm.918-.182V15c.217 0 .431.043.631.126l.287-.693.287-.693a3.15 3.15 0 0 0-1.205-.24v.75Zm.918.183-.287.693c.2.083.382.204.536.357l.53-.53.53-.53a3.15 3.15 0 0 0-1.022-.683l-.287.693Zm.78.52-.531.53c.153.153.274.335.357.536l.693-.287.693-.287a3.15 3.15 0 0 0-.683-1.022l-.53.53Zm.52.779-.694.287c.083.2.126.414.126.631h1.5a3.15 3.15 0 0 0-.24-1.205l-.693.287Zm.182.918h-.75c0 .438-.174.857-.483 1.167l.53.53.53.53a3.15 3.15 0 0 0 .923-2.227H21Zm-.703 1.697-.53-.53c-.31.31-.73.483-1.167.483v1.5a3.15 3.15 0 0 0 2.227-.923l-.53-.53Zm-1.697.703v-.75a1.65 1.65 0 0 1-1.167-.483l-.53.53-.53.53a3.15 3.15 0 0 0 2.227.923v-.75Zm-1.697-.703.53-.53a1.65 1.65 0 0 1-.483-1.167h-1.5c0 .835.332 1.637.923 2.227l.53-.53ZM2.4 9.051l-.057.748 15.978 1.228.058-.748.057-.748L2.457 8.303l-.057.748Z"/></svg>