<svg xmlns="http://www.w3.org/2000/svg" fill="none" viewBox="0 0 24 24"><path stroke="currentColor" stroke-miterlimit="10" vector-effect="non-scaling-stroke" stroke-width="1.5" d="M.75 9.75v7.5c0 .825.675 1.5 1.5 1.5H3m-2.25-9h9.75m-9.75 0V7.5c0-.825.675-1.5 1.5-1.5H9c.825 0 1.5.675 1.5 1.5v2.25m-7.5 9a3 3 0 1 0 6 0m-6 0a3 3 0 1 1 6 0m1.5-9V15h5.25V2.25h-3m9.225 14.025-3-8.775M9 18.75h8.25m0 0a3 3 0 1 0 6 0 3 3 0 0 0-6 0ZM21 7.5h-2.625A1.857 1.857 0 0 1 16.5 5.625c0-1.05.825-1.875 1.875-1.875H21V7.5Z"/></svg>