<svg xmlns="http://www.w3.org/2000/svg" fill="none" viewBox="0 0 24 24"><path fill="currentColor" d="m20.78 6.587.738-.134-.738.134ZM19.178 5.25l.001-.75v.75Zm-8.135 0V4.5h-.001v.75Zm11.87 11.396v-.75h-1.5v.75h1.5Zm-.75 2.714v.75h.75v-.75h-.75Zm-3.254 0h-.75v.75h.75v-.75Zm.75-2.714v-.75h-1.5v.75h1.5Zm-6.935-6.176h-.75v1.5h.75v-1.5Zm9.012.75.55-.51-.223-.24h-.327v.75Zm1.07 1.15.552-.506-.003-.004-.55.51Zm.442 1.153-.75-.006v.006h.75Zm0 3.123v.75h.75v-.75h-.75Zm-7.566-.75h-.75v1.5h.75v-1.5Zm4.943-1.646h.75-.75Zm-.188-.325.375-.65-.375.65ZM5.553 9.686l.648.378-.648-.378Zm3.694 0-.648.378.648-.378Zm3.761 6.448-.647.378.647-.378Zm-1.847 3.216v-.75.75Zm-7.523 0v.75-.75Zm-1.847-3.216.648.378-.648-.378ZM7.392 12l.654-.368a.75.75 0 0 0-1.308 0l.654.368Zm2.742 4.875v.75a.75.75 0 0 0 .654-1.118l-.654.368Zm-5.484 0-.654-.368a.75.75 0 0 0 .654 1.118v-.75Zm16.972-5.655.738-.134-.842-4.633-.738.134-.738.134.842 4.633.738-.134Zm-.842-4.633.738-.135a2.38 2.38 0 0 0-.816-1.399l-.48.576-.482.576a.88.88 0 0 1 .302.517l.738-.135Zm-.559-.958.48-.576A2.38 2.38 0 0 0 19.18 4.5v.75l-.002.75a.88.88 0 0 1 .564.205l.48-.576Zm-1.043-.379V4.5h-8.135V6h8.135v-.75Zm-8.135 0-.001-.75a2.38 2.38 0 0 0-1.523.553l.481.576.48.576A.88.88 0 0 1 11.045 6l-.001-.75ZM10 5.629l-.48-.576a2.38 2.38 0 0 0-.817 1.4l.738.134.738.135a.88.88 0 0 1 .302-.517L10 5.629Zm12.164 11.017h-.75v2.714h1.5v-2.714h-.75Zm0 2.714v-.75h-3.255v1.5h3.255v-.75Zm-3.255 0h.75v-2.714h-1.5v2.714h.75Zm-6.185-8.14v.75h9.012v-1.5h-9.012v.75Zm9.012 0-.55.51 1.07 1.15.55-.51.549-.51-1.07-1.15-.549.51Zm1.07 1.15-.554.507c.16.175.248.403.246.64l.75.006.75.005a2.437 2.437 0 0 0-.64-1.664l-.553.506Zm.442 1.153h-.75v3.123h1.5v-3.123h-.75Zm0 3.123v-.75h-7.566v1.5h7.566v-.75Zm-2.623-2.396h-.75c0-.082.027-.163.077-.228l.595.456.596.457c.15-.197.232-.438.232-.685h-.75Zm-.078.228-.595-.456a.375.375 0 0 1 .2-.134l.195.724.194.725c.24-.065.45-.206.602-.402l-.596-.457Zm-.2.134-.194-.724a.375.375 0 0 1 .24.015l-.287.694-.286.693c.229.094.482.11.721.047l-.194-.725Zm-.24-.015.286-.694c.077.032.14.088.182.16l-.65.375-.65.375c.125.214.316.382.545.476l.287-.692Zm-.182-.16.65-.375a.375.375 0 0 1 .047.237l-.744-.098-.744-.097c-.032.245.018.494.142.709l.65-.375Zm-.047-.236.744.098a.375.375 0 0 1-.107.216l-.53-.53-.531-.53a1.125 1.125 0 0 0-.32.649l.744.097Zm.107-.216.53.53a.375.375 0 0 1-.216.107l-.098-.744-.099-.743a1.125 1.125 0 0 0-.648.32l.53.53Zm.216-.107.098.744a.375.375 0 0 1-.236-.047l.374-.65.375-.65a1.125 1.125 0 0 0-.71-.14l.099.743Zm.236.047-.375.65a.374.374 0 0 1-.137-.137l.65-.376.649-.375a1.125 1.125 0 0 0-.412-.411l-.375.65Zm.137.137-.649.376a.374.374 0 0 1-.05-.188h1.5c0-.198-.052-.392-.151-.563l-.65.375ZM5.553 9.686l.648.378c.122-.21.297-.384.507-.505l-.373-.65-.374-.65a2.888 2.888 0 0 0-1.056 1.05l.648.377Zm.782-.777.373.65a1.4 1.4 0 0 1 .692-.184v-1.5c-.505 0-1.001.132-1.439.384l.374.65ZM7.4 8.625v.75c.243 0 .481.064.691.184l.374-.65.374-.65a2.888 2.888 0 0 0-1.44-.384v.75Zm1.065.284-.374.65c.21.121.386.295.508.505l.648-.378.648-.378a2.888 2.888 0 0 0-1.056-1.05l-.374.651Zm.782.777-.648.378 3.762 6.448.647-.378.648-.378-3.761-6.448-.648.378Zm3.761 6.448-.647.378c.123.21.188.45.189.695l.75-.003.75-.002a2.889 2.889 0 0 0-.394-1.446l-.648.378Zm.292 1.07-.75.003c0 .244-.063.484-.185.696l.65.374.651.373c.253-.44.386-.94.384-1.448l-.75.002Zm-.284 1.073-.65-.374a1.388 1.388 0 0 1-.51.51l.376.65.376.649c.44-.255.805-.62 1.058-1.062l-.65-.373Zm-.784.785-.375-.649a1.388 1.388 0 0 1-.696.187v1.5a2.89 2.89 0 0 0 1.447-.388l-.376-.65Zm-1.071.288v-.75H3.638v1.5h7.523v-.75Zm-7.523 0v-.75a1.39 1.39 0 0 1-.695-.187l-.376.65-.376.648c.44.255.939.389 1.447.389v-.75Zm-1.071-.288.376-.649a1.389 1.389 0 0 1-.509-.51l-.65.373-.65.374c.253.44.617.807 1.057 1.061l.376-.649Zm-.783-.786.65-.373a1.388 1.388 0 0 1-.184-.696l-.75-.003-.75-.002c-.002.508.13 1.007.383 1.448l.65-.373ZM1.5 17.204l.75.003c0-.244.066-.484.19-.695l-.649-.378-.647-.378a2.889 2.889 0 0 0-.394 1.446l.75.002Zm.291-1.07.648.378 3.762-6.448-.648-.378-.648-.378-3.762 6.448.648.378ZM7.392 12l-.654.368 2.743 4.875.653-.368.654-.368-2.742-4.875-.654.368Zm2.742 4.875v-.75H4.65v1.5h5.484v-.75Zm-5.484 0 .654.368 2.742-4.875L7.392 12l-.654-.368-2.742 4.875.654.368Z"/></svg>