<svg xmlns="http://www.w3.org/2000/svg" fill="none" viewBox="0 0 24 24"><path stroke="currentColor" stroke-linecap="square" vector-effect="non-scaling-stroke" stroke-width="1.5" d="M3 18.75h-.75a1.5 1.5 0 0 1-1.5-1.5V7.5A1.5 1.5 0 0 1 2.25 6H9a1.5 1.5 0 0 1 1.5 1.5V15h5.25V2.25h-3M3 18.75a3 3 0 1 0 6 0m-6 0a3 3 0 1 1 6 0m12.375-3-2.25-7.5M9 18.75h8.25m0 0a3 3 0 1 0 6 0 3 3 0 0 0-6 0ZM21 7.5h-2.625A1.86 1.86 0 0 1 16.5 5.625a1.859 1.859 0 0 1 1.875-1.875H21V7.5ZM5.625 9.75l.278.842.847.019-.674.537.244.852-.695-.51-.695.51.244-.852-.674-.537.847-.019.278-.842Z"/></svg>