<svg xmlns="http://www.w3.org/2000/svg" fill="none" viewBox="0 0 24 24"><path stroke="currentColor" stroke-linecap="square" vector-effect="non-scaling-stroke" stroke-width="1.5" d="M5.25 12 12 18.75m0-13.5L18.75 12M7.19 21.44l-4.63-4.63a1.5 1.5 0 0 1 0-2.12L14.69 2.56a1.5 1.5 0 0 1 2.12 0l4.63 4.63a1.5 1.5 0 0 1 0 2.12L9.31 21.44a1.5 1.5 0 0 1-2.12 0Zm5.185-11.69a.375.375 0 1 1-.75 0 .375.375 0 0 1 .75 0Zm2.25 2.25a.375.375 0 1 1-.75 0 .375.375 0 0 1 .75 0Zm-4.5 0a.375.375 0 1 1-.75 0 .375.375 0 0 1 .75 0Zm2.25 2.25a.375.375 0 1 1-.75 0 .375.375 0 0 1 .75 0Z"/></svg>