<svg xmlns="http://www.w3.org/2000/svg" fill="none" viewBox="0 0 24 24"><g stroke="currentColor" stroke-linecap="square" stroke-miterlimit="10" vector-effect="non-scaling-stroke" stroke-width="1.5"><path d="M8.407 8.246c1.24-.065 2.177-1.46 2.09-3.114-.087-1.654-1.163-2.943-2.404-2.878-1.24.065-2.177 1.46-2.09 3.114.087 1.654 1.163 2.943 2.404 2.878ZM3.474 13.44c.99-.305 1.446-1.675 1.02-3.06-.427-1.387-1.575-2.263-2.564-1.958-.99.304-1.447 1.674-1.02 3.06.426 1.386 1.574 2.262 2.564 1.957ZM22.07 8.422c-.99-.305-2.137.571-2.564 1.957-.426 1.386.03 2.756 1.02 3.06.99.305 2.138-.571 2.565-1.957.426-1.386-.03-2.756-1.02-3.06Zm-6.483-.176c1.241.067 2.32-1.22 2.41-2.874.09-1.654-.844-3.05-2.084-3.118-1.241-.067-2.32 1.22-2.41 2.874-.09 1.654.844 3.05 2.084 3.118Zm-7.869 4.749-1.98 3.741c-1.651 3.119 1.175 6.794 4.227 5.496l.173-.072a4.733 4.733 0 0 1 3.725 0l.172.072c3.052 1.298 5.878-2.377 4.227-5.496l-1.98-3.74c-2.06-3.328-6.503-3.328-8.564 0Z"/></g></svg>