<svg xmlns="http://www.w3.org/2000/svg" fill="none" viewBox="0 0 24 24"><path stroke="currentColor" stroke-linecap="round" stroke-linejoin="round" vector-effect="non-scaling-stroke" stroke-width="1.5" d="M15.075 11.715c1.875 0 3.375.6 5.25-.525 1.59-1.06 2.056-2.419 2.193-3.29.076-.484-.179-.95-.597-1.205-1.556-.945-3.15-1.452-4.944-2.288-.263-.123-.476-.33-.655-.557-1.297-1.648-4.21-2.578-5.874-2.578C7.575.897 4.95 1.965 3.45 4.965L2 8.587a1.51 1.51 0 0 0-.078.264c-.372 1.857 1.043 3.614 2.936 3.614h.466a3 3 0 0 0 3-3V5.34M1.2 18.09s1.5-1.231 2.625-3.75c.502-1.125.75-1.875.75-1.875m15.75 10.182s-1.431-.77-2.326-3.31a.771.771 0 0 1-.029-.376c.872-5.43-4.492-8.316-4.99-8.587-.707-.387-1.033.364-1.506 1.653-.08.218-.21.416-.418.52-.46.228-1.228.47-1.606.725-1.372.928-2.375 2.647-2.625 3-.249.352.084 1.42.375 1.875.74 1.155 2.119 1.579 4.153 1.7.196.011-1.657 2.149-2.406 3.214m1.803-7.546.7-.4m2.34-9.542h-.991"/></svg>