<svg xmlns="http://www.w3.org/2000/svg" fill="none" viewBox="0 0 24 24"><path fill="currentColor" d="m21.75 16.365.75.01v-.01h-.75Zm-7.31 0h-.75v.01l.75-.01ZM8.21 9.692h-.75v1.5h.75v-1.5Zm4.565-3.814h.75v-.011l-.75.01ZM8.209 1.312l.012-.75H8.21v.75Zm-4.3 3.03-.706-.252-.003.01-.004.011.714.232Zm-.122 2.313.738-.134-.002-.01-.002-.01-.734.154Zm.805 4.429.739-.132v-.003l-.739.135Zm.855 5.093.744-.09v-.003l-.744.093ZM2.25 17.85H1.5v1.5h.75v-1.5Zm7.383-7.54-.132-.738-1.476.264.132.739.738-.133.738-.132Zm.487 6.972.74-.125-.002-.008-.738.133Zm-.23 3.315.674.33.025-.05.017-.054-.716-.226Zm-3.35 1.34h-.75v1.5h.75v-1.5Zm15.21-11.5v.75h2.082l-1.604-1.328-.478.578Zm-2.437.097-.651.371c.566.992 1.161 2.105 1.613 3.12.47 1.054.725 1.878.725 2.34h1.5c0-.818-.391-1.908-.855-2.95-.48-1.08-1.103-2.242-1.68-3.253l-.652.372Zm2.437 5.831-.75-.01a3.403 3.403 0 0 1-1.012 2.376l.526.534.527.534a4.903 4.903 0 0 0 1.459-3.424l-.75-.01Zm-1.236 2.9-.526-.534c-.343.338-.593.5-.838.59-.254.095-.565.138-1.078.138v1.5c.58 0 1.1-.045 1.6-.231.51-.19.934-.5 1.369-.929l-.527-.534Zm-2.442.944v-.75c-.513 0-.81-.043-1.048-.135-.232-.088-.472-.248-.822-.593l-.527.534-.527.534c.428.422.84.735 1.34.926.492.189 1.005.234 1.584.234v-.75Zm-2.397-.944.527-.534a3.403 3.403 0 0 1-1.013-2.376l-.75.01-.75.01a4.903 4.903 0 0 0 1.46 3.424l.526-.534Zm-1.236-2.9h.75c0-.46.255-1.281.723-2.333.45-1.013 1.044-2.125 1.609-3.115l-.652-.372-.651-.372c-.576 1.01-1.198 2.171-1.677 3.25-.462 1.039-.851 2.127-.851 2.942h.75ZM8.21 10.442v.75c1.41 0 2.761-.56 3.758-1.556l-.53-.53-.53-.531A3.814 3.814 0 0 1 8.21 9.692v.75Zm3.228-1.337.53.53a5.315 5.315 0 0 0 1.557-3.757h-1.5a3.814 3.814 0 0 1-1.117 2.697l.53.53Zm1.337-3.227.75-.011a5.385 5.385 0 0 0-1.577-3.728l-.53.53-.53.53a3.885 3.885 0 0 1 1.137 2.69l.75-.011ZM11.418 2.67l.53-.53A5.385 5.385 0 0 0 8.221.562l-.011.75-.012.75a3.885 3.885 0 0 1 2.69 1.137l.53-.53ZM8.21 1.313v-.75a5.315 5.315 0 0 0-3.063.97l.432.613.432.613a3.815 3.815 0 0 1 2.198-.696v-.75Zm-2.63.833-.433-.613A5.315 5.315 0 0 0 3.203 4.09l.707.253.706.252a3.815 3.815 0 0 1 1.395-1.836l-.432-.613ZM3.91 4.343l-.714-.232a5.243 5.243 0 0 0-.143 2.698l.734-.154.734-.155c-.135-.64-.1-1.304.102-1.926l-.713-.231Zm-.123 2.312-.738.134.805 4.429.738-.134.738-.135-.805-4.428-.738.134Zm.805 4.429-.738.13v.004l.002.009a17.898 17.898 0 0 1 .03.166 411.712 411.712 0 0 1 .349 2c.2 1.159.41 2.411.467 2.877l.745-.093.744-.093c-.064-.509-.281-1.803-.478-2.947A452.141 452.141 0 0 0 5.339 11l-.006-.035-.002-.009v-.002l-.739.13Zm.855 5.093-.745.09c.062.512-.491 1.583-2.452 1.583v1.5c2.407 0 4.158-1.461 3.941-3.263l-.744.09Zm3.448-5.735-.738.133 1.224 6.839.739-.133.738-.132-1.225-6.839-.738.132Zm1.225 6.84-.74.124a6.355 6.355 0 0 1-.205 2.966l.715.225.716.226a7.851 7.851 0 0 0 .253-3.666l-.74.125Zm-.23 3.315-.673-.33a2.98 2.98 0 0 1-1.1 1.219l.397.636.397.637a4.48 4.48 0 0 0 1.653-1.832l-.674-.33Zm-1.376 1.525-.397-.636a2.98 2.98 0 0 1-1.578.451v1.5a4.48 4.48 0 0 0 2.372-.678l-.397-.637Zm-.982-11.685v.75H21.75v-1.5H7.532v.75Zm14.218 0 .478-.578a21.171 21.171 0 0 0-9.188-4.42l-.153.735-.152.734a19.67 19.67 0 0 1 8.537 4.107l.478-.578ZM7.181 5.859h.75c0-.028.011-.055.031-.075l-.53-.53-.53-.53a1.6 1.6 0 0 0-.47 1.135h.75Zm.25-.605.531.53a.106.106 0 0 1 .075-.03v-1.5a1.6 1.6 0 0 0-1.135.47l.53.53Zm.606-.25v.75c.028 0 .055.01.075.03l.53-.53.53-.53a1.606 1.606 0 0 0-1.135-.47v.75Zm.605.25-.53.53c.02.02.03.047.03.075h1.5a1.6 1.6 0 0 0-.47-1.135l-.53.53Z"/></svg>