<svg xmlns="http://www.w3.org/2000/svg" fill="none" viewBox="0 0 24 24"><path fill="currentColor" d="M3.376 15h-.75l-.002 1.5h.75l.001-.75V15Zm4.855 5.25-.748.058.054.692h.694v-.75Zm6.769 0V21h.375l.225-.3-.6-.45Zm4.5-6 .6.45.192-.256-.052-.317-.74.123ZM17.387 1.5l.74-.123-.105-.627h-.635v.75ZM14.25.75h-.75v1.5h.75V.75Zm-9 19.875H4.5c0 .621-.504 1.125-1.125 1.125v1.5A2.625 2.625 0 0 0 6 20.625h-.75ZM3.375 22.5v-.75a1.125 1.125 0 0 1-1.125-1.125H.75a2.625 2.625 0 0 0 2.625 2.625v-.75ZM1.5 20.625h.75c0-.621.504-1.125 1.125-1.125V18A2.625 2.625 0 0 0 .75 20.625h.75Zm1.875-1.875v.75c.621 0 1.125.504 1.125 1.125H6A2.625 2.625 0 0 0 3.375 18v.75ZM22.5 20.625h-.75c0 .621-.504 1.125-1.125 1.125v1.5a2.625 2.625 0 0 0 2.625-2.625h-.75ZM20.625 22.5v-.75a1.125 1.125 0 0 1-1.125-1.125H18a2.625 2.625 0 0 0 2.625 2.625v-.75Zm-1.875-1.875h.75c0-.621.504-1.125 1.125-1.125V18A2.625 2.625 0 0 0 18 20.625h.75Zm1.875-1.875v.75c.621 0 1.125.504 1.125 1.125h1.5A2.625 2.625 0 0 0 20.625 18v.75Zm-13.736-1.5V18H17.25v-1.5H6.889v.75Zm-3.514-1.5v.75c1.038 0 2.038.393 2.8 1.1l.51-.55.509-.55A5.625 5.625 0 0 0 3.376 15l-.001.75Zm3.31 1.3-.51.55a4.125 4.125 0 0 1 1.308 2.708l.748-.058.748-.058A5.625 5.625 0 0 0 7.194 16.5l-.51.55Zm1.546 3.2V21H15v-1.5H8.231v.75Zm6.769 0 .6.45 4.5-6-.6-.45-.6-.45-4.5 6 .6.45Zm4.5-6 .74-.123-2.114-12.75-.74.123-.74.123 2.114 12.75.74-.123ZM17.387 1.5V.75H14.25v1.5h3.137V1.5Z"/></svg>