<svg xmlns="http://www.w3.org/2000/svg" fill="none" viewBox="0 0 24 24"><path fill="currentColor" d="M1.633 18.63h.75-.75Zm1.382 2.133h.75v-1.5h-.75v1.5Zm8.769-3.305-.476.579.207.17h.269v-.75Zm3.672-15.009h.75V1.7h-.75v.75ZM12.69 1.7h-.75v1.5h.75V1.7ZM1.633 14.937v-.75h-.75v.75h.75Zm7.085 0 .476-.58-.207-.17h-.269v.75Zm6.738 2.52v.75h.75v-.75h-.75Zm-13.823-5.4h-.75v.75h.75v-.75Zm2.733-2.514h-.75v.75h.75v-.75Zm5.055 0v-.75.75ZM1.633 3.085h-.75.75Zm19.419 4.112h.75v-.75h-.75v.75Zm-4.687-.75h-.75v1.5h.75v-1.5Zm0 5.641h-.75v1.5h.75v-1.5ZM1.633 18.631h-.75c0 .565.225 1.108.625 1.508l.53-.53.53-.531a.632.632 0 0 1-.185-.447h-.75Zm.405.977-.53.53c.4.4.942.625 1.507.625v-1.5a.632.632 0 0 1-.447-.185l-.53.53ZM15.456 2.45V1.7H12.69v1.5h2.765v-.75ZM1.633 14.937h-.75v3.694h1.5v-3.694h-.75Zm7.085 0-.476.579 3.066 2.521.476-.58.476-.579-3.066-2.52-.476.579Zm-7.085 0v.75h2.42v-1.5h-2.42v.75Zm2.42 0v.75h4.665v-1.5H4.052v.75Zm0 0h.75V12.39h-1.5v2.547h.75Zm7.731 2.52v.75h3.672v-1.5h-3.672v.75Zm-3.3 2.562h-.75a1.64 1.64 0 0 1-1.638 1.64v1.5a3.14 3.14 0 0 0 3.139-3.14h-.75Zm-2.388 2.39v-.75a1.64 1.64 0 0 1-1.64-1.64h-1.5a3.14 3.14 0 0 0 3.14 3.14v-.75Zm-2.39-2.39h.75c0-.905.734-1.64 1.64-1.64v-1.5a3.14 3.14 0 0 0-3.14 3.14h.75Zm2.39-2.39v.75a1.64 1.64 0 0 1 1.639 1.64h1.5a3.14 3.14 0 0 0-3.14-3.14v.75Zm16.578 2.39h-.75a1.64 1.64 0 0 1-1.639 1.64v1.5a3.14 3.14 0 0 0 3.14-3.14h-.75Zm-2.389 2.39v-.75a1.64 1.64 0 0 1-1.639-1.64h-1.5a3.14 3.14 0 0 0 3.14 3.14v-.75Zm-2.389-2.39h.75c0-.905.734-1.64 1.64-1.64v-1.5a3.14 3.14 0 0 0-3.14 3.14h.75Zm2.39-2.39v.75a1.64 1.64 0 0 1 1.638 1.64h1.5a3.14 3.14 0 0 0-3.139-3.14v.75ZM8.877 20.02v.75h8.876v-1.5H8.878v.75Zm1.293-9.726h-.75v1.014h1.5v-1.014h-.75Zm-.75 1.764v-.75H1.633v1.5h7.788v-.75Zm-5.055-8.97h-.75v6.456h1.5V3.087h-.75Zm0 6.456v.75H9.42v-1.5H4.366v.75Zm-.75-7.206v-.75H2.383v1.5h1.233v-.75Zm-1.983.748h-.75v8.972h1.5V3.085h-.75Zm2.733.002h.75a1.5 1.5 0 0 0-1.5-1.5v1.5h.75Zm5.805 8.22h-.75v1.5a1.5 1.5 0 0 0 1.5-1.5h-.75Zm-7.788-8.97v-.75c-.825 0-1.5.667-1.5 1.498h1.5v.002h-.001.001v-.75Zm7.788 7.956h.75a1.5 1.5 0 0 0-1.5-1.5v1.5h.75Zm7.769 2.597-.708.248 1.723 4.92.708-.249.708-.248-1.723-4.919-.708.248Zm3.112-5.693v-.75h-4.687v1.5h4.687v-.75Zm-4.687 5.641v.75h1.687v-1.5h-1.687v.75Zm4.687-3h.75v-2.64h-1.5v2.64h.75Zm-3 3v.75a3.75 3.75 0 0 0 3.75-3.75h-1.5a2.25 2.25 0 0 1-2.25 2.25v.75Zm-2.596 4.62h.75V2.449h-1.5v15.009h.75Z"/></svg>