<svg xmlns="http://www.w3.org/2000/svg" fill="none" viewBox="0 0 24 24"><path fill="currentColor" d="M5.25 7.5v.75h1.5V7.5h-1.5ZM6 2.25V1.5h-.75v.75H6Zm3.75 0h.75V1.5h-.75v.75ZM9 7.5v.75h1.5V7.5H9Zm-5.25 0v-.75H3v.75h.75Zm12.75 0 .624-.416-.223-.334H16.5v.75ZM3.048 18.263l.263.703 1.405-.527-.264-.702L3.75 18l-.702.263ZM1.5 12v-.75H.418l.38 1.013L1.5 12Zm21 0 .636.398.717-1.148H22.5V12Zm-4.386 5.602-.398.636 1.272.796.398-.636L18.75 18l-.636-.398ZM1.5 18.75V18H0v.75h1.5Zm4.875 1.424.659-.358-.659-1.21-.659 1.21.659.358Zm5.25 0 .659-.358-.659-1.21-.659 1.21.659.358Zm5.25 0 .659-.358-.659-1.21-.659 1.21.659.358Zm6.375-1.424V18h-1.5v.75h1.5ZM6 7.5h.75V2.25h-1.5V7.5H6Zm0-5.25V3h3.75V1.5H6v.75Zm3.75 0H9V7.5h1.5V2.25h-.75Zm-6 9.75h.75V7.5H3V12h.75Zm0-4.5v.75H16.5v-1.5H3.75v.75Zm12.75 0-.624.416 3 4.5L19.5 12l.624-.416-3-4.5-.624.416ZM3.75 18l.702-.263-2.25-6L1.5 12l-.702.263 2.25 6L3.75 18ZM1.5 12v.75h21v-1.5h-21V12Zm21 0-.636-.398-3.75 6 .636.398.636.398 3.75-6L22.5 12ZM.75 18.75H0a3.75 3.75 0 0 0 1.098 2.652l.53-.53.531-.531A2.25 2.25 0 0 1 1.5 18.75H.75Zm.879 2.121-.53.53A3.75 3.75 0 0 0 3.75 22.5V21a2.25 2.25 0 0 1-1.591-.659l-.53.53Zm2.121.879v.75c1.43 0 2.653-.807 3.284-1.967l-.659-.359-.659-.358A2.237 2.237 0 0 1 3.75 21v.75Zm2.625-1.576-.659.359A3.737 3.737 0 0 0 9 22.5V21c-.846 0-1.58-.475-1.966-1.184l-.659.358ZM9 21.75v.75c1.43 0 2.653-.807 3.284-1.967l-.659-.359-.659-.358A2.237 2.237 0 0 1 9 21v.75Zm2.625-1.576-.659.359A3.737 3.737 0 0 0 14.25 22.5V21c-.846 0-1.58-.475-1.966-1.184l-.659.358Zm2.625 1.576v.75c1.43 0 2.653-.807 3.284-1.967l-.659-.359-.659-.358A2.237 2.237 0 0 1 14.25 21v.75Zm2.625-1.576-.659.359A3.737 3.737 0 0 0 19.5 22.5V21c-.846 0-1.58-.475-1.966-1.184l-.659.358ZM19.5 21.75v.75a3.75 3.75 0 0 0 2.652-1.098l-.53-.53-.531-.531A2.25 2.25 0 0 1 19.5 21v.75Zm2.121-.879.53.53a3.75 3.75 0 0 0 1.099-2.651h-1.5a2.25 2.25 0 0 1-.659 1.591l.53.53Z"/></svg>