<svg xmlns="http://www.w3.org/2000/svg" fill="none" viewBox="0 0 24 24"><path fill="currentColor" d="M15.323 16.163v.75h.571l.152-.55-.723-.2Zm-12.248 0-.697.278.189.472h.508v-.75Zm-2.25-5.642v-.75H-.282l.41 1.028.697-.278Zm9.8 0v.75h.26l.204-.16-.463-.59Zm5.004-3.932v-.75h-.26l-.203.16.463.59Zm7.151 6.58.731-.17-.73.17Zm-.269.338v.75h.001v-.75Zm-7.72-9.753.712-.235-.17-.515h-.542v.75ZM1.285 17.2l-.395-.638a.74.74 0 0 0-.03.02l.425.618Zm-.723 1.354.75.011v-.002l-.75-.009Zm1.67 1.695v-.75.75Zm6.742 0V21v-.75Zm1.18-.489.531.53a.94.94 0 0 0 .017-.017l-.547-.513Zm9.85.485v-.75.75ZM.727 7.896h-.75v1.5h.75v-1.5Zm9.026 1.5h.75v-1.5h-.75v1.5Zm10.502 4.111v-.75c-1.143 0-2.358.178-3.386.655-1.043.485-1.925 1.3-2.27 2.552l.723.2.723.199c.201-.729.708-1.242 1.457-1.59.764-.355 1.742-.515 2.753-.515v-.75Zm-4.933 2.656v-.75H3.075v1.5h12.248v-.75Zm-12.248 0 .697-.278-2.25-5.642-.697.278-.697.278 2.25 5.642.697-.278Zm-2.25-5.642v.75h9.8v-1.5h-9.8v.75Zm9.8 0 .464.59 5.004-3.932-.464-.59-.463-.59-5.004 3.932.464.59Zm5.004-3.932v.75c2.588 0 4.13 1.309 5.072 2.723.962 1.443 1.277 2.966 1.349 3.276l.73-.17.731-.17c-.072-.309-.433-2.075-1.561-3.768-1.147-1.72-3.11-3.39-6.32-3.39v.75Zm7.151 6.58-.73.168a.473.473 0 0 1 0-.21l.73.165.732.165c.034-.15.034-.307 0-.457l-.732.168Zm0 .123-.73-.165a.472.472 0 0 1 .09-.19l.587.466.588.466c.096-.12.163-.261.197-.412l-.731-.165Zm-.053.11-.587-.466a.47.47 0 0 1 .165-.131l.326.675.327.675c.139-.067.26-.165.357-.286l-.588-.466Zm-.096.078-.326-.675a.474.474 0 0 1 .205-.047l.001.75.001.75c.155 0 .307-.036.446-.103l-.327-.675Zm-.12.027v-.75h-2.255v1.5h2.255v-.75ZM15.618 6.26l.712-.235-.827-2.505-.712.235-.713.235.828 2.505.712-.235Zm-.827-2.505v-.75h-3.384v1.5h3.384v-.75ZM3.367 15.91l-.395-.638L.89 16.563l.395.638.395.637 2.083-1.29-.396-.638ZM1.285 17.2l-.426-.617a2.42 2.42 0 0 0-.762.854l.662.353.661.353a.92.92 0 0 1 .29-.325l-.425-.617Zm-.526.59-.662-.353a2.42 2.42 0 0 0-.285 1.109l.75.009.75.01a.92.92 0 0 1 .108-.422l-.66-.353Zm-.197.765-.75-.011c-.004.32.055.64.174.937l.696-.28.696-.279a.92.92 0 0 1-.066-.356l-.75-.011Zm.12.647-.696.28c.12.297.297.568.523.797l.534-.527.534-.526a.92.92 0 0 1-.199-.303l-.696.279Zm.36.55-.533.527c.225.228.493.41.79.533l.289-.692.29-.691a.92.92 0 0 1-.301-.203l-.534.526Zm.546.369-.29.691c.296.124.614.188.935.188v-1.5a.92.92 0 0 1-.356-.071l-.29.692Zm.645.129V21h6.741v-1.5H2.233v.75Zm6.741 0V21c.642 0 1.257-.255 1.711-.709l-.53-.53-.53-.53a.921.921 0 0 1-.65.269v.75Zm1.18-.489.548.513 3.45-3.68-.547-.513-.547-.512-3.45 3.679.547.513Zm13.283-2.949h-.75c0 .712-.283 1.394-.786 1.897l.53.53.53.531a4.184 4.184 0 0 0 1.226-2.958h-.75Zm-1.006 2.428-.53-.53a2.684 2.684 0 0 1-1.898.785v1.5c1.11 0 2.174-.44 2.959-1.225l-.53-.53Zm-2.428 1.006v-.75H14.28v1.5h5.723v-.75Zm.388-.273.696-.28-2.435-6.06-.696.28-.695.28 2.434 6.06.696-.28ZM.728 8.646v.75h9.026v-1.5H.728v.75Z"/></svg>