<svg xmlns="http://www.w3.org/2000/svg" fill="none" viewBox="0 0 24 24"><path fill="currentColor" d="m11.686 13.5-.344.667.344.177.343-.177-.343-.667ZM1.5 8.25l-.344-.667-1.293.667 1.293.667.344-.667ZM11.686 3l.343-.667-.343-.177-.344.177.344.667Zm10.186 5.25.343.667 1.294-.667-1.294-.667-.343.667Zm1.374 3v-.75h-1.5v.75h1.5Zm-1.5 3V15h1.5v-.75h-1.5Zm-10.06-.75.343-.667-10.185-5.25-.344.667-.344.667 10.186 5.25.344-.667ZM1.5 8.25l.344.667 10.185-5.25L11.686 3l-.344-.667-10.186 5.25.344.667ZM11.686 3l-.344.667 10.186 5.25.344-.667.343-.667-10.186-5.25-.343.667Zm10.186 5.25-.344-.667-10.186 5.25.344.667.343.667 10.186-5.25-.343-.667ZM4.498 9.75h-.75v7.735h1.5V9.75h-.75Zm0 7.735h-.75c0 1.418 1.16 2.489 2.54 3.16 1.431.695 3.356 1.105 5.442 1.105v-1.5c-1.91 0-3.6-.378-4.786-.954-1.238-.602-1.697-1.29-1.697-1.811h-.75ZM11.73 21v.75c2.085 0 4.01-.41 5.442-1.106 1.38-.67 2.54-1.741 2.54-3.16h-1.5c0 .522-.459 1.21-1.696 1.811-1.186.577-2.877.955-4.786.955V21Zm7.232-3.516h.75V9.75h-1.5v7.734h.75Zm3.533-6.234h-.75v3h1.5v-3h-.75Z"/></svg>