<svg xmlns="http://www.w3.org/2000/svg" fill="none" viewBox="0 0 24 24"><path fill="currentColor" d="m8.777 18.966.35.664.007-.004-.357-.66Zm-2.219.705-.098-.744-.011.002.109.742Zm-5.245 2.266-.748-.065-.149 1.731 1.362-1.078-.466-.588Zm4.05-4.969.298.688.03-.013.028-.015-.357-.66Zm12.421-6.723-.346-.665-.011.005.357.66Zm1.538-2.775-.748.055v.004l.747-.059Zm-4.359-2.396-.354-.66-.003.001.357.66ZM12.408 6.46l-.717-.22-.535 1.751 1.61-.872-.358-.659Zm.692-2.266.718.22.219-.718-.717-.219-.22.717Zm-2.3-.703-.357-.66-1.574.853 1.712.524.219-.717Zm2.53-1.371.357.66.007-.005.006-.003-.37-.652Zm6.05 11.1-.348-.665-.01.005.357.66ZM7.777 14.783l-.429-.616-.006.005-.007.005.442.606Zm-.15.956.624-.417-.008-.012-.01-.013-.606.442Zm1.459 2.186-.624.416.008.013.01.012.606-.441Zm3.194 1.486-.607.44.441.608.607-.442-.44-.606Zm4.938-3.588.441.607.494-.36-.25-.555-.685.308ZM15.1 11.122l-.684.307.684-.307Zm-2.369-.805.353.662.002-.001-.355-.661Zm-3.203 1.706-.353-.662h-.002l.355.662Zm-.463 2.024.608-.439-.002-.002-.606.441Zm9.236 1.987-.465-.589-1.178.93.465.588.589-.465.589-.464Zm1.923 4.86.465.59 1.177-.93-.464-.588-.589.464-.589.465Zm-7.303-1.879-.457-.595-1.189.915.457.594.595-.457.594-.457Zm1.184 4.001.457.595 1.19-.914-.458-.595-.594.457-.595.457Zm-4.495-4.5-.357-.66-.833.45.356.66.357.66.833-.45-.357-.66Zm-.834.45-.349-.664a5.877 5.877 0 0 1-1.968.625l.098.744.098.744a7.38 7.38 0 0 0 2.47-.785l-.349-.664Zm-2.219.705-.109-.742c-2.047.3-3.98 1.135-5.602 2.42l.466.588.465.588a10.285 10.285 0 0 1 4.889-2.112l-.109-.742Zm-5.245 2.266L2.06 22c.12-1.39.966-2.465 1.87-3.228a8.326 8.326 0 0 1 1.602-1.056l.102-.049.024-.01a.165.165 0 0 1 .004-.002H5.66l-.298-.688a87.884 87.884 0 0 0-.3-.688h-.001l-.004.003-.012.005a3.379 3.379 0 0 0-.178.084 9.82 9.82 0 0 0-1.907 1.255c-1.05.887-2.228 2.295-2.396 4.245l.748.065Zm4.05-4.969.356.66 2.221-1.2-.356-.66-.356-.66-2.222 1.2.356.66Zm9.997-5.411.357.66 2.424-1.312-.357-.66-.357-.66-2.424 1.312.357.66Zm2.424-1.312.346.665a3.623 3.623 0 0 0 1.497-1.458l-.656-.363-.656-.364a2.123 2.123 0 0 1-.877.855l.346.665Zm1.187-1.156.656.363a3.623 3.623 0 0 0 .442-2.041l-.747.059-.748.06c.033.415-.057.83-.26 1.196l.657.363Zm.35-1.619.748-.055a3.714 3.714 0 0 0-.578-1.735l-.631.405-.631.405c.2.31.318.666.345 1.035l.747-.055Zm-.461-1.385.631-.405a3.714 3.714 0 0 0-1.337-1.249l-.36.657-.362.658c.323.177.597.433.797.744l.63-.405Zm-1.067-.997.361-.657a3.714 3.714 0 0 0-1.77-.46l-.004.75-.004.75c.37.003.732.097 1.056.275l.361-.658Zm-1.413-.366.004-.75a3.714 3.714 0 0 0-1.776.442l.355.66.355.661a2.22 2.22 0 0 1 1.058-.263l.004-.75Zm-1.417.352-.357-.659L12.051 5.8l.357.659.357.66 2.555-1.385-.357-.66ZM12.408 6.46l.717.22.693-2.267-.718-.219-.717-.219-.692 2.266.717.219Zm.692-2.266.22-.717-2.3-.703-.22.717-.22.717 2.3.703.22-.717Zm-2.3-.703.357.66 2.53-1.372-.357-.66-.358-.659-2.53 1.371.358.66Zm2.53-1.371.37.652a5.572 5.572 0 0 1 2.089-.688l-.09-.745-.09-.745a7.071 7.071 0 0 0-2.65.874l.37.652Zm2.369-.781.09.745a5.572 5.572 0 0 1 2.191.173l.206-.722.205-.721a7.071 7.071 0 0 0-2.782-.22l.09.745Zm2.487.196-.206.722a5.572 5.572 0 0 1 1.954 1.007l.469-.586.468-.585a7.071 7.071 0 0 0-2.48-1.279l-.205.721Zm2.217 1.143-.469.586a5.572 5.572 0 0 1 1.413 1.685l.658-.359.659-.359a7.071 7.071 0 0 0-1.793-2.138l-.468.585Zm1.602 1.912-.658.359c.354.65.575 1.364.65 2.1l.746-.076.746-.076a7.073 7.073 0 0 0-.825-2.666l-.659.36Zm.738 2.383-.746.076c.075.736.003 1.48-.212 2.188l.717.219.718.218a7.07 7.07 0 0 0 .27-2.777l-.747.076Zm-.24 2.483-.718-.219a5.572 5.572 0 0 1-1.043 1.936l.578.479.577.479a7.072 7.072 0 0 0 1.323-2.457l-.718-.218ZM21.32 11.65l-.578-.479a5.57 5.57 0 0 1-1.71 1.382l.347.665.347.665a7.072 7.072 0 0 0 2.17-1.754l-.576-.479Zm-1.94 1.568-.358-.66-2.779 1.506.358.66.357.66 2.779-1.507-.358-.66Zm-10.47.774-.429-.615-1.132.79.43.615.428.615 1.132-.79-.429-.615Zm-1.132.79-.442-.606a1.435 1.435 0 0 0-.572.936l.741.117.741.116a.065.065 0 0 1-.026.042l-.442-.605Zm-.273.447-.74-.117c-.06.376.033.76.257 1.067l.606-.441.607-.442c.01.014.014.032.011.049l-.74-.116Zm.123.509-.624.416 1.46 2.186.623-.416.624-.416-1.459-2.187-.624.417Zm1.459 2.186-.607.44c.608.839 1.542 1.075 2.173 1.211.357.077.594.117.807.184.21.066.23.112.214.091l.607-.44.607-.441c-.272-.375-.674-.545-.979-.64-.3-.095-.67-.162-.94-.22-.623-.135-1.03-.287-1.275-.626l-.607.441Zm3.194 1.486.441.606 4.938-3.587-.44-.607-.442-.607-4.938 3.588.441.607Zm4.938-3.588.684-.308-2.118-4.701-.684.308-.684.308 2.118 4.7.684-.307Zm-2.118-4.701.684-.308a2.461 2.461 0 0 0-.588-.811l-.505.555-.505.555a.959.959 0 0 1 .23.316l.684-.307Zm-.409-.564.505-.555c-.25-.227-.544-.4-.864-.51l-.241.711-.242.71a.96.96 0 0 1 .338.199l.504-.555Zm-.6-.354.24-.71a2.46 2.46 0 0 0-.994-.122l.062.747.062.747a.96.96 0 0 1 .389.048l.24-.71Zm-.692-.085-.062-.747a2.46 2.46 0 0 0-.961.284l.355.661.355.66a.96.96 0 0 1 .375-.11l-.062-.748Zm-.668.198-.352-.662-3.204 1.706.353.662.352.662 3.204-1.706-.353-.662Zm-3.203 1.706-.355-.662a2.13 2.13 0 0 0-.686.585l.596.455.597.455a.628.628 0 0 1 .202-.173l-.354-.66Zm-.445.378-.596-.455c-.184.242-.315.52-.382.817l.73.167.732.167a.628.628 0 0 1 .113-.241l-.597-.455Zm-.247.529-.731-.167a2.128 2.128 0 0 0-.01.901l.734-.15.735-.151a.628.628 0 0 1 .003-.266l-.731-.167Zm-.007.583-.734.151c.06.298.185.58.364.825l.606-.442.606-.44a.628.628 0 0 1-.107-.244l-.735.15Zm.236.534-.608.44 1.16 1.605.608-.44.608-.439-1.16-1.605-.608.44Zm8.647 2.451-.59.465 3.102 3.931.589-.464.589-.465-3.101-3.931-.59.465Zm-5.385 2.974-.595.457 2.373 3.087.595-.457.594-.457-2.373-3.087-.594.457Z"/></svg>