<svg xmlns="http://www.w3.org/2000/svg" fill="none" viewBox="0 0 24 26"><path stroke="currentColor" vector-effect="non-scaling-stroke" stroke-width="1.5" d="M.75 24.689h22.5M6.75 4.439v20.174m.36-20.22c-.76.307-1.453.76-2.038 1.334a11.509 11.509 0 0 0-1.697 2.401m3.87-4.485c-1.172.282-2.297.73-3.34 1.334a13.4 13.4 0 0 0-2.78 2.401m5.878-3.473a9.45 9.45 0 0 0-2.439-1.072 9.877 9.877 0 0 0-2.688-.235M6.51 4.393a6.27 6.27 0 0 1 2.039 1.334 11.509 11.509 0 0 1 1.696 2.401m-3.87-4.485c1.172.282 2.297.73 3.34 1.334a13.401 13.401 0 0 1 2.78 2.4M6.62 3.907a9.45 9.45 0 0 1 2.437-1.073c.881-.2 1.785-.28 2.688-.235M15 14.961v9.75m.36-9.778a6.236 6.236 0 0 0-2.038 1.333 11.506 11.506 0 0 0-1.697 2.402m3.87-4.486c-1.172.282-2.297.73-3.34 1.334a13.401 13.401 0 0 0-2.78 2.402m5.878-3.474a9.453 9.453 0 0 0-2.438-1.072 9.878 9.878 0 0 0-2.688-.235m4.633 1.795a6.27 6.27 0 0 1 2.039 1.334 11.506 11.506 0 0 1 1.696 2.402m-3.87-4.486c1.172.282 2.297.73 3.34 1.334a13.397 13.397 0 0 1 2.78 2.4m-5.876-3.47a9.453 9.453 0 0 1 2.438-1.073c.881-.2 1.786-.28 2.688-.234m1.567-7.178a2.062 2.062 0 1 1-4.124 0 2.062 2.062 0 0 1 4.125 0Z"/></svg>