<svg xmlns="http://www.w3.org/2000/svg" fill="none" viewBox="0 0 24 24"><path fill="currentColor" d="m12 3 .711-.237-.17-.513H12V3Zm-9-.75h-.75v1.5H3v-1.5ZM16.5 12v.75H18V12h-1.5Zm3-3.75h.75v-1.5h-.75v1.5Zm-7.125 10.5-.711-.237-.33.987h1.041v-.75ZM5.25 9H6V3H4.5v6h.75Zm0-6v.75H12v-1.5H5.25V3ZM12 3l-.711.237 3 9L15 12l.711-.237-3-9L12 3ZM5.25 3v-.75H3v1.5h2.25V3Zm12 9H18V9h-1.5v3h.75Zm0-3H18c0-.41.34-.75.75-.75v-1.5c-1.24 0-2.25 1.01-2.25 2.25h.75Zm1.5-1.5v.75h.75v-1.5h-.75v.75Zm-7.5 4.5v.75h7.5v-1.5h-7.5V12Zm7.5 0v.75c.41 0 .75.34.75.75H21c0-1.24-1.01-2.25-2.25-2.25V12Zm1.5 1.5h-.75V15H21v-1.5h-.75Zm-18-3.9.288.692A7.179 7.179 0 0 1 5.25 9.75v-1.5c-1.153 0-2.3.246-3.288.658l.288.692Zm3-.6v.75c3.71 0 6.75 3.04 6.75 6.75h1.5c0-4.54-3.71-8.25-8.25-8.25V9Zm7.5 7.5H12a6.71 6.71 0 0 1-.336 2.013l.711.237.711.237A8.195 8.195 0 0 0 13.5 16.5h-.75Zm-.375 2.25v.75h4.95V18h-4.95v.75ZM9.75 16.5H9a3.75 3.75 0 0 1-3.75 3.75v1.5c2.9 0 5.25-2.35 5.25-5.25h-.75ZM5.25 21v-.75A3.75 3.75 0 0 1 1.5 16.5H0c0 2.9 2.35 5.25 5.25 5.25V21Zm-4.5-4.5h.75a3.75 3.75 0 0 1 3.75-3.75v-1.5A5.25 5.25 0 0 0 0 16.5h.75Zm4.5-4.5v.75A3.75 3.75 0 0 1 9 16.5h1.5c0-2.9-2.35-5.25-5.25-5.25V12Zm18 6h-.75a2.25 2.25 0 0 1-2.25 2.25v1.5A3.75 3.75 0 0 0 24 18h-.75Zm-3 3v-.75A2.25 2.25 0 0 1 18 18h-1.5a3.75 3.75 0 0 0 3.75 3.75V21Zm-3-3H18a2.25 2.25 0 0 1 2.25-2.25v-1.5A3.75 3.75 0 0 0 16.5 18h.75Zm3-3v.75A2.25 2.25 0 0 1 22.5 18H24a3.75 3.75 0 0 0-3.75-3.75V15Z"/></svg>