<svg xmlns="http://www.w3.org/2000/svg" fill="none" viewBox="0 0 24 24"><path fill="currentColor" d="m14.558 7.987-.738.134.738-.134ZM12.957 6.65V5.9v.75Zm-8.136 0V5.9v.75ZM3.22 7.987l.738.134-.738-.134Zm2.622 10.059v-.75h-1.5v.75h1.5Zm-.75 2.713v.75h.75v-.75h-.75Zm-3.256 0h-.75v.75h.75v-.75Zm.75-2.713v-.75h-1.5v.75h1.5Zm14.108 0v-.75h-1.5v.75h1.5Zm-.75 2.713v.75h.75v-.75h-.75Zm-3.257 0h-.75v.75h.75v-.75Zm.75-2.713v-.75h-1.5v.75h1.5Zm3.592-.002v.75h.75v-.75h-.75Zm-16.275 0h-.75v.75h.75v-.75Zm0-3.124h.75-.75Zm.477-1.15.53.53-.53-.53Zm1.15-1.153v-.75h-.31l-.22.22.53.53Zm13.023 0 .53-.53-.219-.22h-.31v.75Zm1.15 1.15-.531.53v.001l.53-.53Zm.476 1.153h.75-.75Zm-12.905.83h.75v-.001l-.75.001Zm-.375-.375.002-.75H3.75v.75Zm.188.05.377-.648-.005-.003-.372.651Zm10.687.325h-.75.75Zm-.375-.375v.75-.75Zm6.457-10.288.738-.134-.738.134ZM19.105 3.75V3v.75Zm-6.622 0V3v.75ZM22.84 15.146v-.75h-1.5v.75h1.5Zm-.75 2.714v.75h.75v-.75h-.75Zm-3.255 0h-.75v.75h.75v-.75Zm.75-2.714v-.75h-1.5v.75h1.5ZM17.392 8.97h-.75v1.5h.75v-1.5Zm4.627.75.612-.434-.224-.316h-.388v.75Zm.817 1.15.623-.416-.005-.01-.006-.008-.612.434Zm.338 1.153-.75-.014v.014h.75Zm0 3.123v.75h.75v-.75h-.75Zm-4.295-.75h-.75v1.5h.75v-1.5Zm1.746-1.646h.75-.75Zm-.188-.325.375-.65-.375.65Zm-5.037.194.738-.134-.842-4.632-.738.134-.738.134.843 4.633.737-.134Zm-.842-4.632.738-.134a2.377 2.377 0 0 0-.816-1.4l-.48.575-.48.576a.877.877 0 0 1 .3.517l.738-.134ZM14 7.028l.48-.575a2.377 2.377 0 0 0-1.523-.553v1.5c.205 0 .404.072.562.204l.48-.576Zm-1.043-.378V5.9H4.821v1.5h8.136v-.75Zm-8.136 0V5.9a2.38 2.38 0 0 0-1.523.552l.48.576.48.576a.877.877 0 0 1 .563-.204v-.75Zm-1.043.378-.48-.575a2.377 2.377 0 0 0-.816 1.4l.738.134.738.134a.877.877 0 0 1 .3-.517l-.48-.576Zm-.558.959-.738-.134-.842 4.632.737.135.738.134.843-4.633-.738-.134Zm1.872 10.059h-.75v2.713h1.5v-2.713h-.75Zm0 2.713v-.75H1.836v1.5h3.256v-.75Zm-3.256 0h.75v-2.713h-1.5v2.713h.75Zm14.107-2.713h-.75v2.713h1.5v-2.713h-.75Zm0 2.713v-.75h-3.256v1.5h3.257v-.75Zm-3.256 0h.75v-2.713h-1.5v2.713h.75Zm4.342-2.715v-.75H.754v1.5h16.275v-.75Zm-16.275 0h.75V14.92h-1.5v3.124h.75Zm0-3.124h.75c0-.116.022-.23.066-.336l-.692-.287-.693-.287c-.12.288-.181.598-.181.91h.75Zm.124-.623.692.287a.875.875 0 0 1 .19-.284l-.53-.53-.53-.532a2.38 2.38 0 0 0-.515.772l.693.287Zm.353-.528.53.53 1.15-1.152-.53-.53-.53-.53L.7 13.24l.53.53Zm1.15-1.152v.75h13.023v-1.5H2.381v.75Zm13.023 0-.53.53 1.149 1.15.53-.53.53-.53-1.148-1.15-.53.53Zm1.15 1.15-.531.531a.878.878 0 0 1 .19.285l.693-.287.693-.287a2.376 2.376 0 0 0-.515-.772l-.53.53Zm.352.53-.693.286a.865.865 0 0 1 .067.336h.75l.75.001c0-.313-.061-.622-.18-.91l-.694.286Zm.124.623h-.75l-.001 3.123h1.5l.001-3.123h-.75Zm-12.905.83h-.75c0-.074.022-.147.063-.208l.624.416.623.417c.124-.185.19-.402.19-.625h-.75Zm-.063.208-.624-.416a.38.38 0 0 1 .168-.139l.287.693.287.693c.206-.085.382-.229.505-.414l-.623-.417Zm-.169.138-.287-.693a.375.375 0 0 1 .217-.02l-.146.735-.147.735c.219.044.445.021.65-.064l-.287-.693Zm-.216.022.146-.736c.073.015.14.05.192.103l-.53.53-.53.53c.157.158.357.265.575.308l.147-.735Zm-.192-.103.53-.53c.053.052.088.12.103.192l-.736.146-.735.146c.043.219.15.42.307.577l.53-.53Zm-.103-.192.736-.146a.375.375 0 0 1-.022.216l-.692-.287-.693-.287a1.125 1.125 0 0 0-.064.65l.735-.146Zm.022-.216.692.287a.375.375 0 0 1-.138.168l-.416-.624-.417-.623c-.185.123-.33.299-.414.505l.693.287Zm.138-.169.416.624a.375.375 0 0 1-.208.063v-1.5c-.223 0-.44.066-.625.19l.417.623Zm.208-.063-.002.75a.37.37 0 0 1-.182-.049l.372-.65.372-.652a1.13 1.13 0 0 0-.558-.149l-.002.75Zm.188.05-.377.648a.373.373 0 0 1-.136-.136l.65-.374.65-.375a1.127 1.127 0 0 0-.41-.411l-.377.648Zm.137.138-.65.374a.374.374 0 0 1-.05-.186l.75-.001.75-.001c0-.197-.052-.39-.15-.56l-.65.374Zm10.55.187h-.75c0-.075.022-.147.063-.209l.624.418.623.417c.124-.185.19-.403.19-.625h-.75Zm-.063.209-.624-.418a.38.38 0 0 1 .169-.138l.286.694.287.693c.205-.085.381-.23.505-.414l-.623-.417Zm-.169.138-.286-.694a.375.375 0 0 1 .216-.02l-.146.735-.147.735c.218.044.444.022.65-.063l-.287-.693Zm-.216.02.146-.735c.073.015.14.05.192.103l-.53.53-.53.53c.156.157.357.265.575.308l.147-.735Zm-.192-.102.53-.53c.053.052.088.12.103.192l-.736.146-.736.146c.044.218.15.419.308.576l.53-.53Zm-.103-.192.736-.146a.375.375 0 0 1-.022.217l-.693-.288-.692-.287a1.125 1.125 0 0 0-.065.65l.736-.146Zm.021-.217.693.288a.375.375 0 0 1-.138.168l-.416-.624-.417-.623c-.185.123-.33.299-.414.504l.692.287Zm.139-.168.416.624a.375.375 0 0 1-.208.063v-1.5c-.223 0-.44.066-.625.19l.417.623Zm.208-.063v.75a.374.374 0 0 1-.144-.029l.288-.692.287-.693a1.125 1.125 0 0 0-.431-.086v.75Zm.144.029-.288.692a.375.375 0 0 1-.121-.081l.53-.53.53-.53a1.123 1.123 0 0 0-.364-.244l-.287.693Zm.121.081-.53.53a.375.375 0 0 1-.082-.122l.694-.286.693-.287a1.124 1.124 0 0 0-.244-.365l-.53.53Zm.082.122-.694.286a.375.375 0 0 1-.028-.143h.75l.75.001a1.13 1.13 0 0 0-.085-.43l-.693.286Zm6.952-5.887.738-.134-.842-4.633-.738.134-.738.134.842 4.633.738-.134Zm-.842-4.633.738-.135a2.38 2.38 0 0 0-.817-1.399l-.48.576-.48.576a.881.881 0 0 1 .301.517l.738-.135Zm-.56-.958.481-.576A2.38 2.38 0 0 0 19.106 3l-.001.75-.001.75a.88.88 0 0 1 .563.205l.48-.576Zm-1.042-.379V3h-6.622v1.5h6.622v-.75Zm-6.622 0V3a2.38 2.38 0 0 0-1.524.553l.481.576.48.576a.88.88 0 0 1 .564-.205l-.001-.75Zm-1.043.379-.48-.576a2.38 2.38 0 0 0-.817 1.4l.738.134.738.135a.881.881 0 0 1 .302-.517l-.481-.576Zm10.65 11.017h-.75v2.714h1.5v-2.714h-.75Zm0 2.714v-.75h-3.255v1.5h3.255v-.75Zm-3.255 0h.75v-2.714h-1.5v2.714h.75Zm-1.443-8.14v.75h4.627v-1.5h-4.627v.75Zm4.627 0-.611.434.816 1.15.612-.434.612-.434-.817-1.15-.612.434Zm.817 1.15-.623.418c.142.213.216.464.211.72l.75.015.75.013a2.755 2.755 0 0 0-.465-1.582l-.623.416Zm.338 1.153h-.75v3.123h1.5v-3.123h-.75Zm0 3.123v-.75H18.88v1.5h4.295v-.75Zm-2.549-2.396h-.75c0-.082.027-.163.077-.228l.595.456.596.457c.15-.197.232-.438.232-.685h-.75Zm-.078.228-.595-.456a.375.375 0 0 1 .2-.134l.195.724.194.725c.24-.065.45-.206.602-.402l-.596-.457Zm-.2.134-.194-.724a.375.375 0 0 1 .24.015l-.286.694-.287.693c.229.094.482.11.721.047l-.194-.725Zm-.24-.015.286-.694c.077.032.14.088.182.16l-.65.375-.65.375c.125.214.316.382.545.476l.287-.692Zm-.182-.16.65-.375a.375.375 0 0 1 .047.237l-.744-.098-.744-.097c-.032.245.018.494.142.709l.65-.375Zm-.047-.236.744.098a.375.375 0 0 1-.107.216l-.53-.53-.53-.53a1.125 1.125 0 0 0-.32.649l.743.097Zm.107-.216.53.53a.375.375 0 0 1-.216.107l-.098-.744-.098-.743a1.125 1.125 0 0 0-.649.32l.53.53Zm.216-.107.098.744a.375.375 0 0 1-.236-.047l.374-.65.375-.65a1.125 1.125 0 0 0-.71-.14l.099.743Zm.236.047-.375.65a.376.376 0 0 1-.137-.137l.65-.376.649-.375a1.126 1.126 0 0 0-.412-.411l-.375.65Zm.138.137-.65.376a.375.375 0 0 1-.05-.188h1.5c0-.198-.052-.392-.151-.563l-.65.375Z"/></svg>