<svg xmlns="http://www.w3.org/2000/svg" fill="none" viewBox="0 0 24 24"><path fill="currentColor" d="M23.455 17.666h.75v-1.5h-.75v1.5ZM13 16.166h-.75v1.5H13v-1.5Zm-11.309.75-.747.063.058.687h.69v-.75ZM.58 3.75V3h-.816l.068.813.748-.063Zm18.537 0h.75V3h-.75v.75ZM12.88 17.625h-.75c0 1.035-.84 1.875-1.875 1.875V21a3.375 3.375 0 0 0 3.375-3.375h-.75Zm-2.625 2.625v-.75a1.875 1.875 0 0 1-1.875-1.875h-1.5A3.375 3.375 0 0 0 10.255 21v-.75ZM7.63 17.625h.75c0-1.035.84-1.875 1.875-1.875v-1.5a3.375 3.375 0 0 0-3.375 3.375h.75ZM10.255 15v.75c1.035 0 1.875.84 1.875 1.875h1.5a3.375 3.375 0 0 0-3.375-3.375V15Zm13.2 1.916v-.75H13v1.5h10.455v-.75Zm-15.73 0v-.75H1.691v1.5h6.034v-.75Zm-6.034 0 .748-.064L1.327 3.687.58 3.75l-.748.063L.944 16.98l.747-.063ZM.58 3.75v.75h18.537V3H.58v.75Zm18.537 0h-.75v13.166h1.5V3.75h-.75Z"/></svg>