<svg xmlns="http://www.w3.org/2000/svg" fill="none" viewBox="0 0 24 24"><path fill="currentColor" d="m20.318 6.507.69-.292-.193-.458h-.497v.75Zm2.08 4.912-.69.292.193.458h.497v-.75Zm1.04 0h.75v-.75h-.75v.75Zm0 5.949v.75h.75v-.75h-.75Zm-2.297.994h.75-.75Zm-1.125-1.95.375-.65-.375.65ZM4.959 18.118h.75v-1.5h-.75v1.5Zm-4.396-.75h-.75v.75h.75v-.75Zm0-13.98v-.75h-.75v.75h.75Zm13.517 0h.75v-.75h-.75v.75Zm-.75 13.98v.75h1.5v-.75h-1.5Zm4.389-5.95h-.75v.75h.75v-.75Zm-.591 5.95v-.75H9.563v1.5h7.565v-.75ZM14.08 6.507v.75h6.238v-1.5H14.08v.75Zm6.238 0-.69.292 2.08 4.912.69-.292.69-.293-2.08-4.911-.69.292Zm2.08 4.912v.75h1.04v-1.5h-1.04v.75Zm1.04 0h-.75v5.949h1.5v-5.95h-.75Zm0 5.949v-.75h-2.78v1.5h2.78v-.75Zm-2.297.994h-.75c0 .33-.11.65-.31.913l.594.457.595.456a3 3 0 0 0 .621-1.825h-.75Zm-.466 1.37-.595-.457a1.5 1.5 0 0 1-.801.535l.193.724.194.725a3 3 0 0 0 1.604-1.07l-.595-.457Zm-1.203.802-.194-.724a1.5 1.5 0 0 1-.962-.064l-.287.693-.287.693a3 3 0 0 0 1.924.127l-.194-.725Zm-1.443-.095.287-.693a1.5 1.5 0 0 1-.724-.636l-.65.375-.65.375a3 3 0 0 0 1.45 1.272l.287-.693Zm-1.087-.954.65-.375a1.5 1.5 0 0 1-.188-.945l-.744-.098-.743-.099a3 3 0 0 0 .375 1.892l.65-.375Zm-.282-1.418.744.098a1.5 1.5 0 0 1 .427-.865l-.53-.53-.531-.53a3 3 0 0 0-.853 1.729l.743.098Zm.64-1.297.53.53a1.5 1.5 0 0 1 .865-.426l-.098-.744-.097-.744a3 3 0 0 0-1.73.853l.53.53Zm1.297-.64.098.744a1.5 1.5 0 0 1 .946.188l.375-.65.375-.65a3 3 0 0 0-1.891-.376l.098.744Zm1.419.282-.375.65a1.5 1.5 0 0 1 .55.55l.649-.376.65-.374a3.001 3.001 0 0 0-1.099-1.1l-.375.65Zm.824.824-.65.375c.132.228.201.487.201.75l.75.001h.75a3 3 0 0 0-.401-1.5l-.65.374Zm-15.881.132v-.75H.563v1.5h4.396v-.75Zm-4.396 0h.75V3.388h-1.5v13.98h.75Zm0-13.98v.75H14.08v-1.5H.562v.75Zm13.517 0h-.75v13.98h1.5V3.388h-.75Zm3.639 3.121h-.75v4.91h1.5v-4.91h-.75Zm0 4.91v.75h4.732v-1.5h-4.732v.75ZM9.57 18.362h-.75a1.5 1.5 0 0 1-1.5 1.5v1.5a3 3 0 0 0 3-3h-.75Zm-2.25 2.25v-.75a1.5 1.5 0 0 1-1.5-1.5h-1.5a3 3 0 0 0 3 3v-.75Zm-2.25-2.25h.75a1.5 1.5 0 0 1 1.5-1.5v-1.5a3 3 0 0 0-3 3h.75Zm2.25-2.25v.75a1.5 1.5 0 0 1 1.5 1.5h1.5a3 3 0 0 0-3-3v.75Z"/></svg>