<svg xmlns="http://www.w3.org/2000/svg" fill="none" viewBox="0 0 24 24"><path fill="currentColor" d="M18.058 15.008h-.75v1.5h.75v-1.5Zm2.017.75v.75h.75v-.75h-.75Zm0-4.554h.75v-.75h-.75v.75Zm-3.986 0-.651.371.216.379h.435v-.75Zm-2.277-3.987.651-.372-.216-.378h-.435v.75Zm-6.832 0v-.75h-.494l-.195.455.69.295Zm-1.709 3.987v.75h.494l.195-.455-.689-.296Zm-2.278 0v-.75h-.75v.75h.75Zm0 4.554h-.75v.75h.75v-.75Zm1.398.75h.75v-1.5h-.75v1.5Zm16.212 2.403-.598-.452-.003.004.601.448ZM18.69 3.123l.473-.582-.004-.003-.469.585ZM11.954.748l.001-.75h-.01l.01.75ZM1.494 4.387l-.097-.744-1.488.194.097.743.744-.097.744-.096ZM1.2 7.942l-.744.097.097.743.744-.097-.097-.743Zm3.555.293.744-.096-.194-1.488-.744.097.097.744.097.743Zm.585 2.978v.75h10.942v-1.5H5.34v.75Zm12.718 4.545v.75h2.017v-1.5h-2.017v.75Zm2.017 0h.75v-4.554h-1.5v4.553h.75Zm0-4.554v-.75H16.09v1.5h3.986v-.75Zm-3.986 0 .651-.373-2.277-3.986-.651.372-.651.372 2.277 3.986.651-.371Zm-2.277-3.987v-.75H6.98v1.5h6.832v-.75Zm-6.832 0-.69-.295-1.708 3.986.689.296.69.295L7.67 7.513l-.69-.296Zm-1.709 3.987v-.75H2.993v1.5h2.278v-.75Zm-2.278 0h-.75v4.554h1.5v-4.554h-.75Zm0 4.554v.75h1.398v-1.5H2.993v.75Zm4.692.144v.75h7.035v-1.5H7.684v.75Zm0 0h-.75a.813.813 0 0 1-.813.813v1.5a2.313 2.313 0 0 0 2.313-2.313h-.75Zm-1.563 1.563v-.75a.813.813 0 0 1-.813-.813h-1.5a2.313 2.313 0 0 0 2.313 2.313v-.75Zm-1.563-1.563h.75c0-.449.363-.813.813-.813v-1.5a2.313 2.313 0 0 0-2.313 2.313h.75Zm1.563-1.563v.75c.449 0 .813.364.813.813h1.5A2.313 2.313 0 0 0 6.12 13.59v.75Zm11.724 1.563h-.75a.813.813 0 0 1-.814.813v1.5a2.313 2.313 0 0 0 2.314-2.313h-.75Zm-1.564 1.563v-.75a.813.813 0 0 1-.813-.813h-1.5a2.313 2.313 0 0 0 2.313 2.313v-.75Zm-1.563-1.563h.75c0-.449.365-.813.813-.813v-1.5a2.313 2.313 0 0 0-2.313 2.313h.75Zm1.563-1.563v.75c.45 0 .814.364.814.813h1.5a2.313 2.313 0 0 0-2.314-2.313v.75Zm-5.47-7.035h-.75v3.909h1.5V7.304h-.75Zm-5.6 13.57-.47.585a11.533 11.533 0 0 0 4.09 2.105l.203-.722.204-.722a10.034 10.034 0 0 1-3.559-1.83l-.47.585Zm3.823 1.968-.203.722c1.49.42 3.05.536 4.587.34l-.095-.744-.095-.744a10.03 10.03 0 0 1-3.99-.296l-.204.722Zm4.29.318.094.744c1.536-.196 3.017-.7 4.355-1.48l-.378-.648-.378-.648a10.032 10.032 0 0 1-3.789 1.288l.095.744Zm4.071-1.384.378.648a11.533 11.533 0 0 0 3.43-3.064l-.6-.449-.602-.448a10.033 10.033 0 0 1-2.984 2.665l.378.648Zm3.207-2.865.598.453a12.195 12.195 0 0 0 2.38-8.824l-.744.09-.745.09a10.695 10.695 0 0 1-2.087 7.739l.598.452Zm2.234-8.28.744-.09a12.195 12.195 0 0 0-4.418-8l-.473.582-.473.582a10.695 10.695 0 0 1 3.875 7.016l.745-.09ZM18.69 3.122l.47-.585a11.538 11.538 0 0 0-7.205-2.54v.75l-.002.75c2.28.004 4.49.783 6.268 2.21l.469-.585ZM11.954.748l-.01-.75A11.85 11.85 0 0 0 5.54 1.975l.414.625.415.625a10.35 10.35 0 0 1 5.595-1.726l-.01-.75Zm-6 1.851-.414-.625A11.85 11.85 0 0 0 1.23 7.11l.688.3.687.3a10.35 10.35 0 0 1 3.763-4.485L5.954 2.6ZM.75 4.483l-.744.097.45 3.459.744-.097.744-.097-.45-3.458-.744.096Zm.45 3.459.097.743 3.458-.45-.097-.743-.097-.744-3.458.45.097.744Z"/></svg>