<svg xmlns="http://www.w3.org/2000/svg" fill="none" viewBox="0 0 24 24"><path stroke="currentColor" stroke-miterlimit="10" vector-effect="non-scaling-stroke" stroke-width="1.5" d="M8.174 17.111h8.304m-13.129.05H.562V3.644H20.12l1.148 5.766 2.17 2.53v5.11l-1.646-.001m-.39-7.553h-4.797V3.644m-8.24 14.14c0 1.466-1.175 2.654-2.625 2.654s-2.625-1.188-2.625-2.655c0-1.466 1.175-2.655 2.625-2.655s2.625 1.189 2.625 2.655Zm13.263 0c0 1.466-1.175 2.654-2.625 2.654s-2.625-1.188-2.625-2.655c0-1.466 1.175-2.655 2.625-2.655s2.625 1.189 2.625 2.655Z"/></svg>