<svg xmlns="http://www.w3.org/2000/svg" fill="none" viewBox="0 0 24 24"><path stroke="currentColor" stroke-linecap="square" vector-effect="non-scaling-stroke" stroke-width="1.5" d="M9.884 5.273h9.206v5.005h-1.758m-2.62 3.482-.817-4.492a1.58 1.58 0 0 0-1.554-1.296H4.453A1.58 1.58 0 0 0 2.9 9.268l-.816 4.492m12.627 0H2.084m12.627 0 1.114 1.116a1.577 1.577 0 0 1 .462 1.117l.002 3.028H.505v-3.028a1.575 1.575 0 0 1 .463-1.116l1.116-1.117m2.63 5.261v2.631H1.558v-2.63m13.679 0v2.63H12.08v-2.63m10.044.176v2.454H19.18v-2.63h4.136l.066-4.768-1.43-2.144V2.527H7.024v2.744m12.851 10.253a.375.375 0 1 1-.75 0 .375.375 0 0 1 .75 0Zm-16.476 1.2a.375.375 0 1 1-.75 0 .375.375 0 0 1 .75 0Zm10.635 0a.376.376 0 1 1-.751 0 .376.376 0 0 1 .75 0Z"/></svg>