<svg xmlns="http://www.w3.org/2000/svg" fill="none" viewBox="0 0 24 24"><path fill="currentColor" d="m17.25.727.743-.103-.09-.647h-.653v.75Zm-10.5 0v-.75h-.653l-.09.647.743.103Zm10.5 21.796v.75h.653l.09-.647-.743-.103Zm-10.5 0-.743.103.09.647h.653v-.75Zm6-14.53v-.75h-1.5v.75h1.5ZM12 11.624h-.75v.75H12v-.75Zm3.75.75h.75v-1.5h-.75v1.5ZM18 6.139l.743-.102-.75-5.413-.743.103-.743.102.75 5.413L18 6.14ZM17.25.727v-.75H6.75v1.5h10.5v-.75Zm-10.5 0L6.007.624l-.75 5.413.743.102.743.103.75-5.413L6.75.727ZM18 17.11l-.743-.102-.75 5.413.743.102.743.103.75-5.413L18 17.11Zm-.75 5.413v-.75H6.75v1.5h10.5v-.75Zm-10.5 0 .743-.102-.75-5.413L6 17.11l-.743.104.75 5.412.743-.103Zm13.5-10.898h-.75c0 3.977-3.335 7.242-7.5 7.242v1.5c4.948 0 9-3.892 9-8.742h-.75ZM12 19.617v-.75c-4.165 0-7.5-3.265-7.5-7.242H3c0 4.85 4.052 8.742 9 8.742v-.75Zm-8.25-7.992h.75c0-3.977 3.335-7.242 7.5-7.242v-1.5c-4.948 0-9 3.892-9 8.742h.75ZM12 3.633v.75c4.165 0 7.5 3.265 7.5 7.242H21c0-4.85-4.052-8.742-9-8.742v.75Zm0 4.36h-.75v3.632h1.5V7.992H12Zm0 3.632v.75h3.75v-1.5H12v.75Z"/></svg>