<svg xmlns="http://www.w3.org/2000/svg" fill="none" viewBox="0 0 24 24"><path fill="currentColor" d="m12 1.568.475-.58L12 .599l-.475.389.475.58ZM4.295 11.75V11h-1.5v.75h1.5Zm-.75 10.955h-.75v.75h.75v-.75Zm16.91 0v.75h.75v-.75h-.75Zm.75-10.955V11h-1.5v.75h1.5ZM6.667 18.418h-.75v1.5h.75v-1.5Zm2.667-.55.59-.461-.59-.755-.59.754.59.463Zm5.332 0 .59-.462-.59-.754-.59.755.59.462Zm2.666 2.05h.75v-1.5h-.75v1.5ZM6.667 12.83h-.75v1.5h.75v-1.5Zm2.667-.549.59-.462-.59-.755-.59.755.59.462Zm5.332 0 .59-.462-.59-.755-.59.755.59.462Zm2.666 2.049h.75v-1.5h-.75v1.5ZM.375 11.08l.475.58 11.625-9.51L12 1.569l-.475-.581L-.1 10.499l.475.58ZM12 1.568l-.475.58L23.15 11.66l.475-.58.475-.58L12.475.987l-.475.58ZM3.545 11.75h-.75v10.955h1.5V11.75h-.75Zm0 10.955v.75h16.91v-1.5H3.545v.75Zm16.91 0h.75V11.75h-1.5v10.955h.75ZM6.668 19.168v.75c.627 0 1.247-.143 1.81-.418l-.328-.674-.328-.675a2.63 2.63 0 0 1-1.155.267v.75Zm1.482-.342.329.674a4.137 4.137 0 0 0 1.445-1.169l-.59-.462-.59-.463c-.247.315-.562.57-.922.745l.328.675Zm1.184-.957-.59.462c.386.494.88.894 1.444 1.17l.329-.675.329-.674a2.635 2.635 0 0 1-.922-.745l-.59.462Zm1.183.957-.329.674a4.136 4.136 0 0 0 1.812.418v-1.5c-.4 0-.795-.091-1.154-.266l-.329.674Zm1.483.342v.75c.628 0 1.247-.143 1.812-.418l-.329-.674-.329-.674c-.36.175-.754.266-1.154.266v.75Zm1.483-.342.329.674a4.135 4.135 0 0 0 1.445-1.17l-.59-.461-.591-.462c-.247.315-.562.57-.922.745l.329.674Zm1.183-.957-.59.462c.387.494.88.894 1.445 1.169l.329-.674.328-.675a2.638 2.638 0 0 1-.921-.745l-.59.463Zm1.184.957-.329.674a4.137 4.137 0 0 0 1.811.418v-1.5c-.4 0-.794-.091-1.154-.267l-.328.675ZM6.668 13.58v.75c.627 0 1.247-.143 1.81-.418l-.328-.674-.328-.674c-.36.175-.755.266-1.155.266v.75Zm1.482-.342.329.674a4.137 4.137 0 0 0 1.445-1.169l-.59-.462-.59-.462c-.247.315-.562.57-.922.745l.328.674Zm1.184-.957-.59.462c.386.495.88.894 1.445 1.169l.328-.674.329-.675a2.636 2.636 0 0 1-.922-.744l-.59.462Zm1.183.957-.328.674A4.136 4.136 0 0 0 12 14.33v-1.5c-.4 0-.795-.091-1.154-.266l-.329.674ZM12 13.58v.75c.628 0 1.247-.143 1.811-.418l-.328-.674-.329-.675c-.36.176-.754.267-1.154.267v.75Zm1.483-.342.328.674a4.135 4.135 0 0 0 1.446-1.169l-.59-.462-.591-.462c-.247.315-.562.57-.922.745l.329.674Zm1.183-.957-.59.462c.387.495.88.894 1.445 1.17l.329-.675.328-.674a2.637 2.637 0 0 1-.921-.745l-.59.462Zm1.184.957-.329.674a4.137 4.137 0 0 0 1.811.418v-1.5c-.4 0-.794-.091-1.154-.266l-.328.674Z"/></svg>