<svg xmlns="http://www.w3.org/2000/svg" fill="none" viewBox="0 0 24 24"><path stroke="currentColor" vector-effect="non-scaling-stroke" stroke-width="1.5" d="M17.934.947s.268 2.615.268 4.022m0 0c-.045 1.004-.258 1.798-.65 2.723 0 0-1.501-1.436-2.11-2.21C14.836 4.71 13.786.75 13.786.75m4.417 4.219a6.543 6.543 0 0 0 1.68-2.876m-6.554 4.028c1.06.367 2.272.617 3.387.746m-5.262-4.774a21.875 21.875 0 0 0 3.562 2.58m5.091 7.172h-1.643s-.561 1.933-1.164 2.63c-.602.697-2.407 1.996-2.407 1.996l-.304 6.329h-1.53l-.287-5.337c-1.04-.659-5.653-.796-6.872.232-.023.072-.064 1.772-.123 5.098l-1.463.007c-.352-3.065-.538-4.755-.558-5.07-.082-.704-.182-1.148-.322-1.917l-1.542.6-.527-.782c.334-.518.576-.903.726-1.156.093-.165 1.082-1.93 1.567-2.38.573-.532 1.733-.674 2.501-.664.507 0 7.218.085 8.495 0 .261 0 1.586-1.976 1.883-2.384.637-.858 2.221-.867 3.025-.333.511.37 1.134.98 1.588 1.415a.939.939 0 0 1 .101 1.343c-.297.338-.536.38-1.144.373Z"/></svg>