<svg xmlns="http://www.w3.org/2000/svg" fill="none" viewBox="0 0 25 24"><path fill="currentColor" d="m1.507 16.48-.007-.75-1.5.015.007.75.75-.007.75-.007Zm5.069 1.446.652-.37-.652-1.15-.653 1.15.653.37Zm5.43 0 .653-.37-.652-1.15-.652 1.15.652.37Zm5.432 0 .652-.37-.652-1.15-.652 1.15.652.37Zm6.569-1.431.007-.75-1.5-.014-.007.75.75.007.75.007ZM6.576 8.145l-.375-.65-.772.444.57.685.577-.48Zm6.322-3.646.297-.688-.345-.15-.326.188.374.65Zm-8.114 8.65-.65.374.75 1.3.65-.376-.375-.65-.375-.649Zm14.82-7.691.745.085.17-1.48-1.29.745.375.65Zm-.684 5.947.375.65.327-.189.043-.375-.745-.086Zm-5.092 2.073-.65.375.75 1.3.65-.376-.375-.65-.375-.649ZM.757 16.488l-.75.007c.008.839.3 1.65.829 2.306l.584-.47.584-.471a2.231 2.231 0 0 1-.497-1.38l-.75.008Zm.663 1.842-.584.47a3.86 3.86 0 0 0 2.082 1.323l.18-.728.18-.728a2.36 2.36 0 0 1-1.274-.807l-.584.47Zm1.678 1.065-.18.728a3.926 3.926 0 0 0 2.467-.194l-.291-.69-.292-.692a2.425 2.425 0 0 1-1.524.12l-.18.728Zm1.996-.157.291.691a3.827 3.827 0 0 0 1.843-1.633l-.652-.37-.653-.37a2.324 2.324 0 0 1-1.121.991l.292.691Zm1.482-1.312-.653.37a3.814 3.814 0 0 0 1.418 1.422l.374-.65.374-.65a2.314 2.314 0 0 1-.86-.862l-.653.37Zm1.14 1.142-.375.65a3.92 3.92 0 0 0 1.95.52v-1.5a2.41 2.41 0 0 1-1.202-.32l-.374.65Zm1.575.42v.75c.685 0 1.358-.18 1.95-.52l-.373-.65-.374-.65c-.364.209-.779.32-1.203.32v.75Zm1.576-.42.374.65a3.814 3.814 0 0 0 1.418-1.422l-.652-.37-.652-.37a2.314 2.314 0 0 1-.861.862l.373.65Zm1.14-1.142-.652.37a3.813 3.813 0 0 0 1.417 1.422l.374-.65.374-.65a2.314 2.314 0 0 1-.86-.862l-.653.37Zm1.14 1.142-.375.65a3.92 3.92 0 0 0 1.95.52v-1.5a2.41 2.41 0 0 1-1.202-.32l-.374.65Zm1.575.42v.75c.685 0 1.358-.18 1.95-.52l-.373-.65-.374-.65c-.363.209-.779.32-1.203.32v.75Zm1.577-.42.373.65a3.813 3.813 0 0 0 1.418-1.422l-.652-.37-.652-.37a2.314 2.314 0 0 1-.861.862l.373.65Zm1.139-1.142-.652.37a3.827 3.827 0 0 0 1.842 1.633l.292-.69.292-.692a2.326 2.326 0 0 1-1.122-.991l-.652.37Zm1.482 1.312-.292.691a3.926 3.926 0 0 0 2.468.194l-.18-.728-.18-.728a2.425 2.425 0 0 1-1.524-.12l-.292.691Zm1.996.157.18.728a3.861 3.861 0 0 0 2.082-1.322l-.584-.47-.584-.471a2.36 2.36 0 0 1-1.274.807l.18.728Zm1.678-1.065.584.47a3.73 3.73 0 0 0 .829-2.305l-.75-.007-.75-.007a2.232 2.232 0 0 1-.497 1.379l.584.47ZM9.291 11.405l.577-.48-2.716-3.26-.576.48-.577.48 2.716 3.26.576-.48Zm-2.715-3.26.374.649 6.323-3.645-.375-.65-.374-.65L6.2 7.494l.375.65Zm6.322-3.646-.297.689 4.62 1.993.298-.688.297-.689-4.62-1.993-.298.688Zm-7.74 9.299.376.65 14.445-8.34-.375-.65-.375-.65-14.445 8.34.375.65Zm14.446-8.34-.745-.086-.684 5.947.745.086.745.086.684-5.948-.745-.085Zm-.684 5.947-.375-.65-4.717 2.723.375.65.375.65 4.717-2.723-.375-.65Z"/></svg>