<svg xmlns="http://www.w3.org/2000/svg" fill="none" viewBox="0 0 24 24"><path fill="currentColor" d="M10.504 20.073v-.75h-.75v.75h.75Zm2.992 0h.75v-.75h-.75v.75ZM12 8.252l.483-.574L12 7.272l-.483.406.483.574Zm-5.235 8.45v-.75h-1.5v.75h1.5Zm-.75 6.56h-.75v.75h.75v-.75Zm11.97 0v.75h.75v-.75h-.75Zm.75-6.56v-.75h-1.5v.75h1.5Zm-8.231-2.96v-.75h-.75v.75h.75Zm2.992 0h.75v-.75h-.75v.75Zm0 3.078v.75h.75v-.75h-.75Zm-2.992 0h-.75v.75h.75v-.75Zm2.835-12.986.746.076.152-1.492-.746-.076-.076.746-.076.746ZM6.2 2.354l.076-.745-.01-.001h-.008l-.058.747Zm-2.204 1.73-.747-.071-.001.01v.01l.748.052Zm0 .143.75-.017-.001-.018-.001-.017-.748.052Zm2.051 1.86v-.75h-.004l.004.75Zm.16 0v.75h.038l.038-.004-.076-.746Zm7.391-.004.746-.076-.153-1.493-.746.077.077.746.076.746Zm6.409-3.045v.75h.828l-.082-.824-.746.074Zm-2.622 2.22h-.75v.75h.75v-.75Zm2.622 0 .745.084.094-.834h-.84v.75Zm-2.622-2.22v-.75h-.75v.75h.75Zm-3.568.335.725.19-.725-.19Zm0 1.69-.726.19.726-.19Zm-3.313 17.815h.75v-2.805h-1.5v2.805h.75Zm0-2.805v.75h2.992v-1.5h-2.992v.75Zm2.992 0h-.75v2.805h1.5v-2.805h-.75ZM12 8.252l-.483.574 8.23 6.928.482-.574.483-.574-8.23-6.928-.482.574ZM6.015 13.29h.75V9.791h-1.5v3.5h.75Zm0 3.411h-.75v6.561h1.5v-6.56h-.75Zm0 6.561v.75h11.97v-1.5H6.015v.75Zm11.97 0h.75v-6.56h-1.5v6.56h.75Zm-7.481-9.52v.75h2.992v-1.5h-2.992v.75Zm2.992 0h-.75v3.078h1.5v-3.079h-.75Zm0 3.078v-.75h-2.992v1.5h2.992v-.75Zm-2.992 0h.75v-3.079h-1.5v3.08h.75Zm2.911-13.732.076-.746-7.215-.733-.076.746-.076.746 7.215.733.076-.746ZM6.2 2.355l.058-.748c-1.479-.113-2.864.91-3.009 2.406l.747.072.746.072c.057-.591.641-1.113 1.4-1.054l.058-.748Zm-2.204 1.73-.749-.052a1.775 1.775 0 0 0 0 .247l.749-.053.748-.052v-.038l-.748-.052Zm0 .142-.75.018c.035 1.495 1.332 2.6 2.806 2.592l-.005-.75-.004-.75c-.753.005-1.284-.545-1.298-1.127l-.75.017Zm2.051 1.86v.75h.16v-1.5h-.16v.75Zm.16 0 .076.746 7.315-.75-.076-.746-.077-.746-7.315.75.077.746ZM17.027.899v.75c1.409 0 2.173.856 2.233 1.463l.747-.074.746-.074C20.595 1.37 18.965.149 17.027.149V.9Zm.358 4.36v.75h2.622v-1.5h-2.622v.75Zm2.622 0-.746-.085c-.072.643-.899 1.612-2.234 1.612v1.5c2.012 0 3.558-1.46 3.725-2.944l-.745-.084Zm0-2.221v-.75h-2.622v1.5h2.622v-.75Zm-6.19.335.725.19a2.57 2.57 0 0 1 2.485-1.914V.15a4.07 4.07 0 0 0-3.936 3.034l.726.19Zm3.21 4.163v-.75a2.57 2.57 0 0 1-2.485-1.914l-.725.19-.726.19a4.07 4.07 0 0 0 3.936 3.034v-.75ZM13.745 3.87l.742.106.017-.131.016-.13.015-.11.007-.04-.725-.191-.726-.19c-.03.115-.048.255-.06.342-.014.119-.02.18-.029.238l.743.106Zm.072 1.193.725-.19-.006-.037a3.827 3.827 0 0 1-.016-.111l-.016-.132a5.715 5.715 0 0 0-.017-.13l-.742.112-.742.11c.008.052.014.116.03.232.01.084.03.225.058.337l.726-.19Zm3.568-2.024h-.75v2.22h1.5v-2.22h-.75ZM3.771 15.18l.483.574 8.229-6.928L12 8.252l-.483-.574-8.23 6.928.484.574Z"/></svg>