<svg xmlns="http://www.w3.org/2000/svg" fill="none" viewBox="0 0 24 24"><path fill="currentColor" d="M20.088 21.939v.75h.75v-.75h-.75Zm-3.09 0h-.75v.75h.75v-.75ZM20.09 7.402l-.002.75h.002v-.75ZM18.57 8.61l-.736-.14.736.14Zm-.8 4.2-.736-.14-.17.89h.906v-.75Zm-1.544 6.425h-.75v.75h.75v-.75Zm0-3.807h.75-.75Zm.45-1.309-.576-.48.576.48ZM3.832 6.63l.66-.355-.212-.394h-.448v.75Zm3.332 6.18-.66.357.212.394h.448v-.75Zm5.476 0h.75v-.75h-.75v.75Zm0 6.426v.75h.75v-.75h-.75Zm-8.808.75h.75v-1.5h-.75v1.5Zm-3.053-1.5h-.75v1.5h.75v-1.5ZM7.521 5.727l.312-.682-1.75-.8.747 1.773.691-.29Zm3.106 1.42-.312.682.753.344.268-.783-.71-.244Zm1.345-3.927.706-.256-.726-1.998-.69 2.011.71.243Zm1.438 3.963-.705.256.272.75.733-.318-.3-.688Zm3.07-1.336.68.312.818-1.783-1.798.783.3.688Zm3.608 13.388h-.75v2.704h1.5v-2.704h-.75Zm0 2.704v-.75h-3.09v1.5h3.09v-.75Zm-3.09 0h.75v-2.704h-1.5v2.704h.75Zm6.953-14.537v-.75H20.09v1.5h3.86v-.75Zm-3.861 0 .001-.75a2.336 2.336 0 0 0-1.457.504l.466.587.467.587a.836.836 0 0 1 .521-.178l.002-.75Zm-.99.34-.466-.586a2.208 2.208 0 0 0-.8 1.314l.736.14.737.14a.71.71 0 0 1 .26-.42l-.466-.587Zm-.53.868-.736-.14-.8 4.2.736.14.737.14.8-4.2-.737-.14Zm-.8 4.2v.75h6.18v-1.5h-6.18v.75Zm6.18 6.425v-.75h-7.724v1.5h7.725v-.75Zm-7.724 0h.75v-3.807h-1.5v3.807h.75Zm0-3.807h.75c0-.162.026-.32.076-.464l-.71-.244-.709-.244a2.926 2.926 0 0 0-.157.953h.75Zm.117-.708.709.244c.05-.144.12-.267.201-.365l-.576-.48-.577-.48a2.66 2.66 0 0 0-.467.837l.71.244Zm.334-.6.576.48 1.09-1.31-.575-.48-.576-.48-1.092 1.309.576.48ZM.05 6.63v.75h3.78v-1.5H.05v.75Zm3.781 0-.66.356 3.332 6.18.66-.356.66-.356-3.331-6.18-.66.356Zm3.332 6.18v.75h5.476v-1.5H7.163v.75Zm5.476 0h-.75v6.425h1.5V12.81h-.75Zm0 6.425v-.75H10.1v1.5h2.54v-.75ZM.05 12.81v.75h6.907v-1.5H.05v.75Zm3.782 6.425v-.75H.778v1.5h3.053v-.75Zm15.848-3.047h-.75c0-.073.06-.132.132-.132v1.5c.756 0 1.368-.613 1.368-1.368h-.75Zm-.618.618v-.75c.073 0 .132.059.132.132h-1.5c0 .755.613 1.368 1.368 1.368v-.75Zm-.618-.618h.75a.132.132 0 0 1-.132.132v-1.5c-.755 0-1.368.612-1.368 1.368h.75Zm.618-.618v.75a.132.132 0 0 1-.132-.132h1.5c0-.756-.612-1.368-1.368-1.368v.75Zm-9.343 3.98h-.75a1.993 1.993 0 0 1-1.994 1.993v1.5a3.493 3.493 0 0 0 3.494-3.494h-.75Zm-2.744 2.743v-.75a1.993 1.993 0 0 1-1.993-1.994h-1.5a3.493 3.493 0 0 0 3.493 3.494v-.75Zm-2.743-2.744h.75c0-1.1.892-1.993 1.993-1.993v-1.5a3.493 3.493 0 0 0-3.493 3.493h.75Zm2.743-2.743v.75c1.101 0 1.994.892 1.994 1.993h1.5a3.493 3.493 0 0 0-3.494-3.493v.75Zm2.197-7.16.691-.29-1.65-3.92-.691.291-.691.291 1.65 3.92.69-.292ZM7.52 5.727l-.312.682 3.106 1.42.312-.683.312-.682-3.106-1.42-.312.683Zm3.106 1.42.71.243 1.345-3.927-.71-.243-.71-.243-1.345 3.926.71.243Zm1.345-3.927-.705.256 1.438 3.963.705-.256.705-.256-1.438-3.963-.705.256Zm1.438 3.963.3.688 3.069-1.336-.3-.688-.3-.688-3.068 1.337.3.687Zm3.07-1.336-.683-.313-1.74 3.8.681.312.682.313 1.74-3.8-.68-.312Z"/></svg>