<svg xmlns="http://www.w3.org/2000/svg" fill="none" viewBox="0 0 24 27"><path stroke="currentColor" vector-effect="non-scaling-stroke" stroke-width="1.5" d="M6.94 21.15 5.328 10.26c-.164-1.105.276-1.935 1.402-2.085.966-.129 1.585.764 2.045 1.739l1.29 2.672c.177.364.268.77.268 1.183v5.4c0 .46.336.833.75.833h6.249c.425 0 1.868.394 1.868 2.044 0 1.147-.837 2.076-1.868 2.076H9.585c-1.676 0-2.388-1.686-2.644-2.973Zm0 0a6.961 6.961 0 0 1-.01-.057M4.8 4.585l.488 5.202m11.519 16.52V24.22H9.58v2.088M6 5.924c-.661-.012-1.19-.616-1.179-1.351l.034-2.513C4.864 1.326 5.41.74 6.07.75c.661.011 1.189.616 1.179 1.35l-.035 2.513c-.01.735-.554 1.322-1.215 1.31Z"/></svg>