<svg xmlns="http://www.w3.org/2000/svg" fill="none" viewBox="0 0 24 24"><path fill="currentColor" d="m17.26 7.24-.125.739 1.479.251.125-.739L18 7.365l-.74-.125Zm-1.398-5.755.399-.635-1.075-.674-.072 1.267.748.042Zm-4.38 5.88v.75h1.5v-.75h-1.5ZM.75 21H0v.75h.75V21Zm0-6-.61-.436-.14.196V15h.75ZM4.5 9.75V9h-.386l-.224.314.61.436Zm10.5 0 .651-.372L15.435 9H15v.75ZM23.25 15H24v-.75h-.75V15Zm0 6v.75H24V21h-.75ZM18 7.365l.74.125v-.006l.003-.014a4.708 4.708 0 0 0 .026-.197 9.133 9.133 0 0 0-.033-2.288c-.195-1.354-.793-3.08-2.475-4.135l-.398.635-.399.636c1.153.722 1.623 1.936 1.788 3.078a7.64 7.64 0 0 1 .013 2.012l-.004.026v.004l.739.124Zm-2.137-5.88-.75-.042c-.064 1.133-.656 2.001-1.692 2.688l.414.625.415.625c1.33-.882 2.264-2.14 2.361-3.853l-.748-.043Zm-2.028 3.271-.414-.625c-.66.438-1.153.924-1.478 1.48a3.404 3.404 0 0 0-.46 1.754h1.5c0-.373.078-.695.255-.997.18-.309.489-.64 1.012-.987l-.415-.625Zm6.406 1.188-.604.445c1.016 1.378 1.48 2.681 1.48 3.92h1.5c0-1.637-.619-3.244-1.772-4.81l-.604.445Zm1.627 4.365h-.75c0 .755-.238 1.586-.767 2.5l.649.376.65.376c.627-1.085.968-2.173.968-3.252h-.75ZM16.5 21v-.75h-9v1.5h9V21ZM3 21v-.75H.75v1.5H3V21ZM.75 21h.75v-6H0v6h.75Zm0-6 .61.436 3.75-5.25-.61-.436-.61-.436-3.75 5.25.61.436ZM4.5 9.75v.75H15V9H4.5v.75Zm10.5 0-.651.372 3 5.25L18 15l.651-.372-3-5.25L15 9.75ZM18 15v.75h5.25v-1.5H18V15Zm5.25 0h-.75v6H24v-6h-.75Zm0 6v-.75H21v1.5h2.25V21ZM7.5 21h-.75a1.5 1.5 0 0 1-1.5 1.5V24a3 3 0 0 0 3-3H7.5Zm-2.25 2.25v-.75a1.5 1.5 0 0 1-1.5-1.5h-1.5a3 3 0 0 0 3 3v-.75ZM3 21h.75a1.5 1.5 0 0 1 1.5-1.5V18a3 3 0 0 0-3 3H3Zm2.25-2.25v.75a1.5 1.5 0 0 1 1.5 1.5h1.5a3 3 0 0 0-3-3v.75ZM21 21h-.75a1.5 1.5 0 0 1-1.5 1.5V24a3 3 0 0 0 3-3H21Zm-2.25 2.25v-.75a1.5 1.5 0 0 1-1.5-1.5h-1.5a3 3 0 0 0 3 3v-.75ZM16.5 21h.75a1.5 1.5 0 0 1 1.5-1.5V18a3 3 0 0 0-3 3h.75Zm2.25-2.25v.75a1.5 1.5 0 0 1 1.5 1.5h1.5a3 3 0 0 0-3-3v.75ZM.75 15v.75H18v-1.5H.75V15Zm9-5.25H9V15h1.5V9.75h-.75Z"/></svg>