<svg xmlns="http://www.w3.org/2000/svg" fill="none" viewBox="0 0 24 24"><path stroke="currentColor" stroke-linecap="square" stroke-miterlimit="10" vector-effect="non-scaling-stroke" stroke-width="1.5" d="M10.075 15.563c-3.77-1.648-3.562-4.988-6.412-4.988a2.95 2.95 0 0 0-2.85 2.85v7.837h5.7v-4.987m7.412-.712c3.77-1.648 3.563-4.988 6.412-4.988a2.95 2.95 0 0 1 2.85 2.85v7.837h-5.7v-4.987M6.514 5.231a2.494 2.494 0 1 1-4.988 0 2.494 2.494 0 0 1 4.988 0Zm15.962 0a2.494 2.494 0 1 1-4.988 0 2.494 2.494 0 0 1 4.988 0Z"/></svg>