<svg xmlns="http://www.w3.org/2000/svg" fill="none" viewBox="0 0 24 24"><path fill="currentColor" d="m5.048 4.732.233-.712-.321-.105-.292.17.38.647Zm-2.558 1.5-.38-.646-1.178.69 1.216.624.342-.668Zm8.64 8.933.165.732.11-.025.097-.056-.372-.651ZM21.915 9l-.332-.673-.02.01-.02.012.372.651ZM19.92 5.43l.372.651.014-.008.013-.008-.399-.635Zm-13.118 7.5-.203.722.302.085.274-.156-.372-.651Zm-3.052-.862.204-.722-.302-.086-.273.156.371.652ZM1.5 13.35l-.371-.652-.994.567.915.685.45-.6Zm4.095 3.068-.45.6.278.207.338-.076-.166-.732ZM.75 20.25H0v1.5h.75v-1.5Zm22.5 1.5H24v-1.5h-.75v1.5ZM15.293 8.085l.233-.713L5.28 4.02l-.233.712-.234.713L15.06 8.798l.234-.713ZM5.048 4.732l-.38-.646-2.557 1.5.379.646.38.647 2.557-1.5-.38-.647Zm-2.558 1.5-.342.668 8.475 4.342.342-.667.342-.667-8.475-4.343-.342.667Zm8.64 8.933.372.651 10.785-6.165L21.915 9l-.372-.651-10.785 6.165.372.651ZM21.915 9l.332.673c.34-.168.643-.404.89-.692l-.571-.487-.57-.487a1.298 1.298 0 0 1-.413.32l.332.673Zm.65-.506.571.487a2.8 2.8 0 0 0 .544-.987l-.716-.222-.716-.223a1.297 1.297 0 0 1-.252.458l.57.487Zm.4-.722.715.222c.113-.362.15-.743.111-1.12l-.745.077-.746.078c.018.175 0 .352-.052.52l.716.223Zm.08-.82.746-.079a2.797 2.797 0 0 0-.34-1.074l-.654.366-.655.366c.086.153.14.323.158.498l.746-.078Zm-.248-.787.654-.366a2.797 2.797 0 0 0-.736-.853l-.457.595-.458.594a1.3 1.3 0 0 1 .342.396l.655-.366Zm-.54-.624.458-.595a2.81 2.81 0 0 0-1.013-.493l-.186.727-.186.727c.17.043.33.121.47.228l.457-.594Zm-.741-.361.186-.727a2.797 2.797 0 0 0-1.126-.053l.116.74.116.742c.174-.027.352-.019.522.025l.186-.727Zm-.824-.04-.116-.74a2.798 2.798 0 0 0-1.055.395l.399.635.399.635c.149-.094.316-.156.49-.183l-.117-.741Zm-.772.29-.372-.651-13.118 7.5.373.651.372.651 13.117-7.5-.372-.651Zm-13.118 7.5.204-.722-3.052-.862-.204.722-.204.721 3.053.863.204-.722Zm-3.052-.862-.371-.652-2.25 1.282.371.652.371.652 2.25-1.283-.371-.651ZM1.5 13.35l-.45.6 4.095 3.068.45-.6.45-.6L1.95 12.75l-.45.6Zm4.095 3.068.166.731 5.535-1.253-.166-.731-.166-.731-5.535 1.252.166.732ZM.75 21v.75h22.5v-1.5H.75V21Z"/></svg>