<svg xmlns="http://www.w3.org/2000/svg" fill="none" viewBox="0 0 24 24"><path fill="currentColor" d="m12.977 6.754.357.66 1.32-.715-.358-.66-.66.358-.659.357ZM12 3.375l.66-.357-.213-.393H12v.75Zm-4.435 0v-.75H6.354l.54 1.084.671-.334Zm2.989 6v.75h1.211l-.54-1.084-.671.334Zm-4.179 0-.643.386.218.364h.425v-.75Zm-2.25-3.75.643-.386-.218-.364h-.425v.75Zm-3 0v-.75h-.96l.232.932.728-.182Zm2.25 9-.728.182.142.568h.586v-.75Zm2.127.75h.75v-1.5h-.75v1.5Zm5.444 1.691.344-.666-1.332-.689-.345.667.667.344.666.344Zm-3.071 4.309-.666-.344-.566 1.094h1.232v-.75Zm4.5 0v.75h.459l.209-.409-.668-.341Zm3.45-6.75v-.75h-.459l-.209.409.668.341Zm1.6-6h-.75v1.5h.75v-1.5Zm-3.789-2.228.66-.358-1.636-3.021-.66.357-.66.357 1.637 3.022.66-.357ZM12 3.375v-.75H7.565v1.5H12v-.75Zm-4.435 0-.671.334 2.989 6 .671-.334.671-.334-2.988-6-.672.334Zm2.989 6v-.75H6.375v1.5h4.179v-.75Zm-4.179 0 .643-.386-2.25-3.75-.643.386-.643.386 2.25 3.75.643-.386Zm-2.25-3.75v-.75h-3v1.5h3v-.75Zm-3 0-.728.182 2.25 9 .728-.182.728-.182-2.25-9-.728.182Zm2.25 9v.75h2.127v-1.5H3.375v.75Zm6.905 2.097-.667-.344L7.21 21.03l.666.344.666.344 2.405-4.653-.666-.344Zm-2.405 4.653v.75h4.5v-1.5h-4.5v.75Zm4.5 0 .668.341 3.45-6.75-.668-.341-.668-.341-3.45 6.75.668.341Zm3.45-6.75v.75h4.425v-1.5h-4.425v.75Zm4.425 0v.75c1.84 0 3.375-1.536 3.375-3.375h-1.5c0 1.01-.864 1.875-1.875 1.875v.75ZM22.875 12h.75c0-1.84-1.536-3.375-3.375-3.375v1.5c1.01 0 1.875.864 1.875 1.875h.75ZM20.25 9.375v-.75h-2.826v1.5h2.826v-.75ZM2.273 21.935l.546.515 19.16-20.358-.546-.514-.546-.514-19.16 20.358.546.514Z"/></svg>