<svg xmlns="http://www.w3.org/2000/svg" fill="none" viewBox="0 0 24 24"><path fill="currentColor" d="m12.375 3.375.67-.335-.207-.415h-.463v.75Zm-4.5 0v-.75H6.661l.543 1.085.671-.335Zm-1.5 6-.643.386.218.364h.425v-.75Zm-2.25-3.75.643-.386-.218-.364h-.425v.75Zm-3 0v-.75h-.96l.232.932.728-.182Zm2.25 9-.728.182.142.568h.586v-.75Zm7.95 0 .668.341.558-1.091h-1.226v.75Zm-3.45 6.75-.668-.341-.558 1.091h1.226v-.75Zm4.123.75h.75v-1.5h-.75v1.5Zm5.285-6.107-.419-.622-1.244.837.42.623.621-.42.622-.418Zm.334 1.84-.622.418.223.331h.4v-.75Zm1.563.75h.75v-1.5h-.75v1.5Zm2.653-5.624-.402.633 1.265.805.403-.633-.633-.402-.633-.403Zm-6.458-3.609.67-.335-3-6-.67.335-.67.335 3 6 .67-.335Zm-3-6v-.75h-4.5v1.5h4.5v-.75Zm-4.5 0-.67.335 3 6 .67-.335.67-.335-3-6-.67.335Zm15 8.625h.75c0-1.84-1.536-3.375-3.375-3.375v1.5c1.01 0 1.875.864 1.875 1.875h.75ZM20.25 9.375v-.75H6.375v1.5H20.25v-.75Zm-13.875 0 .643-.386-2.25-3.75-.643.386-.643.386 2.25 3.75.643-.386Zm-2.25-3.75v-.75h-3v1.5h3v-.75Zm-3 0-.728.182 2.25 9 .728-.182.728-.182-2.25-9-.728.182Zm2.25 9v.75h7.95v-1.5h-7.95v.75Zm7.95 0-.668-.341-3.45 6.75.668.341.668.341 3.45-6.75-.668-.341Zm-3.45 6.75v.75h4.123v-1.5H7.875v.75Zm13.638-3.65h-.75a3.146 3.146 0 0 1-3.146 3.146v1.5a4.645 4.645 0 0 0 4.646-4.645h-.75Zm-3.896 3.896v-.75a3.146 3.146 0 0 1-3.145-3.145h-1.5a4.645 4.645 0 0 0 4.645 4.645v-.75Zm-3.895-3.895h.75a3.146 3.146 0 0 1 3.145-3.146v-1.5a4.645 4.645 0 0 0-4.645 4.646h.75Zm3.895-3.896v.75a3.146 3.146 0 0 1 3.146 3.146h1.5a4.646 4.646 0 0 0-4.646-4.646v.75Zm-.956 2.607-.622.419.956 1.42.622-.419.622-.419-.956-1.42-.622.419Zm.956 1.42v.75h1.563v-1.5h-1.563v.75Zm4.85-4.47.632.402A3.33 3.33 0 0 0 23.625 12h-1.5c0 .354-.105.691-.292.984l.633.403Z"/></svg>