<svg xmlns="http://www.w3.org/2000/svg" fill="none" viewBox="0 0 24 24"><path fill="currentColor" d="M7.5 4.5v-.75H6v.75h1.5ZM6 6.75v.75h1.5v-.75H6Zm1.5 7.5v-.75H6v.75h1.5ZM6 18v.75h1.5V18H6ZM4.5.75v.75h15V0h-15v.75Zm15 0v.75a.75.75 0 0 1 .75.75h1.5A2.25 2.25 0 0 0 19.5 0v.75Zm1.5 1.5h-.75v19.5h1.5V2.25H21Zm0 19.5h-.75a.75.75 0 0 1-.75.75V24a2.25 2.25 0 0 0 2.25-2.25H21Zm-1.5 1.5v-.75h-15V24h15v-.75Zm-15 0v-.75a.75.75 0 0 1-.75-.75h-1.5A2.25 2.25 0 0 0 4.5 24v-.75ZM3 21.75h.75V2.25h-1.5v19.5H3Zm0-19.5h.75a.75.75 0 0 1 .75-.75V0a2.25 2.25 0 0 0-2.25 2.25H3Zm18 8.25v-.75H3v1.5h18v-.75Zm-14.25-6H6v2.25h1.5V4.5h-.75Zm0 9.75H6V18h1.5v-3.75h-.75Z"/></svg>