<svg xmlns="http://www.w3.org/2000/svg" fill="none" viewBox="0 0 24 24"><path fill="currentColor" d="M1.5 1.5V.75H.75v.75h.75Zm21 0h.75V.75h-.75v.75Zm0 21v.75h.75v-.75h-.75Zm-21 0H.75v.75h.75v-.75Zm11.25-21V.75h-1.5v.75h1.5Zm-1.5 21v.75h1.5v-.75h-1.5ZM1.5 9H.75v1.5h.75V9Zm21 1.5h.75V9h-.75v1.5ZM4.282 16.26l-.37-.653-.536.304.194.585.712-.236Zm3.132-1.773.37.652.69-.39-.428-.668-.632.406Zm0 3.45.387-.643-.316-.19-.344.134.273.698ZM1.5 1.5v.75h21V.75h-21v.75Zm21 0h-.75v21h1.5v-21h-.75Zm0 21v-.75h-21v1.5h21v-.75Zm-21 0h.75v-21H.75v21h.75ZM12 1.5h-.75v21h1.5v-21H12ZM1.5 9.75v.75h21V9h-21v.75Zm2.782 6.51-.712.236.85 2.57.712-.236.712-.236-.85-2.57-.712.236Zm.85 2.57-.682-.313-1.593 3.472.681.313.682.313 1.594-3.473-.682-.313Zm.74-6.746-.63.405 1.541 2.403.631-.405.632-.405-1.543-2.403-.63.405Zm1.542 2.403-.37-.653-3.132 1.773.37.653.37.653 3.132-1.774-.37-.652ZM8.9 18.829l.386-.642-1.485-.893-.387.642-.386.643 1.485.893.387-.643Zm-1.486-.893-.273-.698-2.282.893.273.698.273.699 2.283-.893-.274-.699Z"/></svg>