<svg xmlns="http://www.w3.org/2000/svg" fill="none" viewBox="0 0 24 24"><path stroke="currentColor" stroke-miterlimit="10" vector-effect="non-scaling-stroke" stroke-width="1.5" d="M.75 17.25V21h22.5v-3.75M3 5.25 5.212 3 7.5 5.25M4.725 3.638c.438.709.696 1.515.75 2.347a5.093 5.093 0 0 1-.75 2.348 5.002 5.002 0 0 0-.75 2.34c.054.832.312 1.638.75 2.347.44.7.698 1.5.75 2.325a5.093 5.093 0 0 1-.75 2.347M16.5 5.25 18.712 3 21 5.25m-2.775-1.612c.438.709.696 1.515.75 2.347a5.092 5.092 0 0 1-.75 2.348 5.002 5.002 0 0 0-.75 2.34c.054.832.312 1.638.75 2.347.44.7.698 1.5.75 2.325a5.092 5.092 0 0 1-.75 2.347M9.75 5.25 11.962 3l2.288 2.25m-2.775-1.612c.438.709.696 1.515.75 2.347a5.092 5.092 0 0 1-.75 2.348 5.002 5.002 0 0 0-.75 2.34c.054.832.312 1.638.75 2.347.44.7.698 1.5.75 2.325a5.092 5.092 0 0 1-.75 2.347"/></svg>