<svg xmlns="http://www.w3.org/2000/svg" fill="none" viewBox="0 0 24 24"><path fill="currentColor" d="M20.25 7.5v-.75h-.75v.75h.75Zm3 0H24v-.75h-.75v.75Zm0 3.75V12H24v-.75h-.75Zm-3 0h-.75V12h.75v-.75Zm-2.265 2.25v-.75h-1.5v.75h1.5Zm1.875 5.25V18v.75Zm3.375-7.5v-.75h-1.5v.75h1.5ZM.75 21H0v1.5h.75V21Zm18 1.5h.75V21h-.75v1.5ZM5.85 5.653v-.75H5.1v.75h.75Zm7.632 0h.75v-.75h-.75v.75Zm0 5.804v.75h.75v-.75h-.75Zm-7.632 0H5.1v.75h.75v-.75ZM21.735 7.5l.747.067a5.205 5.205 0 0 0-.351-2.4l-.697.278-.696.279c.217.542.303 1.127.25 1.709l.747.067Zm-.3-2.055.696-.278a5.204 5.204 0 0 0-1.402-1.98l-.494.563-.494.564c.439.385.78.868.997 1.41l.696-.279ZM20.25 7.5v.75h3v-1.5h-3v.75Zm3 0h-.75v3.75H24V7.5h-.75Zm0 3.75v-.75h-3V12h3v-.75Zm-3 0H21V7.5h-1.5v3.75h.75Zm-3.015 2.25h-.75v2.625h1.5V13.5h-.75Zm0 2.625h-.75c0 .895.356 1.753.989 2.387l.53-.53.53-.531a1.875 1.875 0 0 1-.549-1.326h-.75Zm.769 1.856-.53.53a3.375 3.375 0 0 0 2.386.989V18c-.497 0-.974-.198-1.326-.55l-.53.531Zm1.856.769v.75c.895 0 1.753-.356 2.387-.988l-.53-.53-.531-.531A1.879 1.879 0 0 1 19.86 18v.75Zm1.856-.769.53.53a3.375 3.375 0 0 0 .989-2.386h-1.5c0 .497-.197.974-.55 1.326l.531.53Zm.769-1.856h.75V11.25h-1.5v4.875h.75ZM2.235 21.75h.75v-18h-1.5v18h.75Zm0-18h.75a.75.75 0 0 1 .22-.53l-.53-.53-.531-.531a2.25 2.25 0 0 0-.659 1.591h.75Zm.44-1.06.53.53a.75.75 0 0 1 .53-.22V1.5a2.25 2.25 0 0 0-1.591.659l.53.53Zm1.06-.44V3h12V1.5h-12v.75Zm12 0V3a.75.75 0 0 1 .53.22l.53-.53.531-.531a2.25 2.25 0 0 0-1.591-.659v.75Zm1.06.44-.53.53c.141.14.22.331.22.53h1.5a2.25 2.25 0 0 0-.659-1.591l-.53.53Zm.44 1.06h-.75v18h1.5v-18h-.75ZM.75 21.75v.75h18V21h-18v.75Zm5.1-16.097v.75h7.632v-1.5H5.85v.75Zm7.632 0h-.75v5.804h1.5V5.653h-.75Zm0 5.804v-.75H5.85v1.5h7.632v-.75Zm-7.632 0h.75V5.653H5.1v5.804h.75Z"/></svg>