<svg xmlns="http://www.w3.org/2000/svg" fill="none" viewBox="0 0 24 24"><path fill="currentColor" d="M.75.75V0H0v.75h.75Zm22.5 0H24V0h-.75v.75Zm0 22.5V24H24v-.75h-.75Zm-22.5 0H0V24h.75v-.75ZM8.25 6v-.75H7.5V6h.75ZM7.5 18v.75H9V18H7.5Zm4.875-12v-.75V6Zm3.375 3.375h.75-.75ZM.75.75v.75h22.5V0H.75v.75Zm22.5 0h-.75v22.5H24V.75h-.75Zm0 22.5v-.75H.75V24h22.5v-.75Zm-22.5 0h.75V.75H0v22.5h.75ZM8.25 6H7.5v12H9V6h-.75Zm0 0v.75h4.125v-1.5H8.25V6Zm4.125 0v.75c.696 0 1.364.277 1.856.769l.53-.53.53-.53a4.125 4.125 0 0 0-2.916-1.209V6Zm2.386.989-.53.53c.492.492.769 1.16.769 1.856h1.5a4.125 4.125 0 0 0-1.208-2.917l-.53.53Zm.989 2.386H15c0 .696-.277 1.364-.769 1.856l.53.53.53.53A4.125 4.125 0 0 0 16.5 9.376h-.75Zm-.989 2.386-.53-.53a2.625 2.625 0 0 1-1.856.769v1.5a4.125 4.125 0 0 0 2.917-1.208l-.53-.53Zm-2.386.989V12H8.25v1.5h4.125v-.75Z"/></svg>