<svg xmlns="http://www.w3.org/2000/svg" fill="none" viewBox="0 0 24 24"><path stroke="currentColor" stroke-linecap="square" stroke-miterlimit="10" vector-effect="non-scaling-stroke" stroke-width="1.5" d="M16.5 20.853h-9m9 0a2.25 2.25 0 0 0 4.5 0m-4.5 0a2.25 2.25 0 0 1 4.5 0m-13.5 0a2.25 2.25 0 0 1-4.5 0m4.5 0a2.25 2.25 0 0 0-4.5 0m0 0H.75v-6m0 0 3.75-5.25H15l3 5.25m-17.25 0H18m0 0h5.25v6H21M9.75 9.603v5.25M8.25.897a3 3 0 0 1 2.75 1.8h6.25l-.6 2.4h-5.649A3 3 0 1 1 8.25.897Zm-.549 3.415a.45.45 0 1 0 0-.9.45.45 0 0 0 0 .9Z"/></svg>