<svg xmlns="http://www.w3.org/2000/svg" fill="none" viewBox="0 0 24 24"><path stroke="currentColor" stroke-miterlimit="10" vector-effect="non-scaling-stroke" stroke-width="1.5" d="M6 16.92v6.33h13.028a7.65 7.65 0 0 1-1.224-4.436c.121-3.09 2.446-6.443 2.446-6.443L20.197 3c.078.001.362-.014.434-.043A.59.59 0 0 0 21 2.41V1.341a.591.591 0 0 0-.597-.591H14.85a.589.589 0 0 0-.59.59v1.07a.59.59 0 0 0 .173.417c.11.11.456.173.612.173L15 9.72H2.097a.596.596 0 0 0-.597.597v1.085a.6.6 0 0 0 .597.598m12.505-9H20.1M15 9.779V12h5.25m-3.75 0H2.25s0 5.25 7.125 5.25S16.5 12 16.5 12Z"/></svg>