<svg xmlns="http://www.w3.org/2000/svg" fill="none" viewBox="0 0 24 24"><path stroke="currentColor" stroke-linecap="round" stroke-miterlimit="10" vector-effect="non-scaling-stroke" stroke-width="1.5" d="M12 3a8.99 8.99 0 0 1 8.499 6.06c.164-.039.332-.059.501-.06a2.25 2.25 0 0 1 0 4.5c-.046 0-.088-.014-.133-.014a8.99 8.99 0 0 1-17.734 0c-.045.003-.087.014-.133.014A2.25 2.25 0 1 1 3 9c.169.001.337.021.501.06A8.99 8.99 0 0 1 12 3Zm0 0a2.25 2.25 0 1 0 1.59 3.84m.88 9.103c-.435.389-1.212.883-2.47.883a4.581 4.581 0 0 1-2.676-.883m6.188-4.578a.6.6 0 1 0 0-1.2.6.6 0 0 0 0 1.2Zm-6.991 0a.6.6 0 1 0 0-1.2.6.6 0 0 0 0 1.2Z"/></svg>