<svg xmlns="http://www.w3.org/2000/svg" fill="none" viewBox="0 0 24 27"><path stroke="currentColor" vector-effect="non-scaling-stroke" stroke-width="1.5" d="m17.503 15.122 2.704 1.408c.872.456 1.426 1.384 1.426 2.402v4.25H2.366v-4.25c0-1.018.555-1.945 1.427-2.402l2.704-1.408M2.67 19.826h18.658m-3.033-4.752c-1.827 1.443-3.984 2.278-6.296 2.278-2.31 0-4.468-.835-6.295-2.278m12.59-8.998Zm0 0c0-2.904-2.79-5.259-6.234-5.259-3.443 0-6.235 2.355-6.235 5.26m12.47 0H5.826m0 0Zm4.951 6.505h2.568m-4.923.626.67-1.95c.288-.557.958-.835 1.629-.835h2.873c.574 0 1.053.278 1.34.743l.766 2.228m-.458-7.25L13.299 8.24M8.758 6.144 10.7 8.24M6.396 6.076h11.33c.021.272.032.548.032.827 0 4.286-2.55 7.76-5.697 7.76-3.146 0-5.697-3.474-5.697-7.76 0-.28.011-.555.032-.827Z"/></svg>