<svg xmlns="http://www.w3.org/2000/svg" fill="none" viewBox="0 0 24 24"><path stroke="currentColor" stroke-linecap="square" stroke-miterlimit="10" vector-effect="non-scaling-stroke" stroke-width="1.5" d="M9.075 7.2c.975.225 1.95.3 2.925.3.975 0 1.95-.15 2.925-.3m6.825-2.025a2.929 2.929 0 0 0-2.925-2.925c-.825 0-2.55.525-4.05.975-.9.3-1.875.45-2.775.45-.975 0-1.875-.15-2.775-.45-1.5-.45-3.225-.975-4.05-.975A2.929 2.929 0 0 0 2.25 5.175c0 1.575.975 4.875.975 4.875l-.975 9.825c0 1.05.825 1.875 1.875 1.875.675 0 1.2-.45 1.575-.9l3.75-4.425C10.125 15.6 11.025 15 12 15c.975 0 1.8.6 2.55 1.425l3.75 4.425c.375.45.975.9 1.575.9 1.05 0 1.875-.825 1.875-1.875l-.975-9.825s.975-3.3.975-4.875Z"/></svg>