<svg xmlns="http://www.w3.org/2000/svg" fill="none" viewBox="0 0 24 24"><path fill="currentColor" d="M3 1.5V.75h-.75v.75H3Zm18 0h.75V.75H21v.75ZM21 12v.75h.75V12H21ZM3 12h-.75v.75H3V12Zm5.25 3H7.5v1.5h.75V15Zm7.5 1.5h.75V15h-.75v1.5Zm6.75 6v.75H24v-.75h-1.5Zm.75-3.75H24V18h-.75v.75Zm-22.5 0V18H0v.75h.75ZM0 22.5v.75h1.5v-.75H0Zm12-6.75h.75V12h-1.5v3.75H12ZM3 1.5v.75h18V.75H3v.75Zm18 0h-.75V12h1.5V1.5H21ZM21 12v-.75H3v1.5h18V12ZM3 12h.75V1.5h-1.5V12H3Zm5.25 3.75v.75h7.5V15h-7.5v.75Zm15 6.75H24v-3.75h-1.5v3.75h.75Zm0-3.75V18H.75v1.5h22.5v-.75Zm-22.5 0H0v3.75h1.5v-3.75H.75Z"/></svg>