<svg xmlns="http://www.w3.org/2000/svg" fill="none" viewBox="0 0 24 24"><path fill="currentColor" d="m16.413 14.75-.75-.015v.03l.75-.015Zm-1.255 5.935.666.344.007-.013.006-.013-.68-.318Zm-6.086 0-.679.32.006.01.005.012.668-.342ZM7.81 14.75l.75.016v-.031l-.75.015Zm1.262-5.942-.668-.342-.005.011-.005.011.678.32Zm6.086 0 .68-.317-.007-.013-.007-.014-.666.344Zm-1.524-6.377-.628-.41-.02.03-.017.031.665.349ZM15.857.997l-.149-.735-.013.002.162.733Zm-5.354 1.46.662-.353-.013-.024-.014-.023-.635.4ZM8.273.99l.164-.73-.01-.004-.012-.002-.143.736ZM4.67 14.067l.203-.722a.75.75 0 0 0-.744.202l.54.52Zm.968-5.923.24-.71a.75.75 0 0 0-.823.239l.583.471Zm13.883 5.923.566-.492a.75.75 0 0 0-.772-.23l.206.722Zm-.996-5.923.583-.471a.75.75 0 0 0-.822-.24l.24.711Zm-2.112 6.606-.75.015a12.642 12.642 0 0 1-1.185 5.603l.68.317.679.318a14.144 14.144 0 0 0 1.326-6.268l-.75.015Zm-1.255 5.935-.667-.344c-.738 1.431-1.62 2.05-2.376 2.05v1.5c1.61 0 2.884-1.261 3.71-2.862l-.667-.344Zm-3.043 2.456v-.75c-.757 0-1.645-.62-2.375-2.047l-.668.341-.668.342c.821 1.604 2.102 2.864 3.71 2.864v-.75Zm-3.043-2.456.679-.32a12.553 12.553 0 0 1-1.191-5.6l-.75-.015-.75-.015a14.053 14.053 0 0 0 1.333 6.27l.679-.32ZM7.81 14.75l.75-.015c-.04-1.94.368-3.862 1.19-5.607l-.678-.32-.678-.32a14.054 14.054 0 0 0-1.334 6.278l.75-.016Zm7.348-5.942-.68.317a12.658 12.658 0 0 1 1.185 5.61l.75.015.75.015a14.158 14.158 0 0 0-1.326-6.274l-.68.317ZM10.17 7.384l.633-.402c-.156-.246-.29-.464-.386-.645a1.78 1.78 0 0 1-.092-.198c-.02-.055-.003-.032-.003.04h-1.5c0 .192.053.364.096.48.047.129.11.258.173.378.126.24.29.504.446.749l.633-.402Zm-.599-1.205h.75c0 .07-.01-.095.38-.33.339-.203.839-.361 1.41-.361v-1.5c-.832 0-1.602.226-2.182.576-.529.317-1.108.874-1.108 1.615h.75Zm2.54-1.441v.75c.571 0 1.074.158 1.414.362.395.236.383.4.383.33h1.5c0-.744-.583-1.3-1.112-1.617-.582-.349-1.353-.575-2.185-.575v.75Zm2.547 1.441h-.75c0-.048.009-.052-.011.016-.017.055-.045.13-.084.223a5.47 5.47 0 0 1-.3.586l.648.38.647.38c.137-.236.277-.505.384-.757a3.71 3.71 0 0 0 .142-.383c.034-.115.074-.276.074-.445h-.75Zm-1.681-1.441.748.047a4.972 4.972 0 0 1 .572-2.005l-.664-.35-.663-.348a6.469 6.469 0 0 0-.742 2.61l.748.046Zm.656-2.307.628.41c.335-.511.956-.935 1.757-1.112l-.162-.732-.161-.733c-1.116.247-2.104.862-2.69 1.756l.628.41ZM15.857.997l.148.735a6.248 6.248 0 0 1 1.984-.078l.09-.745.09-.744a7.747 7.747 0 0 0-2.46.097l.148.735Zm-4.696 3.74.748-.053a6.484 6.484 0 0 0-.744-2.58l-.662.352-.662.353c.327.614.522 1.29.572 1.983l.748-.054Zm-.658-2.28.635-.4c-.575-.914-1.573-1.543-2.7-1.798L8.272.99l-.165.732c.814.184 1.436.618 1.761 1.134l.635-.4ZM8.273.99l.142-.736A7.925 7.925 0 0 0 5.961.165l.09.745.089.745a6.425 6.425 0 0 1 1.99.071L8.272.99Zm-.465 13.96.203-.723-3.138-.882-.203.722-.203.722 3.138.882.203-.722Zm-3.138-.883-.54-.52-2.072 2.15.54.52.54.521 2.072-2.15-.54-.521Zm3.942-4.922.239-.711-2.974-1-.239.71-.24.711 2.975 1 .239-.71Zm-2.974-1-.583-.472-1.205 1.49.583.47.583.473 1.205-1.49-.583-.472Zm2.78 10.864-.612-.434-2.803 3.957.612.433.612.434 2.803-3.957-.612-.433Zm8.011-4.06.206.721 3.092-.882-.206-.721-.206-.721-3.091.882.205.721Zm3.092-.882-.566.492 1.871 2.151.566-.492.566-.492-1.87-2.151-.567.492Zm-3.97-4.922.24.71 2.974-1-.24-.71-.239-.711-2.974 1 .24.71Zm2.974-1-.583.471 1.206 1.49.583-.472.583-.472-1.206-1.49-.583.472Zm-2.718 10.864-.61.436 2.831 3.957.61-.437.61-.436-2.83-3.957-.61.437Zm-6.735-10.2.668.34c.12-.235.385-.472.826-.653.435-.18.98-.278 1.547-.278.566 0 1.113.1 1.549.28.442.182.708.419.829.654l.667-.344.666-.344c-.338-.656-.949-1.089-1.59-1.353-.648-.267-1.394-.392-2.12-.393-.725 0-1.471.124-2.12.39-.642.265-1.252.7-1.59 1.358l.668.342Z"/></svg>