<svg xmlns="http://www.w3.org/2000/svg" fill="none" viewBox="0 0 24 24"><path fill="currentColor" d="m14.469 8.001-.474.581.506.414.479-.445-.511-.55Zm-2.004-1.635.474-.581-.571-.467-.476.564.573.484ZM19.62 4.73l.737-.139v-.003l-.737.142Zm-2.176-1.678v.75h.01l-.01-.75ZM4.415 4.73l-.736-.143v.002l.736.141Zm3.261 13.315v-.75h-1.5v.75h1.5Zm-.75 3.75v.75h.75v-.75h-.75Zm-4.354 0h-.75v.75h.75v-.75Zm.75-3.75v-.75h-1.5v.75h1.5Zm18.87 0v-.75h-1.5v.75h1.5Zm-.75 3.75v.75h.75v-.75h-.75Zm-4.354 0h-.75v.75h.75v-.75Zm.75-3.75v-.75h-1.5v.75h1.5Zm5.057 0v.75h.75v-.751l-.75.001Zm-21.774 0H.37v.75h.75v-.75Zm0-4.313h.75v-.001l-.75.002Zm.63-1.59-.537-.522-.004.003.541.52Zm20.498 0-.54.52.001.002.539-.521Zm.638 1.59-.75.001h.75ZM17.685 5.01l-.51-.55-3.217 2.992.51.55.512.549 3.216-2.992-.51-.549ZM14.47 8.001l.474-.58-2.004-1.636-.474.58-.474.582 2.004 1.635.474-.58Zm-2.004-1.635-.573-.484L9.9 8.242l.573.483.573.484 1.992-2.36-.573-.483Zm8.252 4.187.737-.14-1.097-5.822-.737.14-.737.138 1.097 5.822.737-.139ZM19.62 4.73l.736-.142c-.265-1.374-1.53-2.306-2.924-2.285l.012.75.01.75c.736-.011 1.315.475 1.43 1.07l.736-.143Zm-2.176-1.678v-.75H6.557v1.5h10.887v-.75Zm-10.887 0v-.75c-1.379 0-2.614.93-2.878 2.285l.736.143.737.144c.114-.589.68-1.071 1.405-1.071v-.75ZM4.415 4.73l-.735-.14-1.12 5.82.737.142.736.14 1.118-5.821-.737-.142Zm2.511 13.315h-.75v3.75h1.5v-3.75h-.75Zm0 3.75v-.75H2.572v1.5h4.354v-.75Zm-4.354 0h.75v-3.75h-1.5v3.75h.75Zm18.87-3.75h-.75v3.75h1.5v-3.75h-.75Zm0 3.75v-.75h-4.354v1.5h4.355v-.75Zm-4.354 0h.75v-3.75h-1.5v3.75h.75Zm5.807-3.75v-.75H1.12v1.5h21.774v-.75Zm-21.774 0h.75v-4.313H.37v4.313h.75Zm0-4.313.75-.001a1.539 1.539 0 0 1 .422-1.07l-.542-.518-.54-.52a3.039 3.039 0 0 0-.84 2.111l.75-.002Zm.63-1.59.538.523 1.546-1.59-.537-.522-.538-.523-1.546 1.59.537.523Zm1.547-1.59v.75h17.42v-1.5H3.297v.75Zm17.42 0-.54.52 1.53 1.59.54-.52.541-.52-1.532-1.59-.54.52Zm1.53 1.59-.538.522c.27.28.427.664.427 1.07l.75-.002h.75a3.042 3.042 0 0 0-.85-2.111l-.538.521Zm.64 1.59-.75.002.007 4.312.75-.001.75-.001-.008-4.313-.75.002ZM6 14.626h-.75a.375.375 0 0 1-.375.375v1.5c1.036 0 1.875-.84 1.875-1.875H6ZM4.875 15.75V15a.375.375 0 0 1-.375-.375H3c0 1.036.84 1.875 1.875 1.875v-.75ZM3.75 14.625h.75c0-.207.168-.375.375-.375v-1.5C3.84 12.75 3 13.59 3 14.625h.75ZM4.875 13.5v.75c.207 0 .375.168.375.375h1.5c0-1.036-.84-1.875-1.875-1.875v.75Zm15.375 1.125h-.75a.375.375 0 0 1-.375.375v1.5c1.036 0 1.875-.84 1.875-1.875h-.75Zm-1.125 1.125V15a.375.375 0 0 1-.375-.375h-1.5c0 1.036.84 1.875 1.875 1.875v-.75ZM18 14.625h.75c0-.207.168-.375.375-.375v-1.5c-1.035 0-1.875.84-1.875 1.875H18Zm1.125-1.125v.75c.207 0 .375.168.375.375H21c0-1.036-.84-1.875-1.875-1.875v.75Z"/></svg>