<svg xmlns="http://www.w3.org/2000/svg" fill="none" viewBox="0 0 24 24"><path stroke="currentColor" stroke-miterlimit="10" vector-effect="non-scaling-stroke" stroke-width="1.5" d="M6.429 5.497c.615.455 1.17.878 1.753 1.585.49.594 1.077 2.718.273 3.76-.91 1.176-3.546 1.573-3.546 2.658 0 .816 1.155 1.748 1.773 2.659.928 1.37.506 2.698 0 3.545-.263.44-.709.791-1.174 1.07m15.981-9.524a9.75 9.75 0 0 1-9.489 12 9.75 9.75 0 0 1-9.75-9.75 9.75 9.75 0 0 1 9.953-9.748m-.327 19.497c-1.944-1.572-2.05-6.743 1.012-7.943 1.624-.637 2.073 2.564 5.337 2.027.865-.142 1.732.386 1.795 1.713M16.5 6a.75.75 0 1 0 0-1.5.75.75 0 0 0 0 1.5Zm4.5-.867C21 7.838 16.5 12 16.5 12S12 7.838 12 5.133C12 2.36 14.326.75 16.5.75S21 2.36 21 5.133Z"/></svg>