<svg xmlns="http://www.w3.org/2000/svg" fill="none" viewBox="0 0 16 16"><path stroke="currentColor" stroke-linecap="round" stroke-linejoin="round" vector-effect="non-scaling-stroke" stroke-width="1.2" d="M6.622 12.133h2.756l2.755 2.756v-2.755h1.378a1.378 1.378 0 0 0 1.378-1.378V6.163a1.378 1.378 0 0 0-1.378-1.378h-.459M9.837 1.111H2.49a1.378 1.378 0 0 0-1.38 1.378V7.08a1.378 1.378 0 0 0 1.379 1.38h1.378v2.756L6.622 8.46h3.215a1.378 1.378 0 0 0 1.378-1.378V2.49a1.378 1.378 0 0 0-1.378-1.38Z"/></svg>