<svg xmlns="http://www.w3.org/2000/svg" fill="none" viewBox="0 0 16 16"><path fill="currentColor" d="m5.68 3.907-.36-.48-.96.72.36.48.48-.36.48-.36ZM8 8l-.48.36.18.24H8V8Zm2.8.6h.6V7.4h-.6v1.2ZM8 1h-.6v2h1.2V1H8Zm6.666 7v-.6h-2v1.2h2V8ZM8 14.667h.6v-2H7.4v2H8ZM1 8v.6h2V7.4H1V8Zm14 0h-.6A6.4 6.4 0 0 1 8 14.4v1.2A7.6 7.6 0 0 0 15.6 8H15Zm-7 7v-.6A6.4 6.4 0 0 1 1.6 8H.4A7.6 7.6 0 0 0 8 15.6V15ZM1 8h.6A6.4 6.4 0 0 1 8 1.6V.4A7.6 7.6 0 0 0 .4 8H1Zm7-7v.6A6.4 6.4 0 0 1 14.4 8h1.2A7.6 7.6 0 0 0 8 .4V1ZM5.2 4.267l-.48.36 2.8 3.733L8 8l.48-.36-2.8-3.733-.48.36ZM8 8v.6h2.8V7.4H8V8Z"/></svg>