<svg xmlns="http://www.w3.org/2000/svg" fill="none" viewBox="0 0 16 16"><path stroke="currentColor" stroke-linecap="square" stroke-miterlimit="10" vector-effect="non-scaling-stroke" stroke-width="1.2" d="M12.5 8a4 4 0 0 0-4-4v8a4 4 0 0 0 4-4Zm0 0A3.5 3.5 0 0 0 9 4.5v7A3.5 3.5 0 0 0 12.5 8ZM8 15.333A7.333 7.333 0 1 0 8 .667a7.333 7.333 0 0 0 0 14.666ZM8 2.75a5.25 5.25 0 0 1 0 10.5V2.75Zm.5.75a4.5 4.5 0 0 1 0 9v-9Zm1 1.5C10.88 5 12 6.343 12 8s-1.12 3-2.5 3V5Zm.5.5c.828 0 1.5 1.12 1.5 2.5s-.672 2.5-1.5 2.5v-5Zm.5.5c.276 0 .5.896.5 2 0 1.105-.224 2-.5 2V6Z"/></svg>