<svg xmlns="http://www.w3.org/2000/svg" fill="none" viewBox="0 0 16 16"><path fill="currentColor" d="M1.424 1.576a.6.6 0 1 0-.848.848L1 2l.424-.424ZM8 9l-.424.424L8 9.85l.424-.425L8 9Zm7.424-6.576a.6.6 0 1 0-.848-.848L15 2l.424.424ZM14.5 14.5v-.6h-13v1.2h13v-.6Zm-13 0v-.6a.4.4 0 0 1-.4-.4H-.1a1.6 1.6 0 0 0 1.6 1.6v-.6Zm-1-1h.6v-11H-.1v11h.6Zm0-11h.6c0-.22.18-.4.4-.4V.9A1.6 1.6 0 0 0-.1 2.5h.6Zm1-1v.6h13V.9h-13v.6Zm13 0v.6c.22 0 .4.18.4.4h1.2A1.6 1.6 0 0 0 14.5.9v.6Zm1 1h-.6v11h1.2v-11h-.6Zm0 11h-.6a.4.4 0 0 1-.4.4v1.2a1.6 1.6 0 0 0 1.6-1.6h-.6ZM1 2l-.424.424 7 7L8 9l.424-.424-7-7L1 2Zm7 7 .424.424 7-7L15 2l-.424-.424-7 7L8 9Z"/></svg>