<svg xmlns="http://www.w3.org/2000/svg" fill="none" viewBox="0 0 16 16"><path stroke="currentColor" stroke-linecap="round" stroke-linejoin="round" vector-effect="non-scaling-stroke" stroke-width="1.2" d="M12.875 10.375a1.238 1.238 0 0 0 1.75-1.75L10 4 6.551 6.587a1.115 1.115 0 0 1-1.457-1.681l3.059-2.667a3 3 0 0 1 1.971-.739H15.5v5m-15 0v-5h5.05c.15 0 .3.01.45.029M11.5 9l1.513 1.513a1.238 1.238 0 0 1-1.75 1.75l-1.527-1.527m1.139 1.139a1.238 1.238 0 0 1 0 1.75m-9.25-5.25.25-.25a1.237 1.237 0 0 1 1.75 0v.001a1.237 1.237 0 0 1 0 1.75l-.25.25a1.237 1.237 0 0 1-1.75 0v-.001a1.237 1.237 0 0 1 0-1.75Zm1.682 1.82.388-.389a1.237 1.237 0 0 1 1.75 0h0a1.237 1.237 0 0 1 0 1.75l-.388.388a1.237 1.237 0 0 1-1.75 0h0a1.237 1.237 0 0 1 0-1.75Zm1.75 1.748.25-.25a1.237 1.237 0 1 1 1.75 1.75l-.25.25a1.237 1.237 0 1 1-1.75-1.75Zm1.76 1.74.26-.26a1.06 1.06 0 1 1 1.5 1.5l-.26.26a1.06 1.06 0 1 1-1.5-1.5Z"/></svg>