<svg xmlns="http://www.w3.org/2000/svg" fill="none" viewBox="0 0 16 16"><path fill="currentColor" d="M2.5.4h-.6v1.2h.6V.4Zm11 1.2h.6V.4h-.6v1.2Zm-11 12.8h-.6v1.2h.6v-1.2Zm11 1.2h.6v-1.2h-.6v1.2Zm-1-12.46h-.6.6Zm-.456 1.59-.509-.319.509.319ZM10 8l-.509-.318L9.292 8l.2.318L10 8Zm2.044 3.27-.509.319.509-.319Zm.456 1.59h-.6.6Zm-9 0h.6-.6Zm.456-1.59.509.319-.509-.319ZM6 8l.509.318L6.708 8l-.2-.318L6 8ZM3.956 4.73l.509-.318-.509.317ZM3.5 3.14h.6-.6Zm2.65 9.574h-.6v.6h.6v-.6Zm0-.105h.6v-.002l-.6.002Zm.115-.4-.507-.32-.002.002.509.318Zm1.469-2.323.507.32.001-.002-.508-.318Zm.648 0-.508.318v.002l.508-.32Zm1.468 2.323.508-.319-.001-.002-.507.32Zm.114.4-.6-.002v.002h.6Zm0 .105v.6h.6v-.6h-.6Zm-3.178 0h-.6v.6h.6v-.6Zm0-.079h.6v-.002l-.6.002Zm.076-.3-.523-.294-.001.002.524.292Zm.98-1.742.523.294v-.002l-.524-.292Zm.432 0-.524.292v.001l.524-.293Zm.978 1.742.524-.292v-.002l-.524.294Zm.076.3-.6-.002v.002h.6Zm0 .079v.6h.6v-.6h-.6Zm-1.907-.752h-.6v.6h.6v-.6Zm0-.026h.6v-.002l-.6.002Zm.039-.1L7 11.449v.002l.46.385Zm.49-.58.458.386.002-.002-.46-.385Zm.215 0-.46.384.001.002.46-.387Zm.49.58.46-.385-.001-.002-.46.387Zm.038.1-.6-.003v.003h.6Zm0 .026v.6h.6v-.6h-.6ZM2.5 1v.6h11V.4h-11V1Zm0 14v.6h11v-1.2h-11v.6Zm10-14h-.6v2.14h1.2V1h-.6Zm0 2.14h-.6c0 .45-.126.89-.365 1.272l.509.317.509.319a3.6 3.6 0 0 0 .547-1.909h-.6Zm-.456 1.59-.509-.318-2.044 3.27L10 8l.509.318 2.044-3.27-.509-.319ZM10 8l-.509.318 2.044 3.27.509-.317.509-.319-2.044-3.27L10 8Zm2.044 3.27-.509.319a2.4 2.4 0 0 1 .365 1.271h1.2a3.6 3.6 0 0 0-.547-1.907l-.509.318Zm.456 1.59h-.6V15h1.2v-2.14h-.6ZM3.5 15h.6v-2.14H2.9V15h.6Zm0-2.14h.6c0-.45.126-.89.365-1.271l-.509-.319-.509-.317A3.6 3.6 0 0 0 2.9 12.86h.6Zm.456-1.59.509.319 2.044-3.271L6 8l-.509-.318-2.044 3.27.509.319ZM6 8l.509-.318-2.044-3.27-.509.317-.509.318 2.044 3.271L6 8ZM3.956 4.73l.509-.319A2.4 2.4 0 0 1 4.1 3.14H2.9a3.6 3.6 0 0 0 .547 1.908l.509-.319ZM3.5 3.14h.6V1H2.9v2.14h.6Zm2.65 9.574h.6v-.105h-1.2v.105h.6Zm0-.105.6-.002a.15.15 0 0 1 .023-.079l-.508-.319-.509-.318a1.348 1.348 0 0 0-.206.72l.6-.002Zm.115-.4.507.32 1.469-2.323-.507-.32-.507-.321-1.47 2.324.508.32Zm1.469-2.323.508.318a.22.22 0 0 1-.08.076l-.29-.525-.289-.526a.98.98 0 0 0-.358.338l.509.319Zm.138-.131.29.525a.215.215 0 0 1-.104.027v-1.2a.985.985 0 0 0-.475.122l.29.526Zm.186-.048v.6a.215.215 0 0 1-.104-.027l.29-.525.289-.526a.985.985 0 0 0-.475-.122v.6Zm.185.048-.289.525a.22.22 0 0 1-.08-.076l.508-.318.508-.319a.98.98 0 0 0-.357-.338l-.29.526Zm.139.13-.507.321 1.467 2.323.508-.32.507-.32-1.468-2.324-.507.32ZM9.85 12.21l-.509.319a.148.148 0 0 1 .023.079l.6.002.6.002c0-.255-.07-.505-.206-.72l-.508.318Zm.114.4h-.6v.105h1.2v-.105h-.6Zm0 .105v-.6H6.15v1.2h3.814v-.6Zm-3.178 0h.6v-.079h-1.2v.079h.6Zm0-.079.6-.002v-.006c0-.001.001-.001 0 0l-.524-.292-.524-.292a1.214 1.214 0 0 0-.152.593l.6-.001Zm.076-.3.523.294.98-1.742-.524-.294-.523-.294-.979 1.742.523.294Zm.98-1.742.524.292a.331.331 0 0 1-.116.12l-.316-.51-.316-.51c-.13.08-.23.19-.3.316l.524.292Zm.092-.098.316.51a.365.365 0 0 1-.192.054v-1.2a.834.834 0 0 0-.44.125l.316.51Zm.124-.036v.6a.365.365 0 0 1-.193-.054l.316-.51.316-.51a.834.834 0 0 0-.44-.126v.6Zm.123.036-.316.51a.331.331 0 0 1-.115-.12l.524-.292.524-.292a.868.868 0 0 0-.3-.317l-.317.51Zm.093.098-.523.293.978 1.743.523-.294.523-.294-.978-1.742-.523.294Zm.978 1.742-.524.292c0-.001 0-.001 0 0v.006l.6.002.6.002c0-.206-.05-.412-.152-.594l-.524.292Zm.076.3h-.6v.079h1.2v-.079h-.6Zm0 .079v-.6H6.786v1.2h2.542v-.6Zm-1.907-.752h.6v-.026h-1.2v.026h.6Zm0-.026.6-.002a.446.446 0 0 1-.101.287l-.46-.385-.46-.385a.754.754 0 0 0-.179.487l.6-.002Zm.039-.1.458.387.49-.581-.459-.387-.458-.387-.49.581.459.387Zm.49-.58.46.384a.481.481 0 0 1-.186.137l-.228-.555-.23-.554a.719.719 0 0 0-.277.202l.46.385Zm.046-.034.228.555a.437.437 0 0 1-.167.034v-1.2a.763.763 0 0 0-.29.057l.229.554Zm.061-.011v.6a.437.437 0 0 1-.167-.034l.23-.555.228-.554a.763.763 0 0 0-.29-.057v.6Zm.062.011-.229.555a.481.481 0 0 1-.185-.137l.46-.385.46-.385a.719.719 0 0 0-.277-.202l-.229.554Zm.046.033-.459.387.49.58.459-.386.459-.387-.49-.58-.459.386Zm.49.581-.46.385a.446.446 0 0 1-.102-.288l.6.003.6.002a.754.754 0 0 0-.178-.487l-.46.385Zm.038.1h-.6v.026h1.2v-.026h-.6Zm0 .026v-.6H7.42v1.2h1.272v-.6Z"/></svg>