<svg xmlns="http://www.w3.org/2000/svg" fill="none" viewBox="0 0 16 16"><path fill="currentColor" d="M1 2v-.6H.4V2H1Zm14 0h.6v-.6H15V2Zm0 12v.6h.6V14H15ZM1 14H.4v.6H1V14Zm.031-2.375-.374.469.937.75.375-.47L1.5 12l-.469-.375ZM3.5 9.5l.424-.424-.474-.474-.419.523.469.375Zm2 2-.424.424.424.425.424-.425L5.5 11.5Zm5-5 .448-.399-.422-.475-.45.45.424.424Zm3.552 4.899a.6.6 0 1 0 .896-.798L14.5 11l-.448.399ZM1 2v.6h14V1.4H1V2Zm14 0h-.6v12h1.2V2H15Zm0 12v-.6H1v1.2h14V14ZM1 14h.6V2H.4v12H1Zm.5-2 .469.375 2-2.5L3.5 9.5l-.469-.375-2 2.5L1.5 12Zm2-2.5-.424.424 2 2L5.5 11.5l.424-.424-2-2L3.5 9.5Zm2 2 .424.424 5-5L10.5 6.5l-.424-.424-5 5 .424.424Zm5-5-.448.399 4 4.5L14.5 11l.448-.399-4-4.5-.448.399Zm-4-.5h-.6a.9.9 0 0 1-.9.9v1.2A2.1 2.1 0 0 0 7.1 6h-.6ZM5 7.5v-.6a.9.9 0 0 1-.9-.9H2.9c0 1.16.94 2.1 2.1 2.1v-.6ZM3.5 6h.6a.9.9 0 0 1 .9-.9V3.9A2.1 2.1 0 0 0 2.9 6h.6ZM5 4.5v.6a.9.9 0 0 1 .9.9h1.2A2.1 2.1 0 0 0 5 3.9v.6Z"/></svg>