<svg xmlns="http://www.w3.org/2000/svg" fill="none" viewBox="0 0 16 16"><path fill="currentColor" d="m15.218 1.675.424-.425-.849-.848-.424.424.425.425.424.424Zm-4.794 3.097-.425.425.85.848.423-.424-.424-.424-.424-.425Zm2.87 1.277h.6v-1.2h-.6v1.2Zm-2.699-.6h-.6v.6h.6v-.6Zm.6-2.699v-.6h-1.2v.6h1.2Zm-.806 6.926.468.375-.468-.375Zm-1.162 1.45-.304.517a.6.6 0 0 0 .773-.142l-.469-.375ZM4.872 6.771l-.375-.468a.6.6 0 0 0-.142.772l.517-.304Zm1.45-1.161-.374-.469.374.469Zm.285-1.171-.548.244.548-.244Zm-1.323-2.98-.549.243.549-.243ZM4.134.905l.151.58-.151-.58Zm-2.518.655-.15-.58h-.001l.151.58Zm-.73 1.096-.595.082v.001l.595-.083Zm12.459 12.46-.083.594h.001l.082-.594Zm1.096-.732.58.151-.58-.152Zm.654-2.52-.581-.15.58.15Zm-.555-1.15.244-.548-.244.548Zm-2.98-1.322-.244.548h.001l.243-.548Zm3.235-8.141L14.37.826l-3.945 3.946.424.425.424.424 3.946-3.946-.425-.424Zm-1.5 4.198v-.6h-2.699v1.2h2.699v-.6Zm-2.699 0h.6V2.75h-1.2v2.699h.6Zm-.206 4.227-.468-.375-1.162 1.45.468.375.469.375 1.161-1.45-.468-.375Zm-1.162 1.45.305-.517A11.654 11.654 0 0 1 5.39 6.467l-.518.304-.517.304a12.854 12.854 0 0 0 4.568 4.568l.304-.517ZM4.872 6.771l.376.468 1.45-1.161-.376-.468-.375-.469-1.45 1.162.375.468Zm1.45-1.161.375.468a1.58 1.58 0 0 0 .55-.863l-.582-.142-.583-.142a.386.386 0 0 1-.134.21l.374.469Zm.343-.537.583.142c.082-.34.05-.7-.092-1.02l-.548.244-.549.244a.386.386 0 0 1 .023.248l.583.142Zm-.058-.634.549-.244-1.324-2.98-.548.244-.548.244 1.323 2.98.548-.244Zm-1.323-2.98.549-.243A1.586 1.586 0 0 0 5.07.43l-.26.54-.26.541c.082.04.147.108.184.191l.549-.243ZM4.811.971l.26-.54A1.586 1.586 0 0 0 3.983.323l.151.58.151.581a.386.386 0 0 1 .265.026l.26-.54ZM4.134.905 3.983.324 1.465.979l.151.581.152.58 2.517-.655-.151-.58Zm-2.518.655-.15-.58a1.592 1.592 0 0 0-.922.656l.5.333.498.333a.392.392 0 0 1 .227-.161l-.151-.581Zm-.574.409-.499-.333A1.592 1.592 0 0 0 .29 2.738l.595-.082.594-.082a.392.392 0 0 1 .062-.272l-.499-.333Zm-.157.687-.595.083a15.237 15.237 0 0 0 4.315 8.656l.424-.424.425-.424a14.037 14.037 0 0 1-3.975-7.974l-.594.083Zm4.144 8.315-.424.424a15.238 15.238 0 0 0 8.656 4.315l.083-.594.084-.594a14.038 14.038 0 0 1-7.974-3.975l-.425.424Zm8.315 4.145-.082.594c.386.053.778-.037 1.102-.253l-.333-.5-.333-.498a.393.393 0 0 1-.272.063l-.082.594Zm.687-.158.333.499c.324-.217.558-.545.656-.922l-.58-.152-.58-.151a.393.393 0 0 1-.162.227l.333.499Zm.409-.575.58.151.654-2.519-.58-.15-.581-.151-.654 2.519.581.15Zm.654-2.518.58.15c.095-.364.057-.75-.106-1.088l-.54.26-.541.261c.04.083.049.177.026.266l.58.15Zm-.067-.677.54-.26a1.588 1.588 0 0 0-.784-.762l-.244.548-.244.549a.387.387 0 0 1 .192.185l.54-.26Zm-.488-.474.244-.548-2.98-1.323-.244.549-.243.548 2.98 1.323.243-.549Zm-2.98-1.322.245-.548a1.585 1.585 0 0 0-1.02-.093l.142.583.141.583a.386.386 0 0 1 .248.023l.245-.548Zm-.633-.058-.142-.583a1.586 1.586 0 0 0-.863.55l.468.375.468.375a.386.386 0 0 1 .21-.134l-.141-.583Z"/></svg>