<svg xmlns="http://www.w3.org/2000/svg" fill="none" viewBox="0 0 16 16"><path fill="currentColor" d="M7.4 12v.6h1.2V12H7.4Zm1.2-4v-.6H7.4V8h1.2Zm-.1-3h-.6a.1.1 0 0 1 .1-.1v1.2A1.1 1.1 0 0 0 9.1 5h-.6Zm-.5.5v-.6a.1.1 0 0 1 .1.1H6.9A1.1 1.1 0 0 0 8 6.1v-.6ZM7.5 5h.6a.1.1 0 0 1-.1.1V3.9A1.1 1.1 0 0 0 6.9 5h.6Zm.5-.5v.6a.1.1 0 0 1-.1-.1h1.2A1.1 1.1 0 0 0 8 3.9v.6ZM15 8h-.6A6.4 6.4 0 0 1 8 14.4v1.2A7.6 7.6 0 0 0 15.6 8H15Zm-7 7v-.6A6.4 6.4 0 0 1 1.6 8H.4A7.6 7.6 0 0 0 8 15.6V15ZM1 8h.6A6.4 6.4 0 0 1 8 1.6V.4A7.6 7.6 0 0 0 .4 8H1Zm7-7v.6A6.4 6.4 0 0 1 14.4 8h1.2A7.6 7.6 0 0 0 8 .4V1Zm0 11h.6V8H7.4v4H8Z"/></svg>