<svg xmlns="http://www.w3.org/2000/svg" fill="none" viewBox="0 0 16 16"><path fill="currentColor" d="M14.5 15.5v.6h.6v-.6h-.6Zm-13 0H.9v.6h.6v-.6Zm0-9v-.6a.6.6 0 0 0-.6.6h.6Zm13 0h.6v-.6h-.6v.6Zm-10.6 0v.6h1.2v-.6H3.9ZM8 .7V.1v.6Zm2.9 5.8v.6h1.2v-.6h-1.2Zm3.6 9v-.6h-13v1.2h13v-.6Zm-13-9v.6h13V5.9h-13v.6Zm13 0h-.6v9h1.2v-9h-.6Zm-13 9h.6v-9H.9v9h.6Zm3-9h.6V4.2H3.9v2.3h.6Zm0-2.3h.6a2.9 2.9 0 0 1 .85-2.05l-.425-.425-.424-.424A4.1 4.1 0 0 0 3.9 4.2h.6Zm1.025-2.475.424.424A2.9 2.9 0 0 1 8 1.3V.101a4.1 4.1 0 0 0-2.9 1.2l.425.425ZM8 .7v.6a2.9 2.9 0 0 1 2.05.85l.425-.425.424-.424A4.1 4.1 0 0 0 8 .1v.6Zm2.475 1.025-.424.424A2.9 2.9 0 0 1 10.9 4.2h1.2a4.1 4.1 0 0 0-1.2-2.9l-.425.425ZM11.5 4.2h-.6v2.3h1.2V4.2h-.6Zm-2 6.8h-.6a.9.9 0 0 1-.9.9v1.2a2.1 2.1 0 0 0 2.1-2.1h-.6ZM8 12.5v-.6a.9.9 0 0 1-.9-.9H5.9c0 1.16.94 2.1 2.1 2.1v-.6ZM6.5 11h.6a.9.9 0 0 1 .9-.9V8.9A2.1 2.1 0 0 0 5.9 11h.6ZM8 9.5v.6a.9.9 0 0 1 .9.9h1.2A2.1 2.1 0 0 0 8 8.9v.6Z"/></svg>