<svg xmlns="http://www.w3.org/2000/svg" fill="none" viewBox="0 0 16 16"><path stroke="currentColor" stroke-linecap="round" stroke-linejoin="round" vector-effect="non-scaling-stroke" stroke-width="1.2" d="M4.667 4v2.667A3.287 3.287 0 0 0 6.41 9.59M4.667 4A3.3 3.3 0 0 1 8 .667M4.667 4A3.333 3.333 0 0 1 8 .667m0 0A3.3 3.3 0 0 1 11.333 4m0 .667V4A3.333 3.333 0 0 0 8 .667M4.667 15.333h6.666M8 12.667v2.666m6-8.666a5.974 5.974 0 0 1-6 6 6.05 6.05 0 0 1-1.615-.224M8.989 9.84a3.254 3.254 0 0 0 2.183-2.183M2 6.666a5.97 5.97 0 0 0 2.474 4.86M2 14 14 2"/></svg>