<svg xmlns="http://www.w3.org/2000/svg" fill="none" viewBox="0 0 16 16"><path stroke="currentColor" stroke-linecap="round" stroke-linejoin="round" vector-effect="non-scaling-stroke" stroke-width="1.2" d="M6.475 12.523a15.378 15.378 0 0 0 7.15 2.967 1.044 1.044 0 0 0 1.153-.771l.688-2.651a1.038 1.038 0 0 0-.583-1.21l-3.137-1.393a1.04 1.04 0 0 0-1.232.3l-1.222 1.527c-.3-.175-.59-.363-.873-.561M6.707 9.293a12.876 12.876 0 0 1-2-2.585l1.529-1.222a1.038 1.038 0 0 0 .3-1.232L5.143 1.117a1.038 1.038 0 0 0-1.21-.583l-2.652.687A1.046 1.046 0 0 0 .51 2.375a15.385 15.385 0 0 0 4.363 8.752M15.5.5l-15 15"/></svg>