<svg xmlns="http://www.w3.org/2000/svg" fill="none" viewBox="0 0 16 16"><path fill="currentColor" d="m.756 8-.532-.279L.078 8l.146.279L.756 8Zm14.432 0 .531.279.147-.279-.147-.279-.53.279ZM.756 8l.53.28.002-.003a1.556 1.556 0 0 1 .027-.05l.092-.162a14.372 14.372 0 0 1 1.775-2.41C4.409 4.32 6.063 3.1 7.972 3.1V1.9c-2.421 0-4.375 1.53-5.674 2.944A15.572 15.572 0 0 0 .264 7.65a5.585 5.585 0 0 0-.036.066l-.002.004-.001.001.53.28Zm7.216-5.5v.6c1.909 0 3.563 1.22 4.79 2.556a14.364 14.364 0 0 1 1.867 2.572l.022.04.005.01.001.001.531-.279a75.008 75.008 0 0 0 .531-.28l-.003-.004a1.33 1.33 0 0 1-.036-.066 14.257 14.257 0 0 0-.509-.837c-.35-.535-.866-1.25-1.525-1.968C12.346 3.43 10.393 1.9 7.972 1.9v.6ZM15.188 8l-.531-.28v.003c-.002.001-.003.004-.006.009l-.022.04a13.015 13.015 0 0 1-.461.758 14.362 14.362 0 0 1-1.406 1.814C11.535 11.68 9.88 12.9 7.972 12.9v1.2c2.42 0 4.375-1.53 5.674-2.944A15.578 15.578 0 0 0 15.68 8.35a9.02 9.02 0 0 0 .036-.066l.002-.004.001-.001-.53-.28Zm-7.216 5.5v-.6c-1.909 0-3.563-1.22-4.79-2.556a14.37 14.37 0 0 1-1.89-2.612 1.556 1.556 0 0 1-.004-.01l-.001-.001L.756 8c-.532.279-.532.279-.531.28v.001l.003.004a3.312 3.312 0 0 0 .036.066l.105.187a15.578 15.578 0 0 0 1.929 2.618C3.597 12.57 5.551 14.1 7.972 14.1v-.6ZM10.5 8h-.6A1.9 1.9 0 0 1 8 9.9v1.2A3.1 3.1 0 0 0 11.1 8h-.6ZM8 10.5v-.6A1.9 1.9 0 0 1 6.1 8H4.9A3.1 3.1 0 0 0 8 11.1v-.6ZM5.5 8h.6c0-1.05.85-1.9 1.9-1.9V4.9A3.1 3.1 0 0 0 4.9 8h.6ZM8 5.5v.6c1.05 0 1.9.85 1.9 1.9h1.2A3.1 3.1 0 0 0 8 4.9v.6Z"/></svg>