<svg xmlns="http://www.w3.org/2000/svg" fill="none" viewBox="0 0 16 16"><path fill="currentColor" d="m15.541 1.077.077-.595-1.19-.154-.077.595.595.077.595.077Zm-1.133 4.07-.078.594.595.077.078-.595-.595-.077Zm-4.07-1.134-.594-.078-.155 1.19.595.078.078-.595.077-.595Zm-9.88 10.91-.076.595 1.19.154.077-.595L1.054 15l-.595-.077Zm1.134-4.07.078-.594-.595-.077-.078.595.595.077Zm4.07 1.134.594.078.155-1.19-.595-.078-.078.595-.077.595ZM1 8h.6c0-3.546 2.854-6.4 6.4-6.4V.4A7.586 7.586 0 0 0 .4 8H1Zm7-7v.6c2.561 0 4.824 1.528 5.806 3.736l.548-.244.548-.243C13.73 2.21 11.04.4 8 .4V1Zm7 7h-.6c0 3.546-2.854 6.4-6.4 6.4v1.2c4.208 0 7.6-3.392 7.6-7.6H15Zm-7 7v-.6c-2.561 0-4.824-1.528-5.806-3.736l-.548.244-.548.243C2.27 13.79 4.96 15.6 8 15.6V15Zm6.946-14-.595-.077-.538 4.146.595.077.595.077.538-4.146L14.946 1Zm-.538 4.146.077-.595-4.146-.538-.078.595-.077.595 4.146.538.078-.595ZM1.054 15l.595.077.538-4.146-.595-.077-.595-.077-.538 4.146.595.077Zm.538-4.146-.077.595 4.146.538.077-.595.078-.595-4.146-.538-.078.595Z"/></svg>