<svg xmlns="http://www.w3.org/2000/svg" fill="none" viewBox="0 0 16 16"><path fill="currentColor" d="M14.576 15.424a.6.6 0 0 0 .848-.848L15 15l-.424.424Zm-2.652-4.348-.424-.425-.848.849.424.424.424-.424.424-.424ZM15 15l.424-.424-3.5-3.5-.424.424-.424.424 3.5 3.5L15 15Zm-2-8h-.6A5.4 5.4 0 0 1 7 12.4v1.2A6.6 6.6 0 0 0 13.6 7H13Zm-6 6v-.6A5.4 5.4 0 0 1 1.6 7H.4A6.6 6.6 0 0 0 7 13.6V13ZM1 7h.6A5.4 5.4 0 0 1 7 1.6V.4A6.6 6.6 0 0 0 .4 7H1Zm6-6v.6A5.4 5.4 0 0 1 12.4 7h1.2A6.6 6.6 0 0 0 7 .4V1Z"/></svg>