<svg xmlns="http://www.w3.org/2000/svg" fill="none" viewBox="0 0 16 16"><path fill="currentColor" d="M13.1 9.5v-.6h-1.2v.6h1.2Zm-.6 5.5v.6h.6V15h-.6ZM1 15H.4v.6H1V15ZM1 3.5v-.6H.4v.6H1Zm4 .6h.6V2.9H5v1.2ZM6.5 9h-.6.6Zm5-5v-.6.6ZM15 4l.424.424L15.85 4l-.425-.424L15 4Zm-3.424 2.576L11.15 7l.849.849.424-.425L12 7l-.424-.424Zm.848-6L12 .15l-.848.85.424.424L12 1l.424-.424ZM12.5 9.5h-.6V15h1.2V9.5h-.6Zm0 5.5v-.6H1v1.2h11.5V15ZM1 15h.6V3.5H.4V15H1ZM1 3.5v.6h4V2.9H1v.6ZM6.5 10h.6V9H5.9v1h.6Zm0-1h.6a4.4 4.4 0 0 1 1.289-3.111l-.425-.425-.424-.424A5.6 5.6 0 0 0 5.9 9h.6Zm1.464-3.536.425.425A4.4 4.4 0 0 1 11.5 4.6V3.4a5.6 5.6 0 0 0-3.96 1.64l.424.424ZM11.5 4v.6H15V3.4h-3.5V4Zm.5 3 .424.424 3-3L15 4l-.424-.424-3 3L12 7Zm3-3 .424-.424-3-3L12 1l-.424.424 3 3L15 4Z"/></svg>