<svg xmlns="http://www.w3.org/2000/svg" fill="none" viewBox="0 0 16 16"><path fill="currentColor" d="M8 1.333 8.424.91 8 .485l-.424.424.424.424Zm-2.758 1.91-.424.424.849.848.424-.424-.424-.424-.425-.425Zm4.667.848.424.424.849-.848-.424-.425-.425.425-.424.424ZM11.125 6.4h-.6v1.2h.6V6.4ZM13 7h.6v-.6H13V7Zm0 7v.6h.6V14H13ZM3 14h-.6v.6H3V14Zm0-7v-.6h-.6V7H3Zm1.875.6h.6V6.4h-.6v1.2ZM8 1.333h-.6v9.334h1.2V1.333H8ZM5.667 3.667l.424.424 2.333-2.333L8 1.333 7.576.91 5.242 3.242l.425.425ZM8 1.333l-.424.425L9.909 4.09l.424-.424.425-.425L8.424.91 8 1.333ZM11.125 7v.6H13V6.4h-1.875V7ZM13 14v-.6H3v1.2h10V14ZM3 7v.6h1.875V6.4H3V7Zm0 7h.6V7H2.4v7H3Zm10-7h-.6v7h1.2V7H13Z"/></svg>