<svg xmlns="http://www.w3.org/2000/svg" fill="none" viewBox="0 0 16 16"><path fill="currentColor" d="M.5.4h-.6v1.2h.6V.4Zm3 .6.596-.066L4.037.4H3.5V1Zm1 9-.596.066.059.534H4.5V10Zm9 0v.6h.469l.113-.454L13.5 10ZM15 4l.582.146.186-.746H15V4ZM4.5 3.4a.6.6 0 0 0 0 1.2V3.4ZM.5 1v.6h3V.4h-3V1Zm3 0-.596.066 1 9L4.5 10l.596-.066-1-9L3.5 1Zm1 9v.6h9V9.4h-9v.6Zm9 0 .582.146 1.5-6L15 4l-.582-.146-1.5 6L13.5 10ZM15 4v-.6H4.5v1.2H15V4Zm-8.5 9.5h-.6a.9.9 0 0 1-.9.9v1.2a2.1 2.1 0 0 0 2.1-2.1h-.6ZM5 15v-.6a.9.9 0 0 1-.9-.9H2.9c0 1.16.94 2.1 2.1 2.1V15Zm-1.5-1.5h.6a.9.9 0 0 1 .9-.9v-1.2a2.1 2.1 0 0 0-2.1 2.1h.6ZM5 12v.6a.9.9 0 0 1 .9.9h1.2A2.1 2.1 0 0 0 5 11.4v.6Zm9.5 1.5h-.6a.9.9 0 0 1-.9.9v1.2a2.1 2.1 0 0 0 2.1-2.1h-.6ZM13 15v-.6a.9.9 0 0 1-.9-.9h-1.2c0 1.16.94 2.1 2.1 2.1V15Zm-1.5-1.5h.6a.9.9 0 0 1 .9-.9v-1.2a2.1 2.1 0 0 0-2.1 2.1h.6ZM13 12v.6a.9.9 0 0 1 .9.9h1.2a2.1 2.1 0 0 0-2.1-2.1v.6Z"/></svg>