<svg xmlns="http://www.w3.org/2000/svg" fill="none" viewBox="0 0 16 16"><path fill="currentColor" d="M10.4 5a.6.6 0 1 0 1.2 0h-1.2Zm.6-1h.6-.6ZM.5 4h-.6.6Zm0 8h-.6.6ZM2 13.5v.6-.6Zm.5.6a.6.6 0 1 0 0-1.2v1.2Zm2.828-1.2a.6.6 0 1 0 0 1.2v-1.2Zm4.172.6v.6-.6ZM11 12h.6-.6Zm0-2 .244-.548A.6.6 0 0 0 10.4 10h.6Zm4.5 2-.244.548A.6.6 0 0 0 16.1 12h-.6Zm0-8h.6a.6.6 0 0 0-.844-.548L15.5 4Zm-1.453-.011a.6.6 0 1 0 .488 1.096l-.244-.548-.244-.548ZM4 5.25h-.6a.15.15 0 0 1-.15.15v1.2A1.35 1.35 0 0 0 4.6 5.25H4ZM3.25 6v-.6a.15.15 0 0 1-.15-.15H1.9c0 .746.604 1.35 1.35 1.35V6Zm-.75-.75h.6a.15.15 0 0 1 .15-.15V3.9A1.35 1.35 0 0 0 1.9 5.25h.6Zm.75-.75v.6a.15.15 0 0 1 .15.15h1.2A1.35 1.35 0 0 0 3.25 3.9v.6ZM11 5h.6V4h-1.2v1h.6Zm0-1h.6a2.1 2.1 0 0 0-.615-1.485l-.424.424-.425.425A.9.9 0 0 1 10.4 4h.6Zm-.44-1.06.425-.425A2.1 2.1 0 0 0 9.5 1.9v1.2a.9.9 0 0 1 .636.264l.425-.425ZM9.5 2.5v-.6H2v1.2h7.5v-.6ZM2 2.5v-.6a2.1 2.1 0 0 0-1.485.615l.424.424.425.425A.9.9 0 0 1 2 3.1v-.6Zm-1.06.44-.425-.425A2.1 2.1 0 0 0-.1 4h1.2a.9.9 0 0 1 .264-.636l-.425-.425ZM.5 4h-.6v8h1.2V4H.5Zm0 8h-.6a2.1 2.1 0 0 0 .615 1.485l.424-.424.425-.425A.9.9 0 0 1 1.1 12H.5Zm.44 1.06-.425.425A2.1 2.1 0 0 0 2 14.1v-1.2a.9.9 0 0 1-.636-.264l-.425.425ZM2 13.5v.6h.5v-1.2H2v.6Zm3.328 0v.6H9.5v-1.2H5.328v.6Zm4.172 0v.6a2.1 2.1 0 0 0 1.485-.615l-.424-.424-.425-.425a.9.9 0 0 1-.636.264v.6Zm1.06-.44.425.425A2.1 2.1 0 0 0 11.6 12h-1.2a.9.9 0 0 1-.264.636l.425.425ZM11 12h.6v-2h-1.2v2h.6Zm0-2-.244.548 4.5 2L15.5 12l.244-.548-4.5-2L11 10Zm4.5 2h.6V4h-1.2v8h.6Zm0-8-.244-.548-1.209.537.244.548.244.548 1.209-.537L15.5 4ZM.5 15.5l.424.424 15-15L15.5.5l-.424-.424-15 15L.5 15.5Z"/></svg>