<svg xmlns="http://www.w3.org/2000/svg" fill="none" viewBox="0 0 24 24"><path fill="currentColor" d="M19.7 3H4.3A1.3 1.3 0 0 0 3 4.3v15.4A1.3 1.3 0 0 0 4.3 21h15.4a1.299 1.299 0 0 0 1.3-1.3V4.3A1.299 1.299 0 0 0 19.7 3ZM8.34 18.338H5.666v-8.59H8.34v8.59ZM7.003 8.574a1.549 1.549 0 1 1-.006-3.098 1.549 1.549 0 0 1 .007 3.098h-.001Zm11.335 9.764h-2.67V14.16c0-.995-.017-2.277-1.387-2.277-1.39 0-1.6 1.086-1.6 2.206v4.248h-2.668v-8.59h2.56v1.174h.036c.357-.675 1.228-1.387 2.527-1.387 2.703 0 3.203 1.78 3.203 4.092v4.71l-.001.002Z"/></svg>