<svg xmlns="http://www.w3.org/2000/svg" fill="none" viewBox="0 0 24 24"><path fill="currentColor" d="M22.23 5.924c-.75.332-1.544.55-2.357.646a4.115 4.115 0 0 0 1.804-2.27c-.793.47-1.67.812-2.606.996a4.103 4.103 0 0 0-6.99 3.742 11.643 11.643 0 0 1-8.457-4.287 4.093 4.093 0 0 0-.556 2.064c0 1.424.724 2.68 1.825 3.415a4.11 4.11 0 0 1-1.86-.514v.052a4.105 4.105 0 0 0 3.293 4.023 4.057 4.057 0 0 1-1.853.071 4.108 4.108 0 0 0 3.833 2.85 8.237 8.237 0 0 1-5.096 1.757c-.332 0-.66-.02-.98-.057a11.618 11.618 0 0 0 6.29 1.843c7.547 0 11.675-6.252 11.675-11.675 0-.178-.004-.355-.012-.53a8.303 8.303 0 0 0 2.047-2.124v-.002Z"/></svg>