<svg xmlns="http://www.w3.org/2000/svg" fill="none" viewBox="0 0 24 24"><path fill="currentColor" fill-rule="evenodd" d="M19.814 5.418C18.366 5.03 12.87 5.002 12.092 5h-.184c-.778.002-6.274.03-7.722.418-.86.23-1.538.908-1.768 1.769-.376 1.403-.414 4.18-.418 4.72v.186c.004.541.042 3.317.418 4.721a2.505 2.505 0 0 0 1.768 1.768c1.374.368 6.391.412 7.567.417h.494c1.176-.005 6.193-.049 7.567-.417a2.506 2.506 0 0 0 1.768-1.768c.404-1.508.418-4.599.418-4.804V12s0-3.254-.418-4.814a2.506 2.506 0 0 0-1.768-1.768ZM15 12l-5 3V9l5 3Z" clip-rule="evenodd"/></svg>