<svg xmlns="http://www.w3.org/2000/svg" fill="none" viewBox="0 0 64 64"><path stroke="currentColor" stroke-miterlimit="10" vector-effect="non-scaling-stroke" stroke-width="1.5" d="M40.125 19.164a15.187 15.187 0 1 0 4.479 4.368m-10.62 2.616a6.175 6.175 0 1 0 3.739 3.53m7.054-16.222a22.52 22.52 0 1 0 5.311 5.13M31.221 32.757l17.465-17.604m-.146-3.247 6.977-7.032.449 3.097 3.133.406-6.976 7.032-3.556.027-.027-3.53ZM32.584 31.505a.69.69 0 0 1 .172.213.62.62 0 0 1-.132.741.75.75 0 0 1-.237.155.816.816 0 0 1-.823-.119.683.683 0 0 1-.171-.213.62.62 0 0 1 .131-.741.752.752 0 0 1 .237-.155.818.818 0 0 1 .823.119Z"/></svg>