<svg xmlns="http://www.w3.org/2000/svg" fill="none" viewBox="0 0 64 64"><path fill="currentColor" d="M19.387 1.954v-.75h-1.5v.75h1.5Zm-1.5 11.786v.75h1.5v-.75h-1.5ZM46.11 1.954v-.75h-1.5v.75h1.5Zm-1.5 11.786v.75h1.5v-.75h-1.5ZM3.367 55.4h-.75v.75h.75v-.75ZM30 56.15h.75v-1.5H30v1.5ZM59.88 33v.75h1.5V33h-1.5ZM50 37.383v.75-.75ZM36.515 50.118v.75h1.5v-.75h-1.5Zm13.483 12.734v-.75.75ZM38.014 50.118v-.75h-1.5v.75h1.5Zm6.126-.834-.53-.53-1.061 1.06.53.53 1.06-1.06Zm3.913 4.974-.53.53.533.534.53-.536-.533-.528Zm8.83-7.859.527-.533-1.066-1.055-.528.533 1.067 1.055ZM17.887 1.954V13.74h1.5V1.954h-1.5Zm26.723 0V13.74h1.5V1.954h-1.5ZM60.63 20.29H3.367v1.5H60.63v-1.5ZM9.367 10.34H54.63v-1.5H9.367v1.5ZM4.117 55.4V15.59h-1.5V55.4h1.5ZM30 54.649H3.367v1.5H30v-1.5Zm29.88-39.06V33h1.5V15.589h-1.5Zm-5.25-5.25c2.9 0 5.25 2.35 5.25 5.25h1.5a6.75 6.75 0 0 0-6.75-6.75v1.5Zm-45.263-1.5a6.75 6.75 0 0 0-6.75 6.75h1.5c0-2.9 2.35-5.25 5.25-5.25v-1.5Zm54.117 41.279c0-1.77-.348-3.524-1.026-5.16l-1.386.574c.602 1.454.912 3.012.912 4.586h1.5Zm-1.026-5.16a13.483 13.483 0 0 0-2.923-4.375l-1.06 1.06a11.987 11.987 0 0 1 2.597 3.889l1.386-.574Zm-2.923-4.375a13.483 13.483 0 0 0-4.375-2.923l-.574 1.386a11.987 11.987 0 0 1 3.888 2.598l1.06-1.061ZM55.16 37.66A13.484 13.484 0 0 0 50 36.633v1.5c1.574 0 3.132.31 4.586.913l.574-1.386ZM50 36.633c-1.771 0-3.525.35-5.16 1.027l.573 1.386A11.984 11.984 0 0 1 50 38.133v-1.5Zm-5.16 1.027a13.487 13.487 0 0 0-4.375 2.923l1.06 1.061a11.981 11.981 0 0 1 3.889-2.598l-.575-1.386Zm-4.375 2.923a13.485 13.485 0 0 0-2.923 4.375l1.385.574a11.984 11.984 0 0 1 2.598-3.888l-1.06-1.06Zm-2.923 4.375a13.484 13.484 0 0 0-1.027 5.16h1.5c0-1.573.31-3.132.912-4.586l-1.385-.574Zm12.456 18.645c1.771 0 3.525-.35 5.16-1.027l-.573-1.386a11.986 11.986 0 0 1-4.587.913v1.5Zm5.16-1.027a13.484 13.484 0 0 0 4.375-2.923l-1.06-1.06a11.985 11.985 0 0 1-3.888 2.597l.574 1.386Zm4.375-2.923a13.484 13.484 0 0 0 2.923-4.375l-1.385-.574a11.983 11.983 0 0 1-2.598 3.888l1.06 1.061Zm2.923-4.375a13.484 13.484 0 0 0 1.027-5.16h-1.5c0 1.574-.31 3.132-.912 4.586l1.385.574Zm-25.942-5.16c0 1.77.348 3.524 1.026 5.16l1.386-.574a11.986 11.986 0 0 1-.912-4.586h-1.5Zm1.026 5.16a13.486 13.486 0 0 0 2.923 4.375l1.06-1.06a11.984 11.984 0 0 1-2.597-3.889l-1.386.574Zm2.923 4.375a13.487 13.487 0 0 0 4.375 2.923l.574-1.386a11.982 11.982 0 0 1-3.888-2.598l-1.06 1.061Zm4.375 2.923a13.486 13.486 0 0 0 5.16 1.026v-1.5c-1.574 0-3.132-.31-4.586-.912l-.574 1.386Zm-1.759-12.232 4.444 4.445 1.06-1.061-4.443-4.444-1.061 1.06Zm5.508 4.442 8.296-8.387-1.067-1.055-8.296 8.387 1.067 1.055Z"/></svg>