<svg xmlns="http://www.w3.org/2000/svg" fill="none" viewBox="0 0 64 64"><path fill="currentColor" d="m56.339 41.833-.281.695 1.39.562.281-.695-1.39-.562Zm2.587-16.546-.182-.728-1.455.363.181.728 1.456-.363ZM41.834 7.662l.695.281.562-1.39-.695-.282-.562 1.391ZM6.272 21.605l-.28.695 1.39.562.281-.695-1.39-.562Zm15.613 35.428.281-.695-.28.695ZM7.661 22.167l.281-.696-1.39-.562-.281.696 1.39.562Zm13.87 2.993L21 24.63l-1.06 1.06.53.531 1.06-1.06Zm9.934 10.996-.53.53.53.53.53-.53-.53-.53Zm28.28-27.219.53-.53-1.061-1.06-.53.53 1.06 1.06Zm-2.016 33.458a27.749 27.749 0 0 0 1.197-17.108l-1.456.363a26.249 26.249 0 0 1-1.131 16.183l1.39.562ZM42.396 6.27a27.749 27.749 0 0 0-10.637-2.02l.013 1.5c3.447-.03 6.866.62 10.062 1.911l.562-1.39ZM31.759 4.25a27.749 27.749 0 0 0-10.6 2.206l.585 1.38a26.25 26.25 0 0 1 10.028-2.085l-.013-1.5Zm-10.6 2.206a27.75 27.75 0 0 0-8.95 6.093l1.07 1.052a26.25 26.25 0 0 1 8.465-5.764l-.586-1.381Zm-8.95 6.093a27.749 27.749 0 0 0-5.937 9.055l1.391.562a26.25 26.25 0 0 1 5.616-8.565l-1.07-1.052Zm9.395 45.178a27.749 27.749 0 0 0 10.637 2.02l-.013-1.5a26.255 26.255 0 0 1-10.062-1.91l-.562 1.39Zm10.637 2.02a27.75 27.75 0 0 0 10.6-2.205l-.585-1.38a26.25 26.25 0 0 1-10.028 2.085l.013 1.5Zm10.6-2.205a27.752 27.752 0 0 0 8.95-6.093l-1.07-1.052a26.25 26.25 0 0 1-8.465 5.764l.586 1.381Zm8.95-6.093a27.749 27.749 0 0 0 5.937-9.055l-1.391-.562a26.249 26.249 0 0 1-5.616 8.565l1.07 1.052ZM6.271 21.605a27.75 27.75 0 0 0-2.02 10.637l1.5-.013a26.25 26.25 0 0 1 1.91-10.062l-1.39-.562ZM4.25 32.242a27.75 27.75 0 0 0 2.205 10.6l1.38-.586A26.249 26.249 0 0 1 5.752 32.23l-1.5.013Zm2.205 10.6a27.75 27.75 0 0 0 6.093 8.95l1.052-1.07a26.25 26.25 0 0 1-5.764-8.466l-1.381.586Zm6.093 8.95a27.75 27.75 0 0 0 9.055 5.936l.562-1.39a26.249 26.249 0 0 1-8.565-5.616l-1.052 1.07Zm7.92-25.57 10.466 10.464 1.06-1.06L21.53 25.16l-1.06 1.06Zm11.526 10.464 27.75-27.749-1.061-1.06-27.75 27.749 1.061 1.06Z"/></svg>