<svg xmlns="http://www.w3.org/2000/svg" fill="none" viewBox="0 0 64 64"><path fill="currentColor" d="m32.25 27.25.53-.53-.53-.53-.53.53.53.53ZM20.72 37.72l-.53.53 1.06 1.06.53-.53-1.06-1.06Zm22 1.06.53.53 1.06-1.06-.53-.53-1.06 1.06Zm-2.47 6.72h-.75V47h.75v-1.5Zm12 .75V47h.036l.035-.003-.071-.747Zm-.1-22-.746.074.061.62.62.053.065-.747Zm-39-3.8.117.74.465-.073.136-.45-.718-.217Zm-10.9 12.8.75-.001v-.001l-.75.002Zm12 13-.061.748.03.002h.031v-.75Zm10 .75H25v-1.5h-.75V47ZM33 61.25v-34h-1.5v34H33ZM21.78 38.78l11-11-1.06-1.06-11 11 1.06 1.06Zm9.94-11 11 11 1.06-1.06-11-11-1.06 1.06ZM40.25 47h12v-1.5h-12V47Zm12.071-.003a11.795 11.795 0 0 0 7.628-3.826l-1.112-1.007a10.295 10.295 0 0 1-6.658 3.34l.142 1.493Zm7.628-3.826A11.795 11.795 0 0 0 63 35.2l-1.5.007a10.295 10.295 0 0 1-2.663 6.956l1.112 1.007ZM63 35.2a11.795 11.795 0 0 0-3.123-7.942l-1.103 1.017a10.295 10.295 0 0 1 2.726 6.932L63 35.2Zm-3.123-7.942a11.796 11.796 0 0 0-7.663-3.756l-.128 1.494c2.56.22 4.946 1.39 6.688 3.279l1.103-1.017Zm-6.98-3.083a20.726 20.726 0 0 0-5.984-12.619l-1.06 1.062a19.226 19.226 0 0 1 5.55 11.705l1.493-.148Zm-5.984-12.619A20.726 20.726 0 0 0 34.283 5.6l-.146 1.492a19.226 19.226 0 0 1 11.716 5.527l1.06-1.062ZM34.283 5.6a20.726 20.726 0 0 0-13.544 3.407l.835 1.246a19.226 19.226 0 0 1 12.563-3.16l.145-1.493ZM20.738 9.007a20.726 20.726 0 0 0-8.307 11.226l1.436.434a19.227 19.227 0 0 1 7.706-10.414l-.835-1.246ZM13.033 19.71a13.674 13.674 0 0 0-8.27 4.64l1.142.973a12.173 12.173 0 0 1 7.362-4.131l-.234-1.482Zm-8.27 4.64A13.673 13.673 0 0 0 1.5 33.252l1.5-.004a12.173 12.173 0 0 1 2.905-7.926l-1.142-.973ZM1.5 33.25a13.819 13.819 0 0 0 3.665 9.347l1.102-1.017A12.319 12.319 0 0 1 3 33.248l-1.5.002Zm3.665 9.347a13.819 13.819 0 0 0 9.024 4.4l.122-1.495a12.319 12.319 0 0 1-8.044-3.922l-1.102 1.017ZM14.25 47h10v-1.5h-10V47Z"/></svg>