<svg xmlns="http://www.w3.org/2000/svg" fill="none" viewBox="0 0 64 64"><path stroke="currentColor" vector-effect="non-scaling-stroke" stroke-width="1.5" d="m25.7 47.078 3.752-6.311c1.083-1.822 3.716-1.835 4.817-.024l3.85 6.335M14.574 33.485l7.341.093c2.12.027 3.448 2.302 2.43 4.16l-3.562 6.502m0-27.186 3.59 6.405c1.037 1.849-.269 4.136-2.388 4.183l-7.41.167m23.542-13.594-3.751 6.311c-1.083 1.823-3.717 1.835-4.818.024l-3.85-6.335M49.245 27.81l-7.342-.094c-2.12-.026-3.447-2.3-2.429-4.16l3.562-6.501m0 27.186-3.59-6.405c-1.037-1.85.269-4.136 2.388-4.184l7.41-.166M13.261 52.443H9.352c-2.06 0-3.73 1.93-3.73 4.312 0 2.382 1.67 4.312 3.73 4.312H54.65c2.06 0 3.729-1.93 3.729-4.312 0-2.382-1.67-4.312-3.73-4.312h-4.157m-2.88 2.221c7.745-4.901 12.982-13.351 13.273-23.094.47-15.714-12.102-28.84-28.082-29.32-15.98-.478-29.316 11.874-29.786 27.588-.31 10.362 5.05 19.599 13.32 24.826m38.336-14.517 5.858-3.719m-5.58-14.319 1.418-6.366M42.18 8.915l-3.482-5.668M24.176 8.13l-6.442-2.05M10.72 18.814l-6.254 2.624m3.91 13.442-3.668 5.008m45.217-9.241c0 10-8.106 18.105-18.105 18.105-10 0-18.105-8.106-18.105-18.105 0-10 8.106-18.105 18.105-18.105 10 0 18.105 8.106 18.105 18.105Zm-14.318 0a3.786 3.786 0 1 1-7.572 0 3.786 3.786 0 0 1 7.572 0Z"/></svg>