<svg xmlns="http://www.w3.org/2000/svg" fill="none" viewBox="0 0 64 64"><path stroke="currentColor" stroke-linecap="square" stroke-miterlimit="10" vector-effect="non-scaling-stroke" stroke-width="1.5" d="M38.562 22.66c.811-.825 1.34-2.177 1.34-3.705 0-2.514-1.432-4.552-3.197-4.552-1.766 0-3.198 2.038-3.198 4.552 0 1.528.53 2.88 1.34 3.706m5.003 3.877c1.03.53 2.477.633 3.936.18 2.401-.747 3.922-2.719 3.398-4.405-.524-1.686-2.895-2.448-5.296-1.702-1.459.454-2.593 1.36-3.14 2.38m-5.188 3.547c-1.029.53-2.477.633-3.936.18-2.4-.747-3.922-2.719-3.398-4.405.524-1.686 2.895-2.448 5.296-1.702 1.459.454 2.593 1.36 3.14 2.38m-1.164 3.755c-1.132.243-2.317 1.082-3.157 2.358-1.383 2.1-1.308 4.59.167 5.56 1.474.971 3.79.056 5.173-2.043.84-1.277 1.143-2.697.92-3.832m-18.066 33.71s5.643-15.198 1.81-29.576c-2.42-9.08-3.563-14.704-3.746-20.06-.207-6.07 4.074-11.487 10.147-11.487 6.686 0 12.185 5.147 10.58 12.723m2.092 11.274a2.713 2.713 0 1 1-5.426 0 2.713 2.713 0 0 1 5.426 0Zm5.088 10.56c.757 1.66.431 3.432-.728 3.961-1.158.529-2.711-.386-3.468-2.045-.515-1.127-.53-2.308-.121-3.114a.802.802 0 0 1 .394-.355l1.122-.513a.803.803 0 0 1 .527-.065c.876.22 1.759 1.004 2.274 2.132Zm-9.142 9.729c-.374 1.446-1.497 2.407-2.508 2.145-1.01-.261-1.527-1.646-1.152-3.093.248-.961.828-1.708 1.486-2.024a.77.77 0 0 1 .528-.03l.882.227a.77.77 0 0 1 .447.284c.421.595.566 1.53.317 2.49Z"/></svg>