<svg xmlns="http://www.w3.org/2000/svg" fill="none" viewBox="0 0 64 64"><path stroke="currentColor" vector-effect="non-scaling-stroke" stroke-width="1.5" d="m45.33 36.907.103-.303m0 0 2.94-8.57m-2.94 8.57c-1.614-2.935-4.448-6.371-8.546-8.987-3.331-2.125-6.865-3.133-9.91-3.462m18.456 12.45c1.355 2.463 1.85 4.573 1.513 5.549-.738 2.138-2.758 2.125-2.758 2.125m4.185-16.244 2.7-7.87m-2.7 7.87a17.785 17.785 0 0 0-12.907-9.14l-.782-.123m16.389 1.393 2.32-6.764m-2.32 6.764a12.219 12.219 0 0 0-8.979-6.103l-.422-.058m9.4 6.161.054.096m2.267-6.86 2.477-7.219c.314-.915-.725-1.698-1.519-1.144l-6.554 4.577m5.596 3.786a7.141 7.141 0 0 0-5.386-3.758l-.21-.028m5.596 3.786.012.021m-5.608-3.807-13.113 9.157m13.113-9.157L47.68 9.6m-12.997 9.172-7.707 5.383m0 0-.22.153m.22-.153c-3.845-.416-6.908.249-7.794 1.108-1.588 1.54-.3 2.772-.3 2.772m9.181 1.211s3.956.772 7.315 3.19c3.358 2.418 4.689 5.36 4.689 5.36m-16.406-11.03c-9.414 1.7-15.666 10.71-13.965 20.124a17.29 17.29 0 0 0 8.993 12.257M43.787 40.73c1.378 7.63-2.467 14.993-8.985 18.417m12.253 0h-43.9m57.69 0h-8.378m-37.48-11.755.05.23a10.485 10.485 0 0 0 5.514 7.143"/></svg>