<svg xmlns="http://www.w3.org/2000/svg" fill="none" viewBox="0 0 64 64"><path fill="currentColor" d="m60.99 10.688.075-.746-1.493-.15-.074.747 1.492.15Zm-1.806 10.529-.294.69.939.4.101-1.016-.746-.074Zm-10.043-5.1-.69-.295-.589 1.38.69.294.589-1.38Zm-16.46 2.516v-.75l-1.5.003v.75l1.5-.003ZM31.22 38.112l.001.75 1.5-.003-.001-.75-1.5.002ZM59.678 21.07a29.768 29.768 0 0 0-14.559-15.8l-.662 1.346A28.268 28.268 0 0 1 58.282 21.62l1.396-.55ZM45.119 5.27a29.768 29.768 0 0 0-21.402-1.885l.417 1.44a28.268 28.268 0 0 1 20.323 1.791l.662-1.346ZM23.717 3.385A29.768 29.768 0 0 0 6.62 16.396l1.278.786A28.268 28.268 0 0 1 24.134 4.826l-.417-1.441ZM6.62 16.396a29.768 29.768 0 0 0-3.885 21.131l1.474-.28a28.268 28.268 0 0 1 3.69-20.065l-1.279-.786ZM2.735 37.527a29.768 29.768 0 0 0 11.35 18.242l.902-1.198A28.268 28.268 0 0 1 4.209 37.248l-1.474.279Zm11.35 18.242a29.768 29.768 0 0 0 20.672 5.852l-.14-1.494a28.268 28.268 0 0 1-19.63-5.556l-.902 1.198Zm20.672 5.852a29.768 29.768 0 0 0 19.227-9.588l-1.108-1.01a28.267 28.267 0 0 1-18.258 9.104l.14 1.494Zm19.227-9.588A29.768 29.768 0 0 0 61.75 32h-1.5a28.267 28.267 0 0 1-7.374 19.023l1.108 1.01Zm5.514-41.494-1.06 10.603 1.492.15 1.06-10.604-1.492-.15Zm-.02 9.988-10.337-4.41-.589 1.379 10.338 4.41.588-1.38Zm-28.296-1.891.037 19.476 1.5-.003-.037-19.476-1.5.003ZM32 47.03v1.5a1.5 1.5 0 0 0 1.5-1.5H32Zm0 0h-1.5a1.5 1.5 0 0 0 1.5 1.5v-1.5Zm0 0v-1.5a1.5 1.5 0 0 0-1.5 1.5H32Zm0 0h1.5a1.5 1.5 0 0 0-1.5-1.5v1.5Z"/></svg>