<svg xmlns="http://www.w3.org/2000/svg" fill="none" viewBox="0 0 64 64"><path fill="currentColor" d="m42 2 .53-.53-.22-.22H42V2Zm0 16h-.75v.75H42V18Zm16 0h.75v-.31l-.22-.22L58 18ZM6 2v-.75h-.75V2H6Zm0 60h-.75v.75H6V62Zm24.62.75h.75v-1.5h-.75v1.5Zm26.63-32.66v.75h1.5v-.75h-1.5Zm-12.124 8.263-.287-.693.287.693Zm-6.892 6.892-.692-.287.692.287Zm-1.719 4.873v.75h1.5v-.75h-1.5Zm1.499 0v-.75h-1.5v.75h1.5Zm8.978-7.186-.686.303.607 1.372.686-.303-.607-1.372Zm2.152 10.107v.75h1.5v-.75h-1.5Zm-32.16-26.39h-.75v1.5h.75v-1.5Zm26.664 1.5h.75v-1.5h-.75v1.5Zm-26.664 8.798h-.75v1.5h.75v-1.5ZM31 38.447h.75v-1.5H31v1.5Zm-14.016 8.799h-.75v1.5h.75v-1.5Zm7.684 1.5h.75v-1.5h-.75v1.5Zm-7.684-32.947h-.75v1.5h.75v-1.5ZM31 17.3h.75v-1.5H31v1.5ZM41.25 2v16h1.5V2h-1.5ZM42 18.75h16v-1.5H42v1.5Zm0-17.5H6v1.5h36v-1.5ZM5.25 2v60h1.5V2h-1.5Zm53.28 15.47-16-16-1.06 1.06 16 16 1.06-1.06ZM6 62.75h24.62v-1.5H6v1.5Zm52.75-32.66V18h-1.5v12.09h1.5Zm4.734 20.028c0-1.77-.348-3.524-1.026-5.16l-1.386.574c.602 1.454.912 3.012.912 4.586h1.5Zm-1.026-5.16a13.481 13.481 0 0 0-2.923-4.375l-1.06 1.06a11.987 11.987 0 0 1 2.597 3.889l1.386-.574Zm-2.923-4.375a13.483 13.483 0 0 0-4.375-2.923l-.574 1.386a11.985 11.985 0 0 1 3.888 2.598l1.06-1.061ZM55.16 37.66A13.484 13.484 0 0 0 50 36.633v1.5c1.574 0 3.132.31 4.586.913l.574-1.386ZM50 36.633c-1.771 0-3.525.35-5.16 1.027l.573 1.386A11.985 11.985 0 0 1 50 38.133v-1.5Zm-5.16 1.027a13.487 13.487 0 0 0-4.375 2.923l1.06 1.061a11.983 11.983 0 0 1 3.889-2.598l-.575-1.386Zm-4.375 2.923a13.485 13.485 0 0 0-2.923 4.375l1.385.574a11.984 11.984 0 0 1 2.598-3.888l-1.06-1.06Zm-2.923 4.375a13.485 13.485 0 0 0-1.027 5.16h1.5c0-1.574.31-3.132.912-4.586l-1.385-.574Zm12.456 18.645c1.771 0 3.525-.35 5.16-1.027l-.573-1.386a11.984 11.984 0 0 1-4.587.913v1.5Zm5.16-1.027a13.486 13.486 0 0 0 4.375-2.923l-1.06-1.06a11.984 11.984 0 0 1-3.888 2.597l.574 1.386Zm4.375-2.923a13.483 13.483 0 0 0 2.923-4.375l-1.385-.574a11.984 11.984 0 0 1-2.598 3.888l1.06 1.061Zm2.923-4.375a13.484 13.484 0 0 0 1.027-5.16h-1.5c0 1.574-.31 3.132-.912 4.586l1.385.574Zm-25.942-5.16c0 1.77.348 3.524 1.026 5.16l1.386-.574a11.986 11.986 0 0 1-.912-4.586h-1.5Zm1.026 5.16a13.486 13.486 0 0 0 2.923 4.375l1.06-1.06a11.985 11.985 0 0 1-2.597-3.889l-1.386.574Zm2.923 4.375a13.485 13.485 0 0 0 4.375 2.923l.574-1.386a11.984 11.984 0 0 1-3.888-2.598l-1.06 1.061Zm4.375 2.923a13.485 13.485 0 0 0 5.16 1.026v-1.5c-1.574 0-3.132-.31-4.586-.912l-.574 1.386Zm2.76-18.272c1.065-.471 2.284-.675 3.332-.577 1.066.1 1.81.492 2.154 1.05l1.276-.788c-.693-1.123-1.99-1.633-3.29-1.755-1.32-.124-2.795.13-4.078.698l.607 1.372Zm5.486.473c.754 1.22.344 2.779-1.305 4.175l.97 1.145c1.91-1.62 2.933-3.968 1.611-6.108l-1.276.788Zm-1.305 4.175c-.896.76-1.556 1.397-1.986 2.027-.454.665-.649 1.314-.649 2.06h1.5c0-.44.101-.795.387-1.214.31-.453.835-.98 1.718-1.728l-.97-1.145ZM50 57.24v1.5a1.5 1.5 0 0 0 1.5-1.5H50Zm0 0h-1.5a1.5 1.5 0 0 0 1.5 1.5v-1.5Zm0 0v-1.5a1.5 1.5 0 0 0-1.5 1.5H50Zm0 0h1.5a1.5 1.5 0 0 0-1.5-1.5v1.5ZM16.985 28.15h26.664v-1.5H16.984v1.5Zm0 10.298H31v-1.5H16.984v1.5Zm0 10.299h7.684v-1.5h-7.684v1.5Zm0-31.447H31v-1.5H16.984v1.5Z"/></svg>