<svg xmlns="http://www.w3.org/2000/svg" fill="none" viewBox="0 0 64 64"><path stroke="currentColor" stroke-miterlimit="10" vector-effect="non-scaling-stroke" stroke-width="1.5" d="m38.632 32.699-5.653-5.652m-.238 11.542-5.652-5.652m20.147 14.257 13.52 13.52M13.596 13.81 3.243 3.286M32.64 44.272l5.93 5.93a4 4 0 0 0 5.657 0l6.016-6.016a4 4 0 0 0 0-5.657l-5.93-5.93L32.64 44.272Zm-5.06-28.255-5.193-5.193a4 4 0 0 0-5.657 0l-6.016 6.016a4 4 0 0 0 0 5.657l5.192 5.193L27.58 16.017Zm3.765 1.189-1.77-1.77a1 1 0 0 0-1.415 0L14.996 28.6a1 1 0 0 0 0 1.414l1.77 1.77a1 1 0 0 0 1.415 0L31.346 18.62a1 1 0 0 0 0-1.415Zm13.55 13.397-1.77-1.77a1 1 0 0 0-1.415 0L28.546 41.998a1 1 0 0 0 0 1.414l1.77 1.77a1 1 0 0 0 1.415 0l13.165-13.165a1 1 0 0 0 0-1.414Z"/></svg>