<svg xmlns="http://www.w3.org/2000/svg" fill="none" viewBox="0 0 64 64"><path fill="currentColor" d="m17.623 2.663.53-.53a.75.75 0 0 0-1.211.217l.68.313Zm8.887 1.693.723-.2a.75.75 0 0 0-.96-.511l.237.711Zm12.061 8.887.746-.075a.75.75 0 0 0-.746-.675v.75Zm12.484 12.484.717.221a.75.75 0 0 0-.514-.943l-.203.722Zm1.27 6.137.646-.38-.01-.018-.636.398Zm6.348 5.713.685.305a.75.75 0 0 0-.35-.976l-.335.67Zm-.423 4.232-.738.134.002.013.736-.147ZM61 44.77l.342.668a.75.75 0 0 0-.085-1.373l-.256.705ZM38.784 32.075l.3.688.006-.003-.306-.685ZM8.313 54.928l-.53-.53.53.53Zm-3.718-3.687a.75.75 0 1 0-1.03-1.09l.516.545.514.545Zm-1.051-9.744a.75.75 0 0 0 1.073 1.047l-.537-.523-.536-.524Zm9.749-7.84a.75.75 0 0 0-1.074-1.047l.537.523.537.524Zm6.98 24.543a.75.75 0 0 0 1.048 1.073l-.524-.536-.524-.537Zm9.935-7.602a.75.75 0 1 0-1.048-1.073l.524.536.524.537Zm-4.544-13.021.53-.53c-8.09-8.09-10.042-16.615-9.99-23.11a31.678 31.678 0 0 1 1.078-7.944c.262-.967.52-1.729.712-2.245a16.06 16.06 0 0 1 .292-.73l.015-.034a.219.219 0 0 1 .003-.007v-.001l-.681-.313a36.717 36.717 0 0 0-.682-.312v.001a.128.128 0 0 0-.002.004l-.006.013a4.623 4.623 0 0 0-.093.216c-.062.148-.148.363-.252.64-.206.555-.48 1.36-.754 2.377a33.18 33.18 0 0 0-1.13 8.323c-.054 6.835 2.014 15.767 10.43 24.182l.53-.53ZM17.623 2.663l-.53.53v.001l.001.001.002.002.007.007.022.021.077.072a9.69 9.69 0 0 0 1.29.978c.85.54 2.078 1.132 3.512 1.252l.062-.748.063-.747c-1.106-.092-2.1-.558-2.835-1.024a8.186 8.186 0 0 1-1.076-.814 3.494 3.494 0 0 1-.053-.05l-.011-.01-.002-.002-.53.531Zm4.443 2.116-.062.748c1.345.112 2.52 0 3.36-.14a11.79 11.79 0 0 0 1.273-.285 4.613 4.613 0 0 0 .099-.03l.007-.003h.002l.001-.001-.236-.712-.237-.712h.001-.001a.908.908 0 0 1-.063.02 10.296 10.296 0 0 1-1.092.243 12.21 12.21 0 0 1-2.99.125l-.062.747Zm4.444-.423a103.135 103.135 0 0 0-.722.202v.001l.001.004.004.012c.003.01.006.024.012.04.01.034.024.082.044.142.04.12.098.291.179.502.162.422.413 1.008.775 1.676.721 1.332 1.896 3.015 3.7 4.369l.45-.6.45-.6c-1.58-1.186-2.627-2.676-3.281-3.883a12.792 12.792 0 0 1-.694-1.499 9.033 9.033 0 0 1-.194-.563l-.002-.005-.722.202Zm4.444 6.348-.45.6c1.808 1.357 3.826 2.024 5.37 2.355.776.166 1.442.25 1.917.292a12.026 12.026 0 0 0 .76.042h.019l.001-.75v-.75h.001-.035l-.124-.004a10.421 10.421 0 0 1-.49-.033 14.4 14.4 0 0 1-1.734-.264c-1.417-.303-3.209-.905-4.785-2.088l-.45.6Zm7.617 2.54-.746.074v.007l.002.014.005.044.022.159c.02.135.052.327.102.566.098.479.266 1.148.544 1.927.555 1.554 1.558 3.564 3.35 5.356l.53-.53.53-.53c-1.593-1.594-2.495-3.393-2.998-4.8a13.17 13.17 0 0 1-.487-1.725 8.916 8.916 0 0 1-.104-.606l-.003-.028v-.005.001l-.747.075Zm3.809 7.617-.53.53c1.783 1.783 4.043 3.044 5.827 3.855.897.408 1.686.707 2.252.905a20.81 20.81 0 0 0 .854.278l.05.015.014.004.004.001h.001l.203-.722.203-.722h-.002l-.009-.003-.04-.011-.163-.05a19.41 19.41 0 0 1-.62-.206 25.641 25.641 0 0 1-2.126-.854c-1.708-.776-3.785-1.948-5.388-3.55l-.53.53Zm8.675 4.866-.717-.22v.003l-.002.005-.003.012a2.702 2.702 0 0 0-.04.155 5.22 5.22 0 0 0-.079.418 7.538 7.538 0 0 0-.066 1.462c.058 1.224.407 2.886 1.541 4.7l.636-.398.636-.398c-.982-1.572-1.268-2.978-1.315-3.976-.024-.5.012-.9.052-1.17a3.857 3.857 0 0 1 .075-.376v.002a.016.016 0 0 0 0 .001l-.718-.22Zm1.27 6.137-.646.38c1.13 1.921 2.805 3.42 4.167 4.428a20.77 20.77 0 0 0 1.75 1.163 15.918 15.918 0 0 0 .724.404l.012.006a.06.06 0 0 0 .004.002h.001l.336-.67.336-.67-.001-.001-.007-.003a19.253 19.253 0 0 1-2.263-1.436c-1.282-.95-2.78-2.307-3.767-3.983l-.646.38Zm6.348 5.713c-.685-.305-.686-.304-.686-.304v.001l-.002.003a8.64 8.64 0 0 0-.474 4.666l.739-.134.738-.134a7.142 7.142 0 0 1 .05-2.703 7.033 7.033 0 0 1 .297-1.034 1.824 1.824 0 0 1 .024-.058v.001l-.686-.304Zm-.423 4.232-.736.147c.262 1.308 1.105 2.192 1.82 2.728a6.356 6.356 0 0 0 1.273.738 3.494 3.494 0 0 0 .137.054L61 44.77a107.872 107.872 0 0 1 .258-.704l-.011-.004a4.053 4.053 0 0 1-.282-.128 4.864 4.864 0 0 1-.732-.451c-.555-.417-1.087-1.014-1.249-1.822l-.735.147ZM61 44.77l-.34-.668h-.002c0 .002-.003.003-.007.005l-.034.017-.147.07c-.132.061-.331.151-.593.261-.523.22-1.293.518-2.272.826a31.523 31.523 0 0 1-8.037 1.411c-6.567.284-15.186-1.459-23.374-9.646l-.53.53-.53.53c8.528 8.529 17.577 10.384 24.499 10.085a33.02 33.02 0 0 0 8.422-1.479 27.73 27.73 0 0 0 2.403-.874 18.183 18.183 0 0 0 .819-.367l.046-.023.013-.007.004-.002h.001s.001-.001-.34-.669Zm-35.336-7.194.692-.287-.001-.005-.007-.016-.028-.07a38.72 38.72 0 0 1-.5-1.342 49.638 49.638 0 0 1-1.15-3.736c-.812-3.062-1.528-6.985-1.222-10.562l-.747-.064-.747-.064c-.328 3.83.437 7.948 1.265 11.074a51.11 51.11 0 0 0 1.185 3.85 39.81 39.81 0 0 0 .555 1.48l.008.02.003.007v.001l.694-.286ZM22.7 21.496l.747.064c.312-3.64 1.252-7.876 2.122-11.223a119.337 119.337 0 0 1 1.518-5.324 58.698 58.698 0 0 1 .135-.423v-.001l-.713-.233a219.74 219.74 0 0 0-.713-.232v.002a.35.35 0 0 1-.01.028l-.027.084a94.673 94.673 0 0 0-.474 1.54c-.31 1.035-.73 2.492-1.168 4.182-.876 3.371-1.841 7.705-2.164 11.471l.747.064Zm3.809 15.446.725.194v-.004l.004-.012.014-.052.058-.206c.05-.18.128-.448.23-.787a66.8 66.8 0 0 1 .92-2.798c.812-2.307 2.014-5.336 3.577-8.253l-.661-.355-.661-.354c-1.612 3.008-2.843 6.115-3.67 8.463a68.143 68.143 0 0 0-1.179 3.675 27.786 27.786 0 0 0-.076.275l-.004.015-.001.004v.001l.724.194Zm4.867-12.273.66.355c1.57-2.93 3.405-5.76 4.851-7.865a101.728 101.728 0 0 1 2.306-3.217l.137-.181.035-.046.009-.011c0-.002.001-.002.002-.003l-.594-.458-.595-.457v.001l-.003.004c-.003.002-.006.007-.01.012l-.037.05-.143.187a102.94 102.94 0 0 0-2.343 3.27c-1.463 2.128-3.331 5.01-4.936 8.005l.66.354Zm18.832 0-.495-.563-.003.003-.01.009-.043.037-.173.147c-.153.13-.38.319-.67.555a55.91 55.91 0 0 1-2.457 1.876c-2.067 1.491-4.878 3.311-7.882 4.658l.307.684.306.685c3.133-1.404 6.035-3.287 8.147-4.81a57.494 57.494 0 0 0 2.523-1.927 41.701 41.701 0 0 0 .928-.775l.012-.011.004-.003v-.001h.001l-.495-.564Zm-11.426 7.406-.301-.687a488.232 488.232 0 0 1-12.813 5.378l-.212.086-.054.021-.013.006-.004.001.278.697.278.696h.001l.004-.002a.567.567 0 0 1 .014-.005l.055-.022.214-.086.813-.33a490 490 0 0 0 12.04-5.066l-.3-.687Zm-13.12 5.502-.286.693h.002l.006.003.02.009a11.487 11.487 0 0 0 .376.148c.258.1.633.24 1.105.407a51.11 51.11 0 0 0 3.849 1.184c3.127.829 7.245 1.594 11.074 1.266l-.064-.748-.064-.747c-3.576.307-7.5-.41-10.562-1.22a49.619 49.619 0 0 1-3.735-1.15 38.784 38.784 0 0 1-1.433-.538l-.287.693Zm16.082 2.962.064.748c3.767-.323 8.1-1.288 11.472-2.164a120.988 120.988 0 0 0 5.395-1.54 55 55 0 0 0 .326-.102l.085-.028.022-.007.006-.002h.001l-.231-.713-.233-.714h-.001l-.005.002-.02.007-.081.026a73.44 73.44 0 0 1-1.512.466c-1.022.305-2.46.72-4.13 1.153-3.346.87-7.583 1.81-11.222 2.121l.064.747Zm-16.081-2.962-.53-.53h-.001l-.002.002-.009.008-.032.033-.126.126-.48.48-1.735 1.734-5.418 5.42-9.549 9.548.53.53.53.53c1.165-1.163 5.502-5.501 9.55-9.548l5.418-5.419 1.734-1.734.48-.48.127-.127.032-.032.008-.008.002-.002-.53-.531ZM8.312 54.928l-.53-.53c-1.564 1.564-3.102 1.294-3.839.575a1.913 1.913 0 0 1-.566-1.537c.046-.623.373-1.396 1.219-2.195l-.515-.545-.515-.545c-1.06 1-1.605 2.104-1.685 3.174a3.412 3.412 0 0 0 1.015 2.722c1.432 1.397 3.914 1.444 5.947-.589l-.53-.53ZM4.08 42.021l.537.523 8.676-8.887-.537-.524-.537-.524-8.675 8.888.536.523Zm16.717 16.716.524.536 8.887-8.675-.524-.537-.524-.536-8.887 8.675.524.537Z"/></svg>