<svg xmlns="http://www.w3.org/2000/svg" fill="none" viewBox="0 0 64 64"><path fill="currentColor" d="M30.625 59.613h.75v-1.5h-.75v1.5ZM7 58.863h-.75v.75H7v-.75ZM7 1.602v-.75h-.75v.75H7Zm48 0h.75v-.75H55v.75Zm-.75 28.483v.75h1.5v-.75h-1.5Zm-29.76-13.85h-.75v1.5h.75v-1.5Zm20.28 1.5h.75v-1.5h-.75v1.5Zm-27.542-1.5h-.75v1.5h.75v-1.5Zm2.068 1.5h.75v-1.5h-.75v1.5Zm5.194 11.5h-.75v1.5h.75v-1.5Zm20.28 1.5h.75v-1.5h-.75v1.5Zm-27.542-1.5h-.75v1.5h.75v-1.5Zm2.068 1.5h.75v-1.5h-.75v1.5Zm5.194 11.5h-.75v1.5h.75v-1.5Zm6.565 1.5h.75v-1.5h-.75v1.5Zm-13.826-1.5h-.75v1.5h.75v-1.5Zm2.067 1.5h.75v-1.5h-.75v1.5ZM50 37.383v.75-.75ZM36.515 50.118v.75h1.5v-.75h-1.5Zm13.483 12.734v-.75.75ZM38.014 50.118v-.75h-1.5v.75h1.5Zm6.126-.834-.53-.53-1.061 1.06.53.53 1.06-1.06Zm3.913 4.974-.53.53.533.534.53-.536-.533-.528Zm8.83-7.859.527-.533-1.066-1.055-.528.533 1.067 1.055ZM30.625 58.113H7v1.5h23.625v-1.5Zm-22.875.75V1.602h-1.5v57.261h1.5ZM7 2.352h48v-1.5H7v1.5Zm47.25-.75v28.483h1.5V1.602h-1.5ZM24.49 17.735h20.28v-1.5H24.49v1.5Zm-7.261 0h2.067v-1.5H17.23v1.5Zm7.261 13h20.28v-1.5H24.49v1.5Zm-7.261 0h2.067v-1.5H17.23v1.5Zm7.261 13h6.565v-1.5H24.49v1.5Zm-7.261 0h2.067v-1.5H17.23v1.5Zm46.255 6.383c0-1.77-.348-3.524-1.026-5.16l-1.386.574c.602 1.454.912 3.012.912 4.586h1.5Zm-1.026-5.16a13.483 13.483 0 0 0-2.923-4.375l-1.06 1.06a11.987 11.987 0 0 1 2.597 3.889l1.386-.574Zm-2.923-4.375a13.483 13.483 0 0 0-4.375-2.923l-.574 1.386a11.987 11.987 0 0 1 3.888 2.598l1.06-1.061ZM55.16 37.66A13.484 13.484 0 0 0 50 36.633v1.5c1.574 0 3.132.31 4.586.913l.574-1.386ZM50 36.633c-1.771 0-3.525.35-5.16 1.027l.573 1.386A11.984 11.984 0 0 1 50 38.133v-1.5Zm-5.16 1.027a13.487 13.487 0 0 0-4.375 2.923l1.06 1.061a11.981 11.981 0 0 1 3.889-2.598l-.575-1.386Zm-4.375 2.923a13.485 13.485 0 0 0-2.923 4.375l1.385.574a11.984 11.984 0 0 1 2.598-3.888l-1.06-1.06Zm-2.923 4.375a13.484 13.484 0 0 0-1.027 5.16h1.5c0-1.573.31-3.132.912-4.586l-1.385-.574Zm12.456 18.645c1.771 0 3.525-.35 5.16-1.027l-.573-1.386a11.986 11.986 0 0 1-4.587.913v1.5Zm5.16-1.027a13.484 13.484 0 0 0 4.375-2.923l-1.06-1.06a11.985 11.985 0 0 1-3.888 2.597l.574 1.386Zm4.375-2.923a13.484 13.484 0 0 0 2.923-4.375l-1.385-.574a11.983 11.983 0 0 1-2.598 3.888l1.06 1.061Zm2.923-4.375a13.484 13.484 0 0 0 1.027-5.16h-1.5c0 1.574-.31 3.132-.912 4.586l1.385.574Zm-25.942-5.16c0 1.77.348 3.524 1.026 5.16l1.386-.574a11.986 11.986 0 0 1-.912-4.586h-1.5Zm1.026 5.16a13.486 13.486 0 0 0 2.923 4.375l1.06-1.06a11.984 11.984 0 0 1-2.597-3.889l-1.386.574Zm2.923 4.375a13.487 13.487 0 0 0 4.375 2.923l.574-1.386a11.982 11.982 0 0 1-3.888-2.598l-1.06 1.061Zm4.375 2.923a13.486 13.486 0 0 0 5.16 1.026v-1.5c-1.574 0-3.132-.31-4.586-.912l-.574 1.386Zm-1.759-12.232 4.444 4.445 1.06-1.061-4.443-4.444-1.061 1.06Zm5.508 4.442 8.296-8.387-1.067-1.055-8.296 8.387 1.067 1.055Z"/></svg>