<svg xmlns="http://www.w3.org/2000/svg" fill="none" viewBox="0 0 64 64"><path fill="currentColor" d="M18.672 25.363h-.75v1.5h.75v-1.5Zm24.4 1.5h.75v-1.5h-.75v1.5Zm-24.4 7.965h-.75v1.5h.75v-1.5Zm16.513 1.5h.75v-1.5h-.75v1.5Zm-16.513 7.966h-.75v1.5h.75v-1.5Zm7.887 1.5h.75v-1.5h-.75v1.5ZM36.972 7.18h-.75v.75h.75v-.75Zm-6.1-5.68V.75v.75Zm-6.1 5.68v.75h.75v-.75h-.75Zm-6.1 0v-.75h-.75v.75h.75Zm0 7.573h-.75v.75h.75v-.75Zm24.4 0v.75h.75v-.75h-.75Zm0-7.573h.75v-.75h-.75v.75Zm-12.2 51.867h.75v-1.5h-.75v1.5Zm-21.157-.75h-.75v.75h.75v-.75Zm0-49.223v-.75h-.75v.75h.75Zm8.957.75h.75v-1.5h-.75v1.5Zm24.4-1.5h-.75v1.5h.75v-1.5Zm9.214.75h.75v-.75h-.75v.75ZM51.536 31v.75h1.5V31h-1.5ZM50 37.383v.75-.75ZM36.515 50.118v.75h1.5v-.75h-1.5Zm13.483 12.734v-.75.75ZM38.014 50.118v-.75h-1.5v.75h1.5Zm6.126-.834-.53-.53-1.061 1.06.53.53 1.06-1.06Zm3.913 4.974-.53.53.533.534.53-.536-.533-.528Zm8.83-7.859.527-.533-1.066-1.055-.528.533 1.067 1.055ZM18.672 26.863h24.4v-1.5h-24.4v1.5Zm0 9.465h16.513v-1.5H18.672v1.5Zm0 9.466h7.887v-1.5h-7.887v1.5ZM37.722 7.18c0-1.724-.736-3.364-2.026-4.565l-1.022 1.097c.998.93 1.548 2.178 1.548 3.468h1.5Zm-2.026-4.565C34.408 1.415 32.672.75 30.872.75v1.5c1.435 0 2.802.531 3.802 1.462l1.022-1.097ZM30.872.75c-1.8 0-3.536.665-4.824 1.865l1.022 1.097c1-.93 2.366-1.462 3.802-1.462V.75Zm-4.824 1.865c-1.29 1.2-2.026 2.841-2.026 4.565h1.5c0-1.29.55-2.538 1.548-3.468l-1.022-1.097ZM24.772 6.43h-6.1v1.5h6.1v-1.5Zm-6.85.75v7.573h1.5V7.18h-1.5Zm.75 8.323h24.4v-1.5h-24.4v1.5Zm25.15-.75V7.18h-1.5v7.573h1.5Zm-.75-8.323h-6.1v1.5h6.1v-1.5Zm-12.2 51.117H9.715v1.5h21.157v-1.5Zm-20.407.75V9.074h-1.5v49.223h1.5Zm-.75-48.473h8.957v-1.5H9.715v1.5Zm33.357 0h9.214v-1.5h-9.214v1.5Zm8.464-.75V31h1.5V9.074h-1.5Zm11.948 41.044c0-1.77-.348-3.524-1.026-5.16l-1.386.574c.602 1.454.912 3.012.912 4.586h1.5Zm-1.026-5.16a13.483 13.483 0 0 0-2.923-4.375l-1.06 1.06a11.987 11.987 0 0 1 2.597 3.889l1.386-.574Zm-2.923-4.375a13.483 13.483 0 0 0-4.375-2.923l-.574 1.386a11.987 11.987 0 0 1 3.888 2.598l1.06-1.061ZM55.16 37.66A13.484 13.484 0 0 0 50 36.633v1.5c1.574 0 3.132.31 4.586.913l.574-1.386ZM50 36.633c-1.771 0-3.525.35-5.16 1.027l.573 1.386A11.984 11.984 0 0 1 50 38.133v-1.5Zm-5.16 1.027a13.487 13.487 0 0 0-4.375 2.923l1.06 1.061a11.981 11.981 0 0 1 3.889-2.598l-.575-1.386Zm-4.375 2.923a13.485 13.485 0 0 0-2.923 4.375l1.385.574a11.984 11.984 0 0 1 2.598-3.888l-1.06-1.06Zm-2.923 4.375a13.484 13.484 0 0 0-1.027 5.16h1.5c0-1.573.31-3.132.912-4.586l-1.385-.574Zm12.456 18.645c1.771 0 3.525-.35 5.16-1.027l-.573-1.386a11.986 11.986 0 0 1-4.587.913v1.5Zm5.16-1.027a13.484 13.484 0 0 0 4.375-2.923l-1.06-1.06a11.985 11.985 0 0 1-3.888 2.597l.574 1.386Zm4.375-2.923a13.484 13.484 0 0 0 2.923-4.375l-1.385-.574a11.983 11.983 0 0 1-2.598 3.888l1.06 1.061Zm2.923-4.375a13.484 13.484 0 0 0 1.027-5.16h-1.5c0 1.574-.31 3.132-.912 4.586l1.385.574Zm-25.942-5.16c0 1.77.348 3.524 1.026 5.16l1.386-.574a11.986 11.986 0 0 1-.912-4.586h-1.5Zm1.026 5.16a13.486 13.486 0 0 0 2.923 4.375l1.06-1.06a11.984 11.984 0 0 1-2.597-3.889l-1.386.574Zm2.923 4.375a13.487 13.487 0 0 0 4.375 2.923l.574-1.386a11.982 11.982 0 0 1-3.888-2.598l-1.06 1.061Zm4.375 2.923a13.486 13.486 0 0 0 5.16 1.026v-1.5c-1.574 0-3.132-.31-4.586-.912l-.574 1.386Zm-1.759-12.232 4.444 4.445 1.06-1.061-4.443-4.444-1.061 1.06Zm5.508 4.442 8.296-8.387-1.067-1.055-8.296 8.387 1.067 1.055Z"/></svg>