<svg xmlns="http://www.w3.org/2000/svg" fill="none" viewBox="0 0 24 24"><g fill="currentColor"><path d="M9.931 3.065c.213-.897 1.486-.897 1.699 0l.92 3.874a6.002 6.002 0 0 0 4.412 4.446l3.933.961c.894.219.885 1.498-.013 1.703l-3.835.879a6.002 6.002 0 0 0-4.502 4.486l-.915 3.91c-.21.901-1.489.901-1.7 0l-.915-3.91a6.002 6.002 0 0 0-4.501-4.486l-3.836-.879c-.897-.205-.907-1.484-.012-1.703l3.933-.961a6.002 6.002 0 0 0 4.412-4.446l.92-3.874ZM19.573.424c.135-.565.936-.565 1.07 0l.227.954a2.36 2.36 0 0 0 1.735 1.748l.975.238c.564.138.558.944-.007 1.073l-.935.214a2.36 2.36 0 0 0-1.77 1.764l-.224.96c-.133.567-.938.567-1.071 0l-.224-.96a2.36 2.36 0 0 0-1.77-1.764l-.934-.214c-.566-.13-.572-.935-.008-1.073l.975-.238a2.36 2.36 0 0 0 1.735-1.748l.226-.954Z"/></g></svg>