<svg xmlns="http://www.w3.org/2000/svg" fill="none" viewBox="0 0 24 24"><path fill="currentColor" d="M13.5.75V0H12v.75h1.5ZM12.75 9l-.45.6 1.2.9V9h-.75Zm-3-2.25.45-.6-.45-.338-.45.338.45.6ZM6.75 9H6v1.5l1.2-.9-.45-.6ZM7.5.75V0H6v.75h1.5ZM3 23.25h-.75V24H3v-.75ZM3 .75V0h-.75v.75H3Zm9.75 0H12V9h1.5V.75h-.75Zm0 8.25.45-.6-3-2.25-.45.6-.45.6 3 2.25.45-.6Zm-3-2.25-.45-.6-3 2.25.45.6.45.6 3-2.25-.45-.6ZM6.75 9h.75V.75H6V9h.75ZM17.25.75h-.75v22.5H18V.75h-.75Zm2.25 22.5v-.75H3V24h16.5v-.75Zm-16.5 0h.75V.75h-1.5v22.5H3ZM3 .75v.75h16.5V0H3v.75Zm16.5 0v.75a.75.75 0 0 1 .53.22l.53-.53.531-.531A2.25 2.25 0 0 0 19.5 0v.75Zm1.06.44-.53.53c.141.14.22.331.22.53h1.5a2.25 2.25 0 0 0-.659-1.591l-.53.53ZM21 2.25h-.75v19.5h1.5V2.25H21Zm0 19.5h-.75a.75.75 0 0 1-.22.53l.53.53.531.531a2.25 2.25 0 0 0 .659-1.591H21Zm-.44 1.06-.53-.53a.75.75 0 0 1-.53.22V24a2.25 2.25 0 0 0 1.591-.659l-.53-.53Z"/></svg>