<svg xmlns="http://www.w3.org/2000/svg" fill="none" viewBox="0 0 24 24"><path fill="currentColor" d="M19.5 3.75h-.75v1.5h.75v-1.5Zm3 .75.743.1.114-.85H22.5v.75ZM21 15.75v.75h.657l.086-.65-.743-.1Zm-15 0-.742.111.096.639H6v-.75ZM3.75.75l.742-.111L4.396 0H3.75v.75ZM1.5 0H.75v1.5h.75V0ZM15 4.5h.75v-.75H15v.75Zm-6.75 0-.53-.53-.53.53.53.53.53-.53Zm2.47 3.53.53.53 1.06-1.06-.53-.53-.53.53-.53.53Zm1.06-6 .53-.53L11.25.44l-.53.53.53.53.53.53ZM9.75 21H9a1.5 1.5 0 0 1-1.5 1.5V24a3 3 0 0 0 3-3h-.75ZM7.5 23.25v-.75A1.5 1.5 0 0 1 6 21H4.5a3 3 0 0 0 3 3v-.75ZM5.25 21H6a1.5 1.5 0 0 1 1.5-1.5V18a3 3 0 0 0-3 3h.75Zm2.25-2.25v.75A1.5 1.5 0 0 1 9 21h1.5a3 3 0 0 0-3-3v.75Zm15 2.25h-.75a1.5 1.5 0 0 1-1.5 1.5V24a3 3 0 0 0 3-3h-.75Zm-2.25 2.25v-.75a1.5 1.5 0 0 1-1.5-1.5h-1.5a3 3 0 0 0 3 3v-.75ZM18 21h.75a1.5 1.5 0 0 1 1.5-1.5V18a3 3 0 0 0-3 3H18Zm2.25-2.25v.75a1.5 1.5 0 0 1 1.5 1.5h1.5a3 3 0 0 0-3-3v.75ZM19.5 4.5v.75h3v-1.5h-3v.75Zm3 0-.743-.1-1.5 11.25.743.1.743.1 1.5-11.25-.743-.1ZM21 15.75V15H6v1.5h15v-.75Zm-15 0 .742-.111-2.25-15L3.75.75l-.742.111 2.25 15L6 15.75ZM3.75.75V0H1.5v1.5h2.25V.75ZM15 11.25h.75V4.5h-1.5v6.75H15Zm0-6.75v-.75H8.25v1.5H15V4.5Zm-3.75 3 .53-.53-3-3-.53.53-.53.53 3 3 .53-.53Zm-3-3 .53.53 3-3-.53-.53-.53-.53-3 3 .53.53Z"/></svg>