<svg xmlns="http://www.w3.org/2000/svg" fill="none" viewBox="0 0 24 24"><path stroke="currentColor" stroke-linecap="square" stroke-miterlimit="10" vector-effect="non-scaling-stroke" stroke-width="1.5" d="M10.049 12.708a4.757 4.757 0 0 1-1.695.283 2.706 2.706 0 0 1-2.143-.846 3.534 3.534 0 0 1-.747-2.42 3.91 3.91 0 0 1 .363-1.735 2.585 2.585 0 0 1 1.049-1.139 3.177 3.177 0 0 1 1.612-.395 4.005 4.005 0 0 1 1.8.409m7.243 5.843a4.762 4.762 0 0 1-1.696.283 2.71 2.71 0 0 1-2.143-.846 3.537 3.537 0 0 1-.747-2.42 3.909 3.909 0 0 1 .363-1.735 2.59 2.59 0 0 1 1.05-1.139 3.176 3.176 0 0 1 1.614-.393 4 4 0 0 1 1.799.409M1.113 2.577h21.774v14.516H12.726l-6.533 5.08v-5.08h-5.08V2.576Z"/></svg>