<svg xmlns="http://www.w3.org/2000/svg" fill="none" viewBox="0 0 24 24"><path fill="currentColor" d="M10 14v-.75h-.75V14H10Zm4 0h.75v-.75H14V14Zm0 9v.75h.75V23H14Zm-4 0h-.75v.75H10V23Zm-9-5v-.75H.25V18H1Zm4 0h.75v-.75H5V18Zm0 5v.75h.75V23H5Zm-4 0H.25v.75H1V23Zm18-13v-.75h-.75V10H19Zm4 0h.75v-.75H23V10Zm0 13v.75h.75V23H23Zm-4 0h-.75v.75H19V23ZM8 5l.53-.53L8 3.94l-.53.53L8 5Zm4 4-.53.53.53.53.53-.53L12 9Zm8-8h.75V.25H20V1Zm-5-.75h-.75v1.5H15V.25ZM19.25 6v.75h1.5V6h-1.5ZM10 14v.75h4v-1.5h-4V14Zm4 0h-.75v9h1.5v-9H14Zm0 9v-.75h-4v1.5h4V23Zm-4 0h.75v-9h-1.5v9H10Zm-9-5v.75h4v-1.5H1V18Zm4 0h-.75v5h1.5v-5H5Zm0 5v-.75H1v1.5h4V23Zm-4 0h.75v-5H.25v5H1Zm18-13v.75h4v-1.5h-4V10Zm4 0h-.75v13h1.5V10H23Zm0 13v-.75h-4v1.5h4V23Zm-4 0h.75V10h-1.5v13H19ZM3 10l.53.53 5-5L8 5l-.53-.53-5 5L3 10Zm5-5-.53.53 4 4L12 9l.53-.53-4-4L8 5Zm4 4 .53.53 8-8L20 1l-.53-.53-8 8L12 9Zm3-8v.75h5V.25h-5V1Zm5 0h-.75v5h1.5V1H20Z"/></svg>