<svg xmlns="http://www.w3.org/2000/svg" fill="none" viewBox="0 0 24 24"><path stroke="currentColor" stroke-miterlimit="10" vector-effect="non-scaling-stroke" stroke-width="1.5" d="M1 4v4m0-4c0 1.657 2.686 3 6 3s6-1.343 6-3M1 4c0-1.657 2.686-3 6-3s6 1.343 6 3M1 8c0 1.657 2.686 3 6 3s6-1.343 6-3V4M1 8v4m0 0c0 1.657 2.686 3 6 3 1.537 0 2.938-.29 4-.765M1 12v4c0 1.657 2.686 3 6 3 1.537 0 2.939-.289 4-.764M11 12v4m0-4c0 1.657 2.686 3 6 3s6-1.343 6-3m-12 0c0-1.657 2.686-3 6-3s6 1.343 6 3m-12 4c0 1.657 2.686 3 6 3s6-1.343 6-3m-12 0v4c0 1.657 2.686 3 6 3s6-1.343 6-3v-4m0 0v-4"/></svg>