<svg xmlns="http://www.w3.org/2000/svg" fill="none" viewBox="0 0 24 24"><path fill="currentColor" d="m1.5 12-.53-.53-.53.53.53.53.53-.53Zm21 0 .53.53.53-.53-.53-.53-.53.53ZM12 2.25l.53-.53-.53-.53-.53.53.53.53ZM3.97 15.53l.53.53L5.56 15l-.53-.53-.53.53-.53.53Zm1.06-6L5.56 9 4.5 7.94l-.53.53.53.53.53.53Zm13.94 4.94-.53.53 1.06 1.06.53-.53-.53-.53-.53-.53Zm1.06-6-.53-.53L18.44 9l.53.53.53-.53.53-.53Zm-12.31-3L7.19 6l1.06 1.06.53-.53L8.25 6l-.53-.53Zm7.5 1.06.53.53L16.81 6l-.53-.53-.53.53-.53.53ZM1.5 12v.75H6v-1.5H1.5V12ZM6 12v.75c2.9 0 5.25 2.35 5.25 5.25h1.5A6.75 6.75 0 0 0 6 11.25V12Zm6 6h-.75v4.5h1.5V18H12Zm10.5-6v-.75H18v1.5h4.5V12ZM18 12v-.75A6.75 6.75 0 0 0 11.25 18h1.5c0-2.9 2.35-5.25 5.25-5.25V12Zm-6 6h-.75v6h1.5v-6H12Zm0-1.5h.75V2.25h-1.5V16.5H12ZM4.5 15l.53-.53-3-3-.53.53-.53.53 3 3L4.5 15Zm-3-3 .53.53 3-3L4.5 9l-.53-.53-3 3 .53.53Zm18 3 .53.53 3-3-.53-.53-.53-.53-3 3 .53.53Zm3-3 .53-.53-3-3-.53.53-.53.53 3 3 .53-.53ZM8.25 6l.53.53 3.75-3.75-.53-.53-.53-.53-3.75 3.75.53.53ZM12 2.25l-.53.53 3.75 3.75.53-.53.53-.53-3.75-3.75-.53.53Z"/></svg>