<svg xmlns="http://www.w3.org/2000/svg" fill="none" viewBox="0 0 24 24"><path fill="currentColor" d="m5.475 7.244-.208.72.01.004.198-.724Zm6.444 0 .197.724.011-.003-.208-.721Zm0-5.58.208-.721-.01-.003-.198.723Zm-6.444 0L5.277.94l-.01.003.208.72Zm10.572 16.152h-.75v1.5h.75v-1.5Zm2.547 1.5h.75v-1.5h-.75v1.5Zm3.156-.75h.75-.75Zm-2.212-3.83-.375.65.375-.65Zm-4.4-10.216h-.75v4.296h1.5V4.52h-.75Zm0 4.296h-.75c0 .453-.386 1.065-1.473 1.61-1.041.52-2.533.865-4.221.865v1.5c1.871 0 3.602-.378 4.893-1.024 1.246-.624 2.302-1.624 2.302-2.951h-.75Zm-6.444 3.225v-.75c-1.688 0-3.18-.344-4.221-.866C3.387 9.881 3 9.27 3 8.816H1.5c0 1.327 1.056 2.327 2.301 2.95 1.291.647 3.022 1.025 4.893 1.025v-.75ZM2.25 8.816H3V4.52H1.5v4.296h.75Zm8.475 7.585v-.75H8.693v1.5h2.032v-.75Zm-2.032 0v-.75c-1.688 0-3.179-.344-4.22-.865C3.386 14.243 3 13.632 3 13.18H1.5c0 1.327 1.056 2.326 2.302 2.949 1.29.645 3.02 1.023 4.89 1.023v-.75ZM2.25 13.179H3V8.883H1.5v4.296h.75ZM15.139 8.49h-.75v3.907h1.5V8.491h-.75Zm-4.044 12.273v-.75h-2.4v1.5h2.4v-.75Zm-2.4 0v-.75c-1.689 0-3.18-.344-4.222-.865C3.386 18.606 3 17.995 3 17.544H1.5c0 1.326 1.057 2.325 2.302 2.947 1.291.645 3.022 1.023 4.893 1.023v-.75Zm-6.445-3.22H3v-4.299H1.5v4.299h.75Zm0-13.09H1.5c0 .86.462 1.605 1.123 2.178.662.573 1.575 1.025 2.644 1.333l.208-.721.208-.72c-.928-.268-1.627-.636-2.078-1.026C3.153 5.106 3 4.743 3 4.453h-.75Zm3.225 2.79-.197.724c2.238.61 4.6.61 6.838 0l-.197-.724-.197-.724a11.5 11.5 0 0 1-6.05 0l-.197.724Zm6.444 0 .208.72c1.068-.308 1.981-.76 2.643-1.332.661-.573 1.124-1.317 1.124-2.179h-1.5c0 .29-.153.653-.605 1.044-.452.391-1.152.759-2.078 1.026l.208.721Zm3.225-2.79h.75c0-.862-.462-1.607-1.123-2.179-.662-.573-1.576-1.024-2.644-1.332l-.208.72-.208.721c.928.267 1.627.635 2.078 1.025.452.391.605.755.605 1.044h.75Zm-3.225-2.79.198-.724a12.981 12.981 0 0 0-6.84 0l.198.723.198.724c1.98-.54 4.068-.54 6.048 0l.198-.724Zm-6.444 0L5.267.942c-1.068.308-1.982.76-2.644 1.332C1.962 2.847 1.5 3.592 1.5 4.453H3c0-.29.153-.653.605-1.044.451-.39 1.15-.758 2.078-1.025l-.208-.72Zm10.572 16.902v.75h2.547v-1.5h-2.547v.75Zm5.703 0H21c0 .81-.266 1.596-.759 2.238l.596.456.595.457a5.175 5.175 0 0 0 1.068-3.151h-.75Zm-.913 2.694-.596-.456a3.675 3.675 0 0 1-1.964 1.314l.195.724.194.724a5.175 5.175 0 0 0 2.766-1.85l-.595-.456Zm-2.365 1.582-.195-.724c-.781.21-1.61.155-2.358-.154l-.286.693-.287.693a5.175 5.175 0 0 0 3.32.216l-.194-.724Zm-2.84-.185.287-.693a3.675 3.675 0 0 1-1.776-1.558l-.65.375-.65.375a5.175 5.175 0 0 0 2.503 2.194l.287-.693Zm-2.139-1.876.65-.375a3.675 3.675 0 0 1-.462-2.317l-.743-.098-.744-.098a5.174 5.174 0 0 0 .65 3.263l.65-.375Zm-.555-2.79.743.098a3.674 3.674 0 0 1 1.045-2.12l-.53-.53-.53-.53a5.175 5.175 0 0 0-1.472 2.984l.744.098Zm1.258-2.552.53.53a3.675 3.675 0 0 1 2.12-1.044l-.098-.744-.098-.744a5.175 5.175 0 0 0-2.984 1.472l.53.53Zm2.552-1.258.098.744a3.675 3.675 0 0 1 2.317.46l.375-.649.375-.65a5.175 5.175 0 0 0-3.263-.649l.098.744Zm2.79.555-.375.65a3.675 3.675 0 0 1 1.344 1.344l.65-.375.65-.375a5.175 5.175 0 0 0-1.894-1.893l-.375.65Zm1.619 1.619-.65.375c.323.558.493 1.192.493 1.836h1.5c0-.908-.24-1.8-.694-2.586l-.65.375Z"/></svg>