<svg xmlns="http://www.w3.org/2000/svg" fill="none" viewBox="0 0 24 24"><path fill="currentColor" d="M.75 2.25V1.5H0v.75h.75Zm22.5 0H24V1.5h-.75v.75Zm0 19.5v.75H24v-.75h-.75Zm-22.5 0H0v.75h.75v-.75ZM9 9.387v-.75h-.75v.75H9Zm6 0h.75v-.75H15v.75Zm-5.25 8.5H9v1.5h.75v-1.5Zm4.5 1.5H15v-1.5h-.75v1.5ZM.75 2.25V3h22.5V1.5H.75v.75Zm22.5 0h-.75v19.5H24V2.25h-.75Zm0 19.5V21H.75v1.5h22.5v-.75Zm-22.5 0h.75V2.25H0v19.5h.75ZM.75 6v.75h22.5v-1.5H.75V6ZM12 15.109v-.75a2.25 2.25 0 0 1-2.25-2.25h-1.5a3.75 3.75 0 0 0 3.75 3.75v-.75Zm-3-3h.75V9.387h-1.5v2.722H9Zm0-2.722v.75h6v-1.5H9v.75Zm6 0h-.75v2.722h1.5V9.387H15Zm0 2.722h-.75a2.25 2.25 0 0 1-2.25 2.25v1.5a3.75 3.75 0 0 0 3.75-3.75H15Zm-3 3h-.75v3.528h1.5v-3.528H12ZM18.75 2.25H18V6h1.5V2.25h-.75Zm-9 16.387v.75H12v-1.5H9.75v.75Zm2.25 0v.75h2.25v-1.5H12v.75Z"/></svg>