<svg xmlns="http://www.w3.org/2000/svg" fill="none" viewBox="0 0 24 24"><path stroke="currentColor" stroke-linecap="square" stroke-miterlimit="10" vector-effect="non-scaling-stroke" stroke-width="1.5" d="M14.25 9.75s.975-5.752-3-8.25a7.05 7.05 0 0 1-2.644 5.1c-1.698 1.5-4.89 4.863-4.856 8.46.028 2.906 1.609 6.461 5.258 7.725A3.222 3.222 0 0 1 9 22.56c.038-1.335.69-2.503 1.46-3.595.79-1.119 1.182-2.155 1.3-2.788 2.148 1.196 3.24 4.35 3.24 6.226 0 .109 0 .22-.01.329a7.72 7.72 0 0 0 5.23-7.006c.298-3.576-1.663-6.668-2.97-8.301"/></svg>