<svg xmlns="http://www.w3.org/2000/svg" fill="none" viewBox="0 0 24 24"><path stroke="currentColor" stroke-miterlimit="10" vector-effect="non-scaling-stroke" stroke-width="1.5" d="M2.787 5.96a11.267 11.267 0 0 0-1.621 4.025 11.415 11.415 0 0 0 .01 4.357m15.466-12.09a10.441 10.441 0 0 0-7.034-.997 10.617 10.617 0 0 0-5.26 2.804m18.692 7.788c-.462-4.773-2.662-7.223-3.984-8.316M1.18 14.341c.031.16.066.318.103.474m7.672 8.067c2.414-2.834 3.706-6.767 2.861-11.035m1.556 11.424c2.181-3.287 2.948-7.762 2.076-11.424-.708-2.978-2.911-3.886-4.373-3.582-1.95.405-2.913 2.317-2.765 4.038.214 2.491.414 5.166-2.733 8.738m-.682-7.746c.147 2.283-.205 3.545-1.952 4.778m16.376-5.53c-.073-1.185-.385-2.52-1.181-3.976-1.755-3.211-5.093-4.46-8.012-3.854-2.367.492-4.993 2.894-5.436 6.185m13.734 9.928c.767-2.066.895-3.756.895-5.545m3.72-.941c0 .835-.009 1.498-.138 2.398"/></svg>