<svg xmlns="http://www.w3.org/2000/svg" fill="none" viewBox="0 0 24 24"><path fill="currentColor" d="M2.25 10.825v.75h1.5v-.75h-1.5Zm18 .004v.75h1.5v-.75h-1.5ZM7.5 9.91h.75v-.567l-.546-.155-.204.722Zm0 7.932.204.722.546-.155v-.567H7.5Zm9 0h-.75v.567l.546.155.204-.722Zm0-7.932-.204-.722-.546.155v.567h.75ZM3.75 17.056H3V18h1.5v-.944h-.75Zm0 .944H3c0 2.9 2.35 5.25 5.25 5.25v-1.5A3.75 3.75 0 0 1 4.5 18h-.75Zm4.5 4.5v.75h1.5v-1.5h-1.5v.75ZM3 10.825h.75V7.5h-1.5v3.325H3ZM3 7.5h.75a6 6 0 0 1 6-6V0a7.5 7.5 0 0 0-7.5 7.5H3ZM9.75.75v.75h4.5V0h-4.5v.75Zm4.5 0v.75a6 6 0 0 1 6 6h1.5a7.5 7.5 0 0 0-7.5-7.5v.75ZM21 7.5h-.75v3.33h1.5V7.5H21ZM7.5 9.909l.204-.722A4.872 4.872 0 0 0 6.375 9v1.5c.316 0 .624.047.92.13l.205-.72ZM6.375 9.75V9A4.875 4.875 0 0 0 1.5 13.875H3A3.375 3.375 0 0 1 6.375 10.5v-.75ZM2.25 13.875H1.5a4.875 4.875 0 0 0 4.875 4.875v-1.5A3.375 3.375 0 0 1 3 13.875h-.75ZM6.375 18v.75c.465 0 .91-.069 1.33-.187L7.5 17.84l-.204-.722a3.377 3.377 0 0 1-.921.131V18Zm1.125-.159h.75V9.909h-1.5v7.932h.75Zm9 0-.204.722c.419.118.864.187 1.329.187v-1.5c-.316 0-.624-.047-.92-.13l-.205.721Zm1.125.159v.75a4.875 4.875 0 0 0 4.875-4.875H21a3.375 3.375 0 0 1-3.375 3.375V18Zm4.125-4.125h.75A4.875 4.875 0 0 0 17.625 9v1.5A3.375 3.375 0 0 1 21 13.875h.75ZM17.625 9.75V9c-.465 0-.91.069-1.33.187l.205.722.204.722c.297-.084.605-.131.921-.131v-.75Zm-1.125.159h-.75v7.932h1.5V9.909h-.75ZM10.118 21.75v.75h3.764V21h-3.764v.75Zm4.514.75h.75v-.019h-1.5v.019h.75Zm-.75.731v-.75h-3.764v1.5h3.764v-.75Zm-4.514-.75h-.75v.019h1.5v-.019h-.75Zm.75.75v-.75h-1.5a1.5 1.5 0 0 0 1.5 1.5v-.75Zm4.514-.75h-.75v1.5a1.5 1.5 0 0 0 1.5-1.5h-.75Zm-.75-.731v.75h1.5a1.5 1.5 0 0 0-1.5-1.5v.75Zm-3.764 0V21a1.5 1.5 0 0 0-1.5 1.5h1.5v-.75Z"/></svg>