<svg xmlns="http://www.w3.org/2000/svg" fill="none" viewBox="0 0 24 24"><path stroke="currentColor" stroke-linecap="square" stroke-miterlimit="10" vector-effect="non-scaling-stroke" stroke-width="1.5" d="M10.95 15c-3.807-.006-6.635.874-8.12 1.532a2.243 2.243 0 0 0-1.33 2.055V22.5h12.669M6 6.375a5.25 5.25 0 1 1 10.5 0c0 2.9-2.35 6-5.25 6S6 9.275 6 6.375Zm16.186 8.619c-1.095-1.133-2.92-.948-3.78.392-.86-1.341-2.687-1.524-3.781-.392a2.604 2.604 0 0 0 0 3.593l3.78 3.913 3.781-3.913c.96-.993.96-2.6 0-3.593Z"/></svg>