<svg xmlns="http://www.w3.org/2000/svg" fill="none" viewBox="0 0 24 24"><path fill="currentColor" d="M8.813 5.063h-.75.75ZM6.938 1.814l-.375.65.375-.65Zm15.75 17.122h-.75.75Zm-1.875-3.247-.375.65.375-.65ZM.782 22.157l-.531.53 1.06 1.061.53-.53-.53-.53-.53-.531ZM22.894 2.175l.53-.53-1.06-1.06-.53.53.53.53.53.53ZM15.053.563h-.75v1.5h.75v-1.5Zm7.634.75h.75v-.75h-.75v.75Zm-.75 7.634v.75h1.5v-.75h-1.5ZM8.813 5.063h-.75a3 3 0 0 1-.62 1.826l.596.456.595.457a4.5 4.5 0 0 0 .93-2.74h-.75Zm-.774 2.282-.595-.456A3 3 0 0 1 5.839 7.96l.194.725.194.724a4.5 4.5 0 0 0 2.406-1.607l-.595-.457Zm-2.005 1.34L5.84 7.96a3 3 0 0 1-1.925-.126l-.287.693-.286.693a4.5 4.5 0 0 0 2.886.19l-.194-.725Zm-2.406-.158.288-.693a3 3 0 0 1-1.45-1.271l-.65.375-.65.375A4.5 4.5 0 0 0 3.341 9.22l.286-.693Zm-1.812-1.59.65-.374a3 3 0 0 1-.377-1.892l-.743-.098L.6 4.475a4.5 4.5 0 0 0 .564 2.838l.65-.375Zm-.47-2.364.743.098a3 3 0 0 1 .853-1.73l-.53-.53-.53-.53A4.5 4.5 0 0 0 .6 4.475l.744.098ZM2.41 2.411l.53.53a3 3 0 0 1 1.73-.853l-.098-.743L4.475.6a4.5 4.5 0 0 0-2.594 1.28l.53.53Zm2.162-1.066.098.743a3 3 0 0 1 1.892.377l.375-.65.375-.65A4.5 4.5 0 0 0 4.475.601l.098.744Zm2.365.47-.375.65A3 3 0 0 1 7.66 3.563l.65-.375.649-.375a4.5 4.5 0 0 0-1.647-1.648l-.375.65ZM8.31 3.188l-.65.375a3 3 0 0 1 .403 1.5h1.5a4.5 4.5 0 0 0-.603-2.25l-.65.375Zm14.377 15.75h-.75a3 3 0 0 1-.62 1.826l.596.456.595.457a4.5 4.5 0 0 0 .93-2.74h-.75Zm-.774 2.282-.595-.456a3 3 0 0 1-1.604 1.071l.194.725.194.724a4.5 4.5 0 0 0 2.406-1.607l-.595-.457Zm-2.005 1.34-.194-.725a3 3 0 0 1-1.924-.126l-.287.693-.288.693a4.5 4.5 0 0 0 2.887.19l-.194-.725Zm-2.405-.158.287-.693a3 3 0 0 1-1.45-1.271l-.65.375-.65.375a4.5 4.5 0 0 0 2.175 1.907l.288-.693Zm-1.813-1.59.65-.374a3 3 0 0 1-.377-1.892l-.743-.098-.744-.098a4.5 4.5 0 0 0 .564 2.838l.65-.375Zm-.47-2.364.743.098a3 3 0 0 1 .853-1.73l-.53-.53-.53-.53a4.5 4.5 0 0 0-1.28 2.594l.744.098Zm1.066-2.162.53.53a3 3 0 0 1 1.73-.853l-.098-.743-.098-.744a4.5 4.5 0 0 0-2.595 1.28l.53.53Zm2.162-1.066.098.743a3 3 0 0 1 1.892.377l.375-.65.375-.65a4.5 4.5 0 0 0-2.838-.564l.098.744Zm2.364.47-.375.65a3 3 0 0 1 1.099 1.098l.65-.375.649-.375a4.5 4.5 0 0 0-1.648-1.647l-.375.649Zm1.373 1.373-.65.375a3 3 0 0 1 .402 1.5h1.5a4.5 4.5 0 0 0-.602-2.25l-.65.375ZM1.313 22.688l.53.53L22.895 2.175l-.53-.53-.53-.53L.782 22.156l.53.53Zm13.74-21.375v.75h7.634v-1.5h-7.634v.75Zm7.634 0h-.75v7.634h1.5V1.313h-.75Z"/></svg>