<svg xmlns="http://www.w3.org/2000/svg" fill="none" viewBox="0 0 24 24"><path fill="currentColor" d="m4.872 22.535-.335.67 1.342.672.335-.671-.67-.335-.672-.336ZM8.61 12.65v-.75h-.146l-.135.055.28.695Zm-5.066 2.044-.53.53.35.352.461-.186-.28-.696ZM1.5 12.65l-.574-.483-.443.527.487.486.53-.53Zm7.11-8.453.574.483.176-.21v-.273h-.75Zm0-3.067L8.608.38 7.86.381v.748h.75Zm6.586 3.353.317-.68-.317.68Zm5.191 4.329-.634.4.634-.4Zm-.127 13.736-.323.677 1.353.646.324-.676-.677-.323-.677-.324ZM11.74 3.366l-.671.334.17.343.379.063.122-.74ZM7.862 8.815A.75.75 0 1 0 8.88 7.713l-.509.551-.509.551Zm.994-1.124A.75.75 0 1 0 7.84 8.793l.509-.55.508-.552Zm-3.313 15.18.671.335c.934-1.868 2.558-3.03 4.153-4.359 1.535-1.279 3.081-2.756 3.081-5.176h-1.5c0 1.67-1.01 2.747-2.54 4.024-1.471 1.225-3.425 2.62-4.536 4.84l.671.335Zm7.155-9.2h.75v-5.11h-1.5v5.11h.75Zm0-5.11h-.75c0 .885-.352 1.734-.978 2.36l.53.53.531.53a4.839 4.839 0 0 0 1.417-3.42h-.75Zm-1.197 2.89-.53-.53a3.338 3.338 0 0 1-2.361.978v1.5c1.283 0 2.514-.51 3.421-1.417l-.53-.53ZM8.61 12.65l-.281-.695-5.065 2.044.28.695.281.696 5.065-2.044-.28-.696Zm-5.066 2.044.53-.53L2.03 12.12l-.53.53-.53.53 2.044 2.045.53-.53ZM1.5 12.65l.574.483 7.11-8.453-.574-.483-.574-.483-7.11 8.453.574.483Zm7.11-8.453h.75V1.129h-1.5v3.067h.75Zm6.586.286-.317.68c2.106.983 3.682 2.162 4.874 4.05l.634-.401.634-.4c-1.388-2.198-3.224-3.542-5.508-4.608l-.317.68Zm5.191 4.329-.634.4a12.786 12.786 0 0 1 1.997 6.89h1.5c0-2.545-.659-5.206-2.229-7.69l-.634.4ZM22.5 16.1h-.75c0 2.297-.494 4.362-1.49 6.446l.677.323.677.324c1.086-2.275 1.636-4.56 1.636-7.093h-.75ZM8.61 1.129v.75c.927-.001 1.867.635 2.459 1.821l.67-.334.672-.335C11.649 1.502 10.269.377 8.608.379l.002.75Zm3.13 2.237-.122.74c.88.144 2.211.566 3.26 1.056l.318-.68.317-.68c-1.152-.537-2.614-1.006-3.651-1.177l-.122.74ZM8.37 8.264l.51-.55-.025-.023-.508.551-.51.551.024.022.51-.551Z"/></svg>