<svg xmlns="http://www.w3.org/2000/svg" fill="none" viewBox="0 0 24 24"><path fill="currentColor" d="m3.075 8.775-.744.097.097.743.744-.096-.097-.744Zm-.006-5.872-.097-.743-1.487.193.096.744L2.325 3l.744-.097ZM8.947 8.77l.743-.097-.193-1.487-.744.096.097.744.097.744ZM6.003 20.448l-.461.592A10.467 10.467 0 0 0 12 23.25v-1.5a8.968 8.968 0 0 1-5.536-1.894l-.461.592ZM12 22.5v.75a10.48 10.48 0 0 0 10.5-10.5H21c0 4.986-4.014 9-9 9v.75Zm9.75-9.75h.75A10.48 10.48 0 0 0 12 2.25v1.5c4.986 0 9 4.014 9 9h.75ZM12 3v-.75c-4.202 0-7.992 2.58-9.61 6.22l.685.305.685.305C5.142 5.97 8.402 3.75 12 3.75V3ZM6.75 18H6a2.25 2.25 0 0 1-2.25 2.25v1.5A3.75 3.75 0 0 0 7.5 18h-.75Zm-3 3v-.75A2.25 2.25 0 0 1 1.5 18H0a3.75 3.75 0 0 0 3.75 3.75V21Zm-3-3h.75a2.25 2.25 0 0 1 2.25-2.25v-1.5A3.75 3.75 0 0 0 0 18h.75Zm3-3v.75A2.25 2.25 0 0 1 6 18h1.5a3.75 3.75 0 0 0-3.75-3.75V15ZM2.325 3l-.744.097.75 5.775.744-.097.744-.097-.75-5.775L2.325 3Zm.75 5.775.097.744 5.775-.75-.097-.744-.097-.744-5.775.75.097.744Z"/></svg>