<svg xmlns="http://www.w3.org/2000/svg" fill="none" viewBox="0 0 24 24"><path stroke="currentColor" stroke-linecap="square" stroke-miterlimit="10" vector-effect="non-scaling-stroke" stroke-width="1.5" d="M15.78 2.244c-1.093-1.133-2.92-.948-3.78.392-.86-1.341-2.687-1.524-3.78-.392a2.604 2.604 0 0 0 0 3.593L12 9.75l3.78-3.913c.96-.993.96-2.6 0-3.593Zm2.97 13.506a2.25 2.25 0 1 0 0-4.5 2.25 2.25 0 0 0 0 4.5Zm-13.5 0a2.25 2.25 0 1 0 0-4.5 2.25 2.25 0 0 0 0 4.5Zm4.5 6.75v-2.237a1.5 1.5 0 0 0-.737-1.294C8.283 18.538 7.019 18 5.25 18c-1.791 0-3.048.535-3.77.966a1.5 1.5 0 0 0-.73 1.29V22.5h9Zm13.5 0v-2.237a1.5 1.5 0 0 0-.737-1.294c-.73-.431-1.995-.969-3.763-.969-1.791 0-3.048.535-3.77.966a1.5 1.5 0 0 0-.73 1.29V22.5h9Z"/></svg>