<svg xmlns="http://www.w3.org/2000/svg" fill="none" viewBox="0 0 24 24"><path fill="currentColor" d="M23.25.75H24V0h-.75v.75ZM16.5 0h-.75v1.5h.75V0Zm6 7.5v.75H24V7.5h-1.5Zm-6.375.375.53.53L23.78 1.28l-.53-.53-.53-.53-7.125 7.125.53.53Zm2.625 6.375H18a8.25 8.25 0 0 1-8.25 8.25V24a9.75 9.75 0 0 0 9.75-9.75h-.75Zm-9 9v-.75a8.25 8.25 0 0 1-8.25-8.25H0A9.75 9.75 0 0 0 9.75 24v-.75Zm-9-9h.75A8.25 8.25 0 0 1 9.75 6V4.5A9.75 9.75 0 0 0 0 14.25h.75Zm9-9V6A8.25 8.25 0 0 1 18 14.25h1.5A9.75 9.75 0 0 0 9.75 4.5v.75ZM16.5.75v.75h6.75V0H16.5v.75Zm6.75 0h-.75V7.5H24V.75h-.75Z"/></svg>