<svg xmlns="http://www.w3.org/2000/svg" fill="none" viewBox="0 0 24 24"><path stroke="currentColor" stroke-linecap="square" stroke-miterlimit="10" vector-effect="non-scaling-stroke" stroke-width="1.5" d="m19.941 17.638-3.883-.776a2.25 2.25 0 0 1-1.808-2.206v-1.06c1.772-1.061 3-3.253 3-5.346V5.305a2.63 2.63 0 0 0-2.626-2.625h-.327l-.689-1.377a.72.72 0 0 0-.9-.35l-4.13 1.652C7.569 3.01 6.75 4.22 6.75 5.307V8.25c0 2.093 1.228 4.285 3 5.345v1.06a2.25 2.25 0 0 1-1.809 2.207l-3.883.776a2.249 2.249 0 0 0-1.808 2.206v3.406h19.5v-3.406a2.249 2.249 0 0 0-1.809-2.206Z" clip-rule="evenodd"/></svg>