<svg xmlns="http://www.w3.org/2000/svg" fill="none" viewBox="0 0 24 24"><path fill="currentColor" d="m6.494 5.434-.53-.53-1.06 1.06.53.53.53-.53.53-.53ZM9.4 10.459l.53.53 1.06-1.06-.53-.53-.53.53-.53.53Zm7.75-3.574-.158.733 1.466.316.158-.733-.733-.158-.733-.158ZM9.464 2.464l.53.53h.001l-.531-.53Zm-7 7 .53.531-.53-.531Zm4.742 9.15.733-.159-.318-1.466-.733.159.159.733.159.733Zm5.551 2.629.53.53 8.486-8.486-.53-.53-.53-.53-8.486 8.486.53.53ZM5.964 5.964l-.53.53 3.965 3.965.53-.53.53-.53-3.965-3.965-.53.53Zm11.918 1.079.733.158a5.744 5.744 0 0 0-.394-3.606l-.682.313-.681.313a4.24 4.24 0 0 1 .29 2.664l.734.158Zm-.343-3.135.682-.313a5.744 5.744 0 0 0-2.476-2.65l-.358.658-.359.66a4.244 4.244 0 0 1 1.83 1.958l.681-.313Zm-2.153-2.305.359-.658a5.744 5.744 0 0 0-3.57-.639l.107.742.108.743a4.244 4.244 0 0 1 2.638.471l.358-.659Zm-3.104-.555-.108-.742a5.744 5.744 0 0 0-3.241 1.628l.531.53.531.53A4.244 4.244 0 0 1 12.39 1.79l-.108-.743ZM9.464 2.464l-.53-.53-7 7 .53.53.53.53 7-7-.53-.53Zm-7 7-.53-.531a5.744 5.744 0 0 0-1.628 3.242l.742.108.743.108a4.244 4.244 0 0 1 1.203-2.396l-.53-.531Zm-1.416 2.82-.742-.109a5.744 5.744 0 0 0 .64 3.572l.659-.359.658-.358a4.244 4.244 0 0 1-.472-2.64l-.743-.107Zm.557 3.104-.66.359A5.744 5.744 0 0 0 3.6 18.222l.312-.682.312-.681a4.244 4.244 0 0 1-1.96-1.83l-.658.36ZM3.91 17.54l-.312.682a5.744 5.744 0 0 0 3.607.392l-.159-.733-.159-.733a4.244 4.244 0 0 1-2.665-.29l-.312.682ZM23 17h-.75c0 2.9-2.35 5.25-5.25 5.25v1.5A6.75 6.75 0 0 0 23.75 17H23Zm-6 6v-.75A5.25 5.25 0 0 1 11.75 17h-1.5A6.75 6.75 0 0 0 17 23.75V23Zm-6-6h.75c0-2.9 2.35-5.25 5.25-5.25v-1.5A6.75 6.75 0 0 0 10.25 17H11Zm6-6v.75c2.9 0 5.25 2.35 5.25 5.25h1.5A6.75 6.75 0 0 0 17 10.25V11Z"/></svg>