<svg xmlns="http://www.w3.org/2000/svg" fill="none" viewBox="0 0 24 24"><path stroke="currentColor" stroke-miterlimit="10" vector-effect="non-scaling-stroke" stroke-width="1.5" d="M12.789 13.584a13.305 13.305 0 0 1 2.854-.307c2.355 0 4.228.61 5.463 1.178a2.86 2.86 0 0 1 1.672 2.599v5.5h-7.135M11.362 5.427a4.281 4.281 0 1 1 8.562 0c0 2.365-1.916 4.995-4.281 4.995-2.365 0-4.281-2.63-4.281-4.995Zm-7.85 6.422a3.568 3.568 0 0 1 7.136 0c0 1.97-1.598 4.281-3.568 4.281s-3.567-2.31-3.567-4.281Zm9.277 9.223a2.143 2.143 0 0 0-1.4-2.01 12.48 12.48 0 0 0-4.309-.791 12.48 12.48 0 0 0-4.309.792 2.143 2.143 0 0 0-1.399 2.01v1.48H12.79v-1.48Z"/></svg>