<svg xmlns="http://www.w3.org/2000/svg" fill="none" viewBox="0 0 24 24"><path stroke="currentColor" stroke-miterlimit="10" vector-effect="non-scaling-stroke" stroke-width="1.5" d="M8.035 10.29A2.254 2.254 0 0 0 6 9H3a2.25 2.25 0 0 0-2.25 2.25V15h1.5v5.25h4.5m9.215-9.96A2.254 2.254 0 0 1 18 9h3a2.25 2.25 0 0 1 2.25 2.25V15h-1.5v5.25h-4.5M6.75 4.5a2.25 2.25 0 1 1-4.5 0 2.25 2.25 0 0 1 4.5 0Zm15 0a2.25 2.25 0 1 1-4.5 0 2.25 2.25 0 0 1 4.5 0Zm-7.5 18.75h-4.5v-6H7.5V12a3 3 0 0 1 3-3h3a3 3 0 0 1 3 3v5.25h-2.25v6ZM15 3.75a3 3 0 1 1-6 0 3 3 0 0 1 6 0Z"/></svg>