<svg xmlns="http://www.w3.org/2000/svg" fill="none" viewBox="0 0 24 24"><path fill="currentColor" d="M11.25 4.476h-.75v1.5h.75v-1.5Zm7.5 1.5h.75v-1.5h-.75v1.5Zm-7.5 3h-.75v1.5h.75v-1.5Zm7.5 1.5h.75v-1.5h-.75v1.5Zm-7.5 3h-.75v1.5h.75v-1.5Zm7.5 1.5h.75v-1.5h-.75v1.5Zm-18 8.25H0v.75h.75v-.75Zm13.5 0v.75H15v-.75h-.75Zm9-22.476H24V0h-.75v.75Zm-16.5 0V0H6v.75h.75Zm4.5 4.476v.75h7.5v-1.5h-7.5v.75Zm0 4.5v.75h7.5v-1.5h-7.5v.75Zm0 4.5v.75h7.5v-1.5h-7.5v.75Zm3 6.75H15a1.5 1.5 0 0 1 1.5-1.5v-1.5a3 3 0 0 0-3 3h.75Zm2.25-2.25v-.75H3v1.5h13.5v-.75Zm-13.5 0v-.75a3 3 0 0 0-3 3h1.5a1.5 1.5 0 0 1 1.5-1.5v-.75Zm-2.25 2.25H0v2.25h1.5v-2.25H.75Zm0 2.25v.75h13.5v-1.5H.75v.75Zm13.5 0H15v-2.25h-1.5v2.25h.75Zm2.25-4.5v.75a1.5 1.5 0 0 1 1.5 1.5h1.5a3 3 0 0 0-3-3v.75Zm2.25 2.25H18a3 3 0 0 0 3 3v-1.5a1.5 1.5 0 0 1-1.5-1.5h-.75Zm2.25 2.25v.75a3 3 0 0 0 3-3h-1.5a1.5 1.5 0 0 1-1.5 1.5v.75Zm2.25-2.25H24V.75h-1.5v20.226h.75Zm0-20.226V0H6.75v1.5h16.5V.75Zm-16.5 0H6v17.976h1.5V.75h-.75Z"/></svg>