<svg xmlns="http://www.w3.org/2000/svg" fill="none" viewBox="0 0 24 24"><path stroke="currentColor" stroke-linecap="square" stroke-miterlimit="10" vector-effect="non-scaling-stroke" stroke-width="1.5" d="M3.367 18.189H.75v-15h11.597m8.25 0h2.653v15H8.617M8.25 22.5h7.5m.346-12.561h.75M5.93 18.189h.034M12 21v1.5m7.846-10.311h-6.75a.75.75 0 0 1-.75-.75V1.5a.75.75 0 0 1 .75-.75h6.75a.75.75 0 0 1 .75.75v9.939a.75.75 0 0 1-.75.75Zm-11.979 8.25h-3.75a.75.75 0 0 1-.75-.75v-7.5a.75.75 0 0 1 .75-.75h3.75a.75.75 0 0 1 .75.75v7.5a.75.75 0 0 1-.75.75Z"/></svg>