<svg xmlns="http://www.w3.org/2000/svg" fill="none" viewBox="0 0 24 24"><path fill="currentColor" d="m7.969 9.627-.558-.501a.75.75 0 0 0-.192.5h.75Zm8.077 0h.75a.75.75 0 0 0-.221-.532l-.529.532Zm-2.526-2.51.529-.532-.22-.218h-.309v.75Zm-3.295 0v-.75h-.334l-.223.248.557.502ZM7.97 16.795h-.75v.75h.75v-.75Zm8.077 0v.75h.75v-.75h-.75ZM.228 12.374l.001.75 1.5-.002v-.75l-.75.001-.75.001ZM21.491 8.07l.31.682 1.366-.622-.311-.682-.683.31-.682.312Zm2.28 3.728v-.75l-1.5.001v.75h.75l.75-.001ZM2.837 16.03l-.311-.683-1.365.622.311.683.683-.311.682-.311ZM23.765 4.918l.097-.743-1.488-.193-.096.743.744.097.743.096Zm-1.17 3.194-.097.744.744.097.096-.744-.744-.097ZM19.4 6.941l-.744-.097-.193 1.488.743.096.097-.743.097-.744ZM.235 18.704l-.097.744 1.487.193.097-.744-.744-.096-.743-.097Zm1.164-3.142.097-.744-.744-.096-.096.743.743.097Zm3.143 1.164.744.097.193-1.488-.744-.096-.097.743-.096.744Zm3.427-7.1v.75h8.077v-1.5H7.969v.75Zm8.077 0 .529-.531-2.526-2.51-.529.532-.529.531 2.526 2.51.529-.531Zm-5.82-2.51-.558-.5-2.257 2.51.558.5.558.502 2.256-2.51-.558-.501Zm-2.257 2.51h-.75v7.17h1.5v-7.17h-.75Zm0 7.17v.75h8.077v-1.5H7.969v.75Zm8.077 0h.75v-7.17h-1.5v7.17h.75Zm-4.036-7.17h-.75v2.747h1.5V9.627h-.75ZM.978 12.374h.75a10.347 10.347 0 0 1 2.287-6.5l-.585-.47-.584-.47a11.847 11.847 0 0 0-2.618 7.441h.75Zm2.452-6.97.585.47a10.347 10.347 0 0 1 5.86-3.622l-.16-.733-.16-.733a11.847 11.847 0 0 0-6.709 4.148l.584.47Zm6.285-3.885.16.733c2.309-.503 4.721-.2 6.835.859l.335-.67.336-.671A11.847 11.847 0 0 0 9.555.785l.16.733Zm7.33.921-.335.67a10.347 10.347 0 0 1 4.78 4.96l.683-.31.683-.311a11.847 11.847 0 0 0-5.475-5.68l-.335.671Zm5.976 9.36h-.75a10.175 10.175 0 0 1-2.248 6.39l.584.471.585.47a11.676 11.676 0 0 0 2.58-7.332h-.75Zm-2.414 6.861-.584-.47a10.175 10.175 0 0 1-5.762 3.562l.16.733.159.733a11.676 11.676 0 0 0 6.612-4.088l-.585-.47Zm-6.187 3.825-.16-.733a10.176 10.176 0 0 1-6.721-.844l-.336.67-.336.671a11.675 11.675 0 0 0 7.713.969l-.16-.733Zm-7.217-.907.336-.67a10.176 10.176 0 0 1-4.702-4.877l-.682.31-.683.312a11.675 11.675 0 0 0 5.395 5.596l.336-.67ZM23.022 4.822l-.744-.097-.427 3.29.744.097.743.097.427-3.29-.743-.097Zm-.427 3.29.096-.743-3.29-.428-.097.744-.097.743 3.29.428.098-.744ZM.977 18.801l.744.096.421-3.238-.744-.097-.743-.097-.421 3.239.743.097Zm.421-3.24-.096.745 3.239.42.096-.744.097-.743-3.239-.42-.097.743ZM13.52 7.118v-.75h-1.647v1.5h1.647v-.75Zm-1.647 0v-.75h-1.648v1.5h1.648v-.75Z"/></svg>