<svg xmlns="http://www.w3.org/2000/svg" fill="none" viewBox="0 0 24 24"><path fill="currentColor" d="m3.25 20.25-.741-.114-.156 1.01 1.011-.155-.114-.741Zm2-13-.322-.677-.359.17-.06.393.741.114Zm11 11 .114.741.393-.06.17-.359-.677-.322Zm-15 4.25H.5V24h.75v-1.5Zm22 1.5H24v-1.5h-.75V24ZM11.78 1.72l-.53-.53-1.06 1.06.53.53.53-.53.53-.53Zm8.94 11.06.53.53 1.06-1.06-.53-.53-.53.53-.53.53ZM3.25 20.25l.533.528 6.558-6.613-.532-.528-.532-.528-6.56 6.613.533.528Zm9.455-16.545-.322-.677-7.455 3.545.322.677.322.677 7.455-3.545-.322-.677ZM5.25 7.25l-.741-.114-2 13 .741.114.741.114 2-13-.741-.114Zm-2 13 .114.741 13-2-.114-.741-.114-.741-13 2 .114.741Zm13-2 .677.322 3.545-7.455-.677-.322-.677-.322-3.545 7.455.677.322Zm-3.586-7.414-.53.53a1.25 1.25 0 0 1 0 1.768l.53.53.53.53a2.75 2.75 0 0 0 0-3.889l-.53.53Zm0 2.828-.53-.53a1.25 1.25 0 0 1-1.768 0l-.53.53-.53.53a2.75 2.75 0 0 0 3.888 0l-.53-.53Zm-2.828 0 .53-.53a1.25 1.25 0 0 1 0-1.768l-.53-.53-.53-.53a2.75 2.75 0 0 0 0 3.889l.53-.53Zm0-2.828.53.53a1.25 1.25 0 0 1 1.768 0l.53-.53.53-.53a2.75 2.75 0 0 0-3.889 0l.53.53ZM1.25 23.25V24h22v-1.5h-22v.75Zm10-21-.53.53 10 10 .53-.53.53-.53-10-10-.53.53Z"/></svg>