<svg xmlns="http://www.w3.org/2000/svg" fill="none" viewBox="0 0 24 24"><path stroke="currentColor" stroke-linecap="square" stroke-miterlimit="10" vector-effect="non-scaling-stroke" stroke-width="1.5" d="M4.207 7.374C2.738 6.884 1.95 6.6 1.95 6.6s-2.325 8.625-.45 11.85a5.84 5.84 0 0 0 5.211 3.044m13.092-14.12c1.469-.49 2.247-.774 2.247-.774s2.325 8.625.45 11.85a5.84 5.84 0 0 1-4.969 3.042m0 0a5.986 5.986 0 0 1-.28 0h.28Zm-10.82.002h.082-.082Zm-1.46-8.185C5.25 9.11 12 2.134 12 2.134s6.75 6.975 6.75 11.175A6.684 6.684 0 0 1 12 20.134a6.683 6.683 0 0 1-6.75-6.825Z"/></svg>