<svg xmlns="http://www.w3.org/2000/svg" fill="none" viewBox="0 0 24 24"><path fill="currentColor" d="m9 14.25-.623.417L8.6 15H9v-.75Zm6 3V18h.75v-.75H15Zm7.5 0 .282.695.568-.23-.113-.603-.737.138Zm-10.74 4.362.279.696.003-.001-.282-.695Zm-2.638-.11-.34.67.005.001.335-.67ZM.75 10.5v-.75H0v.75h.75Zm3 9.75V21h.75v-.75h-.75Zm-3 0H0V21h.75v-.75Zm3-9.75h.75v-.75h-.75v.75Zm7.093-4.15.75-.003-.75.003Zm1.837 4.15-.431.614.438.308.433-.315-.44-.607Zm0-8.577.479-.577-.483-.4-.48.403.484.574Zm6.128 3.309.745-.079-.056-.532-.521-.12-.168.73Zm-5.245 4.776-.746-.077-.155 1.492.746.077.077-.746.078-.746Zm1.22-3.423-.533-.528.533.528Zm-.187.197-.557-.502 1.092 1.028-.535-.526ZM3.75 12v.75h.75v-1.5h-.75V12Zm.75 0v.75c1.485 0 3.154.838 3.877 1.917L9 14.25l.623-.417C8.585 12.283 6.417 11.25 4.5 11.25V12ZM9 14.25V15h3v-1.5H9v.75Zm3 0V15c.51 0 1.079.26 1.534.716.456.455.716 1.024.716 1.534h1.5c0-.995-.487-1.927-1.155-2.595-.668-.668-1.6-1.155-2.595-1.155v.75Zm3 3v-.75H8.25V18H15v-.75Zm-.48-1.5v.75h4.98V15h-4.98v.75Zm4.98 0v.75c1.216 0 1.77.332 2.014.553a.995.995 0 0 1 .226.292.513.513 0 0 1 .028.067v.002l-.002-.01-.001-.007-.001-.004v-.004l.736-.139c.737-.138.737-.139.737-.14v-.004l-.002-.006-.003-.013a.997.997 0 0 0-.034-.128 1.998 1.998 0 0 0-.11-.273 2.49 2.49 0 0 0-.562-.74C21.948 15.418 21.003 15 19.5 15v.75Zm3 1.5-.282-.695-10.74 4.362.282.695.282.695 10.74-4.362-.282-.695Zm-10.74 4.362-.279-.696c-.324.13-.672.189-1.02.174l-.032.75-.03.75a3.968 3.968 0 0 0 1.64-.282l-.279-.696Zm-1.33.228.03-.75a2.472 2.472 0 0 1-1.002-.258l-.336.67-.335.671a3.97 3.97 0 0 0 1.611.416l.031-.75Zm-1.308-.337.34-.67-5.372-2.728-.34.669-.34.669 5.373 2.728.34-.668ZM3.75 20.25v-.75h-3V21h3v-.75Zm-3 0h.75V10.5H0v9.75h.75Zm0-9.75v.75h3v-1.5h-3v.75Zm3 0H3v9.75h1.5V10.5h-.75Zm7.093-4.15-.75.004c.007 1.602.523 2.782 1.051 3.566.263.39.527.68.73.875a4.132 4.132 0 0 0 .36.308l.008.006.004.003h.001l.001.001.432-.613c.43-.614.431-.613.431-.613h.002l.002.002-.004-.003a2.592 2.592 0 0 1-.196-.171 3.945 3.945 0 0 1-.527-.633c-.386-.574-.79-1.47-.795-2.735l-.75.003Zm1.837-4.427-.484-.573-.002.001a.268.268 0 0 0-.011.01 1.752 1.752 0 0 0-.1.092c-.063.06-.148.145-.248.254a6.58 6.58 0 0 0-.717.96 6.917 6.917 0 0 0-1.025 3.687l.75-.004.75-.003a5.418 5.418 0 0 1 .802-2.893 5.05 5.05 0 0 1 .552-.739 3.432 3.432 0 0 1 .212-.215l.007-.006-.001.001h-.001v.001l-.484-.573Zm0 0a88.977 88.977 0 0 1-.48.576h-.001l-.001-.001.008.006c.008.008.023.02.043.04.04.038.102.098.178.18.153.166.36.417.568.747.414.66.82 1.625.796 2.865l.75.014.75.014a6.658 6.658 0 0 0-1.025-3.69 6.613 6.613 0 0 0-.737-.967 5.043 5.043 0 0 0-.357-.35c-.003-.002-.005-.005-.008-.006a.245.245 0 0 0-.003-.003l-.001-.001s-.001-.001-.48.576Zm1.86 4.427-.749-.014c-.024 1.253-.432 2.152-.823 2.735a4.2 4.2 0 0 1-.53.645 2.762 2.762 0 0 1-.198.176l-.005.004a.157.157 0 0 0 .003-.002l.442.606.44.607.002-.001.001-.001.004-.003.008-.006a1.504 1.504 0 0 0 .104-.083 4.43 4.43 0 0 0 .25-.227 5.8 5.8 0 0 0 .724-.879c.526-.783 1.048-1.958 1.078-3.543l-.75-.014Zm4.268-1.118-.746.078v-.003.01l.004.057a4.732 4.732 0 0 1-.099 1.107c-.147.699-.49 1.55-1.27 2.244l.5.56.498.56c1.085-.966 1.547-2.142 1.74-3.055a6.247 6.247 0 0 0 .129-1.488 3.185 3.185 0 0 0-.009-.132v-.01l-.001-.004v-.002l-.746.078Zm-1.612 4.053-.499-.56c-.825.735-1.634 1.051-2.223 1.187a3.83 3.83 0 0 1-.7.097 2.317 2.317 0 0 1-.214-.001h-.004.006l-.077.746-.077.746h.007a.362.362 0 0 0 .038.004l.088.005a4.764 4.764 0 0 0 1.269-.135c.8-.184 1.846-.603 2.885-1.529l-.499-.56Zm1.612-4.053.167-.731h-.002l-.004-.002a.868.868 0 0 0-.04-.008 4.133 4.133 0 0 0-.412-.055 5.332 5.332 0 0 0-4.096 1.455l.513.546.514.547a3.833 3.833 0 0 1 2.945-1.053 2.648 2.648 0 0 1 .251.033h-.002l-.002-.001.168-.731Zm-3.874 1.205-.513-.547c-.057.054-.114.11-.171.167l.533.528.533.528c.043-.044.087-.087.132-.129l-.514-.547Zm-.151.148-.533-.528a6.614 6.614 0 0 0-.21.223l.556.502.557.503c.051-.057.106-.115.162-.172l-.532-.528Zm.151-.148-.535-.525-.338.345.535.525.535.526.339-.345-.536-.526Z"/></svg>