<svg xmlns="http://www.w3.org/2000/svg" fill="none" viewBox="0 0 24 24"><path fill="currentColor" d="M12 6v.75h1.5V6H12ZM2.25.75V0v.75Zm-1.5 1.5H0h.75Zm0 8.25H0h.75ZM3 12h.75v-.75H3V12Zm0 2h-.75v1.402l1.166-.778L3 14Zm3-2v-.75h-.227l-.19.126L6 12Zm2.25.75H9v-1.5h-.75v1.5ZM12.75 9v.75V9ZM21 20.25v-.75h-.75v.75H21Zm0 2-.416.624 1.166.778V22.25H21Zm-3-2 .416-.624-.189-.126H18v.75ZM6.764 7.537l-.476.58.476-.58Zm.031 0-.475-.58.475.58ZM16.61 12v-.75h-.556l-.161.533.717.217Zm1.272 0 .715-.225-.165-.525h-.55V12ZM12.75 6h.75V2.25H12V6h.75Zm0-3.75h.75a2.25 2.25 0 0 0-.659-1.591l-.53.53-.53.53c.14.141.219.332.219.531h.75Zm-.44-1.06.531-.531A2.25 2.25 0 0 0 11.25 0v1.5a.75.75 0 0 1 .53.22l.53-.53ZM11.25.75V0h-9v1.5h9V.75Zm-9 0V0A2.25 2.25 0 0 0 .659.659l.53.53.53.53A.75.75 0 0 1 2.25 1.5V.75Zm-1.06.44L.658.658A2.25 2.25 0 0 0 0 2.25h1.5a.75.75 0 0 1 .22-.53l-.53-.53ZM.75 2.25H0v8.25h1.5V2.25H.75Zm0 8.25H0c0 .597.237 1.169.659 1.591l.53-.53.53-.53A.75.75 0 0 1 1.5 10.5H.75Zm.44 1.06-.531.531a2.25 2.25 0 0 0 1.591.659v-1.5a.75.75 0 0 1-.53-.22l-.53.53Zm1.06.44v.75H3v-1.5h-.75V12ZM3 12h-.75v2h1.5v-2H3Zm0 2 .416.624 3-2L6 12l-.416-.624-3 2L3 14Zm3-2v.75h2.25v-1.5H6V12Zm5.25 6.75H12V10.5h-1.5v8.25h.75Zm0-8.25H12a.75.75 0 0 1 .22-.53l-.53-.53-.531-.531A2.25 2.25 0 0 0 10.5 10.5h.75Zm.44-1.06.53.53a.75.75 0 0 1 .53-.22v-1.5a2.25 2.25 0 0 0-1.591.659l.53.53ZM12.75 9v.75h9v-1.5h-9V9Zm9 0v.75a.75.75 0 0 1 .53.22l.53-.53.531-.531a2.25 2.25 0 0 0-1.591-.659V9Zm1.06.44-.53.53c.141.14.22.331.22.53H24a2.25 2.25 0 0 0-.659-1.591l-.53.53Zm.44 1.06h-.75v8.25H24V10.5h-.75Zm0 8.25h-.75a.75.75 0 0 1-.22.53l.53.53.531.531A2.25 2.25 0 0 0 24 18.75h-.75Zm-.44 1.06-.53-.53a.75.75 0 0 1-.53.22V21a2.25 2.25 0 0 0 1.591-.659l-.53-.53Zm-1.06.44v-.75H21V21h.75v-.75Zm-.75 0h-.75v2h1.5v-2H21Zm0 2 .416-.624-3-2-.416.624-.416.624 3 2L21 22.25Zm-3-2v-.75h-5.25V21H18v-.75Zm-5.25 0v-.75a.75.75 0 0 1-.53-.22l-.53.53-.531.531A2.25 2.25 0 0 0 12.75 21v-.75Zm-1.06-.44.53-.53a.75.75 0 0 1-.22-.53h-1.5c0 .597.237 1.169.659 1.591l.53-.53ZM3.23 4.165v.75H6.7v-1.5H3.23v.75Zm3.47 0v.75h3.562v-1.5H6.7v.75Zm0-1.545h-.75v1.545h1.5V2.619H6.7Zm0 1.545h-.75v.562h1.5v-.562H6.7Zm-1.912.314-.68.315c.165.359.456.974.82 1.595.355.602.822 1.288 1.36 1.73l.476-.58.475-.58c-.323-.266-.68-.756-1.017-1.33a17.219 17.219 0 0 1-.754-1.465l-.68.315Zm1.976 3.06-.476.58.02.015.472-.583.47-.584a1.855 1.855 0 0 1-.01-.009l-.476.58Zm.016.012-.471.583c.475.384 1.167.727 1.772.999.312.14.62.269.89.381.275.115.5.208.668.283l.307-.685.307-.684c-.192-.086-.444-.19-.706-.299a32.04 32.04 0 0 1-.852-.365c-.603-.27-1.135-.547-1.444-.797l-.471.584Zm1.99-3.073-.68-.315c-.161.348-.428.91-.754 1.465-.337.574-.694 1.064-1.017 1.33l.475.58.476.58c.538-.442 1.005-1.128 1.36-1.73.364-.62.655-1.236.821-1.595l-.68-.315Zm-1.976 3.06-.475-.58a2.214 2.214 0 0 1-.011.008l.47.584.472.583.02-.016-.476-.58Zm-.015.012-.471-.584c-.31.25-.842.527-1.445.797a30.69 30.69 0 0 1-.852.365c-.262.11-.514.213-.705.299l.306.684.307.685c.168-.075.393-.168.668-.283.27-.112.578-.241.89-.381.605-.272 1.297-.615 1.773-.998l-.47-.584Zm8.065 10.278.717.217 1.766-5.828L16.61 12l-.717-.217-1.766 5.827.718.218ZM16.61 12v.75h1.272v-1.5H16.61V12Zm1.272 0-.716.225 1.235 3.923.716-.225.715-.226-1.235-3.922-.715.225Zm1.235 3.923-.716.225.6 1.905.715-.225.716-.225-.6-1.906-.715.226Zm-3.62 0v.75h3.62v-1.5h-3.62v.75Zm3.62 0v.75h.022v-1.5h-.022v.75Z"/></svg>