<svg xmlns="http://www.w3.org/2000/svg" fill="none" viewBox="0 0 24 24"><path fill="currentColor" d="M18.75 20v-.75h-1.5V20h1.5Zm-6-19V.25h-1.5V1h1.5ZM22 12v.75h.828l-.082-.824L22 12ZM2 12l-.746-.074-.082.824H2V12Zm16 8h-.75A2.25 2.25 0 0 1 15 22.25v1.5A3.75 3.75 0 0 0 18.75 20H18Zm-3 3v-.75A2.25 2.25 0 0 1 12.75 20h-1.5A3.75 3.75 0 0 0 15 23.75V23ZM12 3h.75V1h-1.5v2H12Zm0 0-.334-.671C8.466 3.92 6.25 7.166 6.25 11h1.5c0-3.23 1.862-5.973 4.584-7.329L12 3Zm-5 8h-.75v1h1.5v-1H7Zm5-8-.334.671C14.388 5.027 16.25 7.77 16.25 11h1.5c0-3.834-2.216-7.079-5.416-8.671L12 3Zm5 8h-.75v1h1.5v-1H17Zm5 1 .746-.074C22.206 6.488 17.57 2.25 12 2.25v1.5c4.8 0 8.79 3.655 9.254 8.324L22 12ZM12 3v-.75c-5.57 0-10.206 4.239-10.746 9.676L2 12l.746.074C3.21 7.406 7.2 3.75 12 3.75V3ZM2 12v.75h20v-1.5H2V12Zm10 8h.75V3h-1.5v17H12Z"/></svg>