<svg xmlns="http://www.w3.org/2000/svg" fill="none" viewBox="0 0 24 24"><path stroke="currentColor" stroke-linecap="square" stroke-miterlimit="10" vector-effect="non-scaling-stroke" stroke-width="1.5" d="m20.691 18.389-3.883-.777A2.25 2.25 0 0 1 15 15.406v-.62c2.077-.36 4.23-1.139 5.25-2.036-2.11-2.155-2.218-4.306-2.25-6.812C17.957 3.065 15.623.75 12.75.75A5.25 5.25 0 0 0 7.5 6c0 2.218 0 4.546-2.25 6.75 1.023.899 3.166 1.68 5.25 2.039v.617a2.25 2.25 0 0 1-1.809 2.206l-3.883.777A2.249 2.249 0 0 0 3 20.593v2.656h19.5v-2.656a2.249 2.249 0 0 0-1.809-2.206Z"/></svg>