<svg xmlns="http://www.w3.org/2000/svg" fill="none" viewBox="0 0 24 24"><path stroke="currentColor" stroke-linecap="square" stroke-miterlimit="10" vector-effect="non-scaling-stroke" stroke-width="1.5" d="M11.91 19.31v2.71m5.42-13.54c0 4.35-3 6.77-5.42 6.77s-5.42-2.42-5.42-6.77m-1.35 0h13.54m-12.86 0V7.8c0-3.36 2.73-6.09 6.09-6.09m0 0C15.27 1.71 18 4.44 18 7.8v.68m-6.09-6.77v1.36m0-1.36v.68M8.87 14.45l-5.6 2.81a2.74 2.74 0 0 0-1.51 2.46v2.42h20.49v-2.42c0-1.04-.59-1.99-1.51-2.46l-5.6-2.81"/></svg>