<svg xmlns="http://www.w3.org/2000/svg" fill="none" viewBox="0 0 32 32"><path stroke="currentColor" vector-effect="non-scaling-stroke" stroke-width="1.5" d="M21.551 23.786h-7.81v-3.33c0-1.147.931-2.077 2.079-2.077h9.336m-9.635.416-4.806-7.209m5.495-3.634a3.284 3.284 0 1 0 0-6.567 3.284 3.284 0 0 0 0 6.567Zm5.942 23.043H10.137V19.58L7.38 25.555a2.078 2.078 0 0 1-2.705 1.039l-.322-.138a2.078 2.078 0 0 1-1.04-2.839l5.075-10.15a4.155 4.155 0 0 1 3.717-2.297h7.992a4.675 4.675 0 0 1 4.67 4.453l.246 5.162a2.864 2.864 0 0 1-2.861 3v7.21Z"/></svg>