<svg xmlns="http://www.w3.org/2000/svg" fill="none" viewBox="0 0 32 32"><path stroke="currentColor" stroke-miterlimit="10" vector-effect="non-scaling-stroke" stroke-width="1.5" d="M26 6.478h-3.672c-1.712 0-2.632 2.012-1.513 3.308a2 2 0 0 0 1.513.692h7.085M1.5 2.481H10c7.914 0 16.592 2.275 20.009 8.51.352.643.467 1.404.23 2.098C29.223 16.07 25.81 18.364 20 19c-6.5.712-18.5.712-18.5.712M29.5 27h-28m2-19h-2m6 0h-2m5 12.25a1.5 1.5 0 0 1-3 0m1 1.75-1 2m8-16.135c0-.834-.784-1.51-1.75-1.51S12 7.03 12 7.865v3.625c0 .834.784 1.51 1.75 1.51s1.75-.676 1.75-1.51V7.865ZM8.5 25.5a1.5 1.5 0 1 1-3 0 1.5 1.5 0 0 1 3 0Z"/></svg>