<svg xmlns="http://www.w3.org/2000/svg" fill="none" viewBox="0 0 32 32"><path stroke="currentColor" vector-effect="non-scaling-stroke" stroke-width="1.5" d="M23.912 1.263s.357 3.487.357 5.362m0 0a11.265 11.265 0 0 1-.88 3.89s-1.988-2.174-2.8-3.206C19.78 6.28 18.38 1 18.38 1m5.89 5.625a8.723 8.723 0 0 0 2.24-3.834m-8.74 5.371c1.412.489 2.876.822 4.364.994M15.27 2.791a29.195 29.195 0 0 0 4.75 3.44m6.788 9.563h-2.19s-.75 2.577-1.552 3.506c-.803.93-3.21 2.662-3.21 2.662L19.45 30.4h-2.04l-.383-7.116c-1.387-.878-7.538-1.061-9.163.31-.03.096-.085 2.362-.164 6.797l-1.95.009c-.47-4.087-.718-6.34-.744-6.76a22.383 22.383 0 0 0-.396-2.315l-.26-1.15-2.09 1.043-.442-.377c.445-.69.768-1.204.967-1.541.125-.22 1.443-2.574 2.09-3.174.764-.709 2.31-.898 3.335-.885.676 0 9.624.114 11.327 0 .348 0 2.114-2.635 2.51-3.178.85-1.144 2.962-1.156 4.034-.444.68.494 1.512 1.307 2.117 1.887a1.25 1.25 0 0 1 .135 1.79c-.396.45-.715.507-1.526.498Z"/></svg>