<svg xmlns="http://www.w3.org/2000/svg" fill="none" viewBox="0 0 32 32"><path fill="currentColor" d="m1.75 20.993-.007-.75-1.5.014.007.75L1 21l.75-.007Zm7.009 1.924.652-.37-.652-1.15-.653 1.15.653.37Zm7.241 0 .652-.37-.652-1.15-.652 1.15.652.37Zm7.241 0 .653-.37-.653-1.15-.652 1.15.652.37Zm8.509-1.91.007-.75-1.5-.014-.007.75L31 21l.75.007ZM9.32 11.86l-.375-.65-.781.45.586.687.57-.487ZM17.75 7l.243-.71-.322-.11-.296.17.375.65ZM6.525 18.02l-.65.375.75 1.3.65-.375-.375-.65-.375-.65ZM26.16 7.55l.736.143.313-1.615-1.424.822.375.65Zm-1.45 7.49.375.65.296-.171.066-.337-.737-.142Zm-6.665 2.98-.65.375.75 1.3.65-.375-.375-.65-.375-.65ZM1 21l-.75.007a4.72 4.72 0 0 0 1.05 2.92l.584-.47.584-.47a3.225 3.225 0 0 1-.718-1.994L1 21Zm.884 2.457-.584.47a4.898 4.898 0 0 0 2.642 1.678l.18-.729.18-.728a3.398 3.398 0 0 1-1.834-1.161l-.584.47Zm2.238 1.42-.18.728a4.985 4.985 0 0 0 3.132-.247l-.292-.69-.292-.691c-.689.29-1.46.352-2.188.171l-.18.728Zm2.66-.21.292.691a4.853 4.853 0 0 0 2.337-2.07l-.652-.37-.653-.37a3.353 3.353 0 0 1-1.616 1.429l.292.69Zm1.977-1.75-.653.37a4.835 4.835 0 0 0 1.798 1.803l.374-.65.374-.65c-.522-.3-.95-.73-1.241-1.243l-.652.37Zm1.519 1.523-.374.65c.751.433 1.606.66 2.475.66v-1.5a3.47 3.47 0 0 1-1.727-.46l-.374.65Zm2.101.56v.75c.87 0 1.725-.227 2.476-.66l-.374-.65-.374-.65c-.522.3-1.119.46-1.728.46V25Zm2.102-.56.374.65a4.835 4.835 0 0 0 1.797-1.803l-.652-.37-.652-.37a3.334 3.334 0 0 1-1.241 1.243l.374.65ZM16 22.917l-.652.37a4.836 4.836 0 0 0 1.797 1.803l.374-.65.374-.65c-.522-.3-.95-.73-1.24-1.243l-.653.37Zm1.52 1.523-.375.65c.752.433 1.606.66 2.476.66v-1.5c-.61 0-1.206-.16-1.728-.46l-.374.65Zm2.1.56v.75c.87 0 1.725-.227 2.476-.66l-.374-.65-.374-.65c-.522.3-1.118.46-1.727.46V25Zm2.102-.56.374.65a4.836 4.836 0 0 0 1.798-1.803l-.653-.37-.652-.37c-.29.513-.719.943-1.24 1.243l.373.65Zm1.52-1.523-.653.37a4.852 4.852 0 0 0 2.337 2.071l.292-.69.292-.691a3.353 3.353 0 0 1-1.616-1.43l-.653.37Zm1.976 1.75-.292.691c.988.418 2.09.504 3.132.247l-.18-.729-.18-.728c-.729.18-1.499.12-2.188-.171l-.292.69Zm2.66.21.18.728a4.898 4.898 0 0 0 2.642-1.678l-.584-.47-.584-.47a3.398 3.398 0 0 1-1.834 1.161l.18.728Zm2.238-1.42.584.47a4.725 4.725 0 0 0 1.05-2.92L31 21l-.75-.007a3.225 3.225 0 0 1-.718 1.994l.584.47ZM12.41 15.48l.57-.487-3.09-3.62-.57.487-.57.487 3.09 3.62.57-.487Zm-3.09-3.62.375.65 8.43-4.86L17.75 7l-.375-.65-8.43 4.86.375.65ZM17.75 7l-.243.71 5.63 1.93.243-.71.243-.71-5.63-1.93-.243.71ZM6.9 18.67l.375.65L26.535 8.2l-.375-.65-.375-.65-19.26 11.12.375.65ZM26.16 7.55l-.736-.143-1.45 7.49.736.143.736.143 1.45-7.49-.736-.143Zm-1.45 7.49-.375-.65-6.29 3.63.375.65.375.65 6.29-3.63-.375-.65Z"/></svg>