<svg xmlns="http://www.w3.org/2000/svg" fill="none" viewBox="0 0 32 32"><path fill="currentColor" d="m17.5 4.08-.085.745.835.095v-.84h-.75ZM8.064 3.004l.085-.745-.012-.002h-.012l-.061.747Zm-2.77 2.294-.747-.069v.01l-.001.01.748.049Zm0 .189.75-.017v-.016l-.002-.016-.748.049Zm2.578 2.466v-.75h-.005l.005.75Zm.2 0v.75h.038l.037-.004-.075-.746Zm9.648-.974.67-.339-.233-.459-.512.052.075.746Zm1.419 1.812.408-.63-.016-.01-.017-.01-.375.65Zm4.749 0-.376-.65-.016.01-.016.01.408.63Zm1.402-1.812.714.23.315-.98H25.29v.75Zm-3.222 0h-.75v.75h.75v-.75Zm0-2.9v-.75h-.75v.75h.75Zm3.214 0v.75h.93l-.197-.909-.733.159ZM23.88 2.166l-.393.639.007.004.007.004.379-.647Zm-2.375-.672v.75-.75Zm-2.375.672-.393-.639-.02.012-.018.013.431.614ZM17.5 4.078l-.637-.397-.113.182v.215h.75Zm-4 21.422v-.75h-.75v.75h.75Zm4 0h.75v-.75h-.75v.75Zm-2-15 .475-.58-.475-.389-.475.389.475.58ZM8.25 21v-.75h-1.5V21h1.5Zm-.75 9h-.75v.75h.75V30Zm16 0v.75h.75V30h-.75Zm.75-9v-.75h-1.5V21h1.5ZM13.5 18v-.75h-.75V18h.75Zm4 0h.75v-.75h-.75V18Zm0 4v.75h.75V22h-.75Zm-4 0h-.75v.75h.75V22Zm4-17.92.085-.745-9.436-1.076-.085.745-.085.745 9.436 1.076.085-.745ZM8.064 3.004l.06-.748C6.32 2.11 4.714 3.426 4.548 5.23l.747.069.747.069c.088-.965.955-1.697 1.962-1.615l.061-.748Zm-2.77 2.294-.748-.05a2.185 2.185 0 0 0 0 .288l.748-.049.748-.05a.684.684 0 0 1 0-.09l-.748-.049Zm0 .189-.75.017c.04 1.797 1.535 3.21 3.333 3.199l-.005-.75-.005-.75c-1 .006-1.802-.776-1.823-1.733l-.75.017Zm2.578 2.466v.75h.2v-1.5h-.2v.75Zm.2 0 .075.746 9.648-.974-.075-.746-.075-.746-9.648.974.075.746Zm9.648-.974-.67.339c.166.327.39.73.662 1.107.265.367.615.764 1.052 1.016l.375-.65.375-.65c-.17-.098-.372-.297-.586-.594a6.906 6.906 0 0 1-.539-.907l-.669.339Zm1.419 1.812-.408.63a5.112 5.112 0 0 0 2.782.823v-1.5c-.697 0-1.38-.202-1.966-.582l-.408.629Zm2.375.703v.75c.987 0 1.954-.286 2.782-.824l-.408-.629-.408-.63a3.612 3.612 0 0 1-1.966.583v.75Zm2.374-.703.376.65c.782-.453 1.446-1.319 1.74-2.232l-.714-.23-.714-.23c-.192.599-.636 1.145-1.064 1.393l.376.649Zm1.402-1.812v-.75h-3.222v1.5h3.222v-.75Zm-3.222 0h.75v-2.9h-1.5v2.9h.75Zm0-2.9v.75h3.214v-1.5h-3.214v.75Zm3.214 0 .733-.159c-.099-.457-.362-.944-.653-1.344-.292-.401-.68-.81-1.103-1.057l-.379.647-.38.647c.18.105.425.337.649.646.225.31.362.603.4.779l.733-.159ZM23.88 2.166l.393-.639a5.282 5.282 0 0 0-2.768-.783v1.5c.7 0 1.386.194 1.982.56l.393-.638Zm-2.375-.672v-.75c-.977 0-1.936.271-2.768.783l.393.639.393.639a3.782 3.782 0 0 1 1.982-.561v-.75Zm-2.375.672-.43-.614c-.369.258-.737.654-1.04 1.024-.313.382-.598.787-.797 1.105l.637.397.637.397c.165-.266.412-.618.682-.948.28-.34.544-.608.742-.747l-.431-.614ZM17.5 4.078h-.75v.002h1.5v-.002h-.75Zm-4 25.422h.75v-4h-1.5v4h.75Zm0-4v.75h4v-1.5h-4v.75Zm4 0h-.75v4h1.5v-4h-.75Zm-13-6 .475.58 11-9-.475-.58-.475-.58-11 9 .475.58Zm11-9-.475.58 11 9 .475-.58.475-.58-11-9-.475.58Zm-8 6.545h.75V12.5h-1.5v4.545h.75ZM7.5 21h-.75v9h1.5v-9H7.5Zm0 9v.75h16v-1.5h-16V30Zm16 0h.75v-9h-1.5v9h.75Zm-10-12v.75h4v-1.5h-4V18Zm4 0h-.75v4h1.5v-4h-.75Zm0 4v-.75h-4v1.5h4V22Zm-4 0h.75v-4h-1.5v4h.75Z"/></svg>