<svg xmlns="http://www.w3.org/2000/svg" fill="none" viewBox="0 0 32 32"><path fill="currentColor" d="m23.95 10.104-.125.74 1.479.251.125-.74-.739-.125-.74-.126ZM21.84 2.39l.398-.635-1.075-.675-.072 1.267.749.043Zm-2.643 4.64-.414-.625.414.625Zm-2.947 3.504v.75h1.5v-.75h-1.5ZM1 28H.25v.75H1V28Zm0-8-.61-.436-.14.196V20H1Zm5-7v-.75h-.386l-.224.314L6 13Zm14 0 .651-.372-.216-.378H20V13Zm11 7h.75v-.75H31V20Zm0 8v.75h.75V28H31Zm-6.31-17.77.74.125v-.008a1.063 1.063 0 0 1 .012-.072 10.848 10.848 0 0 0 .084-.899c.03-.584.027-1.392-.101-2.284-.256-1.77-1.032-3.986-3.187-5.337l-.398.635-.398.635c1.625 1.02 2.273 2.723 2.498 4.28a10.43 10.43 0 0 1 .017 2.755 2.475 2.475 0 0 1-.006.045l.739.125Zm-2.85-7.84-.749-.043c-.095 1.667-.931 3.145-2.308 4.058l.414.625.414.625c1.78-1.18 2.857-3.093 2.978-5.222l-.749-.043Zm-2.643 4.64-.415-.625c-.936.621-1.584 1.25-1.991 1.95-.414.713-.541 1.437-.541 2.179h1.5c0-.558.093-1.003.338-1.425.252-.435.702-.908 1.524-1.454l-.415-.625Zm7.423 1.315-.604.445c1.377 1.87 2.023 3.657 2.023 5.375h1.5c0-2.116-.8-4.208-2.315-6.265l-.604.445Zm2.169 5.82h-.75c0 1.061-.334 2.211-1.056 3.46l.649.375.65.375c.82-1.417 1.257-2.825 1.257-4.21h-.75ZM22 28v-.75H10v1.5h12V28ZM4 28v-.75H1v1.5h3V28Zm-3 0h.75v-8H.25v8H1Zm0-8 .61.436 5-7L6 13l-.61-.436-5 7L1 20Zm5-7v.75h14v-1.5H6V13Zm14 0-.651.372 4 7L24 20l.651-.372-4-7L20 13Zm4 7v.75h7v-1.5h-7V20Zm7 0h-.75v8h1.5v-8H31Zm0 8v-.75h-3v1.5h3V28Zm-21 0h-.75A2.25 2.25 0 0 1 7 30.25v1.5A3.75 3.75 0 0 0 10.75 28H10Zm-3 3v-.75A2.25 2.25 0 0 1 4.75 28h-1.5A3.75 3.75 0 0 0 7 31.75V31Zm-3-3h.75A2.25 2.25 0 0 1 7 25.75v-1.5A3.75 3.75 0 0 0 3.25 28H4Zm3-3v.75A2.25 2.25 0 0 1 9.25 28h1.5A3.75 3.75 0 0 0 7 24.25V25Zm21 3h-.75A2.25 2.25 0 0 1 25 30.25v1.5A3.75 3.75 0 0 0 28.75 28H28Zm-3 3v-.75A2.25 2.25 0 0 1 22.75 28h-1.5A3.75 3.75 0 0 0 25 31.75V31Zm-3-3h.75A2.25 2.25 0 0 1 25 25.75v-1.5A3.75 3.75 0 0 0 21.25 28H22Zm3-3v.75A2.25 2.25 0 0 1 27.25 28h1.5A3.75 3.75 0 0 0 25 24.25V25ZM1 20v.75h23v-1.5H1V20Zm12-7h-.75v7h1.5v-7H13Z"/></svg>