<svg xmlns="http://www.w3.org/2000/svg" fill="none" viewBox="0 0 32 32"><path stroke="currentColor" stroke-linecap="square" stroke-miterlimit="10" vector-effect="non-scaling-stroke" stroke-width="1.5" d="M26 25v3h-4v-3m9-15h-4.998c-.467 0-.92.155-1.28.441a1.89 1.89 0 0 0-.687 1.122L23 17h8m0 8H21v-4.61c0-.315.051-.627.151-.917.1-.291.247-.555.433-.778L22.996 17M7 25H1m6 0a3 3 0 1 0 6 0 3 3 0 0 0-6 0ZM1 9h3.956l4.312 8H17v8h-3.283M1 17h8m3.56-3.03L11 10.72l3.37 1.54L15.83 8l1.56 4.3 3.33-1.45-1.46 3.21M26 21.5a1.5 1.5 0 1 1-1.5-1.5 1.5 1.5 0 0 1 .75.195A1.5 1.5 0 0 1 26 21.5Z"/></svg>