<svg xmlns="http://www.w3.org/2000/svg" fill="none" viewBox="0 0 32 36"><path stroke="currentColor" vector-effect="non-scaling-stroke" stroke-width="1.5" d="M9.344 28.37 7.221 14.044c-.215-1.453.364-2.545 1.845-2.742 1.271-.169 2.085 1.006 2.69 2.288l1.694 3.506c.234.485.357 1.027.357 1.577v7.077c0 .614.447 1.111 1 1.111h8.207c.559 0 2.457.52 2.457 2.69 0 1.508-1.1 2.732-2.457 2.732h-10.19c-2.205 0-3.143-2.219-3.48-3.911Zm0 0a9.627 9.627 0 0 1-.014-.074M6.528 6.58l.642 6.842m15.154 21.735V32.41h-9.508v2.747M8.104 8.339c-.87-.015-1.564-.81-1.55-1.777l.045-3.305c.013-.967.729-1.739 1.599-1.724.87.015 1.564.81 1.55 1.777l-.044 3.305c-.014.967-.73 1.739-1.6 1.724Z"/></svg>