<svg xmlns="http://www.w3.org/2000/svg" fill="none" viewBox="0 0 32 32"><path fill="currentColor" d="m6.73 6.31.233-.713-.32-.105-.292.171.38.647Zm-3.41 2-.38-.647-1.178.691 1.216.623.342-.667Zm11.52 11.91.165.732.11-.025.097-.056-.372-.651ZM29.22 12l-.332-.673-.02.01-.02.012.372.651Zm-2.66-4.76.372.651.014-.008.013-.008-.399-.635Zm-17.49 10-.204.722.303.085.273-.156-.372-.651ZM5 16.09l.204-.722-.302-.085-.273.155.371.652ZM2 17.8l-.371-.652-.994.567.915.685.45-.6Zm5.46 4.09-.45.6.278.208.338-.076-.166-.732ZM1 27.25H.25v1.5H1v-1.5Zm30 1.5h.75v-1.5H31v1.5ZM20.39 10.78l.233-.713-13.66-4.47-.233.713-.233.713 13.66 4.47.233-.713ZM6.73 6.31l-.38-.647-3.41 2 .38.647.38.647 3.41-2-.38-.647Zm-3.41 2-.342.667 11.3 5.79.342-.667.342-.668-11.3-5.79-.342.668Zm11.52 11.91.372.651 14.38-8.22L29.22 12l-.372-.651-14.38 8.22.372.651ZM29.22 12l.332.673a3.48 3.48 0 0 0 1.106-.86l-.57-.488-.57-.487c-.175.204-.389.37-.63.49l.332.672Zm.868-.675.57.487a3.47 3.47 0 0 0 .677-1.227l-.716-.223-.716-.222a1.98 1.98 0 0 1-.385.698l.57.487Zm.531-.963.716.223c.14-.45.187-.925.138-1.395l-.746.078-.745.078c.027.267 0 .537-.08.794l.717.222Zm.108-1.094.746-.078a3.48 3.48 0 0 0-.423-1.336l-.655.366-.654.366c.13.234.213.493.24.76l.746-.078Zm-.332-1.048.655-.366a3.481 3.481 0 0 0-.916-1.06l-.457.594-.458.594c.213.164.39.37.522.604l.654-.366Zm-.718-.832.457-.595a3.481 3.481 0 0 0-1.26-.613l-.186.727-.186.726c.26.067.505.186.717.35l.458-.595Zm-.989-.481.186-.727a3.48 3.48 0 0 0-1.4-.066l.116.74.116.742a1.98 1.98 0 0 1 .796.037l.186-.726Zm-1.098-.052-.116-.741a3.48 3.48 0 0 0-1.313.49l.399.636.399.635a1.98 1.98 0 0 1 .747-.28l-.116-.74Zm-1.03.385-.372-.651-17.49 10 .372.651.372.651 17.49-10-.372-.651Zm-17.49 10 .204-.722-4.07-1.15L5 16.09l-.204.722 4.07 1.15.204-.722ZM5 16.09l-.371-.652-3 1.71L2 17.8l.371.652 3-1.71L5 16.09ZM2 17.8l-.45.6 5.46 4.09.45-.6.45-.6-5.46-4.09-.45.6Zm5.46 4.09.166.732 7.38-1.67-.166-.732-.165-.732-7.38 1.67.165.732ZM1 28v.75h30v-1.5H1V28Z"/></svg>