<svg xmlns="http://www.w3.org/2000/svg" fill="none" viewBox="0 0 32 32"><path fill="currentColor" d="m17.698 9.473.341.668 1.336-.682-.341-.668-.668.341-.668.341ZM16 4.5l.668-.341-.209-.409H16v.75Zm-5.913 0v-.75H8.876l.54 1.084.671-.334Zm3.985 8v.75h1.212l-.54-1.084-.672.334Zm-5.572 0-.643.386.218.364H8.5v-.75Zm-3-5 .643-.386-.218-.364H5.5v.75Zm-4 0v-.75H.54l.232.932L1.5 7.5Zm3 12-.728.182.142.568H4.5v-.75Zm4 .75h.75v-1.5H8.5v1.5Zm6.229 1.57.34-.67-1.339-.678-.339.669.669.339.669.34ZM10.5 28.5l-.669-.34-.552 1.09H10.5v-.75Zm6 0v.75h.459l.209-.409-.668-.341Zm4.6-9v-.75h-.459l-.209.409.668.341Zm2.75-7.75h-.75v1.5h.75v-1.5Zm-5.484-2.618.668-.341-2.366-4.632L16 4.5l-.668.341 2.366 4.632.668-.341ZM16 4.5v-.75h-5.913v1.5H16V4.5Zm-5.913 0-.671.334 3.985 8 .671-.334.671-.334-3.985-8-.671.334Zm3.985 8v-.75H8.5v1.5h5.572v-.75Zm-5.572 0 .643-.386-3-5L5.5 7.5l-.643.386 3 5L8.5 12.5Zm-3-5v-.75h-4v1.5h4V7.5Zm-4 0-.728.182 3 12L4.5 19.5l.728-.182-3-12L1.5 7.5Zm3 12v.75h4v-1.5h-4v.75Zm9.56 1.98-.669-.34-3.56 7.02.669.34.669.34 3.56-7.02-.669-.34ZM10.5 28.5v.75h6v-1.5h-6v.75Zm6 0 .668.341 4.6-9-.668-.341-.668-.341-4.6 9 .668.341Zm4.6-9v.75H27v-1.5h-5.9v.75Zm5.9 0v.75c2.314 0 4.25-1.936 4.25-4.25h-1.5c0 1.486-1.264 2.75-2.75 2.75v.75Zm3.5-3.5h.75c0-2.314-1.936-4.25-4.25-4.25v1.5c1.486 0 2.75 1.264 2.75 2.75h.75ZM27 12.5v-.75h-3.15v1.5H27v-.75ZM3.03 29.248l.547.514L29.123 2.618l-.546-.514-.546-.514L2.484 28.733l.546.515Z"/></svg>