<svg xmlns="http://www.w3.org/2000/svg" fill="none" viewBox="0 0 32 32"><path fill="currentColor" d="m16.5 4.5.67-.335-.207-.415H16.5v.75Zm-6 0v-.75H9.286l.543 1.085.671-.335Zm18.683 13.146-.455.596 1.192.91.455-.596-.596-.455-.596-.455ZM8.5 12.5l-.643.386.218.364H8.5v-.75Zm-3-5 .643-.386-.218-.364H5.5v.75Zm-4 0v-.75H.54l.232.932L1.5 7.5Zm3 12-.728.182.142.568H4.5v-.75Zm10.6 0 .668.341.558-1.091H15.1v.75Zm-4.6 9-.668-.341-.558 1.091H10.5v-.75Zm6 .75h.75v-1.5h-.75v1.5Zm5.4-8.944-.447-.602-1.204.894.447.602.602-.447.602-.447Zm1.1 2.737-.602.447.225.303H23v-.75Zm2.083.75h.75v-1.5h-.75v1.5ZM20.5 12.5l.67-.335-4-8-.67.335-.67.335 4 8 .67-.335Zm-4-8v-.75h-6v1.5h6V4.5Zm-6 0-.67.335 4 8 .67-.335.67-.335-4-8-.67.335Zm19.279 13.601.596.455A4.213 4.213 0 0 0 31.25 16h-1.5c0 .605-.21 1.177-.567 1.646l.596.455ZM30.5 16h.75c0-2.314-1.936-4.25-4.25-4.25v1.5c1.486 0 2.75 1.264 2.75 2.75h.75ZM27 12.5v-.75H8.5v1.5H27v-.75Zm-18.5 0 .643-.386-3-5L5.5 7.5l-.643.386 3 5L8.5 12.5Zm-3-5v-.75h-4v1.5h4V7.5Zm-4 0-.728.182 3 12L4.5 19.5l.728-.182-3-12L1.5 7.5Zm3 12v.75h10.6v-1.5H4.5v.75Zm10.6 0-.668-.341-4.6 9 .668.341.668.341 4.6-9-.668-.341Zm-4.6 9v.75h6v-1.5h-6v.75Zm17.677-5.457h-.75a4.444 4.444 0 0 1-4.444 4.444v1.5a5.944 5.944 0 0 0 5.944-5.944h-.75Zm-5.194 5.194v-.75a4.444 4.444 0 0 1-4.444-4.444h-1.5a5.944 5.944 0 0 0 5.944 5.944v-.75Zm-5.194-5.194h.75a4.444 4.444 0 0 1 4.444-4.444v-1.5a5.944 5.944 0 0 0-5.944 5.944h.75Zm5.194-5.194v.75a4.444 4.444 0 0 1 4.444 4.444h1.5a5.944 5.944 0 0 0-5.944-5.944v.75Zm-1.685 2.904-.602.447 1.702 2.29.602-.447.602-.447-1.702-2.29-.602.447ZM23 23.043v.75h2.083v-1.5H23v.75Z"/></svg>