<svg xmlns="http://www.w3.org/2000/svg" fill="none" viewBox="0 0 32 32"><path fill="currentColor" d="M9.75 6v-.75h-1.5V6h1.5Zm-1.5 3v.75h1.5V9h-1.5Zm1.5 10v-.75h-1.5V19h1.5Zm-1.5 5v.75h1.5V24h-1.5ZM6 1v.75h20V.25H6V1Zm20 0v.75c.69 0 1.25.56 1.25 1.25h1.5A2.75 2.75 0 0 0 26 .25V1Zm2 2h-.75v26h1.5V3H28Zm0 26h-.75c0 .69-.56 1.25-1.25 1.25v1.5A2.75 2.75 0 0 0 28.75 29H28Zm-2 2v-.75H6v1.5h20V31ZM6 31v-.75c-.69 0-1.25-.56-1.25-1.25h-1.5A2.75 2.75 0 0 0 6 31.75V31Zm-2-2h.75V3h-1.5v26H4ZM4 3h.75c0-.69.56-1.25 1.25-1.25V.25A2.75 2.75 0 0 0 3.25 3H4Zm24 11v-.75H4v1.5h24V14ZM9 6h-.75v3h1.5V6H9Zm0 13h-.75v5h1.5v-5H9Z"/></svg>