<svg xmlns="http://www.w3.org/2000/svg" fill="none" viewBox="0 0 32 32"><path fill="currentColor" d="M2 2v-.75h-.75V2H2Zm28 0h.75v-.75H30V2Zm0 28v.75h.75V30H30ZM2 30h-.75v.75H2V30ZM16.75 2v-.75h-1.5V2h1.5Zm-1.5 28v.75h1.5V30h-1.5ZM2 12.25h-.75v1.5H2v-1.5Zm28 1.5h.75v-1.5H30v1.5ZM5.71 21.68l-.37-.653-.536.304.193.585.712-.236Zm4.176-2.365.37.653.69-.39-.429-.668-.631.405Zm0 4.6.386-.642-.316-.19-.343.134.273.698ZM2 2v.75h28v-1.5H2V2Zm28 0h-.75v28h1.5V2H30Zm0 28v-.75H2v1.5h28V30ZM2 30h.75V2h-1.5v28H2ZM16 2h-.75v28h1.5V2H16ZM2 13v.75h28v-1.5H2V13Zm3.71 8.68-.713.236 1.134 3.426.712-.236.712-.236-1.134-3.425-.712.235Zm1.133 3.426-.682-.313-2.125 4.63.682.313.681.313 2.125-4.63-.681-.313Zm.987-8.994-.631.405 2.056 3.204.63-.406.632-.405-2.056-3.203-.631.405Zm2.056 3.203-.37-.652-4.176 2.364.37.653.369.653 4.176-2.365-.37-.653Zm1.98 5.791.387-.643-1.98-1.19-.387.642-.387.643 1.98 1.19.387-.642Zm-1.98-1.19-.273-.7-3.044 1.192.274.698.273.698 3.043-1.19-.273-.699Z"/></svg>