<svg xmlns="http://www.w3.org/2000/svg" fill="none" viewBox="0 0 32 32"><path stroke="currentColor" stroke-miterlimit="10" vector-effect="non-scaling-stroke" stroke-width="1.5" d="M1 23v5h30v-5M4 7l2.95-3L10 7M6.3 4.85a6.79 6.79 0 0 1 1 3.13 6.79 6.79 0 0 1-1 3.13 6.67 6.67 0 0 0-1 3.12 6.79 6.79 0 0 0 1 3.13c.587.934.93 2 1 3.1a6.79 6.79 0 0 1-1 3.13M22 7l2.95-3L28 7m-3.7-2.15a6.79 6.79 0 0 1 1 3.13 6.79 6.79 0 0 1-1 3.13 6.67 6.67 0 0 0-1 3.12 6.789 6.789 0 0 0 1 3.13c.587.934.93 2 1 3.1a6.79 6.79 0 0 1-1 3.13M13 7l2.95-3L19 7m-3.7-2.15a6.79 6.79 0 0 1 1 3.13 6.79 6.79 0 0 1-1 3.13 6.67 6.67 0 0 0-1 3.12 6.79 6.79 0 0 0 1 3.13c.587.934.93 2 1 3.1a6.79 6.79 0 0 1-1 3.13"/></svg>