<svg xmlns="http://www.w3.org/2000/svg" fill="none" viewBox="0 0 32 32"><path stroke="currentColor" stroke-miterlimit="10" vector-effect="non-scaling-stroke" stroke-width="1.5" d="M11.562 1.406h14.875m-5.312 5V5.344c0-.587-.476-1.063-1.063-1.063h-2.125c-.587 0-1.062.476-1.062 1.063v1.062m-3.188 24.438h10.625v-3.026c0-.184.117-.347.29-.408a4.32 4.32 0 0 0 2.898-4.078V11.719a5.312 5.312 0 0 0-5.313-5.313h-6.375A5.313 5.313 0 0 0 10.5 11.72v3.187m-.246 6.617s.653-3.85-2.008-5.523a4.72 4.72 0 0 1-1.77 3.414c-1.137 1.005-3.274 3.256-3.251 5.664.018 1.946 1.077 4.326 3.52 5.172-.003-.05-.005-.1-.005-.15.025-.895.05-1.534.787-2.27.736-.736 1.001-1.298 1.06-2.004 2.166 1.466 2.17 2.912 2.17 4.168 0 .073 0 .147-.008.22a5.168 5.168 0 0 0 3.502-4.69c.2-2.394-1.114-4.464-1.988-5.557M24 2v5M14 7V2"/></svg>