<svg xmlns="http://www.w3.org/2000/svg" fill="none" viewBox="0 0 32 32"><path fill="currentColor" d="M27 10v-.75h-.75V10H27Zm4 0h.75v-.75H31V10Zm0 5v.75h.75V15H31Zm-4 0h-.75v.75H27V15Zm-3.27 3v-.75h-1.5V18h1.5Zm2.75 7v-.75.75Zm4.25-10v-.75h-1.5V15h1.5ZM7 7v-.75h-.75V7H7Zm12 0h.75v-.75H19V7Zm0 8v.75h.75V15H19ZM7 15h-.75v.75H7V15ZM1 28.25H.25v1.5H1v-1.5Zm24 1.5h.75v-1.5H25v1.5ZM28.98 10l.747.067a6.69 6.69 0 0 0-.451-3.085l-.697.278-.696.279c.303.76.424 1.58.35 2.394l.747.067Zm-.4-2.74.696-.278a6.689 6.689 0 0 0-1.802-2.546L26.98 5l-.494.564a5.19 5.19 0 0 1 1.397 1.975l.696-.279ZM27 10v.75h4v-1.5h-4V10Zm4 0h-.75v5h1.5v-5H31Zm0 5v-.75h-4v1.5h4V15Zm-4 0h.75v-5h-1.5v5H27Zm-4.02 3h-.75v3.5h1.5V18h-.75Zm0 3.5h-.75a4.25 4.25 0 0 0 1.245 3.005l.53-.53.53-.53a2.75 2.75 0 0 1-.805-1.945h-.75Zm1.025 2.475-.53.53a4.25 4.25 0 0 0 3.005 1.245v-1.5a2.75 2.75 0 0 1-1.945-.805l-.53.53ZM26.48 25v.75a4.25 4.25 0 0 0 3.005-1.245l-.53-.53-.53-.53a2.75 2.75 0 0 1-1.945.805V25Zm2.475-1.025.53.53A4.25 4.25 0 0 0 30.73 21.5h-1.5c0 .73-.29 1.429-.806 1.945l.53.53ZM29.98 21.5h.75V15h-1.5v6.5h.75ZM7 7v.75h12v-1.5H7V7Zm12 0h-.75v8h1.5V7H19Zm0 8v-.75H7v1.5h12V15ZM7 15h.75V7h-1.5v8H7ZM2.98 29h.75V5h-1.5v24h.75Zm0-24h.75c0-.332.132-.65.366-.884l-.53-.53-.53-.53A2.75 2.75 0 0 0 2.23 5h.75Zm.586-1.414.53.53a1.25 1.25 0 0 1 .884-.366v-1.5c-.73 0-1.429.29-1.945.805l.53.53ZM4.98 3v.75h16v-1.5h-16V3Zm16 0v.75c.331 0 .65.132.884.366l.53-.53.53-.53a2.75 2.75 0 0 0-1.944-.806V3Zm1.414.586-.53.53c.234.235.366.552.366.884h1.5c0-.73-.29-1.429-.806-1.945l-.53.53ZM22.98 5h-.75v24h1.5V5h-.75ZM1 29v.75h24v-1.5H1V29Z"/></svg>