<svg xmlns="http://www.w3.org/2000/svg" fill="none" viewBox="0 0 32 32"><path fill="currentColor" d="M1 1V.25H.25V1H1Zm30 0h.75V.25H31V1Zm0 30v.75h.75V31H31ZM1 31H.25v.75H1V31ZM11 8v-.75h-.75V8H11Zm-.75 16v.75h1.5V24h-1.5ZM16.5 8v-.75V8Zm4.5 4.5h.75H21ZM1 1v.75h30V.25H1V1Zm30 0h-.75v30h1.5V1H31Zm0 30v-.75H1v1.5h30V31ZM1 31h.75V1H.25v30H1ZM11 8h-.75v16h1.5V8H11Zm0 0v.75h5.5v-1.5H11V8Zm5.5 0v.75a3.75 3.75 0 0 1 2.652 1.098l.53-.53.53-.53A5.25 5.25 0 0 0 16.5 7.25V8Zm3.182 1.318-.53.53A3.75 3.75 0 0 1 20.25 12.5h1.5a5.25 5.25 0 0 0-1.538-3.712l-.53.53ZM21 12.5h-.75a3.75 3.75 0 0 1-1.098 2.652l.53.53.53.53A5.25 5.25 0 0 0 21.75 12.5H21Zm-1.318 3.182-.53-.53A3.75 3.75 0 0 1 16.5 16.25v1.5a5.25 5.25 0 0 0 3.712-1.538l-.53-.53ZM16.5 17v-.75H11v1.5h5.5V17Z"/></svg>