<svg xmlns="http://www.w3.org/2000/svg" fill="none" viewBox="0 0 32 32"><path stroke="currentColor" stroke-miterlimit="10" vector-effect="non-scaling-stroke" stroke-width="1.5" d="m9 19.7-6 7 2.29 2.417 6.594-5.805M11.384.7c.593.593 7.107 7.142 7.408 7.408l-6.891 6.891a3.556 3.556 0 0 0 .65 5.543l4.182 2.353c.359.202.587.576.603.988l.27 7.117h3.58l.605-7.59c.28-2.37-.688-3.043-2.284-4.04l-1.9-1.188 4.184-4.218c.96-.967.616-.671 1.209-1.264l5.57 7.842m-3.41-11.52a3.16 3.16 0 1 0 0-6.322 3.16 3.16 0 0 0 0 6.321Z"/></svg>