<svg xmlns="http://www.w3.org/2000/svg" fill="none" viewBox="0 0 32 32"><path stroke="currentColor" stroke-miterlimit="10" vector-effect="non-scaling-stroke" stroke-width="1.5" d="M8 22.561V31h17.37a10.2 10.2 0 0 1-1.631-5.915C23.9 20.966 27 16.495 27 16.495L26.93 4c.104.001.482-.018.578-.057a.785.785 0 0 0 .492-.73V1.787A.787.787 0 0 0 27.204 1H19.8a.785.785 0 0 0-.786.787v1.426c0 .208.083.409.23.556.148.148.608.231.816.231L20 13.92H2.796a.794.794 0 0 0-.796.798v.485a.798.798 0 0 0 .796.797M19.47 4h7.33M20 14v2h7m-5 0H3s0 7 9.5 7 9.5-7 9.5-7Z"/></svg>