<svg xmlns="http://www.w3.org/2000/svg" fill="none" viewBox="0 0 32 32"><path fill="currentColor" d="M28 12v-.75h-.005L28 12Zm-.668.081-.71.244.223.644.662-.159-.175-.729ZM16 4.001v.75V4ZM4.668 12.08l-.175.73.662.158.222-.644-.709-.244ZM4 12l.005-.75H4V12Zm-3 3H.25 1Zm3.177 2.982.74-.123-.112-.67-.678.045.05.748ZM16 27.998v.75-.75Zm11.823-10.016v-.75h-.635l-.105.627.74.123ZM28 18v.75V18Zm-14.675 3.64-.676-.324-.65 1.352.676.325.325-.676.325-.676Zm6 1.353.676-.325-.65-1.352-.676.325.325.676.325.676ZM28 12l-.005-.75a3.7 3.7 0 0 0-.838.102l.175.729.175.73a2.2 2.2 0 0 1 .498-.061L28 12Zm-.668.081.71-.244a12.736 12.736 0 0 0-4.648-6.22l-.435.61-.435.61a11.235 11.235 0 0 1 4.099 5.488l.709-.244Zm-4.373-5.854.436-.61A12.736 12.736 0 0 0 16 3.25v1.5c2.339 0 4.62.73 6.524 2.088l.435-.61ZM16 4v-.75c-2.651 0-5.236.827-7.395 2.367l.436.61.435.61A11.236 11.236 0 0 1 16 4.75V4ZM9.04 6.227l-.435-.61a12.736 12.736 0 0 0-4.646 6.22l.709.244.71.244a11.236 11.236 0 0 1 4.098-5.487l-.435-.61Zm-4.372 5.854.175-.73a3.7 3.7 0 0 0-.838-.101L4 12l-.005.75a2.2 2.2 0 0 1 .498.06l.175-.729ZM4 12v-.75a3.75 3.75 0 0 0-2.652 1.098l.53.53.531.531A2.25 2.25 0 0 1 4 12.75V12Zm-2.121.879-.53-.53A3.75 3.75 0 0 0 .25 15h1.5c0-.597.237-1.169.659-1.591l-.53-.53ZM1 15H.25a3.75 3.75 0 0 0 1.098 2.652l.53-.53.531-.531A2.25 2.25 0 0 1 1.75 15H1Zm.879 2.121-.53.53A3.75 3.75 0 0 0 4 18.75v-1.5a2.25 2.25 0 0 1-1.591-.659l-.53.53ZM4 18v.75c.085 0 .157-.01.19-.015l.038-.005h-.001l-.05-.748-.05-.748a1.367 1.367 0 0 0-.14.015c-.024.004-.01.001.013.001V18Zm.177-.018-.74.123a12.736 12.736 0 0 0 4.33 7.625l.485-.573.485-.572a11.236 11.236 0 0 1-3.82-6.726l-.74.123Zm4.075 7.175-.484.573A12.736 12.736 0 0 0 16 28.748v-1.5c-2.66 0-5.233-.944-7.263-2.663l-.485.572ZM16 27.998v.75c3.015 0 5.932-1.07 8.232-3.018l-.484-.573-.485-.572A11.236 11.236 0 0 1 16 27.248v.75Zm7.748-2.84.484.572a12.736 12.736 0 0 0 4.33-7.625l-.739-.123-.74-.123a11.236 11.236 0 0 1-3.82 6.726l.485.572Zm4.075-7.176v.75a.366.366 0 0 1-.041-.002l.015.002c.012.002.041.007.073.01.034.004.078.008.13.008v-1.5c.021 0 .036.002.04.002l-.014-.002a1.148 1.148 0 0 0-.203-.018v.75ZM28 18v.75a3.75 3.75 0 0 0 2.652-1.098l-.53-.53-.531-.531A2.25 2.25 0 0 1 28 17.25V18Zm2.121-.879.53.53A3.75 3.75 0 0 0 31.75 15h-1.5a2.25 2.25 0 0 1-.659 1.591l.53.53ZM31 15h.75a3.75 3.75 0 0 0-1.098-2.652l-.53.53-.531.531c.422.422.659.994.659 1.591H31Zm-.879-2.121.53-.53A3.75 3.75 0 0 0 28 11.25v1.5a2.25 2.25 0 0 1 1.591.659l.53-.53ZM12 14h-.75a.25.25 0 0 1-.25.25v1.5A1.75 1.75 0 0 0 12.75 14H12Zm-1 1v-.75a.25.25 0 0 1-.25-.25h-1.5c0 .966.784 1.75 1.75 1.75V15Zm-1-1h.75a.25.25 0 0 1 .25-.25v-1.5A1.75 1.75 0 0 0 9.25 14H10Zm1-1v.75a.25.25 0 0 1 .25.25h1.5A1.75 1.75 0 0 0 11 12.25V13Zm11 1h-.75a.25.25 0 0 1-.25.25v1.5A1.75 1.75 0 0 0 22.75 14H22Zm-1 1v-.75a.25.25 0 0 1-.25-.25h-1.5c0 .966.784 1.75 1.75 1.75V15Zm-1-1h.75a.25.25 0 0 1 .25-.25v-1.5A1.75 1.75 0 0 0 19.25 14H20Zm1-1v.75a.25.25 0 0 1 .25.25h1.5A1.75 1.75 0 0 0 21 12.25V13Zm-8 9.317-.325.676A7.68 7.68 0 0 0 16 23.75v-1.5c-.926 0-1.84-.208-2.675-.61l-.325.677ZM16 23v.75a7.68 7.68 0 0 0 3.325-.757L19 22.317l-.325-.676c-.835.4-1.749.609-2.675.609V23Zm0-19v-.75a3.75 3.75 0 0 0-1.768.442l.354.662.353.662a2.25 2.25 0 0 1 1.06-.266L16 4Zm-1.414.354-.354-.662a3.75 3.75 0 0 0-1.35 1.224l.623.417.624.417a2.25 2.25 0 0 1 .81-.734l-.353-.662Zm-1.08.979-.624-.417a3.75 3.75 0 0 0-.615 1.716l.747.074.746.073a2.25 2.25 0 0 1 .369-1.03l-.624-.416Zm-.492 1.373-.747-.074a3.75 3.75 0 0 0 .268 1.803l.693-.287.693-.287a2.25 2.25 0 0 1-.16-1.082l-.747-.073Zm.214 1.442-.693.287a3.75 3.75 0 0 0 1.085 1.464l.476-.58.476-.58a2.25 2.25 0 0 1-.651-.878l-.693.287Zm.868 1.171-.476.58a3.75 3.75 0 0 0 1.648.779l.146-.736.146-.735a2.25 2.25 0 0 1-.988-.468l-.476.58Zm1.318.623-.146.736c.605.12 1.23.09 1.82-.09l-.218-.717-.217-.718a2.25 2.25 0 0 1-1.092.054l-.147.735Zm1.457-.071.217.717a3.75 3.75 0 0 0 1.563-.937l-.53-.53-.53-.53a2.25 2.25 0 0 1-.938.562l.218.718Z"/></svg>