<svg xmlns="http://www.w3.org/2000/svg" fill="none" viewBox="0 0 32 32"><path stroke="currentColor" stroke-miterlimit="10" vector-effect="non-scaling-stroke" stroke-width="1.5" d="M17.057 4.003a13.487 13.487 0 0 0-12.814 9.254M22.5 30.059c-3 1.441-7.492 1.113-10.345 0A13.448 13.448 0 0 1 6.21 25.5m23.62-3.623A13.5 13.5 0 0 0 26.664 8M4 15v2m-2 3v-3h4v3M19 2.667l3 1.666m-3-1.666L22 1l3 1.667m-6 0v4l3 1.666m0-4 3-1.666m-3 1.666v4m3-5.666v4l-3 1.666M1.817 23 1 20.75 3.995 19 7 20.75 6.325 23H1.817Zm27.008 1.375a1.375 1.375 0 1 1-2.75 0 1.375 1.375 0 0 1 2.75 0ZM24.7 30.333a2.75 2.75 0 0 1 5.5 0h-5.5Z"/></svg>