<svg xmlns="http://www.w3.org/2000/svg" fill="none" viewBox="0 0 32 36"><path stroke="currentColor" stroke-miterlimit="10" vector-effect="non-scaling-stroke" stroke-width="1.5" d="m23.337 20.2 3.606 2.088c1.163.676 1.902 2.05 1.902 3.559v8.355H3.155v-8.355c0-1.51.74-2.883 1.902-3.56l3.606-2.086M3.562 30.587h24.877M3.562 26.654h24.877M24.042 20.2c-2.333 2.05-5.09 3.233-8.042 3.233s-5.708-1.184-8.042-3.233m6.348-2.88h3.198m-5.696.883.754-2.515c.324-.72 1.078-1.079 1.833-1.079h3.234c.647 0 1.186.36 1.509.959L20 18.444M11.702 9.71s-.86 1.592.477 2.44c1.72 1.062 3.63-2.44 3.63-2.44m4.298 0s.86 1.592-.477 2.44C17.91 13.212 16 9.71 16 9.71m-7.152-.351H22.96c.027.343.04.692.04 1.044 0 5.412-3.177 9.799-7.095 9.799-3.92 0-7.096-4.387-7.096-9.799 0-.352.013-.7.04-1.044Zm7.056-8.136c4.29 0 7.766 3.643 7.766 8.136H8.14c0-4.493 3.477-8.136 7.765-8.136Z"/></svg>