<svg xmlns="http://www.w3.org/2000/svg" fill="none" viewBox="0 0 32 32"><path stroke="currentColor" stroke-linecap="square" stroke-miterlimit="10" vector-effect="non-scaling-stroke" stroke-width="1.5" d="M12.1 9.6c1.3.3 2.6.4 3.9.4 1.3 0 2.6-.2 3.9-.4M29 6.9C29 4.8 27.3 3 25.1 3c-1.1 0-3.4.7-5.4 1.3-1.2.4-2.5.6-3.7.6-1.3 0-2.5-.2-3.7-.6C10.3 3.7 8 3 6.9 3 4.7 3 3 4.8 3 6.9c0 2.1 1.3 6.5 1.3 6.5L3 26.5C3 27.9 4.1 29 5.5 29c.9 0 1.6-.6 2.1-1.2l5-5.9c.9-1.1 2.1-1.9 3.4-1.9 1.3 0 2.4.8 3.4 1.9l5 5.9c.5.6 1.3 1.2 2.1 1.2 1.4 0 2.5-1.1 2.5-2.5l-1.3-13.1S29 9 29 6.9Z"/></svg>