<svg xmlns="http://www.w3.org/2000/svg" fill="none" viewBox="0 0 32 32"><path stroke="currentColor" stroke-miterlimit="10" vector-effect="non-scaling-stroke" stroke-width="1.5" d="m14 5 2.53 7.166a2 2 0 0 0 1.885 1.334h9.835M2 5.48h12.923C23.25 5.48 30 12.23 30 20.559c0 1.19-.964 2.154-2.154 2.154H2m9-4.577H6.308M30 27H2m2.08-8.865H2m27.413 1.598a2 2 0 0 1-.874-3.903M3.43 10h5.14c.237 0 .429.168.429.375v2.75c0 .207-.192.375-.429.375H3.43c-.237 0-.429-.168-.429-.375v-2.75c0-.207.192-.375.429-.375Z"/></svg>