<svg xmlns="http://www.w3.org/2000/svg" fill="none" viewBox="0 0 32 32"><path fill="currentColor" d="M4 2v-.75h-.75V2H4Zm24 0h.75v-.75H28V2Zm0 14v.75h.75V16H28ZM4 16h-.75v.75H4V16Zm7 4.25h-.75v1.5H11v-1.5Zm10 1.5h.75v-1.5H21v1.5ZM30.25 30v.75h1.5V30h-1.5Zm.75-5h.75v-.75H31V25ZM1 25v-.75H.25V25H1Zm-.75 5v.75h1.5V30H.25ZM16 21h.75v-5h-1.5v5H16ZM4 2v.75h24v-1.5H4V2Zm24 0h-.75v14h1.5V2H28Zm0 14v-.75H4v1.5h24V16ZM4 16h.75V2h-1.5v14H4Zm7 5v.75h10v-1.5H11V21Zm20 9h.75v-5h-1.5v5H31Zm0-5v-.75H1v1.5h30V25ZM1 25H.25v5h1.5v-5H1Z"/></svg>