<svg xmlns="http://www.w3.org/2000/svg" fill="none" viewBox="0 0 32 32"><path fill="currentColor" d="m21.815 19.522-.75-.015v.03l.75-.015Zm-1.674 7.913.666.344.007-.013.006-.014-.68-.317Zm-8.114 0-.679.32.005.01.006.012.668-.342Zm-1.683-7.913.75.015v-.03l-.75.015Zm1.683-7.923-.668-.342-.005.011-.006.011.679.32Zm8.114 0 .68-.317-.007-.014-.007-.013-.666.344Zm-2.032-8.503-.628-.41-.02.03-.016.031.664.349Zm2.964-1.912-.149-.735-.013.003.162.732ZM13.935 3.13l.662-.352-.013-.025-.015-.023-.634.4ZM10.96 1.175l.165-.731-.011-.003-.011-.002-.143.736ZM8.195 20.686l.238-.711a.75.75 0 0 0-.801.216l.563.495Zm-2.14-5.534.275-.698a.75.75 0 0 0-.902.288l.628.41Zm1.608-5.09.239-.71a.75.75 0 0 0-.822.238l.583.472Zm16.143 10.624.563-.495a.75.75 0 0 0-.802-.216l.239.711Zm2.139-5.534.628-.41a.75.75 0 0 0-.902-.288l.274.698Zm-1.607-5.09.583-.472a.75.75 0 0 0-.822-.239l.239.711Zm-2.523 9.46-.75.015a17.108 17.108 0 0 1-1.604 7.58l.68.318.68.317a18.607 18.607 0 0 0 1.744-8.245l-.75.015Zm-1.674 7.913-.667-.344c-.998 1.936-2.24 2.869-3.39 2.869v1.5c2.004 0 3.637-1.575 4.723-3.681l-.666-.344Zm-4.057 3.275v-.75c-1.151 0-2.401-.934-3.39-2.867l-.667.342-.668.342c1.08 2.11 2.722 3.683 4.725 3.683v-.75Zm-4.057-3.275.678-.32a16.987 16.987 0 0 1-1.611-7.578l-.75-.015-.75-.015a18.487 18.487 0 0 0 1.754 8.247l.679-.319Zm-1.683-7.913.75-.015a16.988 16.988 0 0 1 1.611-7.588l-.678-.32-.679-.32a18.488 18.488 0 0 0-1.754 8.258l.75-.015Zm1.683-7.923.667.342c.22-.428.441-.68.646-.836.2-.154.42-.24.678-.288.268-.049.57-.053.938-.039.338.014.784.047 1.198.047v-1.5c-.38 0-.717-.029-1.14-.045-.393-.016-.83-.018-1.265.062a3.027 3.027 0 0 0-1.32.57c-.418.32-.772.763-1.07 1.345l.668.342Zm4.127-1.524v.75c.415 0 .85-.033 1.176-.047.353-.014.634-.01.88.038.233.044.434.128.624.28.197.155.415.41.64.847l.667-.344.666-.344c-.296-.574-.638-1.014-1.039-1.334a2.878 2.878 0 0 0-1.275-.578c-.422-.082-.844-.079-1.224-.063-.409.016-.737.045-1.115.045v.75Zm3.987 1.524-.68.317a17.127 17.127 0 0 1 1.604 7.59l.75.016.75.015a18.627 18.627 0 0 0-1.745-8.255l-.68.317ZM13.49 9.7l.633-.402a13.612 13.612 0 0 1-.524-.877 2.64 2.64 0 0 1-.138-.295c-.03-.083-.02-.084-.02-.032h-1.5c0 .211.06.409.114.554.058.156.135.318.217.473.163.31.377.654.585.98l.633-.401Zm-.798-1.606h.75c0-.043.084-.328.628-.655.49-.295 1.203-.517 2.008-.517v-1.5c-1.066 0-2.047.29-2.781.732-.682.41-1.355 1.086-1.355 1.94h.75Zm3.386-1.922v.75c.805 0 1.52.222 2.014.518.548.328.632.613.632.654h1.5c0-.856-.679-1.532-1.361-1.94-.736-.442-1.72-.732-2.785-.732v.75Zm3.396 1.922h-.75c0-.029.003-.006-.026.092a3.152 3.152 0 0 1-.12.324c-.11.257-.261.55-.414.81l.647.38.647.38c.179-.306.36-.656.498-.98.07-.163.133-.328.18-.485.043-.145.088-.332.088-.521h-.75Zm-2.242-1.922.748.047c.06-.948.326-1.887.792-2.774l-.664-.349-.664-.349a8.376 8.376 0 0 0-.96 3.378l.748.047Zm.876-3.076.627.41c.488-.745 1.377-1.342 2.498-1.59l-.161-.732-.162-.732c-1.435.316-2.692 1.105-3.43 2.233l.628.411Zm2.964-1.912.148.735a8.58 8.58 0 0 1 2.725-.107l.09-.745.09-.745a10.08 10.08 0 0 0-3.202.127l.149.735Zm-6.261 4.988.748-.054a8.394 8.394 0 0 0-.963-3.34l-.662.352-.662.352c.452.85.721 1.784.79 2.744l.749-.054Zm-.877-3.042.634-.4C13.844 1.58 12.577.772 11.126.444l-.165.731-.166.731c1.138.258 2.03.87 2.505 1.624l.635-.4ZM10.96 1.175l.143-.736A10.317 10.317 0 0 0 7.908.323l.09.745.09.745a8.818 8.818 0 0 1 2.73.098l.143-.736Zm-.48 20.277.238-.711-2.286-.766-.238.711-.239.711 2.286.766.239-.711Zm-2.286-.766-.563-.495-2.14 2.43.564.496.563.495 2.139-2.43-.563-.496Zm2.233-3.817.274-.698-4.372-1.717-.274.698-.274.698 4.372 1.717.274-.698Zm-4.372-1.717-.628-.41-1.878 2.876.628.41.628.41 1.878-2.876-.628-.41Zm5.572-3.756.239-.71L7.902 9.35l-.24.711-.238.71 3.965 1.335.239-.711Zm-3.965-1.334L7.08 9.59l-1.607 1.986.583.472.583.472 1.607-1.986-.583-.472ZM11.785 26.8l-.601-.449-2.525 3.383.6.449.602.449 2.525-3.383-.601-.449Zm9.735-5.348.238.711 2.286-.766-.238-.711-.239-.711-2.286.766.239.711Zm2.286-.766-.563.495 2.139 2.431.563-.495.563-.495-2.14-2.431-.562.495Zm-2.233-3.817.274.698 4.372-1.717-.274-.698-.274-.698-4.372 1.717.274.698Zm4.372-1.717-.628.41 1.878 2.876.628-.41.628-.41-1.878-2.876-.628.41Zm-5.572-3.756.239.71 3.965-1.333-.24-.711-.238-.71-3.965 1.333.239.711Zm3.965-1.334-.583.472 1.607 1.986.583-.472.583-.472L24.92 9.59l-.583.472ZM20.216 26.8l-.601.449 2.525 3.383.6-.449.602-.449-2.525-3.383-.601.449Z"/></svg>