<svg xmlns="http://www.w3.org/2000/svg" fill="none" viewBox="0 0 32 32"><path fill="currentColor" d="m21.69 7.17.556-.503-.514-.568-.557.526.515.545ZM17.635 11l-.615.43.498.712.632-.597-.515-.545Zm-2.138-3.06.615-.43-.74-1.06-.553 1.17.678.32ZM26.16 6.307l.737-.139v-.004l-.737.143ZM23.258 4.07v.75h.011l-.01-.75ZM5.888 6.307l-.737-.143v.002l.736.141ZM9.984 24.06v-.75h-1.5v.75h1.5Zm-.75 5v.75h.75v-.75h-.75Zm-5.806 0h-.75v.75h.75v-.75Zm.75-5v-.75h-1.5v.75h1.5Zm25.161 0v-.75h-1.5v.75h1.5Zm-.75 5v.75h.75v-.75h-.75Zm-5.806 0h-.75v.75h.75v-.75Zm.75-5v-.75h-1.5v.75h1.5Zm6.992 0v.75h.752l-.002-.751-.75.001Zm-29.032 0h-.75v.75h.75v-.75Zm0-5.75h.75v-.002l-.75.002Zm.841-2.12-.537-.523-.004.004.541.519Zm27.33 0-.54.52.001.002.54-.522Zm.851 2.12h-.75v.001l.75-.001Zm-6.87-8.98.555-.503-1.955-2.16-.556.503-.556.503 1.955 2.16.556-.503ZM21.69 7.17l-.515-.545-4.055 3.83.515.545.515.545 4.055-3.83-.515-.545ZM17.635 11l.615-.43-2.138-3.06-.615.43-.615.43 2.138 3.06.615-.43Zm-2.138-3.06-.678-.32-2.052 4.34.678.32.678.32 2.052-4.34-.678-.32Zm12.126 6.13.737-.139-1.463-7.763-.737.139-.737.139 1.463 7.763.737-.139ZM26.16 6.307l.736-.143c-.329-1.7-1.9-2.87-3.649-2.844l.011.75.011.75c1.091-.016 1.976.707 2.155 1.63l.736-.143ZM23.258 4.07v-.75H8.742v1.5h14.516v-.75Zm-14.516 0v-.75c-1.729 0-3.264 1.166-3.591 2.844l.736.143.736.143c.178-.912 1.044-1.63 2.12-1.63v-.75ZM5.887 6.307l-.736-.141-1.49 7.763.736.141.737.141 1.49-7.763-.737-.141ZM9.235 24.06h-.75v5h1.5v-5h-.75Zm0 5v-.75H3.43v1.5h5.806v-.75Zm-5.806 0h.75v-5h-1.5v5h.75Zm25.161-5h-.75v5h1.5v-5h-.75Zm0 5v-.75h-5.806v1.5h5.806v-.75Zm-5.806 0h.75v-5h-1.5v5h.75Zm7.742-5v-.75H1.494v1.5h29.032v-.75Zm-29.032 0h.75v-5.75h-1.5v5.75h.75Zm0-5.75.75-.002a2.302 2.302 0 0 1 .632-1.599l-.54-.519-.542-.52a3.802 3.802 0 0 0-1.05 2.642l.75-.002Zm.841-2.12.538.523 2.062-2.12-.538-.523-.537-.523-2.062 2.12.537.523Zm2.062-2.12v.75h23.226v-1.5H4.397v.75Zm23.226 0-.54.52 2.042 2.12.54-.52.54-.52-2.042-2.12-.54.52Zm2.042 2.12-.539.522c.406.42.64.994.64 1.599l.75-.001h.75a3.805 3.805 0 0 0-1.062-2.642l-.539.522Zm.851 2.12-.75.001.01 5.75.75-.001.75-.001-.01-5.75-.75.001ZM8 19.5h-.75a.75.75 0 0 1-.75.75v1.5a2.25 2.25 0 0 0 2.25-2.25H8ZM6.5 21v-.75a.75.75 0 0 1-.75-.75h-1.5a2.25 2.25 0 0 0 2.25 2.25V21ZM5 19.5h.75a.75.75 0 0 1 .75-.75v-1.5a2.25 2.25 0 0 0-2.25 2.25H5ZM6.5 18v.75a.75.75 0 0 1 .75.75h1.5a2.25 2.25 0 0 0-2.25-2.25V18ZM27 19.5h-.75a.75.75 0 0 1-.75.75v1.5a2.25 2.25 0 0 0 2.25-2.25H27ZM25.5 21v-.75a.75.75 0 0 1-.75-.75h-1.5a2.25 2.25 0 0 0 2.25 2.25V21ZM24 19.5h.75a.75.75 0 0 1 .75-.75v-1.5a2.25 2.25 0 0 0-2.25 2.25H24Zm1.5-1.5v.75a.75.75 0 0 1 .75.75h1.5a2.25 2.25 0 0 0-2.25-2.25V18Z"/></svg>