<svg xmlns="http://www.w3.org/2000/svg" fill="none" viewBox="0 0 32 32"><path stroke="currentColor" stroke-miterlimit="10" vector-effect="non-scaling-stroke" stroke-width="1.5" d="m8.25 4.75 3.05 2.836a3.74 3.74 0 0 1-.563 5.908l-.284.178a4.465 4.465 0 0 0-1.57 5.89l.143.267a4.789 4.789 0 0 1-.436 5.19L7.25 26.75m9-24.5c-.685 4.753 4.133 10.313 10.5 5M15.892 30.26a14.16 14.16 0 0 1-1.66-.144c-7.651-1.113-12.95-8.219-11.837-15.87 1.114-7.651 8.22-12.951 15.87-11.838 6.909 1.006 11.9 6.896 11.985 13.662M21.8 18v-3h3v3m-6.45 6v-6h9.8v6m-9.448 6L17 24.937 23.24 21l6.26 3.938L28.093 30h-9.391Z"/></svg>