<svg xmlns="http://www.w3.org/2000/svg" fill="none" viewBox="0 0 32 32"><path stroke="currentColor" stroke-miterlimit="10" vector-effect="non-scaling-stroke" stroke-width="1.5" d="M8.572 7.33c.82.606 1.56 1.17 2.337 2.112.654.793 1.437 3.625.364 5.013-1.214 1.569-4.728 2.099-4.728 3.545 0 1.088 1.541 2.33 2.364 3.545 1.238 1.827.675 3.597 0 4.727-.35.586-.945 1.055-1.565 1.427M28.652 15c.228.963.348 1.967.348 3 0 7.18-5.82 13-13 13S3 25.18 3 18 8.82 5 16 5c.09 0 .181.001.271.003m-.436 25.996c-2.593-2.096-2.733-8.991 1.349-10.591 2.166-.849 2.764 3.419 7.116 2.703 1.153-.19 2.309.514 2.393 2.283M22 8a1 1 0 1 0 0-2 1 1 0 0 0 0 2Zm6-1.156C28 10.451 22 16 22 16s-6-5.549-6-9.156C16 3.146 19.101 1 22 1s6 2.146 6 5.844Z"/></svg>