<svg xmlns="http://www.w3.org/2000/svg" fill="none" viewBox="0 0 32 32"><path fill="currentColor" d="m10.6 7.55-.45-.6-1.2.9.45.6L10 8l.6-.45ZM16 16l-.6.45.225.3H16V16Zm6 .75h.75v-1.5H22v1.5ZM16 1h-.75v5h1.5V1H16Zm15 15v-.75h-5v1.5h5V16ZM16 31h.75v-5h-1.5v5H16ZM1 16v.75h5v-1.5H1V16Zm30 0h-.75c0 7.87-6.38 14.25-14.25 14.25v1.5c8.698 0 15.75-7.052 15.75-15.75H31ZM16 31v-.75C8.13 30.25 1.75 23.87 1.75 16H.25c0 8.698 7.052 15.75 15.75 15.75V31ZM1 16h.75C1.75 8.13 8.13 1.75 16 1.75V.25C7.302.25.25 7.302.25 16H1ZM16 1v.75c7.87 0 14.25 6.38 14.25 14.25h1.5C31.75 7.302 24.698.25 16 .25V1Zm-6 7-.6.45 6 8L16 16l.6-.45-6-8L10 8Zm6 8v.75h6v-1.5h-6V16Z"/></svg>