<svg xmlns="http://www.w3.org/2000/svg" fill="none" viewBox="0 0 32 32"><path fill="currentColor" d="M19 13.667h-.75v.75H19v-.75Zm8 .75h.75v-1.5H27v1.5Zm-7.25-8.75v-.75h-1.5v.75h1.5ZM13.667 19h.75v-.75h-.75V19Zm-.75 8v.75h1.5V27h-1.5Zm-7.25-8.75h-.75v1.5h.75v-1.5Zm24-15.25-.53-.53L18.47 13.136l.53.53.53.531L30.197 3.53l-.53-.53ZM27 13.667v-.75h-8v1.5h8v-.75Zm-8 0h.75v-8h-1.5v8H19Zm-16 16 .53.53L14.197 19.53l-.53-.53-.53-.53L2.47 29.136l.53.53ZM13.667 27h.75v-8h-1.5v8h.75Zm0-8v-.75h-8v1.5h8V19Z"/></svg>