<svg xmlns="http://www.w3.org/2000/svg" fill="none" viewBox="0 0 32 32"><path fill="currentColor" d="m16 2 .53-.53L16 .94l-.53.53L16 2Zm-5.53 4.47L9.94 7 11 8.06l.53-.53L11 7l-.53-.53Zm10 1.06.53.53L22.06 7l-.53-.53L21 7l-.53.53ZM25 3.25h-.75v1.5H25v-1.5ZM30 4h.75v-.75H30V4Zm0 19v.75h.75V23H30ZM2 23h-.75v.75H2V23ZM2 4v-.75h-.75V4H2Zm5 .75h.75v-1.5H7v1.5Zm4 24.5h-.75v1.5H11v-1.5Zm10 1.5h.75v-1.5H21v1.5ZM16.75 27v-.75h-1.5V27h1.5Zm-1.5 3v.75h1.5V30h-1.5ZM16 16h.75V2h-1.5v14H16Zm-5-9 .53.53 5-5L16 2l-.53-.53-5 5L11 7Zm5-5-.53.53 5 5L21 7l.53-.53-5-5L16 2Zm9 2v.75h5v-1.5h-5V4Zm5 0h-.75v19h1.5V4H30Zm0 19v-.75H2v1.5h28V23ZM2 23h.75V4h-1.5v19H2ZM2 4v.75h5v-1.5H2V4Zm9 26v.75h10v-1.5H11V30Zm5-3h-.75v3h1.5v-3H16Z"/></svg>