<svg xmlns="http://www.w3.org/2000/svg" fill="none" viewBox="0 0 32 32"><path fill="currentColor" d="m30.25 22.25.53.53.53-.53-.53-.53-.53.53Zm-28-9.5H1.5h.75Zm20.53.97-.53-.53-1.06 1.06.53.53.53-.53.53-.53Zm-1.06 16-.53.53 1.06 1.06.53-.53-.53-.53-.53-.53Zm8.53-7.47v-.75h-18.5V23h18.5v-.75Zm-18.5 0v-.75a8.75 8.75 0 0 1-6.187-2.563l-.53.53-.53.53A10.25 10.25 0 0 0 11.75 23v-.75Zm-6.718-2.782.53-.53A8.75 8.75 0 0 1 3 12.75H1.5a10.25 10.25 0 0 0 3.002 7.248l.53-.53ZM2.25 12.75H3a8.75 8.75 0 0 1 2.563-6.187l-.53-.53-.53-.53A10.25 10.25 0 0 0 1.5 12.75h.75Zm2.782-6.718.53.53A8.75 8.75 0 0 1 11.75 4V2.5a10.25 10.25 0 0 0-7.248 3.002l.53.53ZM11.75 3.25V4h9.5V2.5h-9.5v.75Zm10.5 11-.53.53 8 8 .53-.53.53-.53-8-8-.53.53Zm8 8-.53-.53-8 8 .53.53.53.53 8-8-.53-.53Z"/></svg>