<svg xmlns="http://www.w3.org/2000/svg" fill="none" viewBox="0 0 32 32"><path fill="currentColor" d="m2 22-.53-.53-.53.53.53.53L2 22Zm8.53-7.47.53-.53L10 12.94l-.53.53.53.53.53.53Zm-1.06 16 .53.53L11.06 30l-.53-.53L10 30l-.53.53ZM2 22v.75h18.5v-1.5H2V22Zm18.5 0v.75c5.661 0 10.25-4.589 10.25-10.25h-1.5a8.75 8.75 0 0 1-8.75 8.75V22Zm9.5-9.5h.75c0-5.661-4.589-10.25-10.25-10.25v1.5a8.75 8.75 0 0 1 8.75 8.75H30ZM20.5 3v-.75H11v1.5h9.5V3ZM10 14l-.53-.53-8 8L2 22l.53.53 8-8L10 14Zm-8 8-.53.53 8 8L10 30l.53-.53-8-8L2 22Z"/></svg>