<svg xmlns="http://www.w3.org/2000/svg" fill="none" viewBox="0 0 32 32"><path stroke="currentColor" stroke-linecap="square" stroke-miterlimit="10" vector-effect="non-scaling-stroke" stroke-width="1.5" d="M25 16a8 8 0 0 0-8-8v16a8 8 0 0 0 8-8Zm0 0a7 7 0 0 0-7-7v14a7 7 0 0 0 7-7Zm-9 14c7.732 0 14-6.268 14-14S23.732 2 16 2 2 8.268 2 16s6.268 14 14 14Zm0-24.5c5.799 0 10.5 4.701 10.5 10.5S21.799 26.5 16 26.5v-21ZM17 7a9 9 0 0 1 0 18V7Zm2 3c2.761 0 5 2.686 5 6s-2.239 6-5 6V10Zm1 1c1.657 0 3 2.239 3 5s-1.343 5-3 5V11Zm1 1c.552 0 1 1.79 1 4s-.448 4-1 4v-8Z"/></svg>