<svg xmlns="http://www.w3.org/2000/svg" fill="none" viewBox="0 0 32 32"><path fill="currentColor" d="M27.75 10v-.75h-1.5V10h1.5ZM27 28h.75H27ZM8 31v.75V31ZM5.75 10v-.75h-1.5V10h1.5Zm11 5v-.75h-1.5V15h1.5Zm-1.5 10v.75h1.5V25h-1.5Zm-3.5-10v-.75h-1.5V15h1.5Zm-1.5 10v.75h1.5V25h-1.5Zm11.5-10v-.75h-1.5V15h1.5Zm-1.5 10v.75h1.5V25h-1.5Zm-10-19v.75h1.5V6h-1.5ZM11 1V.25h-.75V1H11Zm10 0h.75V.25H21V1Zm9 5.75h.75v-1.5H30v1.5ZM2 5.25h-.75v1.5H2v-1.5ZM27 10h-.75v18h1.5V10H27Zm0 18h-.75a2.25 2.25 0 0 1-.659 1.591l.53.53.53.53A3.75 3.75 0 0 0 27.75 28H27Zm-.879 2.121-.53-.53A2.25 2.25 0 0 1 24 30.25v1.5a3.75 3.75 0 0 0 2.652-1.098l-.53-.53ZM24 31v-.75H8v1.5h16V31ZM8 31v-.75a2.25 2.25 0 0 1-1.591-.659l-.53.53-.53.53A3.75 3.75 0 0 0 8 31.75V31Zm-2.121-.879.53-.53A2.25 2.25 0 0 1 5.75 28h-1.5a3.75 3.75 0 0 0 1.098 2.652l.53-.53ZM5 28h.75V10h-1.5v18H5Zm11-13h-.75v10h1.5V15H16Zm-5 0h-.75v10h1.5V15H11Zm10 0h-.75v10h1.5V15H21ZM11 6h.75V1h-1.5v5H11Zm0-5v.75h10V.25H11V1Zm10 0h-.75v5h1.5V1H21Zm9 5v-.75H2v1.5h28V6Z"/></svg>