<svg xmlns="http://www.w3.org/2000/svg" fill="none" viewBox="0 0 32 32"><path fill="currentColor" d="M13 5.75h.75v-1.5H13v1.5ZM2 5v-.75h-.75V5H2Zm0 24h-.75v.75H2V29Zm24 0v.75h.75V29H26Zm.75-11v-.75h-1.5V18h1.5ZM16 19l.237.712.168-.056.125-.126L16 19Zm-6 2-.712-.237-.474 1.423 1.423-.474L10 21Zm2-6-.53-.53-.126.125-.055.168L12 15ZM26 1l.53-.53L26-.06l-.53.53L26 1Zm4 4 .53.53.53-.53-.53-.53L30 5ZM13 5v-.75H2v1.5h11V5ZM2 5h-.75v24h1.5V5H2Zm0 24v.75h24v-1.5H2V29Zm24 0h.75V18h-1.5v11H26ZM16 19l-.237-.712-6 2L10 21l.237.712 6-2L16 19Zm-6 2 .711.237 2-6L12 15l-.711-.237-2 6L10 21Zm2-6 .53.53 14-14L26 1l-.53-.53-14 14L12 15ZM26 1l-.53.53 4 4L30 5l.53-.53-4-4L26 1Zm4 4-.53-.53-14 14L16 19l.53.53 14-14L30 5Zm-8 0-.53.53 4 4L26 9l.53-.53-4-4L22 5Z"/></svg>