<svg xmlns="http://www.w3.org/2000/svg" fill="none" viewBox="0 0 32 32"><path fill="currentColor" d="m16 14-.53.53.53.53.53-.53L16 14Zm8-3.75h-.75v1.5H24v-1.5Zm2 .75.656-.364-.215-.386H26V11Zm5 9h.75v-.194l-.094-.17L31 20Zm0 10v.75h.75V30H31ZM1 30H.25v.75H1V30Zm0-10-.656-.364-.094.17V20H1Zm5-9v-.75h-.441l-.215.386L6 11Zm2 .75h.75v-1.5H8v1.5Zm13.53-2.22.53-.53L21 7.94l-.53.53L21 9l.53.53Zm-10-1.06L11 7.94 9.94 9l.53.53L11 9l.53-.53ZM21 20v-.75h-.75V20H21Zm0 3v.75h.75V23H21Zm-10 0h-.75v.75H11V23Zm0-3h.75v-.75H11V20Zm5-19h-.75v13h1.5V1H16Zm8 10v.75h2v-1.5h-2V11Zm2 0-.656.364 5 9L31 20l.656-.364-5-9L26 11Zm5 9h-.75v10h1.5V20H31Zm0 10v-.75H1v1.5h30V30ZM1 30h.75V20H.25v10H1Zm0-10 .656.364 5-9L6 11l-.656-.364-5 9L1 20Zm5-9v.75h2v-1.5H6V11Zm15-2-.53-.53-5 5L16 14l.53.53 5-5L21 9Zm-5 5 .53-.53-5-5L11 9l-.53.53 5 5L16 14Zm15 6v-.75H21v1.5h10V20Zm-10 0h-.75v3h1.5v-3H21Zm0 3v-.75H11v1.5h10V23Zm-10 0h.75v-3h-1.5v3H11Zm0-3v-.75H1v1.5h10V20Z"/></svg>