<svg xmlns="http://www.w3.org/2000/svg" fill="none" viewBox="0 0 32 32"><path fill="currentColor" d="M2.25 30.25H1.5V31h.75v-.75Zm28-28H31V1.5h-.75v.75Zm0 28V31H31v-.75h-.75Zm-28-28V1.5H1.5v.75h.75Zm18-.75h-.75V3h.75V1.5Zm9.25 10.75V13H31v-.75h-1.5ZM12.25 31H13v-1.5h-.75V31ZM3 20.25v-.75H1.5v.75H3ZM12.25 3H13V1.5h-.75V3ZM1.5 12.25V13H3v-.75H1.5ZM20.25 29.5h-.75V31h.75v-1.5ZM31 20.25v-.75h-1.5v.75H31Zm-28.75 10 .53.53 9-9-.53-.53-.53-.53-9 9 .53.53Zm28-28-.53-.53-9 9 .53.53.53.53 9-9-.53-.53Zm0 28 .53-.53-9-9-.53.53-.53.53 9 9 .53-.53Zm-28-28-.53.53 9 9 .53-.53.53-.53-9-9-.53.53Zm18 0V3h10V1.5h-10v.75Zm10 0h-.75v10H31v-10h-.75Zm-18 28v-.75h-10V31h10v-.75Zm-10 0H3v-10H1.5v10h.75Zm10-28V1.5h-10V3h10v-.75Zm-10 0H1.5v10H3v-10h-.75Zm18 28V31h10v-1.5h-10v.75Zm10 0H31v-10h-1.5v10h.75Z"/></svg>