<svg xmlns="http://www.w3.org/2000/svg" fill="none" viewBox="0 0 32 32"><path fill="currentColor" d="m20.03 20.97-.53-.53-1.06 1.06.53.53.53-.53.53-.53Zm1.72 2.78.53-.53-.53.53Zm.724 1.75h-.75.75Zm-1.255 1.22-.53.53 1.061 1.06.53-.53-.53-.53-.53-.53ZM.25 14v.75h1.5V14H.25ZM1 2v-.75H.25V2H1Zm10.1 0v-.75V2Zm.804.802.744.096.192-1.488-.744-.096-.096.744-.096.744ZM23.53 17.47l-.53-.53L21.94 18l.53.53L23 18l.53-.53Zm2.495 3.555-.53.53.53-.53Zm0 3.5-.53-.53.53.53Zm-2.97-.53-.53-.53-1.06 1.06.53.53.53-.53.53-.53Zm4.445-2.52v-.75.75Zm1.75-.725.53.53-.53-.53Zm0-3.5.53-.53-.53.53ZM20 8l.53-.53-.46-.46-.52.39.45.6Zm-6.9 5.173.45.6-.45-.6Zm-2.336.211-.335.67v.001l.335-.671Zm-.579-3.572.53.53-.53-.53ZM15.95 4.05l.53.53-.53-.53ZM20.9 2v.75V2ZM31 2h.75v-.75H31V2Zm-.75 12v.75h1.5V14h-1.5ZM19.5 21.5l-.53.53 2.25 2.25.53-.53.53-.53-2.25-2.25-.53.53Zm2.25 2.25-.53.53c.323.324.504.762.504 1.22h1.5c0-.855-.34-1.675-.943-2.28l-.531.53Zm.724 1.75h-.75c0 .457-.181.896-.505 1.22l.531.53.53.53a3.226 3.226 0 0 0 .944-2.28h-.75ZM1 14h.75V2H.25v12H1ZM1 2v.75h10.1v-1.5H1V2Zm10.1 0v.75c.269 0 .537.017.804.052L12 2.058l.096-.744a7.83 7.83 0 0 0-.995-.064L11.1 2ZM4.897 15.775v.75h.707v-1.5h-.707v.75Zm.707 0v.75c.953 0 1.725.772 1.725 1.725h1.5a3.225 3.225 0 0 0-3.225-3.225v.75Zm2.475 2.475h-.75c0 .953-.772 1.725-1.725 1.725v1.5a3.225 3.225 0 0 0 3.225-3.225h-.75Zm-2.475 2.475v-.75h-.707v1.5h.707v-.75Zm-.707 0v-.75a1.725 1.725 0 0 1-1.725-1.725h-1.5a3.225 3.225 0 0 0 3.225 3.225v-.75ZM2.422 18.25h.75c0-.953.772-1.725 1.725-1.725v-1.5a3.225 3.225 0 0 0-3.225 3.225h.75Zm5.78 1.025v.75h1.096v-1.5H8.202v.75Zm1.096 0v.75c.953 0 1.725.772 1.725 1.725h1.5a3.225 3.225 0 0 0-3.225-3.225v.75Zm2.475 2.475h-.75c0 .953-.772 1.725-1.725 1.725v1.5a3.225 3.225 0 0 0 3.225-3.225h-.75Zm-2.475 2.475v-.75H8.202v1.5h1.096v-.75Zm-1.096 0v-.75a1.725 1.725 0 0 1-1.725-1.725h-1.5a3.225 3.225 0 0 0 3.225 3.225v-.75ZM5.727 21.75h.75c0-.953.772-1.725 1.725-1.725v-1.5a3.225 3.225 0 0 0-3.225 3.225h.75Zm6.034 1.161v.75h.707v-1.5h-.707v.75Zm.707 0v.75c.953 0 1.725.772 1.725 1.725h1.5a3.225 3.225 0 0 0-3.225-3.225v.75Zm2.475 2.475h-.75c0 .953-.772 1.725-1.725 1.725v1.5a3.225 3.225 0 0 0 3.225-3.225h-.75Zm-2.475 2.475v-.75h-.707v1.5h.707v-.75Zm-.707 0v-.75a1.725 1.725 0 0 1-1.725-1.725h-1.5a3.225 3.225 0 0 0 3.225 3.225v-.75Zm-2.475-2.475h.75c0-.953.772-1.725 1.725-1.725v-1.5a3.225 3.225 0 0 0-3.225 3.225h.75Zm5.74 1.099v.75h.735v-1.5h-.735v.75Zm.735 0v.75c.757 0 1.371.614 1.371 1.371h1.5a2.871 2.871 0 0 0-2.871-2.871v.75Zm2.121 2.121h-.75c0 .758-.614 1.372-1.371 1.372v1.5a2.872 2.872 0 0 0 2.871-2.872h-.75Zm-2.121 2.122v-.75h-.735v1.5h.735v-.75Zm-.735 0v-.75a1.371 1.371 0 0 1-1.371-1.371h-1.5a2.871 2.871 0 0 0 2.871 2.871v-.75Zm-2.121-2.121h.75c0-.758.614-1.372 1.371-1.372v-1.5a2.872 2.872 0 0 0-2.871 2.872h.75ZM23 18l-.53.53 3.025 3.025.53-.53.53-.53-3.025-3.025L23 18Zm3.025 3.025-.53.53c.16.16.287.35.374.56l.693-.287.693-.287a3.223 3.223 0 0 0-.7-1.047l-.53.531Zm.537.803-.693.287c.087.21.131.434.131.66h1.5c0-.424-.083-.843-.245-1.234l-.693.287Zm.188.947H26c0 .227-.044.45-.131.66l.693.287.693.287c.162-.391.245-.81.245-1.234h-.75Zm-.188.947-.693-.287c-.087.21-.214.4-.374.56l.53.53.53.53c.3-.299.537-.654.7-1.046l-.693-.287Zm-.537.803-.53-.53c-.16.16-.35.287-.56.374l.287.693.287.693a3.22 3.22 0 0 0 1.046-.7l-.53-.53Zm-.803.537-.287-.693a1.72 1.72 0 0 1-.66.131V26c.424 0 .843-.083 1.234-.245l-.287-.693Zm-.947.188v-.75c-.226 0-.45-.044-.66-.131l-.287.693-.287.693c.391.162.81.245 1.234.245v-.75Zm-.947-.188.287-.693c-.21-.087-.4-.214-.56-.374l-.53.53-.53.53c.299.3.654.537 1.046.7l.287-.693Zm2.422-4.312-.53.53a3.226 3.226 0 0 0 2.28.944v-1.5c-.457 0-.896-.181-1.22-.505l-.53.531Zm1.75.724v.75c.855 0 1.675-.34 2.28-.943l-.53-.531-.53-.53a1.726 1.726 0 0 1-1.22.504v.75Zm1.75-.724.53.53a3.226 3.226 0 0 0 .944-2.28h-1.5c0 .457-.181.896-.505 1.22l.531.53Zm.724-1.75h.75c0-.855-.34-1.675-.943-2.28l-.531.53-.53.53c.323.324.504.762.504 1.22h.75Zm-.724-1.75.53-.53-9.25-9.25L20 8l-.53.53 9.25 9.25.53-.53ZM20 8l-.45-.6-6.9 5.173.45.6.45.6 6.9-5.173L20 8Zm-6.9 5.173-.45-.6c-.22.165-.482.265-.755.29l.067.747.067.747a2.981 2.981 0 0 0 1.52-.584l-.449-.6Zm-1.138.437-.067-.747a1.481 1.481 0 0 1-.796-.15l-.335.671-.335.671c.495.247 1.05.352 1.6.302l-.067-.747Zm-1.198-.226.335-.67a1.48 1.48 0 0 1-.53-.448l-.604.444-.605.444c.28.381.646.69 1.069.9l.335-.67Zm-.8-.674.605-.444a1.48 1.48 0 0 1-.269-.64l-.74.12-.74.12c.075.466.26.908.54 1.289l.605-.445Zm-.404-.964.74-.12a1.48 1.48 0 0 1 .053-.692l-.714-.23-.713-.23a2.98 2.98 0 0 0-.106 1.392l.74-.12Zm.08-1.042.713.23a1.48 1.48 0 0 1 .362-.591l-.53-.531-.53-.53a2.98 2.98 0 0 0-.73 1.191l.714.23Zm.545-.892.53.53L16.48 4.58l-.53-.53-.53-.53-5.765 5.762.53.53ZM15.95 4.05l.53.53a6.25 6.25 0 0 1 2.028-1.354l-.287-.693-.287-.693a7.75 7.75 0 0 0-2.514 1.68l.53.53Zm2.271-1.517.287.693A6.25 6.25 0 0 1 20.9 2.75v-1.5a7.75 7.75 0 0 0-2.966.59l.287.693ZM20.9 2v.75H31v-1.5H20.9V2ZM31 2h-.75v12h1.5V2H31Z"/></svg>