<svg xmlns="http://www.w3.org/2000/svg" fill="none" viewBox="0 0 32 32"><path fill="currentColor" d="M5 1.25h-.75v1.5H5v-1.5Zm22 1.5h.75v-1.5H27v1.5ZM5 29.25h-.75v1.5H5v-1.5Zm22 1.5h.75v-1.5H27v1.5ZM25 6.279h-.75.75Zm-.912 3.18-.636-.397.636.397ZM20 16l-.636-.398-.248.398.248.398L20 16Zm4.088 6.541-.636.398.636-.398Zm.912 3.18h-.75.75Zm-18 0h.75H7Zm.912-3.18.636.398-.636-.398ZM12 16l.636.398.248-.398-.248-.398L12 16ZM7.912 9.459l.636-.397-.636.397ZM7 6.279h.75H7ZM11 26h-.75v.75H11V26Zm0-.279h.75v-.002l-.75.002Zm.3-1.059-.636-.398-.002.003.638.395Zm3.852-6.162.636.398.002-.003-.638-.395Zm1.7 0-.637.395v.002l.637-.397Zm3.848 6.16.637-.394v-.002l-.637.397Zm.3 1.061-.75-.003v.003H21ZM21 26v.75h.75V26H21Zm-9-1h-.75v.75H12V25Zm0-.21h.75v-.002l-.75.002Zm.24-.797-.625-.415-.001.003.626.412Zm3.082-4.637.624.415.002-.002-.626-.413Zm1.36 0-.627.413.002.002.625-.415Zm3.078 4.636.626-.412-.001-.002-.625.414Zm.24.798-.75-.002v.002H20Zm0 .21v.75h.75V25H20Zm-7-1h-.75v.75H13V24Zm0-.14h.75v-.002l-.75.002Zm.18-.531-.6-.45-.002.003.602.447Zm2.311-3.092.6.45.003-.003-.603-.447Zm1.02 0-.602.447.001.002.601-.449Zm2.309 3.091.602-.446-.001-.003-.601.45Zm.18.532-.75-.003v.003H19Zm0 .14v.75h.75V24H19Zm-5 0h-.75v.75H14V24Zm0-.105h.75v-.002l-.75.002Zm.12-.398-.625-.416-.001.003.626.413Zm1.54-2.319.625.415.002-.002-.626-.413Zm.68 0-.626.413.002.002.625-.415Zm1.54 2.318.626-.412-.001-.003-.625.415Zm.12.399-.75-.003v.003H18ZM18 24v.75h.75V24H18Zm-3-1h-.75v.75H15V23Zm0-.035h.75v-.003l-.75.003Zm.06-.133-.531-.53-.002.003.533.527Zm.77-.773.532.53.002-.002-.534-.528Zm.34 0-.533.527.002.003.531-.53Zm.77.773.533-.527-.002-.002-.531.53Zm.06.133-.75-.004v.004H17ZM17 23v.75h.75V23H17ZM5 2v.75h22v-1.5H5V2Zm0 28v.75h22v-1.5H5V30ZM25 2h-.75v4.279h1.5V2H25Zm0 4.279h-.75a5.25 5.25 0 0 1-.798 2.783l.636.397.636.398a6.75 6.75 0 0 0 1.026-3.578H25Zm-.912 3.18-.636-.397-4.088 6.54L20 16l.636.398 4.088-6.542-.636-.397ZM20 16l-.636.398 4.088 6.54.636-.397.636-.398-4.088-6.54L20 16Zm4.088 6.541-.636.398a5.25 5.25 0 0 1 .798 2.782h1.5a6.75 6.75 0 0 0-1.026-3.578l-.636.398Zm.912 3.18h-.75V30h1.5v-4.279H25ZM7 30h.75v-4.279h-1.5V30H7Zm0-4.279h.75c0-.984.277-1.948.798-2.782l-.636-.398-.636-.398a6.75 6.75 0 0 0-1.026 3.578H7Zm.912-3.18.636.398 4.088-6.541L12 16l-.636-.398-4.088 6.541.636.398ZM12 16l.636-.398-4.088-6.54-.636.397-.636.397 4.088 6.542L12 16ZM7.912 9.459l.636-.397a5.25 5.25 0 0 1-.798-2.783h-1.5a6.75 6.75 0 0 0 1.026 3.578l.636-.398ZM7 6.279h.75V2h-1.5v4.279H7ZM11 26h.75v-.279h-1.5V26H11Zm0-.279.75-.002c0-.234.064-.463.188-.662l-.638-.395-.638-.395a2.75 2.75 0 0 0-.412 1.456l.75-.002Zm.3-1.059.636.398 3.852-6.162-.636-.398-.636-.398-3.852 6.162.636.398Zm3.852-6.162.638.395a.25.25 0 0 1 .09-.087l-.364-.655-.365-.655c-.26.145-.48.354-.636.607l.637.395Zm.364-.347.364.655a.25.25 0 0 1 .122-.031v-1.5c-.298 0-.59.076-.851.22l.365.656Zm.486-.126v.75a.25.25 0 0 1 .122.031l.364-.655.365-.655a1.75 1.75 0 0 0-.851-.221v.75Zm.486.126-.364.655a.25.25 0 0 1 .09.087l.638-.395.637-.395a1.749 1.749 0 0 0-.636-.607l-.365.655Zm.364.347-.636.397 3.848 6.161.636-.397.636-.397-3.848-6.161-.636.397Zm3.848 6.16-.637.396c.123.199.188.428.187.662l.75.003.75.002a2.75 2.75 0 0 0-.413-1.457l-.637.395Zm.3 1.061h-.75V26h1.5v-.279H21ZM21 26v-.75H11v1.5h10V26Zm-9-1h.75v-.21h-1.5V25H12Zm0-.21.75-.002a.69.69 0 0 1 .116-.382l-.626-.413-.626-.412a2.19 2.19 0 0 0-.364 1.211l.75-.002Zm.24-.797.625.415 3.081-4.637-.624-.415-.625-.415-3.082 4.637.625.415Zm3.082-4.637.626.413s.002-.004.012-.01l-.348-.664-.348-.664c-.228.12-.425.294-.569.512l.627.413Zm.29-.261.348.664a.09.09 0 0 1 .042-.009v-1.5c-.256 0-.51.061-.737.18l.348.665Zm.39-.095v.75a.09.09 0 0 1 .04.01l.349-.665.348-.664a1.59 1.59 0 0 0-.737-.181V19Zm.389.095-.348.664c.01.006.013.01.012.01l.627-.413.626-.413a1.531 1.531 0 0 0-.57-.512l-.347.664Zm.29.261-.624.415 3.078 4.636.625-.415.625-.415-3.079-4.636-.624.415Zm3.079 4.636-.626.413a.69.69 0 0 1 .116.383l.75.002.75.003a2.19 2.19 0 0 0-.364-1.213l-.626.412Zm.24.798h-.75V25h1.5v-.21H20Zm0 .21v-.75h-8v1.5h8V25Zm-7-1h.75v-.14h-1.5V24H13Zm0-.14.75-.002a.14.14 0 0 1 .033-.083l-.603-.446-.602-.447a1.635 1.635 0 0 0-.328.98l.75-.002Zm.18-.531.6.449 2.312-3.091-.6-.45-.602-.449-2.31 3.092.6.449Zm2.311-3.092.603.447a.186.186 0 0 1-.068.06l-.317-.68-.316-.68c-.192.089-.37.225-.504.407l.602.446Zm.218-.174.317.68a.075.075 0 0 1-.025.007v-1.5a1.45 1.45 0 0 0-.608.133l.316.68Zm.292-.063v.75l-.008-.001a.075.075 0 0 1-.017-.006l.317-.68.317-.68a1.445 1.445 0 0 0-.61-.133V20Zm.292.063-.316.68a.186.186 0 0 1-.068-.059l.602-.447.603-.446a1.318 1.318 0 0 0-.504-.408l-.317.68Zm.218.174-.6.45 2.308 3.09.601-.449.6-.449-2.308-3.09-.6.448Zm2.309 3.091-.602.447a.138.138 0 0 1 .032.082l.75.003.75.003c.001-.36-.119-.7-.328-.981l-.602.446Zm.18.532h-.75V24h1.5v-.14H19Zm0 .14v-.75h-6v1.5h6V24Zm-5 0h.75v-.105h-1.5V24H14Zm0-.105.75-.002a.038.038 0 0 1-.004.016l-.626-.412-.626-.413a1.47 1.47 0 0 0-.244.813l.75-.002Zm.12-.398.625.415 1.54-2.319-.624-.415-.625-.415-1.54 2.318.624.416Zm1.54-2.319.627.413a.36.36 0 0 1-.133.12l-.348-.663-.348-.665a1.14 1.14 0 0 0-.424.382l.627.413Zm.146-.13.348.664a.33.33 0 0 1-.153.038v-1.5a1.17 1.17 0 0 0-.543.133l.348.665Zm.195-.048v.75a.33.33 0 0 1-.154-.038l.348-.665.348-.664a1.17 1.17 0 0 0-.542-.133V21Zm.194.047-.348.665a.36.36 0 0 1-.133-.121l.627-.413.626-.413a1.14 1.14 0 0 0-.424-.382l-.348.665Zm.146.131-.625.415 1.54 2.318.624-.415.625-.415-1.54-2.318-.624.415Zm1.539 2.318-.626.413s-.002-.002-.002-.005a.038.038 0 0 1-.002-.012l.75.003.75.003a1.47 1.47 0 0 0-.244-.814l-.626.412Zm.12.399h-.75V24h1.5v-.105H18ZM18 24v-.75h-4v1.5h4V24Zm-3-1h.75v-.035h-1.5V23H15Zm0-.035.75-.003c0 .19-.086.326-.157.397l-.533-.527-.533-.527a.938.938 0 0 0-.277.663l.75-.003Zm.06-.133.531.53.77-.773-.53-.53-.532-.53-.77.774.531.53Zm.77-.773.534.527a.56.56 0 0 1-.214.138l-.247-.708-.247-.708a.938.938 0 0 0-.36.224l.534.527Zm.073-.043.247.708a.453.453 0 0 1-.15.026v-1.5c-.111 0-.229.017-.344.058l.247.708ZM16 22v.75a.452.452 0 0 1-.15-.026l.248-.708.247-.708A1.048 1.048 0 0 0 16 21.25V22Zm.098.016-.247.708a.561.561 0 0 1-.214-.137l.533-.528.534-.527a.937.937 0 0 0-.36-.224l-.246.708Zm.072.043-.531.53.77.772.531-.529.531-.53-.77-.772-.53.53Zm.77.773-.533.527a.563.563 0 0 1-.157-.398l.75.004.75.004a.937.937 0 0 0-.277-.664l-.533.527Zm.06.133h-.75V23h1.5v-.035H17ZM17 23v-.75h-2v1.5h2V23Z"/></svg>