<svg xmlns="http://www.w3.org/2000/svg" fill="none" viewBox="0 0 32 32"><path fill="currentColor" d="m30.117 3.031.53-.53-1.06-1.06-.53.53.53.53.53.53Zm-8.951 6.832-.53.53 1.06 1.06.53-.53-.53-.53-.53-.53Zm5.422 1.785h.75v-1.5h-.75v1.5Zm-5.398-.75h-.75v.75h.75v-.75Zm.75-5.398v-.75h-1.5v.75h1.5Zm-1.162 13.852.585.469-.585-.469Zm-2.323 2.9-.38.646a.75.75 0 0 0 .965-.177l-.585-.469Zm-8.71-8.71-.469-.585a.75.75 0 0 0-.178.965l.647-.38Zm2.9-2.323-.468-.586.468.586Zm.57-2.341-.685.304.685-.304Zm-2.647-5.96-.686.304.686-.304Zm-2.3-1.109.189.726-.189-.726ZM3.233 3.12l-.189-.726.189.726ZM1.769 5.312l-.743.103v.001l.743-.104Zm24.919 24.92-.104.743h.002l.102-.743Zm2.192-1.465.726.19v-.002l-.726-.188Zm1.307-5.038-.726-.188.726.188Zm-1.109-2.3.305-.685-.305.685Zm-5.959-2.646-.305.685.305-.685Zm6.468-16.282-.53-.53-7.891 7.892.53.53.53.53 7.891-7.892-.53-.53Zm-2.999 8.397v-.75H21.19v1.5h5.398v-.75Zm-5.398 0h.75V5.5h-1.5v5.398h.75Zm-.412 8.454-.585-.469-2.323 2.9.585.469.585.469 2.323-2.9-.585-.469Zm-2.323 2.9.38-.647a23.759 23.759 0 0 1-8.443-8.443l-.647.38-.647.38a25.257 25.257 0 0 0 8.977 8.976l.38-.646Zm-8.71-8.71.469.585 2.9-2.323-.469-.585-.469-.585-2.9 2.323.469.585Zm2.9-2.323.469.586c.47-.376.801-.897.944-1.482l-.729-.177-.729-.178a1.222 1.222 0 0 1-.423.665l.468.586Zm.684-1.073.729.177c.142-.585.087-1.2-.158-1.75l-.685.305-.685.305c.11.246.134.523.07.785l.73.178Zm-.114-1.268.685-.304-2.647-5.96-.685.304-.685.304 2.647 5.96.685-.304Zm-2.647-5.96.686-.304a2.722 2.722 0 0 0-1.307-1.349l-.325.676-.326.676c.261.125.469.34.586.605l.686-.304Zm-.946-.977.325-.676a2.722 2.722 0 0 0-1.868-.182l.189.726.19.726a1.22 1.22 0 0 1 .838.082l.326-.676Zm-1.354-.132-.189-.726-5.035 1.311.189.726.189.726 5.035-1.311-.189-.726ZM3.233 3.12l-.19-.726c-.647.17-1.21.57-1.582 1.127l.623.417.624.416c.168-.251.422-.432.714-.508l-.189-.726Zm-1.149.818-.623-.417a2.734 2.734 0 0 0-.435 1.894l.743-.103.743-.103c-.042-.3.028-.603.196-.855l-.624-.416ZM1.77 5.312l-.743.104a30.025 30.025 0 0 0 8.502 17.056l.53-.53.531-.53A28.525 28.525 0 0 1 2.512 5.207l-.743.104Zm8.29 16.63-.53.53a30.025 30.025 0 0 0 17.055 8.503l.104-.743.104-.743a28.525 28.525 0 0 1-16.203-8.078l-.53.53Zm16.629 8.29-.102.743a2.736 2.736 0 0 0 1.893-.436l-.417-.623-.417-.624a1.236 1.236 0 0 1-.855.197l-.102.743Zm1.374-.316.417.623a2.736 2.736 0 0 0 1.127-1.582l-.726-.19-.726-.19a1.236 1.236 0 0 1-.509.715l.417.624Zm.818-1.149.726.188 1.307-5.038-.726-.188-.726-.188-1.307 5.038.726.188Zm1.307-5.038.726.188a2.723 2.723 0 0 0-.183-1.867l-.675.325-.676.326c.126.261.155.559.082.84l.726.188Zm-.133-1.354.676-.325a2.723 2.723 0 0 0-1.347-1.306l-.305.685-.305.685c.265.118.48.326.606.587l.675-.326Zm-.976-.946.304-.685-5.959-2.646-.304.685-.304.685 5.959 2.646.304-.685Zm-5.959-2.646.305-.685a2.72 2.72 0 0 0-1.75-.16l.178.73.177.729a1.22 1.22 0 0 1 .785.071l.305-.685Zm-1.267-.115-.177-.73a2.723 2.723 0 0 0-1.482.945l.585.469.585.469a1.22 1.22 0 0 1 .666-.424l-.177-.73Z"/></svg>