<svg xmlns="http://www.w3.org/2000/svg" fill="none" viewBox="0 0 32 32"><path fill="currentColor" d="M2 2v-.75h-.75V2H2Zm17 0h.75v-.75H19V2Zm-7 6h.75v-.425l-.364-.218L12 8Zm0 22-.386.643 1.136.682V30H12ZM2 24h-.75v.425l.364.218L2 24Zm28-12 .53.53.53-.53-.53-.53L30 12ZM19 24v.75h.75V24H19Zm5.53-18.53L24 4.94 22.94 6l.53.53L24 6l.53-.53Zm-1.06 12-.53.53L24 19.06l.53-.53L24 18l-.53-.53ZM2 21.095h.75V2h-1.5v19.095H2ZM2 2v.75h17v-1.5H2V2Zm17 0h-.75v6h1.5V2H19ZM2 2l-.386.643 10 6L12 8l.386-.643-10-6L2 2Zm10 6h-.75v22h1.5V8H12Zm0 22 .386-.643-10-6L2 24l-.386.643 10 6L12 30ZM2 24h.75V2h-1.5v22H2Zm14-12v.75h14v-1.5H16V12Zm3 4h-.75v8h1.5v-8H19Zm0 8v-.75h-7v1.5h7V24Zm5-18-.53.53 6 6L30 12l.53-.53-6-6L24 6Zm6 6-.53-.53-6 6L24 18l.53.53 6-6L30 12Z"/></svg>