<svg xmlns="http://www.w3.org/2000/svg" fill="none" viewBox="0 0 32 32"><path fill="currentColor" d="M22 7h.75v-.002L22 7Zm-6-6 .002-.75h-.004L16 1Zm-6 6-.75-.002V7H10Zm-6 7v-.75h-.75V14H4Zm24 0h.75v-.75H28V14Zm0 17v.75h.75V31H28ZM4 31h-.75v.75H4V31Zm11.25-4v.75h1.5V27h-1.5ZM22 14h.75V7h-1.5v7H22Zm0-7 .75-.002a6.768 6.768 0 0 0-1.982-4.766l-.53.53-.53.53a5.268 5.268 0 0 1 1.542 3.71L22 7Zm-1.763-4.237.53-.53A6.768 6.768 0 0 0 16.003.25L16 1l-.002.75a5.268 5.268 0 0 1 3.71 1.543l.53-.53ZM16 1l-.002-.75a6.768 6.768 0 0 0-4.766 1.982l.53.53.53.53a5.268 5.268 0 0 1 3.71-1.542L16 1Zm-4.237 1.763-.53-.53A6.768 6.768 0 0 0 9.25 6.997L10 7l.75.002a5.268 5.268 0 0 1 1.543-3.71l-.53-.53ZM10 7h-.75v7h1.5V7H10Zm-6 7v.75h24v-1.5H4V14Zm24 0h-.75v17h1.5V14H28Zm0 17v-.75H4v1.5h24V31ZM4 31h.75V14h-1.5v17H4Zm12-7h-.75v3h1.5v-3H16Zm3-3h-.75A2.25 2.25 0 0 1 16 23.25v1.5A3.75 3.75 0 0 0 19.75 21H19Zm-3 3v-.75A2.25 2.25 0 0 1 13.75 21h-1.5A3.75 3.75 0 0 0 16 24.75V24Zm-3-3h.75A2.25 2.25 0 0 1 16 18.75v-1.5A3.75 3.75 0 0 0 12.25 21H13Zm3-3v.75A2.25 2.25 0 0 1 18.25 21h1.5A3.75 3.75 0 0 0 16 17.25V18Z"/></svg>