<svg xmlns="http://www.w3.org/2000/svg" fill="none" viewBox="0 0 32 32"><path fill="currentColor" d="m22 16 .53.53.53-.53-.53-.53L22 16Zm-6.47-7.53L15 7.94 13.94 9l.53.53L15 9l.53-.53Zm-1.06 14-.53.53L15 24.06l.53-.53L15 23l-.53-.53ZM15 .25h-.75v1.5H15V.25ZM30 1h.75V.25H30V1Zm0 30v.75h.75V31H30Zm-15-.75h-.75v1.5H15v-1.5ZM1 16v.75h21v-1.5H1V16Zm14-7-.53.53 7 7L22 16l.53-.53-7-7L15 9Zm7 7-.53-.53-7 7L15 23l.53.53 7-7L22 16ZM15 1v.75h15V.25H15V1Zm15 0h-.75v30h1.5V1H30Zm0 30v-.75H15v1.5h15V31Z"/></svg>