<svg xmlns="http://www.w3.org/2000/svg" fill="none" viewBox="0 0 32 32"><path fill="currentColor" d="M8 30.25h-.75v1.5H8v-1.5Zm16 1.5h.75v-1.5H24v1.5ZM16.75 25v-.75h-1.5V25h1.5Zm-1.5 6v.75h1.5V31h-1.5ZM16 1V.25 1ZM9 8h-.75H9Zm0 6h.75H9ZM3.47 27.47l-.53.53L4 29.06l.53-.53L4 28l-.53-.53ZM28.53 4.53l.53-.53L28 2.94l-.53.53L28 4l.53.53ZM8 31v.75h16v-1.5H8V31Zm8-6h-.75v6h1.5v-6H16Zm7-16h.75V8h-1.5v1H23Zm0-1h.75a7.75 7.75 0 0 0-2.27-5.48l-.53.53-.53.53A6.25 6.25 0 0 1 22.25 8H23Zm-2.05-4.95.53-.53A7.75 7.75 0 0 0 16 .25v1.5a6.25 6.25 0 0 1 4.42 1.83l.53-.53ZM16 1V.25a7.75 7.75 0 0 0-5.48 2.27l.53.53.53.53A6.25 6.25 0 0 1 16 1.75V1Zm-4.95 2.05-.53-.53A7.75 7.75 0 0 0 8.25 8h1.5a6.25 6.25 0 0 1 1.83-4.42l-.53-.53ZM9 8h-.75v6h1.5V8H9Zm0 6h-.75c0 1.284.319 2.548.928 3.678l.66-.357.66-.356A6.241 6.241 0 0 1 9.75 14H9Zm.838 3.322-.66.356a7.741 7.741 0 0 0 2.564 2.795l.412-.627.412-.627a6.242 6.242 0 0 1-2.068-2.254l-.66.357ZM16 21v.75a7.75 7.75 0 0 0 5.48-2.27l-.53-.53-.53-.53A6.25 6.25 0 0 1 16 20.25V21Zm4.95-2.05.53.53A7.75 7.75 0 0 0 23.75 14h-1.5a6.25 6.25 0 0 1-1.83 4.42l.53.53ZM5 14h-.75c0 1.798.414 3.573 1.21 5.185l.672-.331.673-.332A10.223 10.223 0 0 1 5.75 14H5Zm1.132 4.854-.673.331a11.723 11.723 0 0 0 3.378 4.116l.457-.595.457-.595a10.222 10.222 0 0 1-2.946-3.59l-.673.333ZM12 24.24l-.274.698c1.78.7 3.705.953 5.606.74l-.084-.746-.084-.745a10.233 10.233 0 0 1-4.89-.645L12 24.24Zm5.248.692.084.745c1.9-.214 3.72-.89 5.3-1.969l-.423-.62-.422-.619a10.232 10.232 0 0 1-4.623 1.717l.084.746Zm4.961-1.843.423.62a11.734 11.734 0 0 0 3.764-4.22l-.663-.35-.663-.35a10.233 10.233 0 0 1-3.284 3.68l.423.62Zm3.524-3.95.663.35a11.733 11.733 0 0 0 1.354-5.49L27 14l-.75.001a10.233 10.233 0 0 1-1.18 4.788l.663.35ZM4 28l.53.53 24-24L28 4l-.53-.53-24 24L4 28Z"/></svg>