<svg xmlns="http://www.w3.org/2000/svg" fill="none" viewBox="0 0 32 32"><path stroke="currentColor" stroke-miterlimit="10" vector-effect="non-scaling-stroke" stroke-width="1.5" d="M24 25h7v-2.162a2.985 2.985 0 0 0-1.871-2.781A15.237 15.237 0 0 0 23.5 19c-2.4 0-4.329.539-5.629 1.057-.536.214-.98.57-1.303 1.018M19 9.5c0 2.485 2.015 5.5 4.5 5.5S28 11.985 28 9.5a4.5 4.5 0 1 0-9 0ZM20 28H1v-2.815c0-1.526.861-2.923 2.233-3.591C4.834 20.814 7.277 20 10.5 20c3.223 0 5.666.814 7.267 1.594A3.987 3.987 0 0 1 20 25.185V28ZM16 9.5c0 3.038-2.462 6.5-5.5 6.5S5 12.538 5 9.5a5.5 5.5 0 1 1 11 0Z"/></svg>