<svg xmlns="http://www.w3.org/2000/svg" fill="none" viewBox="0 0 32 32"><path stroke="currentColor" stroke-linecap="square" stroke-miterlimit="10" vector-effect="non-scaling-stroke" stroke-width="1.5" d="m20.693 19.293-2.282 2.853a24.077 24.077 0 0 1-8.557-8.557l2.853-2.282a1.94 1.94 0 0 0 .56-2.3l-2.6-5.855a1.939 1.939 0 0 0-2.26-1.09l-4.95 1.284A1.95 1.95 0 0 0 2.018 5.5 28.76 28.76 0 0 0 26.5 29.982a1.95 1.95 0 0 0 2.153-1.439l1.284-4.95a1.94 1.94 0 0 0-1.089-2.258l-5.855-2.6a1.938 1.938 0 0 0-2.3.558Z"/></svg>