<svg xmlns="http://www.w3.org/2000/svg" fill="none" viewBox="0 0 32 32"><path stroke="currentColor" stroke-linecap="square" stroke-miterlimit="10" vector-effect="non-scaling-stroke" stroke-width="1.5" d="M13.586 18.414a24.089 24.089 0 0 1-3.732-4.825l2.853-2.282a1.94 1.94 0 0 0 .56-2.3l-2.6-5.855a1.939 1.939 0 0 0-2.26-1.09l-4.95 1.284A1.95 1.95 0 0 0 2.018 5.5 28.76 28.76 0 0 0 26.5 29.982a1.95 1.95 0 0 0 2.153-1.439l1.284-4.95a1.94 1.94 0 0 0-1.089-2.258l-5.855-2.6a1.939 1.939 0 0 0-2.3.56l-2.282 2.853A23.854 23.854 0 0 1 16.643 21M2 30 30 2"/></svg>