<svg xmlns="http://www.w3.org/2000/svg" fill="none" viewBox="0 0 32 32"><path fill="currentColor" d="m1.415 17.182.596-.455-.004-.006-.592.461Zm-.008-2.37.595.457.001-.002-.596-.455ZM16.006 6l.017-.75h-.017V6Zm11.498 4.368-.555-.504-1.009 1.11.556.504.504-.555.504-.555Zm3.087 4.442-.593.459.001.002.592-.461Zm0 2.38-.592-.46-.002.002.594.458ZM16.006 26l-.003.75h.003V26Zm-3.769-1.37-.711-.238-.475 1.423.712.237.237-.711.237-.712Zm10.426-9.754-.125-.74-1.479.249.124.74.74-.125.74-.124ZM16.006 22v.75V22Zm-.882-.824-.74-.124-.248 1.48.74.124.124-.74.124-.74ZM1.47 29.47.94 30 2 31.06l.53-.53L2 30l-.53-.53ZM30.53 2.53l.53-.53L30 .94l-.53.53L30 2l.53.53ZM8.373 23.627l.408-.63a26.91 26.91 0 0 1-6.77-6.27l-.596.455-.596.455a28.41 28.41 0 0 0 7.146 6.62l.408-.63Zm-6.958-6.445.592-.46a1.188 1.188 0 0 1-.25-.726l-.75.002-.75.003c.001.595.2 1.172.566 1.642l.592-.461Zm-.409-1.184.75-.002c0-.263.086-.519.246-.727l-.595-.457-.595-.457a2.688 2.688 0 0 0-.556 1.646l.75-.003Zm.401-1.186.596.455c.988-1.295 2.81-3.439 5.242-5.254C9.68 8.197 12.67 6.75 16.006 6.75v-1.5c-3.777 0-7.076 1.634-9.658 3.561-2.584 1.929-4.504 4.19-5.537 5.546l.596.455ZM16.006 6l-.017.75c2.573.059 5.078.837 7.232 2.246l.411-.628.41-.628a15.295 15.295 0 0 0-8.019-2.49l-.017.75ZM27 10.923l-.504.555a29.505 29.505 0 0 1 3.502 3.79l.593-.458.593-.459a31.016 31.016 0 0 0-3.68-3.983l-.504.555Zm3.591 3.887-.592.46c.163.21.25.466.25.73h1.5c0-.598-.199-1.179-.566-1.65l-.592.46ZM31 16h-.75c0 .264-.088.52-.25.73l.591.46.592.46A2.688 2.688 0 0 0 31.75 16H31Zm-.409 1.19-.594-.459c-1.001 1.297-2.845 3.442-5.282 5.257-2.442 1.818-5.42 3.262-8.709 3.262v1.5c3.731 0 7.02-1.635 9.604-3.559 2.588-1.927 4.527-4.187 5.575-5.543l-.594-.458ZM16.006 26l.003-.75a12.092 12.092 0 0 1-3.772-.62l-.237.71-.237.711c1.367.456 2.798.692 4.24.698l.003-.75Zm-4.242-5.757.53-.53A5.25 5.25 0 0 1 10.754 16h-1.5a6.75 6.75 0 0 0 1.98 4.772l.53-.53Zm-1.76-4.242h.75a5.25 5.25 0 0 1 1.537-3.713l-.53-.53-.531-.53A6.75 6.75 0 0 0 9.255 16h.75Zm1.757-4.244.53.53a5.25 5.25 0 0 1 3.712-1.539v-1.5a6.75 6.75 0 0 0-4.773 1.98l.53.53Zm4.242-1.759v.75a5.25 5.25 0 0 1 3.713 1.537l.53-.531.53-.53a6.75 6.75 0 0 0-4.774-1.976v.75ZM21.922 15l-.74.124a5.256 5.256 0 0 1-.114 2.26l.723.2.723.197c.26-.946.31-1.937.148-2.905l-.74.124Zm-.13 2.583-.724-.198a5.255 5.255 0 0 1-1.055 2.002l.573.485.573.484a6.754 6.754 0 0 0 1.355-2.575l-.723-.198Zm-1.206 2.289-.573-.485a5.255 5.255 0 0 1-1.799 1.374l.316.68.316.68a6.755 6.755 0 0 0 2.313-1.765l-.573-.484Zm-2.056 1.569-.316-.68a5.254 5.254 0 0 1-2.21.489l.001.75v.75c.982 0 1.951-.215 2.841-.629l-.316-.68ZM16.006 22v-.75a5.33 5.33 0 0 1-.882-.074l-.124.74-.124.74c.373.063.751.094 1.13.094V22ZM2 30l.53.53 28-28L30 2l-.53-.53-28 28L2 30Z"/></svg>