<svg xmlns="http://www.w3.org/2000/svg" fill="none" viewBox="0 0 32 32"><path fill="currentColor" d="m30.636 2.097.097-.744-1.488-.193-.096.743.743.097.744.097Zm-1.82 8.195-.097.744.743.097.097-.744-.744-.097Zm-8.196-1.82-.744-.097-.193 1.488.744.096.096-.744.097-.743ZM1.364 29.903l-.097.744 1.488.193.096-.743L2.108 30l-.744-.097Zm1.82-8.195.097-.744-.744-.097-.096.744.744.097Zm8.196 1.82.744.097.193-1.488-.744-.096-.096.744-.097.743ZM2 16h.75C2.75 8.66 8.66 2.75 16 2.75v-1.5A14.722 14.722 0 0 0 1.25 16H2ZM16 2v.75c5.302 0 9.988 3.162 12.022 7.74l.686-.305.685-.305C27.12 4.765 21.898 1.25 16 1.25V2Zm14 14h-.75c0 7.34-5.91 13.25-13.25 13.25v1.5c8.168 0 14.75-6.582 14.75-14.75H30ZM16 30v-.75c-5.302 0-9.988-3.162-12.022-7.74l-.686.305-.685.305C4.88 27.235 10.102 30.75 16 30.75V30ZM29.892 2l-.743-.097-1.077 8.293.743.096.744.097 1.077-8.292L29.892 2Zm-1.077 8.292.097-.743-8.292-1.077-.097.743-.096.744 8.292 1.077.096-.744ZM2.108 30l.743.097 1.077-8.293-.743-.096-.744-.097-1.077 8.292.744.097Zm1.077-8.292-.097.743 8.292 1.077.097-.743.096-.744-8.292-1.077-.096.744Z"/></svg>