<svg xmlns="http://www.w3.org/2000/svg" fill="none" viewBox="0 0 32 32"><g stroke="currentColor" stroke-linecap="square" stroke-miterlimit="10" vector-effect="non-scaling-stroke" stroke-width="1.5"><path d="M16 20a4 4 0 1 0 0-8 4 4 0 0 0 0 8Z"/><path d="M27 16c0-.73-.073-1.459-.217-2.175L30.49 11.1l-3-5.2-4.227 1.854a10.955 10.955 0 0 0-3.754-2.172L19 1h-6l-.509 4.582a10.955 10.955 0 0 0-3.754 2.172L4.51 5.9l-3 5.2 3.707 2.727a11.01 11.01 0 0 0 0 4.35L1.51 20.9l3 5.2 4.227-1.852a10.956 10.956 0 0 0 3.754 2.172L13 31h6l.509-4.582a10.956 10.956 0 0 0 3.754-2.172L27.49 26.1l3-5.2-3.707-2.727A11.05 11.05 0 0 0 27 16Z"/></g></svg>