<svg xmlns="http://www.w3.org/2000/svg" fill="none" viewBox="0 0 32 32"><path fill="currentColor" d="M25.75 19v-.75h-1.5V19h1.5ZM25 30v.75h.75V30H25ZM2 30h-.75v.75H2V30ZM2 7v-.75h-.75V7H2Zm8 .75h.75v-1.5H10v1.5ZM13 18h-.75.75ZM23 8v-.75V8Zm7 0 .53.53.53-.53-.53-.53L30 8Zm-6.53 5.47-.53.53L24 15.06l.53-.53L24 14l-.53-.53Zm1.06-12L24 .94 22.94 2l.53.53L24 2l.53-.53ZM25 19h-.75v11h1.5V19H25Zm0 11v-.75H2v1.5h23V30ZM2 30h.75V7h-1.5v23H2ZM2 7v.75h8v-1.5H2V7Zm11 13h.75v-2h-1.5v2H13Zm0-2h.75a9.25 9.25 0 0 1 2.71-6.54l-.531-.531-.53-.53A10.75 10.75 0 0 0 12.25 18H13Zm2.929-7.071.53.53A9.25 9.25 0 0 1 23 8.75v-1.5a10.75 10.75 0 0 0-7.601 3.149l.53.53ZM23 8v.75h7v-1.5h-7V8Zm1 6 .53.53 6-6L30 8l-.53-.53-6 6L24 14Zm6-6 .53-.53-6-6L24 2l-.53.53 6 6L30 8Z"/></svg>