<svg xmlns="http://www.w3.org/2000/svg" fill="none" viewBox="0 0 32 32"><path fill="currentColor" d="m16 2.667.53-.53-.53-.531-.53.53.53.53Zm-5.197 4.136-.53.53 1.06 1.061.53-.53-.53-.53-.53-.531Zm9.333 1.06.53.53 1.061-1.06-.53-.53-.53.53-.53.53Zm2.739 2.387h-.75v1.5h.75v-1.5ZM27 11h.75v-.75H27V11Zm0 18v.75h.75V29H27ZM5 29h-.75v.75H5V29Zm0-18v-.75h-.75V11H5Zm4.125.75h.75v-1.5h-.75v1.5ZM16 2.667h-.75v18.666h1.5V2.667H16Zm-4.667 4.666.53.53 4.667-4.666-.53-.53-.53-.53-4.667 4.666.53.53ZM16 2.667l-.53.53 4.666 4.667.53-.53.531-.531-4.667-4.667-.53.53ZM22.875 11v.75H27v-1.5h-4.125V11ZM27 29v-.75H5v1.5h22V29ZM5 11v.75h4.125v-1.5H5V11Zm0 18h.75V11h-1.5v18H5Zm22-18h-.75v18h1.5V11H27Z"/></svg>