<svg xmlns="http://www.w3.org/2000/svg" fill="none" viewBox="0 0 32 32"><path stroke="currentColor" stroke-linecap="square" stroke-miterlimit="10" vector-effect="non-scaling-stroke" stroke-width="1.5" d="M5.56 18.35v10.94h20.88V18.35M13.15 29.29v-7.6h5.7v7.6m11.36-18.04a4.276 4.276 0 0 1-4.25 3.8 4.363 4.363 0 0 1-3.32-1.61 4.223 4.223 0 0 1-3.32 1.61A4.363 4.363 0 0 1 16 13.44a4.3 4.3 0 0 1-3.32 1.61c-1.3 0-2.52-.6-3.32-1.61-.82 1-2.03 1.58-3.32 1.61-2.18 0-4-1.63-4.25-3.8l5.67-8.54h17.08l5.67 8.54Z"/></svg>