<svg xmlns="http://www.w3.org/2000/svg" fill="none" viewBox="0 0 32 32"><path fill="currentColor" d="M26.75 15v-.75h-1.5V15h1.5ZM26 30l-.393.639 1.143.703V30H26Zm-9.12-6.493-.639-.393-.786 1.278.639.393.393-.639.393-.639ZM2 22h-.75v.75H2V22Zm0-12v-.75h-.75V10H2Zm11 0v.75h.212l.181-.111L13 10Zm13-8h.75V.658l-1.143.703L26 2Zm4.53 3.53.53-.53L30 3.94l-.53.53L30 5l.53.53ZM5.47 28.47l-.53.53L6 30.06l.53-.53L6 29l-.53-.53ZM26 15h-.75v15h1.5V15H26Zm0 15 .393-.639-9.513-5.854-.393.639-.393.639 9.513 5.854L26 30Zm-13-8v-.75H2v1.5h11V22ZM2 22h.75V10h-1.5v12H2Zm0-12v.75h11v-1.5H2V10Zm11 0 .393.639 13-8L26 2l-.393-.639-13 8L13 10Zm13-8h-.75v7h1.5V2H26Zm4 3-.53-.53-24 24L6 29l.53.53 24-24L30 5Z"/></svg>