<svg xmlns="http://www.w3.org/2000/svg" fill="none" viewBox="0 0 32 32"><path fill="currentColor" d="m16 2 .53-.53L16 .94l-.53.53L16 2Zm7.47 8.53.53.53L25.06 10l-.53-.53L24 10l-.53.53Zm-16-1.06-.53.53L8 11.06l.53-.53L8 10l-.53-.53ZM2.75 23v-.75h-1.5V23h1.5ZM2 30h-.75v.75H2V30Zm28 0v.75h.75V30H30Zm.75-7v-.75h-1.5V23h1.5ZM16 24h.75V2h-1.5v22H16Zm8-14 .53-.53-8-8L16 2l-.53.53 8 8L24 10Zm-8-8-.53-.53-8 8L8 10l.53.53 8-8L16 2ZM2 23h-.75v7h1.5v-7H2Zm0 7v.75h28v-1.5H2V30Zm28 0h.75v-7h-1.5v7H30Z"/></svg>