<svg xmlns="http://www.w3.org/2000/svg" fill="none" viewBox="0 0 32 32"><path fill="currentColor" d="M9.242 26.25h-.75v1.5h.75v-1.5ZM19 27v.75V27Zm3-3h.75H22Zm0-4 .305-.685-1.055-.47V20H22Zm9 4-.305.685 1.055.47V24H31Zm0-16h.75V6.846l-1.055.469L31 8Zm-5.269 1.52-.685.305.61 1.37.685-.304-.305-.685-.305-.685ZM22 8h.75H22ZM1 8H.25 1Zm0 16H.25 1Zm3 3v.75V27ZM29.53 3.53l.53-.53L29 1.94l-.53.53L29 3l.53.53ZM2.47 28.47l-.53.53L3 30.06l.53-.53L3 29l-.53-.53ZM8 10.5h-.75a.75.75 0 0 1-.75.75v1.5a2.25 2.25 0 0 0 2.25-2.25H8ZM6.5 12v-.75a.75.75 0 0 1-.75-.75h-1.5a2.25 2.25 0 0 0 2.25 2.25V12ZM5 10.5h.75a.75.75 0 0 1 .75-.75v-1.5a2.25 2.25 0 0 0-2.25 2.25H5ZM6.5 9v.75a.75.75 0 0 1 .75.75h1.5A2.25 2.25 0 0 0 6.5 8.25V9Zm2.742 18v.75H19v-1.5H9.242V27ZM19 27v.75a3.75 3.75 0 0 0 2.652-1.098l-.53-.53-.531-.531A2.25 2.25 0 0 1 19 26.25V27Zm2.121-.879.53.53A3.75 3.75 0 0 0 22.75 24h-1.5a2.25 2.25 0 0 1-.659 1.591l.53.53ZM22 24h.75v-4h-1.5v4H22Zm0-4-.305.685 9 4L31 24l.305-.685-9-4L22 20Zm9 4h.75V8h-1.5v16H31Zm0-16-.305-.685-4.964 2.206.305.685.305.685 4.964-2.206L31 8Zm-9 2h.75V8h-1.5v2H22Zm0-2h.75a3.75 3.75 0 0 0-1.098-2.652l-.53.53-.531.531c.422.422.659.994.659 1.591H22Zm-.879-2.121.53-.53A3.75 3.75 0 0 0 19 4.25v1.5a2.25 2.25 0 0 1 1.591.659l.53-.53ZM19 5v-.75H4v1.5h15V5ZM4 5v-.75a3.75 3.75 0 0 0-2.652 1.098l.53.53.531.531A2.25 2.25 0 0 1 4 5.75V5Zm-2.121.879-.53-.53A3.75 3.75 0 0 0 .25 8h1.5c0-.597.237-1.169.659-1.591l-.53-.53ZM1 8H.25v16h1.5V8H1Zm0 16H.25a3.75 3.75 0 0 0 1.098 2.652l.53-.53.531-.531A2.25 2.25 0 0 1 1.75 24H1Zm.879 2.121-.53.53A3.75 3.75 0 0 0 4 27.75v-1.5a2.25 2.25 0 0 1-1.591-.659l-.53.53ZM4 27v.75h1v-1.5H4V27ZM29 3l-.53-.53-26 26L3 29l.53.53 26-26L29 3ZM6.5 11.2v.75a1.5 1.5 0 0 0 1.5-1.5H6.5v.75Zm.75-.75H8a1.5 1.5 0 0 0-1.5-1.5v1.5h.75ZM6.5 9.7v-.75a1.5 1.5 0 0 0-1.5 1.5h1.5V9.7Zm-.75.75H5a1.5 1.5 0 0 0 1.5 1.5v-1.5h-.75Z"/></svg>